<?xml version="1.0" standalone="no"?><!DOCTYPE svg PUBLIC "-//W3C//DTD SVG 1.1//EN" "http://www.w3.org/Graphics/SVG/1.1/DTD/svg11.dtd" ><svg xmlns="http://www.w3.org/2000/svg"><metadata></metadata><defs><font id="2.071;TOKO;PlusJakartaSans-SemiBoldItalic" horiz-adv-x="1486"><font-face font-family="Plus Jakarta Sans SemiBold" font-weight="600" font-stretch="normal" units-per-em="1000" panose-1="0 0 0 0 0 0 0 0 0 0" ascent="1038" descent="-222" x-height="0" bbox="-203 -251 1407 1242" underline-thickness="40" underline-position="-155" unicode-range="U+000d-fb02" /><missing-glyph horiz-adv-x="745" d="M127 675 l0 70 l520 0 l0 -70 l-520 0 ZM127 0 l0 70 l520 0 l0 -70 l-520 0 ZM127 225 l0 70 l520 0 l0 -70 l-520 0 ZM127 450 l0 70 l520 0 l0 -70 l-520 0 Z" /><glyph glyph-name="A" unicode="A" d="M-27 0 l366 745 l146 0 l158 -745 l-122 0 l-33 167 l-302 0 l-81 -167 l-132 0 ZM235 272 l232 0 l-78 389 l33 -4 l-187 -385 Z" /><glyph glyph-name="AE" unicode="Æ" d="M-27 0 l366 745 l683 0 l-14 -105 l-373 0 l-30 -214 l353 0 l-15 -105 l-353 0 l-30 -216 l373 0 l-15 -105 l-490 0 l23 167 l-265 0 l-80 -167 l-133 0 ZM236 272 l230 0 l51 368 l-103 0 l-178 -368 Z" /><glyph glyph-name="B" unicode="B" d="M40 0 l104 745 l301 0 q97 0 151.5 -48 q54.5 -48 54.5 -132 q0 -40 -13 -75 q-13 -35 -39 -62 q-26 -27 -63 -46 l-7 40 q63 -26 91 -72 q28 -46 28 -100 q0 -76 -34.5 -132 q-34.5 -56 -98 -87 q-63.5 -31 -148.5 -31 l-327 0 ZM172 105 l215 0 q43 0 75 17 q32 17 50 47.5 q18 30.5 18 70.5 q0 47 -31.5 75.5 q-31.5 28.5 -85.5 28.5 l-208 0 l-33 -239 ZM220 448 l196 0 q35 0 61 14.5 q26 14.5 41 40 q15 25.5 15 57.5 q0 39 -26 61 q-26 22 -70 22 l-190 0 l-27 -195 Z" /><glyph glyph-name="C" unicode="C" d="M415 -12 q-73 0 -136 25.5 q-63 25.5 -110 72.5 q-47 47 -73 113 q-26 66 -26 147 q0 85 29.5 159.5 q29.5 74.5 82.5 131 q53 56.5 124.5 88.5 q71.5 32 156.5 32 q80 0 141.5 -27.5 q61.5 -27.5 102 -71.5 q40.5 -44 55.5 -95 l-109 -46 q-20 59 -69 96 q-49 37 -124 37 q-59 0 -108.5 -23 q-49.5 -23 -86.5 -64 q-37 -41 -57 -96.5 q-20 -55.5 -20 -121.5 q0 -75 28.5 -131.5 q28.5 -56.5 79.5 -87 q51 -30.5 119 -30.5 q78 0 133.5 38 q55.5 38 83.5 97 l104 -52 q-22 -51 -68 -94.5 q-46 -43.5 -110 -70 q-64 -26.5 -143 -26.5 Z" /><glyph glyph-name="D" unicode="D" d="M40 0 l104 745 l231 0 q105 0 182 -42.5 q77 -42.5 120 -117.5 q43 -75 43 -173 q0 -90 -29 -165 q-29 -75 -83 -130.5 q-54 -55.5 -130 -86 q-76 -30.5 -170 -30.5 l-268 0 ZM172 105 l138 0 q64 0 117 22 q53 22 91.5 62.5 q38.5 40.5 60 95.5 q21.5 55 21.5 122 q0 72 -28.5 124.5 q-28.5 52.5 -81 80.5 q-52.5 28 -124.5 28 l-119 0 l-75 -535 Z" /><glyph glyph-name="Dcroat" unicode="&#x110;" d="M27 323 l14 100 l333 0 l-14 -100 l-333 0 ZM40 0 l104 745 l231 0 q105 0 182 -42.5 q77 -42.5 120 -117.5 q43 -75 43 -173 q0 -90 -29 -165 q-29 -75 -83 -130.5 q-54 -55.5 -130 -86 q-76 -30.5 -170 -30.5 l-268 0 ZM172 105 l138 0 q64 0 117 22 q53 22 91.5 62.5 q38.5 40.5 60 95.5 q21.5 55 21.5 122 q0 72 -28.5 124.5 q-28.5 52.5 -81 80.5 q-52.5 28 -124.5 28 l-119 0 l-75 -535 Z" /><glyph glyph-name="Eth" unicode="Ð" d="M27 323 l14 100 l333 0 l-14 -100 l-333 0 ZM40 0 l104 745 l231 0 q105 0 182 -42.5 q77 -42.5 120 -117.5 q43 -75 43 -173 q0 -90 -29 -165 q-29 -75 -83 -130.5 q-54 -55.5 -130 -86 q-76 -30.5 -170 -30.5 l-268 0 ZM172 105 l138 0 q64 0 117 22 q53 22 91.5 62.5 q38.5 40.5 60 95.5 q21.5 55 21.5 122 q0 72 -28.5 124.5 q-28.5 52.5 -81 80.5 q-52.5 28 -124.5 28 l-119 0 l-75 -535 Z" /><glyph glyph-name="E" unicode="E" d="M40 0 l104 745 l490 0 l-14 -105 l-373 0 l-30 -214 l353 0 l-15 -105 l-353 0 l-30 -216 l373 0 l-15 -105 l-490 0 Z" /><glyph glyph-name="uni018F" unicode="&#x18f;" d="M392 -12 q-95 0 -168.5 41 q-73.5 41 -116 114.5 q-42.5 73.5 -42.5 170.5 q0 36 4.5 59.5 q4.5 23.5 7.5 35.5 l609 0 l-6 -98 l-538 0 l54 37 q-1 -9 -2.5 -24 q-1.5 -15 -1.5 -28 q0 -57 26 -102.5 q26 -45.5 73 -71.5 q47 -26 111 -26 q52 0 98 19 q46 19 81 55.5 q35 36.5 56 87.5 q21 51 23 115 q9 79 -19.5 141.5 q-28.5 62.5 -85 99 q-56.5 36.5 -134.5 36.5 q-69 0 -126.5 -31 q-57.5 -31 -92.5 -87 l-96 48 q29 54 78 93.5 q49 39.5 112 61.5 q63 22 134 22 q77 0 141 -27 q64 -27 111 -75.5 q47 -48.5 72 -114.5 q25 -66 25 -144 q0 -84 -29 -158 q-29 -74 -81 -130 q-52 -56 -122.5 -88 q-70.5 -32 -154.5 -32 Z" /><glyph glyph-name="F" unicode="F" d="M40 0 l104 745 l485 0 l-15 -105 l-367 0 l-32 -224 l328 0 l-15 -105 l-327 0 l-44 -311 l-117 0 Z" /><glyph glyph-name="G" unicode="G" d="M413 -12 q-72 0 -134 25 q-62 25 -109 72 q-47 47 -73.5 113 q-26.5 66 -26.5 147 q0 87 30.5 162 q30.5 75 84.5 131 q54 56 126 87.5 q72 31.5 155 31.5 q78 0 139 -27 q61 -27 101.5 -70.5 q40.5 -43.5 55.5 -94.5 l-108 -51 q-19 61 -69.5 98.5 q-50.5 37.5 -126.5 37.5 q-59 0 -108.5 -23 q-49.5 -23 -86 -64 q-36.5 -41 -56 -95.5 q-19.5 -54.5 -19.5 -117.5 q0 -77 29.5 -134.5 q29.5 -57.5 82.5 -88.5 q53 -31 123 -31 q63 0 114.5 25.5 q51.5 25.5 84.5 72 q33 46.5 40 108.5 l7 51 l49 -48 l-283 0 l9 100 l346 0 l-7 -80 q-8 -79 -40 -141.5 q-32 -62.5 -82.5 -106 q-50.5 -43.5 -114 -66.5 q-63.5 -23 -133.5 -23 Z" /><glyph glyph-name="H" unicode="H" d="M40 0 l104 745 l117 0 l-46 -328 l345 0 l46 328 l118 0 l-104 -745 l-118 0 l44 312 l-345 0 l-44 -312 l-117 0 Z" /><glyph glyph-name="Hbar" unicode="&#x126;" d="M34 544 l14 103 l743 0 l-14 -103 l-743 0 ZM40 0 l104 745 l117 0 l-46 -328 l345 0 l46 328 l118 0 l-104 -745 l-118 0 l44 312 l-345 0 l-44 -312 l-117 0 Z" /><glyph glyph-name="I" unicode="I" d="M40 0 l104 745 l117 0 l-104 -745 l-117 0 Z" /><glyph glyph-name="J" unicode="J" d="M7 0 l15 110 l37 0 q52 0 88 29.5 q36 29.5 42 79.5 l74 526 l118 0 l-76 -537 q-8 -60 -40 -107 q-32 -47 -84 -74 q-52 -27 -122 -27 l-52 0 Z" /><glyph glyph-name="K" unicode="K" d="M40 0 l104 745 l117 0 l-56 -404 l-31 12 l392 392 l148 0 l-347 -349 l19 84 l236 -480 l-130 0 l-173 347 l-132 -132 l-30 -215 l-117 0 Z" /><glyph glyph-name="L" unicode="L" d="M40 0 l104 745 l117 0 l-89 -640 l322 0 l-14 -105 l-440 0 Z" /><glyph glyph-name="Ldot" unicode="&#x13f;" d="M371 305 q-28 0 -48 20 q-20 20 -20 48 q0 28 20 47.5 q20 19.5 48 19.5 q28 0 47.5 -19.5 q19.5 -19.5 19.5 -47.5 q0 -29 -19.5 -48.5 q-19.5 -19.5 -47.5 -19.5 ZM40 0 l104 745 l117 0 l-89 -640 l322 0 l-14 -105 l-440 0 Z" /><glyph glyph-name="Lslash" unicode="&#x141;" d="M31 217 l16 113 l365 200 l-16 -113 l-365 -200 ZM111 0 l104 745 l118 0 l-90 -640 l323 0 l-15 -105 l-440 0 Z" /><glyph glyph-name="M" unicode="M" d="M40 0 l104 745 l110 0 l224 -395 l-69 3 l342 392 l113 0 l-104 -745 l-118 0 l84 603 l38 -13 l-329 -380 l-12 0 l-225 401 l43 -8 l-84 -603 l-117 0 Z" /><glyph glyph-name="N" unicode="N" d="M40 0 l104 745 l94 0 l331 -577 l-40 -7 l82 584 l118 0 l-104 -745 l-95 0 l-327 581 l36 8 l-82 -589 l-117 0 Z" /><glyph glyph-name="Eng" unicode="&#x14a;" d="M398 -221 q-11 0 -24.5 1.5 q-13.5 1.5 -21.5 3.5 l14 101 q18 -3 37 -3 q42 0 68.5 20.5 q26.5 20.5 32.5 62.5 l18 115 l17 -97 l-333 593 l32 7 l-81 -583 l-117 0 l104 745 l94 0 l325 -569 l-33 -6 l81 575 l118 0 l-109 -780 q-9 -59 -39.5 -101 q-30.5 -42 -77.5 -63.5 q-47 -21.5 -105 -21.5 Z" /><glyph glyph-name="O" unicode="O" d="M432 -12 q-77 0 -143 26.5 q-66 26.5 -115 74.5 q-49 48 -76.5 114 q-27.5 66 -27.5 144 q0 86 31 160.5 q31 74.5 86.5 130.5 q55.5 56 129.5 87.5 q74 31.5 161 31.5 q78 0 144 -26.5 q66 -26.5 115 -74.5 q49 -48 76 -113.5 q27 -65.5 27 -143.5 q0 -86 -31 -160.5 q-31 -74.5 -87 -131 q-56 -56.5 -130 -88 q-74 -31.5 -160 -31.5 ZM433 96 q61 0 114 23.5 q53 23.5 92.5 65 q39.5 41.5 61.5 96 q22 54.5 22 117.5 q0 73 -31 129.5 q-31 56.5 -86 89.5 q-55 33 -128 33 q-62 0 -114.5 -23.5 q-52.5 -23.5 -92 -65 q-39.5 -41.5 -61.5 -96 q-22 -54.5 -22 -117.5 q0 -72 31 -129 q31 -57 86 -90 q55 -33 128 -33 Z" /><glyph glyph-name="Ohorn" unicode="&#x1a0;" d="M432 -12 q-77 0 -143 26.5 q-66 26.5 -115 74.5 q-49 48 -76.5 114 q-27.5 66 -27.5 144 q0 86 31 160.5 q31 74.5 86.5 130.5 q55.5 56 129.5 87.5 q74 31.5 161 31.5 l208 0 q12 0 25 4.5 q13 4.5 22.5 18.5 q9.5 14 9.5 42 q0 15 -3.5 31.5 q-3.5 16.5 -8.5 32.5 l109 0 q6 -16 10 -32.5 q4 -16.5 4 -32.5 q0 -70 -31.5 -111 q-31.5 -41 -85.5 -41 l-60 0 l24 19 q65 -48 102 -122 q37 -74 37 -167 q0 -86 -31 -160.5 q-31 -74.5 -87 -131 q-56 -56.5 -130 -88 q-74 -31.5 -160 -31.5 ZM433 96 q61 0 114 23.5 q53 23.5 92.5 65 q39.5 41.5 61.5 96 q22 54.5 22 117.5 q0 73 -31 129.5 q-31 56.5 -86 89.5 q-55 33 -128 33 q-62 0 -114.5 -23.5 q-52.5 -23.5 -92 -65 q-39.5 -41.5 -61.5 -96 q-22 -54.5 -22 -117.5 q0 -72 31 -129 q31 -57 86 -90 q55 -33 128 -33 Z" /><glyph glyph-name="Oslash" unicode="Ø" d="M31 0 l714 745 l136 0 l-714 -745 l-136 0 ZM432 -12 q-77 0 -143 26.5 q-66 26.5 -115 74.5 q-49 48 -76.5 114 q-27.5 66 -27.5 144 q0 86 31 160.5 q31 74.5 86.5 130.5 q55.5 56 129.5 87.5 q74 31.5 161 31.5 q78 0 144 -26.5 q66 -26.5 115 -74.5 q49 -48 76 -113.5 q27 -65.5 27 -143.5 q0 -86 -31 -160.5 q-31 -74.5 -87 -131 q-56 -56.5 -130 -88 q-74 -31.5 -160 -31.5 ZM433 96 q61 0 114 23.5 q53 23.5 92.5 65 q39.5 41.5 61.5 96 q22 54.5 22 117.5 q0 73 -31 129.5 q-31 56.5 -86 89.5 q-55 33 -128 33 q-62 0 -114.5 -23.5 q-52.5 -23.5 -92 -65 q-39.5 -41.5 -61.5 -96 q-22 -54.5 -22 -117.5 q0 -72 31 -129 q31 -57 86 -90 q55 -33 128 -33 Z" /><glyph glyph-name="OE" unicode="&#x152;" d="M432 -12 q-77 0 -143 26.5 q-66 26.5 -115 74.5 q-49 48 -76.5 114 q-27.5 66 -27.5 144 q0 86 31 160.5 q31 74.5 86.5 130.5 q55.5 56 129.5 87.5 q74 31.5 161 31.5 q67 0 125.5 -19 q58.5 -19 104.5 -57.5 q46 -38.5 77 -96.5 l-27 -17 l25 178 l490 0 l-14 -105 l-372 0 l-30 -214 l352 0 l-15 -105 l-352 0 l-30 -216 l372 0 l-15 -105 l-490 0 l18 136 l19 -23 q-54 -62 -126.5 -93.5 q-72.5 -31.5 -157.5 -31.5 ZM433 96 q61 0 114 23.5 q53 23.5 92.5 65 q39.5 41.5 61.5 96 q22 54.5 22 117.5 q0 73 -31 129.5 q-31 56.5 -86 89.5 q-55 33 -128 33 q-62 0 -114.5 -23.5 q-52.5 -23.5 -92 -65 q-39.5 -41.5 -61.5 -96 q-22 -54.5 -22 -117.5 q0 -72 31 -129 q31 -57 86 -90 q55 -33 128 -33 Z" /><glyph glyph-name="P" unicode="P" d="M40 0 l104 745 l259 0 q70 0 122 -26 q52 -26 81 -75.5 q29 -49.5 29 -119.5 q0 -71 -34 -126 q-34 -55 -95.5 -86.5 q-61.5 -31.5 -144.5 -31.5 l-165 0 l-39 -280 l-117 0 ZM211 385 l157 0 q44 0 77.5 18.5 q33.5 18.5 52.5 50 q19 31.5 19 71.5 q0 54 -33 84.5 q-33 30.5 -89 30.5 l-148 0 l-36 -255 Z" /><glyph glyph-name="Thorn" unicode="Þ" d="M33 0 l104 745 l117 0 l-19 -140 l161 0 q70 0 122 -26 q52 -26 81 -75.5 q29 -49.5 29 -119.5 q0 -71 -34 -126 q-34 -55 -95.5 -86.5 q-61.5 -31.5 -144.5 -31.5 l-184 0 l-20 -140 l-117 0 ZM185 245 l176 0 q44 0 77.5 18.5 q33.5 18.5 52.5 50 q19 31.5 19 71.5 q0 54 -33 84.5 q-33 30.5 -89 30.5 l-168 0 l-35 -255 Z" /><glyph glyph-name="Q" unicode="Q" d="M432 -12 q-77 0 -143 26.5 q-66 26.5 -115 74.5 q-49 48 -76.5 114 q-27.5 66 -27.5 144 q0 86 31 160.5 q31 74.5 86.5 130.5 q55.5 56 129.5 87.5 q74 31.5 161 31.5 q78 0 144 -26.5 q66 -26.5 115 -74.5 q49 -48 76 -113.5 q27 -65.5 27 -143.5 q0 -86 -31 -160.5 q-31 -74.5 -87 -131 q-56 -56.5 -130 -88 q-74 -31.5 -160 -31.5 ZM433 96 q61 0 114 23.5 q53 23.5 92.5 65 q39.5 41.5 61.5 96 q22 54.5 22 117.5 q0 73 -31 129.5 q-31 56.5 -86 89.5 q-55 33 -128 33 q-62 0 -114.5 -23.5 q-52.5 -23.5 -92 -65 q-39.5 -41.5 -61.5 -96 q-22 -54.5 -22 -117.5 q0 -72 31 -129 q31 -57 86 -90 q55 -33 128 -33 ZM582 -90 l-189 388 l119 0 l190 -388 l-120 0 Z" /><glyph glyph-name="R" unicode="R" d="M40 0 l104 745 l259 0 q70 0 122 -26 q52 -26 81 -75.5 q29 -49.5 29 -119.5 q0 -54 -20.5 -100 q-20.5 -46 -58 -78.5 q-37.5 -32.5 -89.5 -49.5 l128 -296 l-127 0 l-139 328 l72 -48 l-205 0 l-39 -280 l-117 0 ZM211 385 l157 0 q44 0 77.5 18.5 q33.5 18.5 52.5 50 q19 31.5 19 71.5 q0 54 -33 84.5 q-33 30.5 -89 30.5 l-148 0 l-36 -255 Z" /><glyph glyph-name="S" unicode="S" d="M321 -12 q-73 0 -132.5 26 q-59.5 26 -100 72.5 q-40.5 46.5 -54.5 108.5 l102 37 q19 -67 68.5 -103.5 q49.5 -36.5 117.5 -36.5 q45 0 77 15 q32 15 49.5 40.5 q17.5 25.5 17.5 57.5 q0 34 -20.5 57 q-20.5 23 -62.5 36 l-131 42 q-76 25 -114.5 74 q-38.5 49 -38.5 117 q0 63 33 114 q33 51 91 81.5 q58 30.5 132 30.5 q68 0 122.5 -24 q54.5 -24 90.5 -66 q36 -42 49 -96 l-101 -37 q-16 56 -59 88 q-43 32 -104 32 q-41 0 -72 -14.5 q-31 -14.5 -48 -39.5 q-17 -25 -17 -59 q0 -34 20.5 -58.5 q20.5 -24.5 64.5 -39.5 l121 -40 q81 -26 121.5 -74 q40.5 -48 40.5 -116 q0 -61 -34 -112.5 q-34 -51.5 -93 -82 q-59 -30.5 -136 -30.5 Z" /><glyph glyph-name="T" unicode="T" d="M171 0 l90 640 l-198 0 l15 105 l510 0 l-15 -105 l-195 0 l-89 -640 l-118 0 Z" /><glyph glyph-name="Tbar" unicode="&#x166;" d="M108 323 l14 100 l333 0 l-14 -100 l-333 0 ZM171 0 l90 640 l-198 0 l15 105 l510 0 l-15 -105 l-195 0 l-89 -640 l-118 0 Z" /><glyph glyph-name="U" unicode="U" d="M328 -12 q-86 0 -147.5 36 q-61.5 36 -91 97.5 q-29.5 61.5 -19.5 139.5 l68 484 l118 0 l-68 -484 q-6 -49 10 -86.5 q16 -37.5 51 -58 q35 -20.5 85 -20.5 q49 0 89 20.5 q40 20.5 67 59 q27 38.5 34 89.5 l67 480 l117 0 l-69 -490 q-11 -78 -53.5 -138 q-42.5 -60 -109 -94.5 q-66.5 -34.5 -148.5 -34.5 Z" /><glyph glyph-name="Uhorn" unicode="&#x1af;" d="M328 -12 q-86 0 -147.5 36 q-61.5 36 -91 97.5 q-29.5 61.5 -19.5 139.5 l68 484 l118 0 l-68 -484 q-6 -49 10 -86.5 q16 -37.5 51 -58 q35 -20.5 85 -20.5 q49 0 89 20.5 q40 20.5 67 59 q27 38.5 34 89.5 l67 480 l117 0 l-69 -490 q-11 -78 -53.5 -138 q-42.5 -60 -109 -94.5 q-66.5 -34.5 -148.5 -34.5 ZM660 657 l13 88 l18 0 q12 0 25 4.5 q13 4.5 22.5 18.5 q9.5 14 9.5 42 q0 15 -3.5 31.5 q-3.5 16.5 -8.5 32.5 l109 0 q6 -16 10 -32.5 q4 -16.5 4 -32.5 q0 -70 -44 -111 q-44 -41 -118 -41 l-37 0 Z" /><glyph glyph-name="V" unicode="V" d="M237 0 l-159 745 l122 0 l126 -636 l-26 0 l305 636 l133 0 l-369 -745 l-132 0 Z" /><glyph glyph-name="W" unicode="W" d="M178 0 l-100 745 l121 0 l76 -645 l-35 0 l270 645 l118 0 l85 -645 l-39 0 l263 645 l127 0 l-309 -745 l-132 0 l-85 635 l36 0 l-263 -635 l-133 0 Z" /><glyph glyph-name="X" unicode="X" d="M-27 0 l297 381 l-183 364 l126 0 l157 -315 l-54 5 l232 310 l143 0 l-284 -375 l185 -370 l-126 0 l-159 321 l55 -6 l-247 -315 l-142 0 Z" /><glyph glyph-name="Y" unicode="Y" d="M228 0 l46 336 l-196 409 l125 0 l159 -332 l-48 2 l248 330 l141 0 l-310 -409 l-46 -336 l-119 0 Z" /><glyph glyph-name="Z" unicode="Z" d="M-21 0 l12 90 l451 550 l-351 0 l15 105 l510 0 l-12 -89 l-453 -551 l385 0 l-14 -105 l-543 0 Z" /><glyph glyph-name="a" unicode="a" d="M204 -12 q-50 0 -90 16.5 q-40 16.5 -63.5 49.5 q-23.5 33 -23.5 82 q0 49 25 86 q25 37 70 60.5 q45 23.5 104 32.5 l194 31 l-9 -89 l-167 -29 q-44 -8 -71.5 -29.5 q-27.5 -21.5 -27.5 -56.5 q0 -31 22.5 -48 q22.5 -17 59.5 -17 q44 0 79 20.5 q35 20.5 58.5 55 q23.5 34.5 28.5 75.5 l18 132 q4 31 -9.5 52 q-13.5 21 -37.5 32 q-24 11 -53 11 q-47 0 -83.5 -24.5 q-36.5 -24.5 -56.5 -62.5 l-91 52 q20 40 56 70 q36 30 83 46.5 q47 16.5 99 16.5 q64 0 113 -25 q49 -25 75 -69.5 q26 -44.5 18 -103.5 l-50 -355 l-108 0 l13 98 l27 -5 q-23 -34 -54 -57.5 q-31 -23.5 -68.5 -35.5 q-37.5 -12 -79.5 -12 Z" /><glyph glyph-name="ae" unicode="æ" d="M204 -12 q-50 0 -90 16.5 q-40 16.5 -63.5 49.5 q-23.5 33 -23.5 82 q0 49 25 86 q25 37 70 60.5 q45 23.5 104 32.5 l183 29 l2 16 q4 31 -9.5 52 q-13.5 21 -37.5 32 q-24 11 -53 11 q-47 0 -83.5 -24.5 q-36.5 -24.5 -56.5 -62.5 l-91 52 q20 40 56 70 q36 30 83 46.5 q47 16.5 99 16.5 q45 0 83 -13 q38 -13 66.5 -36.5 q28.5 -23.5 42.5 -56.5 l-40 1 q40 49 95.5 77 q55.5 28 122.5 28 q78 0 132.5 -33 q54.5 -33 83 -88.5 q28.5 -55.5 28.5 -121.5 q0 -17 -3 -36 q-3 -19 -7 -36 l-402 0 q1 -47 19.5 -80.5 q18.5 -33.5 51 -51.5 q32.5 -18 74.5 -18 q50 0 87 23 q37 23 59 58 l91 -49 q-19 -38 -54.5 -68 q-35.5 -30 -82.5 -47 q-47 -17 -102 -17 q-65 0 -117 26 q-52 26 -85 71 l30 28 l-17 -113 l-108 0 l15 107 l17 -25 q-23 -31 -53 -52 q-30 -21 -65.5 -31.5 q-35.5 -10.5 -75.5 -10.5 ZM227 77 q44 0 79 20.5 q35 20.5 58.5 55 q23.5 34.5 28.5 75.5 l3 26 l-152 -26 q-44 -8 -71.5 -29.5 q-27.5 -21.5 -27.5 -56.5 q0 -31 22.5 -48 q22.5 -17 59.5 -17 ZM529 328 l285 0 q2 38 -14 67 q-16 29 -45.5 46 q-29.5 17 -67.5 17 q-43 0 -74.5 -16 q-31.5 -16 -52.5 -45 q-21 -29 -31 -69 Z" /><glyph glyph-name="b" unicode="b" d="M335 -12 q-65 0 -118.5 27 q-53.5 27 -80.5 76 l16 19 l-14 -110 l-109 0 l106 757 l113 0 l-45 -328 l-32 27 q32 46 83.5 71.5 q51.5 25.5 114.5 25.5 q76 0 133.5 -35 q57.5 -35 90 -94.5 q32.5 -59.5 32.5 -133.5 q0 -62 -22 -116.5 q-22 -54.5 -61.5 -96.5 q-39.5 -42 -92 -65.5 q-52.5 -23.5 -114.5 -23.5 ZM326 93 q53 0 93.5 26.5 q40.5 26.5 64 71 q23.5 44.5 23.5 98.5 q0 46 -19.5 82 q-19.5 36 -53.5 56.5 q-34 20.5 -80 20.5 q-52 0 -92.5 -26.5 q-40.5 -26.5 -63 -70.5 q-22.5 -44 -22.5 -97 q0 -47 19.5 -83.5 q19.5 -36.5 53 -57 q33.5 -20.5 77.5 -20.5 Z" /><glyph glyph-name="c" unicode="c" d="M305 -12 q-75 0 -134 34.5 q-59 34.5 -92.5 94.5 q-33.5 60 -33.5 136 q0 63 23 118 q23 55 63 96 q40 41 93.5 63.5 q53.5 22.5 115.5 22.5 q57 0 104 -19.5 q47 -19.5 80.5 -54 q33.5 -34.5 47.5 -80.5 l-101 -42 q-14 42 -49 66.5 q-35 24.5 -83 24.5 q-52 0 -91.5 -27 q-39.5 -27 -62 -71.5 q-22.5 -44.5 -22.5 -96.5 q0 -47 18.5 -83 q18.5 -36 52 -56.5 q33.5 -20.5 75.5 -20.5 q51 0 90 26.5 q39 26.5 59 69.5 l97 -50 q-20 -44 -57 -78 q-37 -34 -86.5 -53.5 q-49.5 -19.5 -106.5 -19.5 Z" /><glyph glyph-name="d" unicode="d" d="M299 -12 q-75 0 -132.5 33.5 q-57.5 33.5 -90 92 q-32.5 58.5 -32.5 133.5 q0 67 23 122.5 q23 55.5 63 97 q40 41.5 93.5 64 q53.5 22.5 114.5 22.5 q68 0 118 -27 q50 -27 78 -75 l-22 -22 l45 328 l114 0 l-106 -757 l-108 0 l15 110 l27 -17 q-31 -52 -84.5 -78.5 q-53.5 -26.5 -115.5 -26.5 ZM312 93 q53 0 93.5 27 q40.5 27 64 71.5 q23.5 44.5 23.5 97.5 q0 46 -19 82 q-19 36 -53 56.5 q-34 20.5 -78 20.5 q-52 0 -93 -26.5 q-41 -26.5 -64.5 -71 q-23.5 -44.5 -23.5 -98.5 q0 -46 19 -82 q19 -36 53 -56.5 q34 -20.5 78 -20.5 Z" /><glyph glyph-name="dcroat" unicode="&#x111;" d="M446 595 l13 90 l290 0 l-13 -90 l-290 0 ZM299 -12 q-75 0 -132.5 33.5 q-57.5 33.5 -90 92 q-32.5 58.5 -32.5 133.5 q0 67 23 122.5 q23 55.5 63 97 q40 41.5 93.5 64 q53.5 22.5 114.5 22.5 q68 0 118 -27 q50 -27 78 -75 l-22 -22 l45 328 l114 0 l-106 -757 l-108 0 l15 110 l27 -17 q-31 -52 -84.5 -78.5 q-53.5 -26.5 -115.5 -26.5 ZM312 93 q53 0 93.5 27 q40.5 27 64 71.5 q23.5 44.5 23.5 97.5 q0 46 -19 82 q-19 36 -53 56.5 q-34 20.5 -78 20.5 q-52 0 -93 -26.5 q-41 -26.5 -64.5 -71 q-23.5 -44.5 -23.5 -98.5 q0 -46 19 -82 q19 -36 53 -56.5 q34 -20.5 78 -20.5 Z" /><glyph glyph-name="eth" unicode="ð" d="M321 -12 q-74 0 -133.5 33.5 q-59.5 33.5 -93.5 92.5 q-34 59 -34 135 q0 62 22.5 115.5 q22.5 53.5 62.5 93.5 q40 40 94 62.5 q54 22.5 116 22.5 q35 0 69 -8.5 q34 -8.5 62 -28.5 q28 -20 48 -55 l-22 -34 q5 59 -14 109.5 q-19 50.5 -56.5 88.5 q-37.5 38 -88 59.5 q-50.5 21.5 -108.5 21.5 q-27 0 -55 -4.5 q-28 -4.5 -56 -14.5 l-12 95 q38 12 73.5 18 q35.5 6 67.5 6 q91 0 160 -35.5 q69 -35.5 115 -96 q46 -60.5 69.5 -139 q23.5 -78.5 23.5 -164.5 q0 -106 -35 -190.5 q-35 -84.5 -104 -133.5 q-69 -49 -171 -49 ZM328 93 q51 0 92 26.5 q41 26.5 65 70 q24 43.5 24 95.5 q0 43 -18.5 78 q-18.5 35 -52 55 q-33.5 20 -80.5 20 q-52 0 -93 -25.5 q-41 -25.5 -64.5 -68 q-23.5 -42.5 -23.5 -93.5 q0 -46 19.5 -82 q19.5 -36 54 -56 q34.5 -20 77.5 -20 ZM266 572 l4 59 l335 124 l-4 -60 l-335 -123 Z" /><glyph glyph-name="e" unicode="e" d="M305 -12 q-78 0 -136.5 34.5 q-58.5 34.5 -91 94.5 q-32.5 60 -32.5 135 q0 62 21.5 116.5 q21.5 54.5 60 96 q38.5 41.5 90 65 q51.5 23.5 112.5 23.5 q79 0 133.5 -33 q54.5 -33 82.5 -88.5 q28 -55.5 28 -121.5 q0 -17 -3 -36 q-3 -19 -6 -36 l-432 0 l7 90 l367 0 l-57 -39 q14 47 1 85.5 q-13 38.5 -45 61 q-32 22.5 -77 22.5 q-57 0 -94 -28.5 q-37 -28.5 -55 -77.5 q-18 -49 -18 -112 q0 -47 19 -81.5 q19 -34.5 52 -52.5 q33 -18 75 -18 q50 0 86.5 23 q36.5 23 59.5 58 l90 -49 q-19 -38 -54.5 -68 q-35.5 -30 -82.5 -47 q-47 -17 -101 -17 Z" /><glyph glyph-name="uni0259" unicode="&#x259;" d="M286 -12 q-79 0 -133.5 33.5 q-54.5 33.5 -82.5 89 q-28 55.5 -28 120.5 q0 18 3 37 q3 19 6 35 l432 0 l-7 -90 l-367 0 l57 40 q-13 -47 -0.5 -85.5 q12.5 -38.5 44.5 -61.5 q32 -23 77 -23 q58 0 95 28.5 q37 28.5 54.5 78 q17.5 49.5 17.5 111.5 q0 48 -19 82 q-19 34 -52 52 q-33 18 -75 18 q-50 0 -86.5 -22.5 q-36.5 -22.5 -59.5 -57.5 l-90 48 q19 39 54.5 68.5 q35.5 29.5 82.5 46.5 q47 17 101 17 q78 0 136.5 -34.5 q58.5 -34.5 91 -94 q32.5 -59.5 32.5 -135.5 q0 -62 -21.5 -116 q-21.5 -54 -60 -96 q-38.5 -42 -90 -65.5 q-51.5 -23.5 -112.5 -23.5 Z" /><glyph glyph-name="f" unicode="f" d="M88 0 l61 439 l-98 0 l14 102 l99 0 l4 26 q10 63 40 105 q30 42 75.5 63.5 q45.5 21.5 99.5 21.5 q15 0 29.5 -1.5 q14.5 -1.5 24.5 -3.5 l-8 -97 q-8 2 -17.5 2 q-9.5 0 -13.5 0 q-47 0 -78.5 -20.5 q-31.5 -20.5 -39.5 -73.5 l-3 -22 l124 0 l-14 -102 l-124 0 l-61 -439 l-114 0 Z" /><glyph glyph-name="g" unicode="g" d="M267 -220 q-60 0 -109 20 q-49 20 -81 54 q-32 34 -44 79 l107 35 q8 -36 43 -59.5 q35 -23.5 94 -23.5 q41 0 76 16 q35 16 59 45.5 q24 29.5 30 71.5 l18 129 l30 -25 q-31 -52 -82 -78 q-51 -26 -113 -26 q-71 0 -127 31.5 q-56 31.5 -88.5 88 q-32.5 56.5 -32.5 130.5 q0 60 21.5 112 q21.5 52 59.5 91 q38 39 89 60.5 q51 21.5 111 21.5 q65 0 116.5 -27.5 q51.5 -27.5 80.5 -76.5 l-21 -27 l16 119 l108 0 l-73 -527 q-9 -69 -49 -121.5 q-40 -52.5 -102 -82.5 q-62 -30 -137 -30 ZM309 123 q49 0 88 24.5 q39 24.5 61.5 64.5 q22.5 40 22.5 87 q0 43 -18 77 q-18 34 -50.5 53 q-32.5 19 -75.5 19 q-47 0 -86.5 -23.5 q-39.5 -23.5 -62.5 -63.5 q-23 -40 -23 -90 q0 -43 18 -76.5 q18 -33.5 51 -52.5 q33 -19 75 -19 Z" /><glyph glyph-name="h" unicode="h" d="M29 0 l106 757 l112 0 l-45 -322 l-16 17 q26 51 72.5 76 q46.5 25 103.5 25 q60 0 103.5 -28 q43.5 -28 64 -77 q20.5 -49 11.5 -111 l-47 -337 l-113 0 l45 325 q8 56 -20 89.5 q-28 33.5 -80 33.5 q-35 0 -65 -16 q-30 -16 -49.5 -45 q-19.5 -29 -25.5 -69 l-44 -318 l-113 0 Z" /><glyph glyph-name="hbar" unicode="&#x127;" d="M23 595 l13 90 l290 0 l-13 -90 l-290 0 ZM29 0 l106 757 l112 0 l-45 -322 l-16 17 q26 51 72.5 76 q46.5 25 103.5 25 q60 0 103.5 -28 q43.5 -28 64 -77 q20.5 -49 11.5 -111 l-47 -337 l-113 0 l45 325 q8 56 -20 89.5 q-28 33.5 -80 33.5 q-35 0 -65 -16 q-30 -16 -49.5 -45 q-19.5 -29 -25.5 -69 l-44 -318 l-113 0 Z" /><glyph glyph-name="i" unicode="i" d="M29 0 l75 541 l114 0 l-76 -541 l-113 0 ZM115 615 l18 130 l113 0 l-18 -130 l-113 0 Z" /><glyph glyph-name="dotlessi" unicode="&#x131;" d="M16 0 l75 541 l114 0 l-76 -541 l-113 0 Z" /><glyph glyph-name="j" unicode="j" d="M-75 -221 q-13 0 -27.5 2 q-14.5 2 -23.5 4 l8 97 q9 -1 18.5 -2 q9.5 -1 16.5 -1 q44 0 74 23 q30 23 36 66 l80 573 l114 0 l-82 -579 q-8 -59 -37.5 -100 q-29.5 -41 -74.5 -62 q-45 -21 -102 -21 ZM118 615 l18 130 l113 0 l-18 -130 l-113 0 Z" /><glyph glyph-name="uni0237" unicode="&#x237;" d="M-75 -221 q-13 0 -27.5 2 q-14.5 2 -23.5 4 l8 97 q9 -1 18.5 -2 q9.5 -1 16.5 -1 q44 0 74 23 q30 23 36 66 l80 573 l114 0 l-82 -579 q-8 -59 -37.5 -100 q-29.5 -41 -74.5 -62 q-45 -21 -102 -21 Z" /><glyph glyph-name="k" unicode="k" d="M28 0 l106 757 l114 0 l-71 -507 l-54 11 l310 280 l152 0 l-235 -217 l167 -324 l-123 0 l-149 287 l62 9 l-184 -170 l46 75 l-27 -201 l-114 0 Z" /><glyph glyph-name="kgreenlandic" unicode="&#x138;" d="M397 0 l-134 237 l2 93 l167 211 l136 0 l-205 -260 l156 -281 l-122 0 ZM29 0 l75 541 l114 0 l-76 -541 l-113 0 ZM129 233 l15 102 l195 0 l-15 -102 l-195 0 Z" /><glyph glyph-name="l" unicode="l" d="M29 0 l106 757 l113 0 l-106 -757 l-113 0 Z" /><glyph glyph-name="ldot" unicode="&#x140;" d="M327 305 q-29 0 -48.5 20 q-19.5 20 -19.5 48 q0 28 19.5 47.5 q19.5 19.5 48.5 19.5 q28 0 47.5 -19.5 q19.5 -19.5 19.5 -47.5 q0 -29 -19.5 -48.5 q-19.5 -19.5 -47.5 -19.5 ZM29 0 l106 757 l113 0 l-106 -757 l-113 0 Z" /><glyph glyph-name="lslash" unicode="&#x142;" d="M31 251 l16 113 l309 169 l-16 -113 l-309 -169 ZM82 0 l106 757 l113 0 l-106 -757 l-113 0 Z" /><glyph glyph-name="m" unicode="m" d="M29 0 l75 541 l108 0 l-15 -113 l-12 18 q27 55 71.5 81 q44.5 26 100.5 26 q65 0 111 -34.5 q46 -34.5 60 -93.5 l-37 -1 q32 67 87.5 98 q55.5 31 118.5 31 q59 0 101.5 -27 q42.5 -27 63.5 -74.5 q21 -47.5 12 -109.5 l-48 -342 l-112 0 l45 325 q5 38 -5.5 65.5 q-10.5 27.5 -33 42.5 q-22.5 15 -56.5 15 q-33 0 -62 -15 q-29 -15 -48.5 -42.5 q-19.5 -27.5 -24.5 -65.5 l-45 -325 l-113 0 l45 325 q6 38 -4.5 65.5 q-10.5 27.5 -33.5 42.5 q-23 15 -57 15 q-34 0 -63 -16 q-29 -16 -48 -45 q-19 -29 -25 -69 l-44 -318 l-112 0 Z" /><glyph glyph-name="n" unicode="n" d="M29 0 l75 541 l108 0 l-14 -106 l-12 17 q26 51 72.5 76 q46.5 25 103.5 25 q60 0 103.5 -28 q43.5 -28 64 -77 q20.5 -49 11.5 -111 l-47 -337 l-113 0 l45 325 q8 56 -20 89.5 q-28 33.5 -80 33.5 q-35 0 -65 -16 q-30 -16 -50 -45 q-20 -29 -26 -69 l-44 -318 l-112 0 Z" /><glyph glyph-name="eng" unicode="&#x14b;" d="M264 -221 q-13 0 -26.5 2 q-13.5 2 -22.5 4 l8 97 q9 -1 18.5 -2 q9.5 -1 16.5 -1 q44 0 73.5 23 q29.5 23 35.5 66 l51 357 q8 56 -20 89.5 q-28 33.5 -80 33.5 q-36 0 -66 -16 q-30 -16 -49.5 -45 q-19.5 -29 -25.5 -69 l-44 -318 l-113 0 l76 541 l107 0 l-14 -106 l-11 17 q26 51 72.5 76 q46.5 25 102.5 25 q61 0 104 -28 q43 -28 63.5 -77 q20.5 -49 11.5 -111 l-53 -375 q-8 -59 -38 -100 q-30 -41 -75 -62 q-45 -21 -102 -21 Z" /><glyph glyph-name="o" unicode="o" d="M313 -12 q-75 0 -135.5 34 q-60.5 34 -96.5 94.5 q-36 60.5 -36 138.5 q0 62 23 116.5 q23 54.5 64.5 95 q41.5 40.5 95.5 63.5 q54 23 116 23 q76 0 137 -34 q61 -34 96 -93.5 q35 -59.5 35 -137.5 q0 -62 -23 -116.5 q-23 -54.5 -64.5 -96 q-41.5 -41.5 -95.5 -64.5 q-54 -23 -116 -23 ZM314 93 q52 0 92.5 27 q40.5 27 64 71.5 q23.5 44.5 23.5 97.5 q0 47 -19 82.5 q-19 35.5 -53 56 q-34 20.5 -78 20.5 q-52 0 -93 -26.5 q-41 -26.5 -64.5 -70.5 q-23.5 -44 -23.5 -98 q0 -46 19 -82 q19 -36 53 -57 q34 -21 79 -21 Z" /><glyph glyph-name="ohorn" unicode="&#x1a1;" d="M313 -12 q-75 0 -135.5 34 q-60.5 34 -96.5 94.5 q-36 60.5 -36 138.5 q0 62 23 116.5 q23 54.5 64.5 95 q41.5 40.5 95.5 63.5 q54 23 116 23 l108 0 q12 0 25 4.5 q13 4.5 22.5 18.5 q9.5 14 9.5 42 q0 15 -3 31.5 q-3 16.5 -8 32.5 l109 0 q6 -16 9.5 -32.5 q3.5 -16.5 3.5 -32.5 q0 -58 -32.5 -96 q-32.5 -38 -88.5 -48 l9 29 q48 -35 76 -90.5 q28 -55.5 28 -123.5 q0 -62 -23 -116.5 q-23 -54.5 -64.5 -96 q-41.5 -41.5 -95.5 -64.5 q-54 -23 -116 -23 ZM314 93 q52 0 92.5 27 q40.5 27 64 71.5 q23.5 44.5 23.5 97.5 q0 47 -19 82.5 q-19 35.5 -52.5 56 q-33.5 20.5 -78.5 20.5 q-52 0 -93 -26.5 q-41 -26.5 -64.5 -70.5 q-23.5 -44 -23.5 -98 q0 -46 19 -82 q19 -36 53 -57 q34 -21 79 -21 Z" /><glyph glyph-name="oslash" unicode="ø" d="M-11 0 l545 541 l135 0 l-545 -541 l-135 0 ZM313 -12 q-75 0 -135.5 34 q-60.5 34 -96.5 94.5 q-36 60.5 -36 138.5 q0 62 23 116.5 q23 54.5 64.5 95 q41.5 40.5 95.5 63.5 q54 23 116 23 q76 0 137 -34 q61 -34 96 -93.5 q35 -59.5 35 -137.5 q0 -62 -23 -116.5 q-23 -54.5 -64.5 -96 q-41.5 -41.5 -95.5 -64.5 q-54 -23 -116 -23 ZM314 93 q52 0 92.5 27 q40.5 27 64 71.5 q23.5 44.5 23.5 97.5 q0 47 -19 82.5 q-19 35.5 -53 56 q-34 20.5 -78 20.5 q-52 0 -93 -26.5 q-41 -26.5 -64.5 -70.5 q-23.5 -44 -23.5 -98 q0 -46 19 -82 q19 -36 53 -57 q34 -21 79 -21 Z" /><glyph glyph-name="oe" unicode="&#x153;" d="M313 -12 q-75 0 -135.5 34 q-60.5 34 -96.5 94.5 q-36 60.5 -36 138.5 q0 62 23 116.5 q23 54.5 64.5 95 q41.5 40.5 95.5 63.5 q54 23 116 23 q80 0 143 -37.5 q63 -37.5 95 -102.5 l-38 1 q24 42 60 73 q36 31 82 48.5 q46 17.5 97 17.5 q79 0 133.5 -33 q54.5 -33 82.5 -88.5 q28 -55.5 28 -121.5 q0 -17 -3 -36 q-3 -19 -6 -36 l-403 0 q2 -47 20 -80.5 q18 -33.5 50.5 -51.5 q32.5 -18 75.5 -18 q50 0 86.5 23 q36.5 23 59.5 58 l90 -49 q-19 -38 -54.5 -68 q-35.5 -30 -82.5 -47 q-47 -17 -101 -17 q-54 0 -99.5 17.5 q-45.5 17.5 -79 49 q-33.5 31.5 -53.5 74.5 l38 -2 q-26 -41 -65 -72.5 q-39 -31.5 -86.5 -49 q-47.5 -17.5 -100.5 -17.5 ZM314 93 q52 0 92.5 27 q40.5 27 64 71.5 q23.5 44.5 23.5 97.5 q0 47 -19 82.5 q-19 35.5 -53 56 q-34 20.5 -78 20.5 q-52 0 -93 -26.5 q-41 -26.5 -64.5 -70.5 q-23.5 -44 -23.5 -98 q0 -46 19 -82 q19 -36 53 -57 q34 -21 79 -21 ZM625 328 l285 0 q2 38 -14.5 67 q-16.5 29 -45.5 46 q-29 17 -68 17 q-42 0 -74 -16 q-32 -16 -52.5 -45 q-20.5 -29 -30.5 -69 Z" /><glyph glyph-name="p" unicode="p" d="M1 -200 l103 741 l109 0 l-15 -112 l-27 27 q32 46 83.5 71.5 q51.5 25.5 114.5 25.5 q76 0 133.5 -35 q57.5 -35 90 -94.5 q32.5 -59.5 32.5 -133.5 q0 -62 -22 -116.5 q-22 -54.5 -61.5 -96.5 q-39.5 -42 -92 -65.5 q-52.5 -23.5 -114.5 -23.5 q-65 0 -118.5 27 q-53.5 27 -80.5 76 l24 19 l-43 -310 l-116 0 ZM326 93 q53 0 93.5 26.5 q40.5 26.5 64 71 q23.5 44.5 23.5 98.5 q0 46 -19.5 82 q-19.5 36 -53.5 56.5 q-34 20.5 -80 20.5 q-52 0 -92.5 -26.5 q-40.5 -26.5 -63 -70.5 q-22.5 -44 -22.5 -97 q0 -47 19.5 -83.5 q19.5 -36.5 53 -57 q33.5 -20.5 77.5 -20.5 Z" /><glyph glyph-name="thorn" unicode="þ" d="M1 -200 l132 945 l116 0 l-44 -316 l-34 27 q32 46 83.5 71.5 q51.5 25.5 114.5 25.5 q76 0 133.5 -35 q57.5 -35 90 -94.5 q32.5 -59.5 32.5 -133.5 q0 -62 -22 -116.5 q-22 -54.5 -61.5 -96.5 q-39.5 -42 -92 -65.5 q-52.5 -23.5 -114.5 -23.5 q-65 0 -118.5 27 q-53.5 27 -80.5 76 l24 19 l-43 -310 l-116 0 ZM326 93 q53 0 93.5 26.5 q40.5 26.5 64 71 q23.5 44.5 23.5 98.5 q0 46 -19.5 82 q-19.5 36 -53.5 56.5 q-34 20.5 -80 20.5 q-52 0 -92.5 -26.5 q-40.5 -26.5 -63 -70.5 q-22.5 -44 -22.5 -97 q0 -47 19.5 -83.5 q19.5 -36.5 53 -57 q33.5 -20.5 77.5 -20.5 Z" /><glyph glyph-name="q" unicode="q" d="M426 -200 l41 310 l32 -17 q-31 -52 -84.5 -78.5 q-53.5 -26.5 -115.5 -26.5 q-75 0 -132.5 33.5 q-57.5 33.5 -90 92 q-32.5 58.5 -32.5 133.5 q0 67 23 122.5 q23 55.5 63 97 q40 41.5 93.5 64 q53.5 22.5 114.5 22.5 q68 0 118 -27 q50 -27 78 -75 l-17 -22 l15 112 l109 0 l-102 -741 l-113 0 ZM312 93 q53 0 93.5 27 q40.5 27 64 71.5 q23.5 44.5 23.5 97.5 q0 46 -19 82 q-19 36 -53 56.5 q-34 20.5 -78 20.5 q-52 0 -93 -26.5 q-41 -26.5 -64.5 -71 q-23.5 -44.5 -23.5 -98.5 q0 -46 19 -82 q19 -36 53 -56.5 q34 -20.5 78 -20.5 Z" /><glyph glyph-name="r" unicode="r" d="M29 0 l75 541 l109 0 l-15 -109 l-9 16 q26 53 69 76.5 q43 23.5 99 23.5 l33 0 l-14 -103 l-47 0 q-57 0 -96 -36 q-39 -36 -49 -107 l-42 -302 l-113 0 Z" /><glyph glyph-name="s" unicode="s" d="M237 -12 q-55 0 -101 19 q-46 19 -77.5 54 q-31.5 35 -43.5 81 l89 36 q17 -46 53.5 -72 q36.5 -26 85.5 -26 q44 0 69.5 20.5 q25.5 20.5 25.5 51.5 q0 24 -17.5 38 q-17.5 14 -45.5 22 l-83 23 q-61 17 -93 54.5 q-32 37.5 -32 89.5 q0 50 27 89 q27 39 74 62 q47 23 105 23 q77 0 131.5 -38 q54.5 -38 72.5 -103 l-91 -36 q-11 40 -43 61.5 q-32 21.5 -74 21.5 q-40 0 -65.5 -18.5 q-25.5 -18.5 -25.5 -49.5 q0 -24 17 -38 q17 -14 44 -22 l85 -26 q61 -19 93.5 -56 q32.5 -37 32.5 -88 q0 -49 -27.5 -88 q-27.5 -39 -75.5 -62 q-48 -23 -110 -23 Z" /><glyph glyph-name="germandbls" unicode="ß" d="M18 -155 l94 673 q11 75 49.5 128.5 q38.5 53.5 97 82 q58.5 28.5 127.5 28.5 q61 0 108.5 -21.5 q47.5 -21.5 74 -61.5 q26.5 -40 26.5 -96 q0 -36 -13.5 -75.5 q-13.5 -39.5 -45.5 -72.5 q-32 -33 -87 -50 l6 32 q61 -21 92.5 -62 q31.5 -41 31.5 -108 q0 -41 -14.5 -83.5 q-14.5 -42.5 -47 -78.5 q-32.5 -36 -86.5 -58 q-54 -22 -132 -22 l-62 0 l14 100 l52 0 q49 0 80 14 q31 14 48.5 35.5 q17.5 21.5 24 45.5 q6.5 24 6.5 44 q0 49 -30.5 77.5 q-30.5 28.5 -88.5 28.5 l-58 0 l14 100 l39 0 q40 0 67 13 q27 13 43 33.5 q16 20.5 23 42 q7 21.5 7 38.5 q0 40 -25.5 62.5 q-25.5 22.5 -71.5 22.5 q-39 0 -72.5 -17.5 q-33.5 -17.5 -55.5 -50 q-22 -32.5 -28 -77.5 l-94 -667 l-113 0 Z" /><glyph glyph-name="t" unicode="t" d="M267 -6 q-87 0 -128.5 49.5 q-41.5 49.5 -29.5 136.5 l36 259 l-96 0 l15 102 l12 0 q38 0 64 23.5 q26 23.5 31 61.5 l6 39 l114 0 l-18 -124 l122 0 l-15 -102 l-121 0 l-37 -260 q-4 -28 1.5 -47 q5.5 -19 22.5 -28.5 q17 -9.5 48 -9.5 q10 0 19.5 1 q9.5 1 20.5 2 l-9 -98 q-13 -3 -29.5 -4 q-16.5 -1 -28.5 -1 Z" /><glyph glyph-name="u" unicode="u" d="M226 -12 q-62 0 -106 29 q-44 29 -62.5 81 q-18.5 52 -9.5 122 l46 321 l112 0 l-45 -325 q-5 -37 6 -64.5 q11 -27.5 35.5 -43 q24.5 -15.5 58.5 -15.5 q36 0 65.5 16 q29.5 16 49.5 45.5 q20 29.5 26 68.5 l44 318 l113 0 l-76 -541 l-107 0 l14 106 l11 -17 q-26 -50 -72 -75.5 q-46 -25.5 -103 -25.5 Z" /><glyph glyph-name="uhorn" unicode="&#x1b0;" d="M226 -12 q-62 0 -106 29 q-44 29 -62.5 81 q-18.5 52 -9.5 122 l46 321 l112 0 l-45 -325 q-5 -37 6 -64.5 q11 -27.5 35.5 -43 q24.5 -15.5 58.5 -15.5 q36 0 65.5 16 q29.5 16 49.5 45.5 q20 29.5 26 68.5 l44 318 l71 0 q13 0 26 5 q13 5 22.5 19 q9.5 14 9.5 42 q0 14 -3 30 q-3 16 -8 33 l99 0 q6 -16 9.5 -33 q3.5 -17 3.5 -32 q0 -70 -45 -109 q-45 -39 -120 -36 l43 46 l-71 -506 l-107 0 l8 62 q-28 -37 -69 -55.5 q-41 -18.5 -89 -18.5 Z" /><glyph glyph-name="v" unicode="v" d="M185 0 l-136 541 l118 0 l101 -441 l-46 0 l225 441 l130 0 l-290 -541 l-102 0 Z" /><glyph glyph-name="w" unicode="w" d="M159 0 l-110 541 l115 0 l82 -431 l-42 0 l208 431 l103 0 l83 -431 l-41 0 l202 431 l123 0 l-263 -541 l-102 0 l-82 441 l38 0 l-211 -441 l-103 0 Z" /><glyph glyph-name="x" unicode="x" d="M-27 0 l230 275 l-148 266 l125 0 l122 -223 l-60 2 l182 221 l139 0 l-228 -271 l150 -270 l-124 0 l-122 224 l52 -2 l-181 -222 l-137 0 Z" /><glyph glyph-name="y" unicode="y" d="M50 -221 q-22 0 -41.5 4 q-19.5 4 -35.5 12 l8 94 q12 -2 28 -4.5 q16 -2.5 30 -2.5 q31 0 52.5 10 q21.5 10 38.5 29.5 q17 19.5 34 47.5 l48 79 l-12 -95 l-151 589 l117 0 l108 -452 l-43 0 l238 452 l127 0 l-324 -604 q-26 -48 -58.5 -84 q-32.5 -36 -73 -55.5 q-40.5 -19.5 -90.5 -19.5 Z" /><glyph glyph-name="z" unicode="z" d="M-20 0 l11 93 l365 383 l21 -37 l-321 0 l14 102 l421 0 l-11 -92 l-363 -383 l-18 37 l332 0 l-14 -103 l-437 0 Z" /><glyph glyph-name="fi" unicode="&#xfb01;" d="M88 0 l61 439 l-98 0 l14 102 l99 0 l4 26 q10 63 40 105 q30 42 75.5 63.5 q45.5 21.5 99.5 21.5 q15 0 29.5 -1.5 q14.5 -1.5 24.5 -3.5 l-8 -97 q-8 2 -17.5 2 q-9.5 0 -13.5 0 q-47 0 -78.5 -20.5 q-31.5 -20.5 -39.5 -73.5 l-3 -22 l260 0 l-15 -102 l-259 0 l-61 -439 l-114 0 ZM408 0 l75 541 l114 0 l-76 -541 l-113 0 Z" /><glyph glyph-name="fl" unicode="&#xfb02;" d="M88 0 l61 439 l-98 0 l14 102 l99 0 l4 26 q10 63 40 105 q30 42 75.5 63.5 q45.5 21.5 99.5 21.5 q15 0 29.5 -1.5 q14.5 -1.5 24.5 -3.5 l-8 -97 q-8 2 -17.5 2 q-9.5 0 -13.5 0 q-47 0 -78.5 -20.5 q-31.5 -20.5 -39.5 -73.5 l-3 -22 l260 0 l-15 -102 l-259 0 l-61 -439 l-114 0 ZM431 0 l106 757 l113 0 l-106 -757 l-113 0 Z" /><glyph glyph-name="ordfeminine" unicode="ª" d="M199 357 q-56 0 -91.5 27 q-35.5 27 -35.5 78 q0 37 19 62.5 q19 25.5 51.5 41.5 q32.5 16 73.5 23 l126 20 l-7 -72 l-106 -19 q-23 -4 -40.5 -16.5 q-17.5 -12.5 -17.5 -34.5 q0 -18 14 -28 q14 -10 35 -10 q28 0 49.5 12.5 q21.5 12.5 36 33.5 q14.5 21 17.5 47 l13 96 q4 28 -16 42.5 q-20 14.5 -46 14.5 q-30 0 -55 -16.5 q-25 -16.5 -38 -43.5 l-74 42 q21 46 68 72 q47 26 105 26 q46 0 82.5 -18 q36.5 -18 55.5 -50 q19 -32 13 -74 l-35 -247 l-89 0 l8 64 l25 -1 q-27 -36 -62 -54 q-35 -18 -79 -18 Z" /><glyph glyph-name="ordmasculine" unicode="º" d="M277 357 q-54 0 -97.5 24.5 q-43.5 24.5 -69 67 q-25.5 42.5 -25.5 96.5 q0 59 29 106.5 q29 47.5 77.5 75.5 q48.5 28 107.5 28 q54 0 97 -24 q43 -24 68.5 -66.5 q25.5 -42.5 25.5 -96.5 q0 -59 -29 -106.5 q-29 -47.5 -77.5 -76 q-48.5 -28.5 -106.5 -28.5 ZM277 444 q33 0 59 16.5 q26 16.5 40.5 45.5 q14.5 29 14.5 63 q0 44 -26 72 q-26 28 -67 28 q-33 0 -59 -17 q-26 -17 -41 -45 q-15 -28 -15 -63 q0 -29 12 -52 q12 -23 33 -35.5 q21 -12.5 49 -12.5 Z" /><glyph glyph-name="uni0394" unicode="&#x394;" d="M-27 0 l15 105 l316 640 l146 0 l135 -640 l-15 -105 l-597 0 ZM93 56 l-31 49 l449 0 l-34 -49 l-121 606 l29 0 l-292 -606 Z" /><glyph glyph-name="uni03A9" unicode="&#x3a9;" d="M41 0 l15 105 l172 0 l-26 -21 q-61 44 -96.5 113 q-35.5 69 -35.5 154 q0 81 31 154 q31 73 87 130 q56 57 131 89.5 q75 32.5 163 32.5 q78 0 143.5 -26.5 q65.5 -26.5 113.5 -74 q48 -47.5 74.5 -111.5 q26.5 -64 26.5 -140 q0 -71 -22 -131.5 q-22 -60.5 -61 -108.5 q-39 -48 -90 -81 l-23 21 l180 0 l-15 -105 l-305 0 l15 105 q61 18 107 60.5 q46 42.5 71.5 101.5 q25.5 59 25.5 126 q0 76 -32 133.5 q-32 57.5 -88 90.5 q-56 33 -128 33 q-62 0 -114.5 -24 q-52.5 -24 -91 -65 q-38.5 -41 -60 -94.5 q-21.5 -53.5 -21.5 -113.5 q0 -60 21.5 -111 q21.5 -51 61 -86 q39.5 -35 91.5 -51 l-15 -105 l-306 0 Z" /><glyph glyph-name="pi" unicode="&#x3c0;" d="M83 0 l61 439 l-95 0 l15 102 l619 0 l-15 -102 l-94 0 l-61 -439 l-113 0 l62 439 l-205 0 l-62 -439 l-112 0 Z" /><glyph glyph-name="zero" unicode="0" d="M338 -12 q-81 0 -140.5 40 q-59.5 40 -92 113 q-32.5 73 -32.5 172 q0 87 23 167 q23 80 66.5 142.5 q43.5 62.5 106 98.5 q62.5 36 140.5 36 q82 0 141.5 -40 q59.5 -40 92 -112.5 q32.5 -72.5 32.5 -170.5 q0 -87 -22.5 -167.5 q-22.5 -80.5 -66 -143 q-43.5 -62.5 -106 -99 q-62.5 -36.5 -142.5 -36.5 ZM341 96 q56 0 97 31 q41 31 67.5 81.5 q26.5 50.5 39 110.5 q12.5 60 12.5 118 q0 99 -39 156 q-39 57 -112 57 q-53 0 -93.5 -29.5 q-40.5 -29.5 -67.5 -78.5 q-27 -49 -40.5 -109 q-13.5 -60 -13.5 -123 q0 -66 17.5 -114 q17.5 -48 51 -74 q33.5 -26 81.5 -26 Z" /><glyph glyph-name="one" unicode="1" d="M137 0 l90 645 l-141 0 l14 100 l260 0 l-104 -745 l-119 0 Z" /><glyph glyph-name="two" unicode="2" d="M33 0 l8 85 l227 219 q51 50 87 85.5 q36 35.5 58 62.5 q22 27 32 51.5 q10 24.5 10 52.5 q0 45 -29 70.5 q-29 25.5 -79 25.5 q-53 0 -94.5 -31.5 q-41.5 -31.5 -64.5 -90.5 l-102 35 q20 60 58.5 102.5 q38.5 42.5 92 66 q53.5 23.5 115.5 23.5 q64 0 113.5 -23.5 q49.5 -23.5 78.5 -66 q29 -42.5 29 -101.5 q0 -41 -13 -76.5 q-13 -35.5 -36.5 -68 q-23.5 -32.5 -54 -64.5 q-30.5 -32 -65.5 -66 l-203 -191 l339 0 l-14 -100 l-493 0 Z" /><glyph glyph-name="three" unicode="3" d="M268 -12 q-61 0 -113 22 q-52 22 -87 62 q-35 40 -46 94 l105 38 q14 -53 52.5 -82 q38.5 -29 94.5 -29 q46 0 82 19.5 q36 19.5 56.5 53.5 q20.5 34 20.5 78 q0 40 -17 68 q-17 28 -46.5 43 q-29.5 15 -69.5 15 q-18 0 -37 -3 q-19 -3 -34 -9 l-20 56 l221 231 l-319 0 l13 100 l456 0 l-12 -95 l-215 -230 l-6 39 q63 -1 108.5 -29 q45.5 -28 70.5 -75.5 q25 -47.5 25 -108.5 q0 -56 -22 -103.5 q-22 -47.5 -61.5 -82 q-39.5 -34.5 -90.5 -53.5 q-51 -19 -109 -19 Z" /><glyph glyph-name="four" unicode="4" d="M357 0 l23 168 l-355 0 l13 98 l417 479 l119 0 l-67 -479 l102 0 l-14 -98 l-102 0 l-23 -168 l-113 0 ZM122 223 l-14 43 l286 0 l54 385 l33 -10 l-359 -418 Z" /><glyph glyph-name="five" unicode="5" d="M273 -12 q-61 0 -112.5 21.5 q-51.5 21.5 -86 60.5 q-34.5 39 -45.5 94 l103 38 q14 -53 54 -81 q40 -28 90 -28 q46 0 82 21.5 q36 21.5 57 58 q21 36.5 21 80.5 q0 39 -16.5 68 q-16.5 29 -45.5 46 q-29 17 -67 17 q-48 0 -84.5 -19 q-36.5 -19 -55.5 -51 l-95 21 l115 411 l390 0 l-11 -100 l-348 0 l55 48 l-86 -314 l-31 20 q34 47 78 66 q44 19 99 19 q67 0 116.5 -30 q49.5 -30 77 -81 q27.5 -51 27.5 -115 q0 -59 -22 -108 q-22 -49 -61 -85.5 q-39 -36.5 -90 -57 q-51 -20.5 -108 -20.5 Z" /><glyph glyph-name="six" unicode="6" d="M275 -12 q-68 0 -120 28 q-52 28 -82 78 q-30 50 -30 117 q0 52 17 99 q17 47 44.5 88 q27.5 41 59.5 77 l235 270 l147 0 l-290 -330 l-25 14 q16 16 33 24.5 q17 8.5 36.5 12.5 q19.5 4 40.5 4 q59 0 107 -27 q48 -27 75.5 -75 q27.5 -48 27.5 -112 q0 -75 -37 -136 q-37 -61 -99.5 -96.5 q-62.5 -35.5 -139.5 -35.5 ZM281 93 q43 0 77 21 q34 21 54.5 57 q20.5 36 20.5 79 q0 54 -33.5 87 q-33.5 33 -86.5 33 q-42 0 -77 -20.5 q-35 -20.5 -55 -55.5 q-20 -35 -20 -79 q0 -55 33.5 -88.5 q33.5 -33.5 86.5 -33.5 Z" /><glyph glyph-name="seven" unicode="7" d="M30 0 l412 646 l-354 0 l14 100 l481 0 l-13 -100 l-404 -646 l-136 0 Z" /><glyph glyph-name="eight" unicode="8" d="M292 -12 q-73 0 -128 27 q-55 27 -85.5 74 q-30.5 47 -30.5 107 q0 52 22 96 q22 44 61.5 76 q39.5 32 89.5 48 l-8 -30 q-46 18 -71 59 q-25 41 -25 93 q0 61 32 110.5 q32 49.5 88.5 79 q56.5 29.5 126.5 29.5 q62 0 108.5 -22.5 q46.5 -22.5 73 -62.5 q26.5 -40 26.5 -93 q0 -43 -17 -82 q-17 -39 -46.5 -67.5 q-29.5 -28.5 -67.5 -43.5 l-2 30 q63 -22 97 -68 q34 -46 34 -111 q0 -67 -35 -123.5 q-35 -56.5 -97 -91 q-62 -34.5 -146 -34.5 ZM295 88 q47 0 82.5 19 q35.5 19 55.5 51.5 q20 32.5 20 72.5 q0 54 -35 85 q-35 31 -95 31 q-47 0 -82.5 -19 q-35.5 -19 -55 -51 q-19.5 -32 -19.5 -73 q0 -52 35 -84 q35 -32 94 -32 ZM333 447 q35 0 62.5 16 q27.5 16 43 42.5 q15.5 26.5 15.5 58.5 q0 42 -27.5 67.5 q-27.5 25.5 -71.5 25.5 q-34 0 -62 -15.5 q-28 -15.5 -44 -41.5 q-16 -26 -16 -59 q0 -42 27.5 -68 q27.5 -26 72.5 -26 Z" /><glyph glyph-name="nine" unicode="9" d="M86 0 l290 330 l25 -13 q-15 -15 -32.5 -24.5 q-17.5 -9.5 -36.5 -13 q-19 -3.5 -41 -3.5 q-59 0 -107 26.5 q-48 26.5 -75.5 75 q-27.5 48.5 -27.5 112.5 q0 75 36.5 135.5 q36.5 60.5 99.5 96 q63 35.5 140 35.5 q68 0 120 -28 q52 -28 82 -77.5 q30 -49.5 30 -116.5 q0 -53 -17 -99.5 q-17 -46.5 -44.5 -87.5 q-27.5 -41 -59.5 -78 l-235 -270 l-147 0 ZM319 375 q43 0 77.5 21 q34.5 21 54.5 56 q20 35 20 79 q0 54 -33.5 87.5 q-33.5 33.5 -86.5 33.5 q-42 0 -76.5 -21 q-34.5 -21 -55 -56.5 q-20.5 -35.5 -20.5 -78.5 q0 -55 33.5 -88 q33.5 -33 86.5 -33 Z" /><glyph glyph-name="fraction" unicode="&#x2044;" d="M-203 0 l550 745 l95 0 l-550 -745 l-95 0 Z" /><glyph glyph-name="uni2080" unicode="&#x2080;" d="M220 -8 q-56 0 -98.5 28 q-42.5 28 -65.5 79 q-23 51 -23 120 q0 62 16 117.5 q16 55.5 46.5 99.5 q30.5 44 74.5 69 q44 25 99 25 q58 0 100 -28 q42 -28 65 -79 q23 -51 23 -119 q0 -62 -16 -118 q-16 -56 -47 -100 q-31 -44 -74.5 -69 q-43.5 -25 -99.5 -25 ZM223 81 q37 0 63 21.5 q26 21.5 42 55.5 q16 34 23.5 73.5 q7.5 39.5 7.5 74.5 q0 63 -23.5 99 q-23.5 36 -69.5 36 q-34 0 -59.5 -19.5 q-25.5 -19.5 -42 -52.5 q-16.5 -33 -25 -72.5 q-8.5 -39.5 -8.5 -79.5 q0 -63 23.5 -99.5 q23.5 -36.5 68.5 -36.5 Z" /><glyph glyph-name="uni2081" unicode="&#x2081;" d="M81 0 l61 438 l-100 0 l11 84 l200 0 l-73 -522 l-99 0 Z" /><glyph glyph-name="uni2082" unicode="&#x2082;" d="M6 0 l7 74 l155 147 q48 45 74.5 73 q26.5 28 38 48 q11.5 20 11.5 42 q0 27 -18.5 42.5 q-18.5 15.5 -47.5 15.5 q-33 0 -59 -20 q-26 -20 -40 -55 l-84 30 q20 61 72 97 q52 36 117 36 q45 0 81 -17 q36 -17 56.5 -47.5 q20.5 -30.5 20.5 -72.5 q0 -38 -16 -70 q-16 -32 -41.5 -60 q-25.5 -28 -54.5 -55 l-136 -125 l225 0 l-11 -83 l-350 0 Z" /><glyph glyph-name="uni2083" unicode="&#x2083;" d="M177 -8 q-43 0 -81 16 q-38 16 -63 45 q-25 29 -32 67 l89 31 q9 -36 34 -53.5 q25 -17.5 57 -17.5 q44 0 72 26.5 q28 26.5 28 67.5 q0 37 -22.5 57 q-22.5 20 -60.5 20 q-13 0 -28.5 -2.5 q-15.5 -2.5 -27.5 -8.5 l-18 47 l152 152 l-212 0 l11 83 l326 0 l-10 -78 l-151 -156 l-1 36 q44 0 75.5 -19.5 q31.5 -19.5 48.5 -52.5 q17 -33 17 -75 q0 -55 -28.5 -96.5 q-28.5 -41.5 -74.5 -65 q-46 -23.5 -100 -23.5 Z" /><glyph glyph-name="uni2084" unicode="&#x2084;" d="M232 0 l17 115 l-239 0 l11 82 l278 325 l104 0 l-46 -326 l76 0 l-11 -81 l-76 0 l-16 -115 l-98 0 ZM88 161 l-11 35 l183 0 l35 249 l26 -8 l-233 -276 Z" /><glyph glyph-name="uni2085" unicode="&#x2085;" d="M183 -8 q-42 0 -79.5 15 q-37.5 15 -62.5 43.5 q-25 28.5 -31 67.5 l88 30 q9 -35 33.5 -51.5 q24.5 -16.5 54.5 -16.5 q29 0 51 13 q22 13 35 35.5 q13 22.5 13 49.5 q0 35 -22.5 58 q-22.5 23 -58.5 23 q-27 0 -50.5 -11.5 q-23.5 -11.5 -36.5 -34.5 l-80 19 l82 290 l281 0 l-9 -83 l-245 0 l46 43 l-60 -218 l-24 17 q22 32 52 46.5 q30 14.5 68 14.5 q48 0 82.5 -20.5 q34.5 -20.5 53.5 -56.5 q19 -36 19 -81 q0 -56 -27.5 -99.5 q-27.5 -43.5 -73 -68 q-45.5 -24.5 -99.5 -24.5 Z" /><glyph glyph-name="uni2086" unicode="&#x2086;" d="M182 -8 q-49 0 -87 19.5 q-38 19.5 -59.5 55 q-21.5 35.5 -21.5 82.5 q0 39 13 72 q13 33 33 61 q20 28 40 51 l164 189 l123 0 l-200 -226 l-20 17 q16 11 31.5 15 q15.5 4 34.5 4 q41 0 74.5 -19 q33.5 -19 53 -52.5 q19.5 -33.5 19.5 -79.5 q0 -51 -25.5 -94.5 q-25.5 -43.5 -70.5 -69 q-45 -25.5 -102 -25.5 ZM188 80 q26 0 47.5 13.5 q21.5 13.5 34 35.5 q12.5 22 12.5 48 q0 33 -22 53.5 q-22 20.5 -53 20.5 q-27 0 -48.5 -13 q-21.5 -13 -34 -35 q-12.5 -22 -12.5 -48 q0 -34 22 -54.5 q22 -20.5 54 -20.5 Z" /><glyph glyph-name="uni2087" unicode="&#x2087;" d="M5 0 l280 439 l-241 0 l11 83 l348 0 l-10 -83 l-273 -439 l-115 0 Z" /><glyph glyph-name="uni2088" unicode="&#x2088;" d="M198 -8 q-53 0 -93 19 q-40 19 -61.5 52 q-21.5 33 -21.5 74 q0 54 33.5 94.5 q33.5 40.5 87.5 57.5 l-8 -24 q-32 11 -50 40 q-18 29 -18 67 q0 45 24 81 q24 36 65 56.5 q41 20.5 92 20.5 q67 0 109.5 -35.5 q42.5 -35.5 42.5 -91.5 q0 -46 -26 -85 q-26 -39 -68 -53 l-3 25 q45 -17 69 -47 q24 -30 24 -76 q0 -47 -24.5 -87 q-24.5 -40 -68.5 -64 q-44 -24 -105 -24 ZM200 74 q43 0 71 25 q28 25 27 65 q0 31 -22 49.5 q-22 18.5 -59 18.5 q-43 0 -70 -24.5 q-27 -24.5 -27 -63.5 q0 -31 22 -50.5 q22 -19.5 58 -19.5 ZM226 315 q33 0 54 23 q21 23 21 52 q0 25 -17 41 q-17 16 -44 16 q-32 0 -54 -21.5 q-22 -21.5 -22 -52.5 q0 -24 17 -41 q17 -17 45 -17 Z" /><glyph glyph-name="uni2089" unicode="&#x2089;" d="M33 0 l200 227 l20 -18 q-15 -11 -31 -15 q-16 -4 -35 -4 q-41 0 -74.5 18.5 q-33.5 18.5 -53 53 q-19.5 34.5 -19.5 78.5 q0 56 27 98.5 q27 42.5 72.5 67 q45.5 24.5 99.5 24.5 q48 0 85.5 -19.5 q37.5 -19.5 59.5 -54.5 q22 -35 22 -82 q0 -39 -13 -73 q-13 -34 -32.5 -62 q-19.5 -28 -39.5 -50 l-165 -189 l-123 0 ZM214 271 q26 0 47.5 13 q21.5 13 34 35 q12.5 22 12.5 48 q0 34 -21.5 54.5 q-21.5 20.5 -54.5 20.5 q-25 0 -46.5 -13 q-21.5 -13 -34 -34.5 q-12.5 -21.5 -12.5 -48.5 q0 -34 21 -54.5 q21 -20.5 54 -20.5 Z" /><glyph glyph-name="space" unicode=" " d="" /><glyph glyph-name="uni00A0" unicode=" " d="" /><glyph glyph-name="uni2002" unicode="&#x2002;" d="" /><glyph glyph-name="uni2003" unicode="&#x2003;" d="" /><glyph glyph-name="uni2007" unicode="&#x2007;" d="" /><glyph glyph-name="uni2008" unicode="&#x2008;" d="" /><glyph glyph-name="uni2009" unicode="&#x2009;" d="" /><glyph glyph-name="uni200A" unicode="&#x200a;" d="" /><glyph glyph-name="uni200B" unicode="&#x200b;" d="" /><glyph glyph-name="CR" unicode="" d="" /><glyph glyph-name="period" unicode="." d="M78 0 l19 130 l115 0 l-19 -130 l-115 0 Z" /><glyph glyph-name="comma" unicode="," d="M37 -147 l7 52 q34 8 56.5 32 q22.5 24 31.5 63 l-55 0 l19 130 l115 0 l-14 -95 q-10 -73 -51 -120.5 q-41 -47.5 -109 -61.5 Z" /><glyph glyph-name="colon" unicode=":" d="M78 0 l19 130 l115 0 l-19 -130 l-115 0 ZM136 411 l18 130 l115 0 l-18 -130 l-115 0 Z" /><glyph glyph-name="semicolon" unicode=";" d="M57 -147 l8 52 q34 8 56 32 q22 24 32 63 l-55 0 l18 130 l115 0 l-13 -95 q-10 -73 -51 -120.5 q-41 -47.5 -110 -61.5 ZM156 411 l18 130 l115 0 l-18 -130 l-115 0 Z" /><glyph glyph-name="exclam" unicode="!" d="M114 222 l66 523 l115 0 l-81 -523 l-100 0 ZM76 0 l18 130 l115 0 l-18 -130 l-115 0 Z" /><glyph glyph-name="exclamdown" unicode="¡" d="M47 -204 l81 523 l100 0 l-66 -523 l-115 0 ZM133 411 l18 130 l115 0 l-18 -130 l-115 0 Z" /><glyph glyph-name="question" unicode="?" d="M214 222 l3 17 q12 65 41 110 q29 45 69 82 q24 23 46 43 q22 20 36 42.5 q14 22.5 14 51.5 q0 35 -25.5 59.5 q-25.5 24.5 -73.5 24.5 q-46 0 -82 -28.5 q-36 -28.5 -48 -76.5 l-103 25 q13 55 47 96.5 q34 41.5 84.5 65 q50.5 23.5 110.5 23.5 q67 0 113 -25.5 q46 -25.5 70.5 -67 q24.5 -41.5 24.5 -88.5 q0 -44 -18.5 -78.5 q-18.5 -34.5 -47.5 -63.5 q-29 -29 -59 -57 q-34 -32 -57.5 -66 q-23.5 -34 -32.5 -77 l-3 -12 l-109 0 ZM183 0 l19 130 l115 0 l-19 -130 l-115 0 Z" /><glyph glyph-name="questiondown" unicode="¿" d="M224 -216 q-66 0 -112.5 26 q-46.5 26 -71 67 q-24.5 41 -24.5 89 q0 44 18.5 78.5 q18.5 34.5 47.5 63.5 q29 29 59 56 q35 33 58 66.5 q23 33.5 32 77.5 l3 11 l109 0 l-3 -16 q-12 -65 -41 -110 q-29 -45 -69 -83 q-24 -22 -46 -42 q-22 -20 -36 -42.5 q-14 -22.5 -14 -51.5 q0 -35 26 -60 q26 -25 73 -25 q47 0 82.5 29 q35.5 29 47.5 77 l103 -25 q-12 -55 -46.5 -97 q-34.5 -42 -84.5 -65.5 q-50 -23.5 -111 -23.5 ZM240 411 l19 130 l115 0 l-19 -130 l-115 0 Z" /><glyph glyph-name="periodcentered" unicode="·" d="M107 206 l19 130 l115 0 l-19 -130 l-115 0 Z" /><glyph glyph-name="bullet" unicode="&#x2022;" d="M298 70 q-53 0 -94.5 23 q-41.5 23 -65 64 q-23.5 41 -23.5 92 q0 62 30.5 112.5 q30.5 50.5 82 80.5 q51.5 30 114.5 30 q52 0 92 -23.5 q40 -23.5 62.5 -63.5 q22.5 -40 22.5 -91 q0 -45 -17.5 -85.5 q-17.5 -40.5 -48 -71.5 q-30.5 -31 -70.5 -49 q-40 -18 -85 -18 Z" /><glyph glyph-name="asterisk" unicode="*" d="M195 371 l-65 53 l92 104 l-113 40 l40 86 l113 -40 l19 131 l91 0 l-19 -131 l125 40 l16 -86 l-125 -40 l63 -104 l-81 -53 l-63 104 l-93 -104 Z" /><glyph glyph-name="numbersign" unicode="#" d="M87 0 l74 174 l-120 0 l14 100 l149 0 l85 198 l-120 0 l14 100 l148 0 l74 173 l115 0 l-74 -173 l180 0 l74 173 l115 0 l-74 -173 l120 0 l-14 -100 l-149 0 l-84 -198 l120 0 l-14 -100 l-149 0 l-74 -174 l-115 0 l74 174 l-180 0 l-74 -174 l-115 0 ZM319 274 l180 0 l84 198 l-179 0 l-85 -198 Z" /><glyph glyph-name="slash" unicode="/" d="M-43 -120 l450 825 l130 0 l-450 -825 l-130 0 Z" /><glyph glyph-name="backslash" unicode="\" d="M290 -120 l-218 825 l121 0 l218 -825 l-121 0 Z" /><glyph glyph-name="hyphen" unicode="-" d="M76 221 l14 100 l400 0 l-14 -100 l-400 0 Z" /><glyph glyph-name="endash" unicode="&#x2013;" d="M76 221 l14 100 l460 0 l-14 -100 l-460 0 Z" /><glyph glyph-name="emdash" unicode="&#x2014;" d="M76 221 l14 100 l790 0 l-14 -100 l-790 0 Z" /><glyph glyph-name="underscore" unicode="_" d="M31 -100 l14 100 l475 0 l-14 -100 l-475 0 Z" /><glyph glyph-name="uni208D" unicode="&#x208d;" d="M135 -120 q-44 58 -66 125 q-22 67 -22 141 q0 106 40.5 202.5 q40.5 96.5 114.5 173.5 l80 0 q-38 -48 -69 -107.5 q-31 -59.5 -49.5 -127.5 q-18.5 -68 -18.5 -145 q0 -67 17 -134 q17 -67 51 -128 l-78 0 Z" /><glyph glyph-name="uni208E" unicode="&#x208e;" d="M0 -120 q59 78 97.5 174 q38.5 96 38.5 207 q0 70 -17.5 134.5 q-17.5 64.5 -51.5 126.5 l78 0 q46 -59 67.5 -125 q21.5 -66 21.5 -140 q0 -106 -40 -202.5 q-40 -96.5 -116 -174.5 l-78 0 Z" /><glyph glyph-name="parenleft" unicode="(" d="M182 -160 q-62 81 -93 175 q-31 94 -31 199 q0 101 25.5 195.5 q25.5 94.5 74.5 179.5 q49 85 119 156 l95 0 q-58 -72 -102 -157 q-44 -85 -69 -179.5 q-25 -94.5 -25 -195.5 q0 -98 25 -192 q25 -94 76 -181 l-95 0 Z" /><glyph glyph-name="parenright" unicode=")" d="M3 -160 q59 76 103 162 q44 86 68 179.5 q24 93.5 24 192.5 q0 99 -25 192 q-25 93 -75 179 l95 0 q62 -81 92.5 -174.5 q30.5 -93.5 30.5 -197.5 q0 -100 -25 -194.5 q-25 -94.5 -73.5 -179.5 q-48.5 -85 -119.5 -159 l-95 0 Z" /><glyph glyph-name="braceleft" unicode="{" d="M226 -160 q-77 0 -115.5 41.5 q-38.5 41.5 -28.5 112.5 l25 182 q5 29 -7 46 q-12 17 -40 17 l-30 0 l14 100 l30 0 q28 0 44.5 17.5 q16.5 17.5 20.5 46.5 l27 188 q10 72 60 113 q50 41 127 41 l42 0 l-14 -100 l-42 0 q-23 0 -39 -15 q-16 -15 -20 -41 l-24 -177 q-5 -38 -24 -69.5 q-19 -31.5 -49 -52.5 q24 -18 34.5 -49 q10.5 -31 4.5 -67 l-25 -178 q-4 -25 7.5 -40.5 q11.5 -15.5 35.5 -15.5 l42 0 l-14 -100 l-42 0 Z" /><glyph glyph-name="braceright" unicode="}" d="M-17 -160 l14 100 l42 0 q24 0 40 15.5 q16 15.5 20 40.5 l24 178 q5 36 23.5 67 q18.5 31 48.5 49 q-24 20 -34 51.5 q-10 31.5 -5 70.5 l26 177 q4 26 -8 41 q-12 15 -35 15 l-42 0 l13 100 l42 0 q78 0 116.5 -41 q38.5 -41 28.5 -113 l-27 -188 q-4 -29 8 -46.5 q12 -17.5 39 -17.5 l30 0 l-14 -100 l-30 0 q-27 0 -43.5 -17 q-16.5 -17 -21.5 -46 l-25 -182 q-10 -71 -60 -112.5 q-50 -41.5 -128 -41.5 l-42 0 Z" /><glyph glyph-name="bracketleft" unicode="[" d="M39 -160 l127 905 l240 0 l-14 -100 l-125 0 l-99 -705 l125 0 l-14 -100 l-240 0 Z" /><glyph glyph-name="bracketright" unicode="]" d="M-17 -160 l14 100 l125 0 l100 705 l-125 0 l13 100 l240 0 l-127 -905 l-240 0 Z" /><glyph glyph-name="uni207D" unicode="&#x207d;" d="M166 103 q-44 58 -66 125 q-22 67 -22 141 q0 106 40.5 202.5 q40.5 96.5 114.5 173.5 l80 0 q-38 -48 -69 -107.5 q-31 -59.5 -49.5 -127.5 q-18.5 -68 -18.5 -145 q0 -67 17 -134 q17 -67 51 -128 l-78 0 Z" /><glyph glyph-name="uni207E" unicode="&#x207e;" d="M31 103 q59 78 97.5 174 q38.5 96 38.5 207 q0 70 -17.5 134.5 q-17.5 64.5 -51.5 126.5 l78 0 q46 -59 67.5 -125 q21.5 -66 21.5 -140 q0 -106 -40 -202.5 q-40 -96.5 -116 -174.5 l-78 0 Z" /><glyph glyph-name="quotesinglbase" unicode="&#x201a;" d="M38 -137 l7 55 q34 8 55 29.5 q21 21.5 29 52.5 l-52 0 l18 130 l115 0 l-12 -85 q-10 -73 -51 -120.5 q-41 -47.5 -109 -61.5 Z" /><glyph glyph-name="quotedblbase" unicode="&#x201e;" d="M77 -137 l7 55 q34 8 55 29.5 q21 21.5 29 52.5 l-52 0 l18 130 l115 0 l-12 -85 q-10 -73 -51 -120.5 q-41 -47.5 -109 -61.5 ZM262 -137 l7 55 q34 8 55 29.5 q21 21.5 29 52.5 l-52 0 l18 130 l115 0 l-12 -85 q-10 -73 -51 -120.5 q-41 -47.5 -109 -61.5 Z" /><glyph glyph-name="quotedblleft" unicode="&#x201c;" d="M262 490 l12 85 q10 73 50.5 120.5 q40.5 47.5 109.5 61.5 l-8 -55 q-34 -8 -54.5 -29.5 q-20.5 -21.5 -29.5 -52.5 l53 0 l-18 -130 l-115 0 ZM77 490 l12 85 q10 73 50.5 120.5 q40.5 47.5 109.5 61.5 l-8 -55 q-34 -8 -54.5 -29.5 q-20.5 -21.5 -29.5 -52.5 l53 0 l-18 -130 l-115 0 Z" /><glyph glyph-name="quotedblright" unicode="&#x201d;" d="M262 478 l7 55 q34 8 55 29.5 q21 21.5 29 52.5 l-52 0 l18 130 l115 0 l-12 -85 q-10 -73 -51 -120.5 q-41 -47.5 -109 -61.5 ZM77 478 l7 55 q34 8 55 29.5 q21 21.5 29 52.5 l-52 0 l18 130 l115 0 l-12 -85 q-10 -73 -51 -120.5 q-41 -47.5 -109 -61.5 Z" /><glyph glyph-name="quoteleft" unicode="&#x2018;" d="M126 490 l12 85 q10 73 50.5 120.5 q40.5 47.5 109.5 61.5 l-8 -55 q-34 -8 -54.5 -29.5 q-20.5 -21.5 -29.5 -52.5 l53 0 l-18 -130 l-115 0 Z" /><glyph glyph-name="quoteright" unicode="&#x2019;" d="M125 478 l7 55 q34 8 55 29.5 q21 21.5 29 52.5 l-52 0 l18 130 l115 0 l-12 -85 q-10 -73 -51 -120.5 q-41 -47.5 -109 -61.5 Z" /><glyph glyph-name="guillemotleft" unicode="«" d="M165 74 l-126 195 l181 195 l135 0 l-190 -206 l118 -184 l-118 0 ZM435 74 l-126 195 l181 195 l135 0 l-190 -206 l118 -184 l-118 0 Z" /><glyph glyph-name="guillemotright" unicode="»" d="M282 74 l190 207 l-118 183 l118 0 l126 -195 l-181 -195 l-135 0 ZM12 74 l190 207 l-118 183 l118 0 l126 -195 l-181 -195 l-135 0 Z" /><glyph glyph-name="guilsinglleft" unicode="&#x2039;" d="M165 74 l-126 195 l181 195 l135 0 l-190 -206 l118 -184 l-118 0 Z" /><glyph glyph-name="guilsinglright" unicode="&#x203a;" d="M12 74 l190 207 l-118 183 l118 0 l126 -195 l-181 -195 l-135 0 Z" /><glyph glyph-name="quotedbl" unicode="&quot;" d="M138 484 l20 261 l105 0 l-50 -261 l-75 0 ZM312 484 l21 261 l105 0 l-51 -261 l-75 0 Z" /><glyph glyph-name="quotesingle" unicode="&#39;" d="M138 484 l20 261 l105 0 l-50 -261 l-75 0 Z" /><glyph glyph-name="florin" unicode="&#x192;" d="M100 -12 q-14 0 -28 2 q-14 2 -23 4 l8 97 q8 -1 17.5 -2 q9.5 -1 13.5 -1 q47 0 79 24.5 q32 24.5 40 81.5 l18 130 l-124 0 l14 98 l124 0 l20 141 q10 66 40.5 109 q30.5 43 76.5 64 q46 21 101 21 q14 0 28 -2 q14 -2 23 -4 l-8 -96 q-8 2 -17.5 2 q-9.5 0 -13.5 0 q-47 0 -79 -24 q-32 -24 -40 -82 l-18 -129 l124 0 l-14 -98 l-124 0 l-20 -141 q-9 -66 -40 -109 q-31 -43 -77 -64.5 q-46 -21.5 -101 -21.5 Z" /><glyph glyph-name="uni0E3F" unicode="&#xe3f;" d="M40 0 l104 745 l301 0 q97 0 151.5 -48 q54.5 -48 54.5 -132 q0 -40 -13 -75 q-13 -35 -39 -62 q-26 -27 -63 -46 l-7 40 q63 -26 91 -72 q28 -46 28 -100 q0 -76 -34.5 -132 q-34.5 -56 -98 -87 q-63.5 -31 -148.5 -31 l-327 0 ZM172 105 l215 0 q43 0 75 17 q32 17 50 47.5 q18 30.5 18 70.5 q0 47 -31.5 75.5 q-31.5 28.5 -85.5 28.5 l-208 0 l-33 -239 ZM220 448 l196 0 q35 0 61 14.5 q26 14.5 41 40 q15 25.5 15 57.5 q0 39 -26 61 q-26 22 -70 22 l-190 0 l-27 -195 ZM244 -100 l132 945 l81 0 l-132 -945 l-81 0 Z" /><glyph glyph-name="uni2605" unicode="&#x2605;" d="M232 -12 l95 293 l-250 182 l309 0 l95 294 l96 -294 l309 0 l-250 -182 l96 -293 l-251 181 l-249 -181 Z" /><glyph glyph-name="uni2606" unicode="&#x2606;" d="M232 -12 l95 293 l-250 182 l309 0 l95 294 l96 -294 l309 0 l-250 -182 l96 -293 l-251 181 l-249 -181 ZM365 171 l116 85 l118 -85 l-45 137 l117 85 l-145 0 l-45 138 l-44 -138 l-145 0 l117 -85 l-44 -137 Z" /><glyph glyph-name="at" unicode="@" d="M446 -214 q-88 0 -161 29 q-73 29 -126.5 82 q-53.5 53 -82.5 124.5 q-29 71.5 -29 156.5 q0 92 32.5 174 q32.5 82 92 144.5 q59.5 62.5 142.5 98.5 q83 36 185 36 q91 0 164.5 -30 q73.5 -30 125 -83 q51.5 -53 79 -123 q27.5 -70 27.5 -150 q0 -77 -24.5 -131.5 q-24.5 -54.5 -66.5 -84 q-42 -29.5 -96 -29.5 q-34 0 -65.5 13 q-31.5 13 -51 39 q-19.5 26 -20.5 66 l18 -38 q-13 -25 -37.5 -43 q-24.5 -18 -55.5 -27.5 q-31 -9.5 -64 -9.5 q-55 0 -99 25.5 q-44 25.5 -69 70 q-25 44.5 -25 101.5 q0 64 30 117 q30 53 81.5 85 q51.5 32 114.5 32 q51 0 91.5 -19 q40.5 -19 55.5 -51 l-14 -27 l13 87 l83 0 l-35 -251 q-4 -29 3 -47.5 q7 -18.5 21 -26.5 q14 -8 30 -8 q40 0 62 37.5 q22 37.5 22 107.5 q0 92 -35.5 161 q-35.5 69 -101.5 108 q-66 39 -160 39 q-78 0 -143 -27.5 q-65 -27.5 -112.5 -77 q-47.5 -49.5 -73.5 -113.5 q-26 -64 -26 -138 q0 -91 39 -160.5 q39 -69.5 109 -109 q70 -39.5 161 -39.5 q46 0 89.5 11 q43.5 11 81.5 32 l35 -78 q-46 -27 -101 -41 q-55 -14 -113 -14 ZM447 88 q37 0 66.5 18.5 q29.5 18.5 47 50 q17.5 31.5 17.5 69.5 q0 51 -31.5 83.5 q-31.5 32.5 -81.5 32.5 q-38 1 -67.5 -17.5 q-29.5 -18.5 -47 -49.5 q-17.5 -31 -17.5 -69 q0 -51 32.5 -84.5 q32.5 -33.5 81.5 -33.5 Z" /><glyph glyph-name="ampersand" unicode="&amp;" d="M268 -12 q-62 0 -109 22.5 q-47 22.5 -73.5 64 q-26.5 41.5 -26.5 100.5 q0 45 15 80.5 q15 35.5 40.5 63 q25.5 27.5 57 49 q31.5 21.5 64.5 38.5 l76 40 q51 27 79.5 51 q28.5 24 39.5 47 q11 23 11 46 q0 31 -19 51 q-19 20 -51 20 q-28 0 -50.5 -13 q-22.5 -13 -35.5 -36 q-13 -23 -13 -51 q0 -24 9.5 -46.5 q9.5 -22.5 23.5 -42 q14 -19.5 27 -36.5 l356 -436 l-139 0 l-303 371 q-19 23 -38.5 50.5 q-19.5 27.5 -32.5 60 q-13 32.5 -13 71.5 q0 58 28 104 q28 46 76 73 q48 27 105 27 q52 0 91.5 -21.5 q39.5 -21.5 62 -59 q22.5 -37.5 22.5 -85.5 q0 -50 -22 -89 q-22 -39 -59.5 -70.5 q-37.5 -31.5 -85.5 -58.5 l-79 -45 q-30 -17 -58.5 -37 q-28.5 -20 -47 -47.5 q-18.5 -27.5 -18.5 -66.5 q0 -42 26 -65.5 q26 -23.5 70 -23.5 q32 0 57.5 10.5 q25.5 10.5 45 27.5 q19.5 17 36 36 q16.5 19 30.5 36 l133 168 l125 0 l-156 -210 q-19 -24 -44 -53.5 q-25 -29.5 -58 -55.5 q-33 -26 -76.5 -42.5 q-43.5 -16.5 -98.5 -16.5 Z" /><glyph glyph-name="paragraph" unicode="¶" d="M215 -100 l63 448 q-60 0 -102 25.5 q-42 25.5 -61.5 70.5 q-19.5 45 -11.5 102 q8 58 40.5 103 q32.5 45 81.5 70.5 q49 25.5 108 25.5 l118 0 l-118 -845 l-118 0 Z" /><glyph glyph-name="section" unicode="§" d="M231 -100 q-87 0 -148 43 q-61 43 -80 116 l92 41 q19 -49 57 -77.5 q38 -28.5 88 -28.5 q31 0 55 10 q24 10 37.5 28 q13.5 18 13.5 41 q0 19 -10 31.5 q-10 12.5 -26.5 21 q-16.5 8.5 -33.5 13.5 l-87 25 q-67 20 -99 57.5 q-32 37.5 -32 86.5 q0 54 29 96.5 q29 42.5 79.5 67 q50.5 24.5 112.5 24.5 l-8 -65 q-28 0 -50 -12 q-22 -12 -35 -33.5 q-13 -21.5 -13 -48.5 q0 -23 10.5 -38 q10.5 -15 28 -24.5 q17.5 -9.5 36.5 -15.5 l82 -25 q63 -19 96 -57 q33 -38 33 -90 q0 -53 -29.5 -95.5 q-29.5 -42.5 -81 -67 q-51.5 -24.5 -117.5 -24.5 ZM258 161 l7 64 q31 0 55 12.5 q24 12.5 38 34.5 q14 22 14 50 q0 22 -10.5 37.5 q-10.5 15.5 -28 26 q-17.5 10.5 -38.5 16.5 l-79 23 q-67 20 -98.5 58 q-31.5 38 -31.5 86 q0 54 29 96.5 q29 42.5 79 67 q50 24.5 113 24.5 q75 0 132.5 -38 q57.5 -38 75.5 -107 l-93 -41 q-13 42 -47.5 66.5 q-34.5 24.5 -79.5 24.5 q-28 0 -49.5 -10 q-21.5 -10 -33.5 -27 q-12 -17 -12 -39 q0 -19 10 -31.5 q10 -12.5 26 -19.5 q16 -7 30 -12 l91 -28 q63 -19 96.5 -57 q33.5 -38 33.5 -90 q0 -53 -30 -95.5 q-30 -42.5 -81.5 -67 q-51.5 -24.5 -117.5 -24.5 Z" /><glyph glyph-name="copyright" unicode="©" d="M455 -12 q-78 0 -144 27.5 q-66 27.5 -115 77 q-49 49.5 -76.5 115 q-27.5 65.5 -27.5 141.5 q0 84 32.5 157.5 q32.5 73.5 89.5 130 q57 56.5 131 88.5 q74 32 158 32 q77 0 142.5 -27.5 q65.5 -27.5 114.5 -76.5 q49 -49 76.5 -114.5 q27.5 -65.5 27.5 -140.5 q0 -85 -33 -159 q-33 -74 -89.5 -130.5 q-56.5 -56.5 -130.5 -88.5 q-74 -32 -156 -32 ZM455 73 q65 0 123.5 25.5 q58.5 25.5 103.5 70 q45 44.5 71 103.5 q26 59 26 126 q0 58 -21 108 q-21 50 -58.5 87.5 q-37.5 37.5 -87.5 58.5 q-50 21 -109 21 q-67 0 -126 -25.5 q-59 -25.5 -104 -70 q-45 -44.5 -70.5 -103.5 q-25.5 -59 -25.5 -125 q0 -78 36.5 -140.5 q36.5 -62.5 99 -99 q62.5 -36.5 142.5 -36.5 ZM472 163 q-57 0 -101 25.5 q-44 25.5 -69 70 q-25 44.5 -25 101.5 q0 64 29.5 114.5 q29.5 50.5 79 79 q49.5 28.5 110.5 28.5 q44 0 79.5 -15 q35.5 -15 58.5 -40 q23 -25 31 -55 l-81 -31 q-9 26 -31 43 q-22 17 -57 17 q-37 0 -66.5 -18.5 q-29.5 -18.5 -45.5 -50.5 q-16 -32 -16 -75 q0 -50 28 -81.5 q28 -31.5 76 -31.5 q35 0 62 18.5 q27 18.5 39 44.5 l79 -36 q-12 -31 -38.5 -55 q-26.5 -24 -62.5 -38.5 q-36 -14.5 -79 -14.5 Z" /><glyph glyph-name="registered" unicode="®" d="M356 272 q-69 0 -124 32 q-55 32 -86.5 87 q-31.5 55 -31.5 122 q0 56 21.5 105 q21.5 49 59.5 86 q38 37 87.5 58.5 q49.5 21.5 104.5 21.5 q67 0 121.5 -32 q54.5 -32 86.5 -86 q32 -54 32 -122 q0 -55 -21.5 -104.5 q-21.5 -49.5 -59.5 -87 q-38 -37.5 -87 -59 q-49 -21.5 -103 -21.5 ZM355 338 q56 0 102.5 28 q46.5 28 75 75 q28.5 47 28.5 104 q0 50 -23 89 q-23 39 -62.5 62 q-39.5 23 -88.5 23 q-58 0 -105.5 -28 q-47.5 -28 -75 -75 q-27.5 -47 -27.5 -104 q0 -49 23 -88.5 q23 -39.5 63 -62.5 q40 -23 90 -23 ZM247 393 l37 271 l106 0 q41 0 67.5 -20.5 q26.5 -20.5 26.5 -63.5 q0 -27 -12 -48 q-12 -21 -34 -33 l53 -106 l-74 0 l-44 93 l-44 0 l-13 -93 l-69 0 ZM337 545 l46 0 q13 0 23.5 10 q10.5 10 10.5 24 q0 11 -7.5 18.5 q-7.5 7.5 -20.5 7.5 l-44 0 l-8 -60 Z" /><glyph glyph-name="trademark" unicode="&#x2122;" d="M182 298 l50 361 l-112 0 l12 86 l321 0 l-12 -86 l-110 0 l-50 -361 l-99 0 ZM432 298 l62 447 l90 0 l137 -219 l-40 0 l193 219 l96 0 l-62 -447 l-98 0 l47 340 l39 -9 l-204 -220 l-13 0 l-136 220 l35 9 l-47 -340 l-99 0 Z" /><glyph glyph-name="degree" unicode="°" d="M293 429 q-44 0 -79 20 q-35 20 -55 54.5 q-20 34.5 -20 77.5 q0 48 24 88 q24 40 64 64 q40 24 89 24 q44 0 78.5 -20 q34.5 -20 55 -54.5 q20.5 -34.5 20.5 -77.5 q0 -48 -24 -88 q-24 -40 -64.5 -64 q-40.5 -24 -88.5 -24 ZM298 510 q25 0 45.5 12 q20.5 12 32.5 32.5 q12 20.5 12 44.5 q0 34 -23 55.5 q-23 21.5 -56 21.5 q-36 0 -62.5 -26 q-26.5 -26 -26.5 -64 q0 -33 22.5 -54.5 q22.5 -21.5 55.5 -21.5 Z" /><glyph glyph-name="minute" unicode="&#x2032;" d="M155 484 l36 261 l105 0 l-51 -261 l-90 0 Z" /><glyph glyph-name="second" unicode="&#x2033;" d="M155 484 l36 261 l105 0 l-51 -261 l-90 0 ZM329 484 l36 261 l105 0 l-50 -261 l-91 0 Z" /><glyph glyph-name="bar" unicode="|" d="M60 -190 l146 1035 l115 0 l-146 -1035 l-115 0 Z" /><glyph glyph-name="brokenbar" unicode="¦" d="M147 428 l59 417 l115 0 l-59 -417 l-115 0 ZM60 -190 l59 418 l115 0 l-59 -418 l-115 0 Z" /><glyph glyph-name="dagger" unicode="&#x2020;" d="M206 -190 l88 621 l-213 0 l16 107 l212 0 l29 207 l115 0 l-29 -207 l213 0 l-16 -107 l-212 0 l-88 -621 l-115 0 Z" /><glyph glyph-name="uni2113" unicode="&#x2113;" d="M345 -6 q-83 0 -117.5 37.5 q-34.5 37.5 -24.5 114.5 l59 416 q9 61 39.5 104.5 q30.5 43.5 75 67 q44.5 23.5 95.5 23.5 q49 0 82 -20.5 q33 -20.5 50.5 -56.5 q17.5 -36 17.5 -81 q0 -68 -29.5 -131.5 q-29.5 -63.5 -82 -120.5 q-52.5 -57 -123 -105.5 q-70.5 -48.5 -153 -85.5 q-82.5 -37 -171.5 -60 l-18 93 q96 27 179 68 q83 41 145.5 92.5 q62.5 51.5 97.5 114 q35 62.5 35 133.5 q0 32 -12.5 50 q-12.5 18 -35.5 18 q-28 0 -50 -25 q-22 -25 -28 -71 l-59 -416 q-4 -30 11 -45.5 q15 -15.5 46 -15.5 l99 0 l-13 -98 l-115 0 Z" /><glyph glyph-name="daggerdbl" unicode="&#x2021;" d="M223 -190 l29 207 l-213 0 l16 108 l212 0 l43 306 l-212 0 l15 107 l213 0 l29 207 l115 0 l-29 -207 l212 0 l-15 -107 l-213 0 l-43 -306 l213 0 l-16 -108 l-212 0 l-29 -207 l-115 0 Z" /><glyph glyph-name="estimated" unicode="&#x212e;" d="M442 -10 q-85 0 -155.5 28 q-70.5 28 -121.5 77.5 q-51 49.5 -78.5 114.5 q-27.5 65 -27.5 139 q0 75 28 140.5 q28 65.5 79 115 q51 49.5 120.5 77.5 q69.5 28 152.5 28 q83 0 152.5 -28 q69.5 -28 120.5 -77.5 q51 -49.5 79 -114.5 q28 -65 28 -140 l0 -9 l-609 0 q-5 0 -5 -6 l0 -195 q0 -7 1.5 -10.5 q1.5 -3.5 8.5 -11.5 q39 -45 92 -75.5 q53 -30.5 135 -30.5 q81 0 134.5 31 q53.5 31 101.5 86 l58 0 q-35 -41 -75.5 -72.5 q-40.5 -31.5 -93.5 -49 q-53 -17.5 -125 -17.5 ZM210 360 l458 0 q4 0 4 6 l0 196 q0 3 -1 10 q-1 7 -9 14 q-30 32 -60.5 55 q-30.5 23 -69 35 q-38.5 12 -93.5 12 q-82 0 -134 -31 q-52 -31 -89 -74 q-8 -10 -9.5 -13 q-1.5 -3 -1.5 -11 l0 -193 q0 -6 5 -6 Z" /><glyph glyph-name="uni20B3" unicode="&#x20b3;" d="M-19 0 l366 745 l146 0 l158 -745 l-122 0 l-132 661 l32 -4 l-316 -657 l-132 0 ZM0 183 l10 77 l670 0 l-10 -77 l-670 0 ZM20 330 l11 78 l670 0 l-11 -78 l-670 0 Z" /><glyph glyph-name="uni20BF" unicode="&#x20bf;" d="M40 0 l104 745 l301 0 q97 0 151.5 -48 q54.5 -48 54.5 -132 q0 -40 -13 -75 q-13 -35 -39 -62 q-26 -27 -63 -46 l-7 40 q63 -26 91 -72 q28 -46 28 -100 q0 -76 -34.5 -132 q-34.5 -56 -98 -87 q-63.5 -31 -148.5 -31 l-327 0 ZM172 105 l215 0 q43 0 75 17 q32 17 50 47.5 q18 30.5 18 70.5 q0 47 -31.5 75.5 q-31.5 28.5 -85.5 28.5 l-208 0 l-33 -239 ZM220 448 l196 0 q35 0 61 14.5 q26 14.5 41 40 q15 25.5 15 57.5 q0 39 -26 61 q-26 22 -70 22 l-190 0 l-27 -195 ZM176 -100 l20 147 l81 0 l-20 -147 l-81 0 ZM313 -100 l20 147 l81 0 l-20 -147 l-81 0 ZM288 699 l20 146 l81 0 l-20 -146 l-81 0 ZM425 699 l20 146 l81 0 l-20 -146 l-81 0 Z" /><glyph glyph-name="uni20B5" unicode="&#x20b5;" d="M415 -12 q-73 0 -136 25.5 q-63 25.5 -110 72.5 q-47 47 -73 113 q-26 66 -26 147 q0 85 29.5 159.5 q29.5 74.5 82.5 131 q53 56.5 124.5 88.5 q71.5 32 156.5 32 q80 0 141.5 -27.5 q61.5 -27.5 102 -71.5 q40.5 -44 55.5 -95 l-109 -46 q-20 59 -69 96 q-49 37 -124 37 q-59 0 -108.5 -23 q-49.5 -23 -86.5 -64 q-37 -41 -57 -96.5 q-20 -55.5 -20 -121.5 q0 -75 28.5 -131.5 q28.5 -56.5 79.5 -87 q51 -30.5 119 -30.5 q78 0 133.5 38 q55.5 38 83.5 97 l104 -52 q-22 -51 -68 -94.5 q-46 -43.5 -110 -70 q-64 -26.5 -143 -26.5 ZM319 -100 l132 945 l81 0 l-132 -945 l-81 0 Z" /><glyph glyph-name="cent" unicode="¢" d="M319 91 q-75 0 -134 34.5 q-59 34.5 -92.5 94.5 q-33.5 60 -33.5 136 q0 63 23 117.5 q23 54.5 63 95.5 q40 41 93.5 64 q53.5 23 115.5 23 q57 0 104 -19.5 q47 -19.5 80.5 -54 q33.5 -34.5 47.5 -80.5 l-101 -43 q-14 42 -49 67 q-35 25 -83 25 q-52 0 -91.5 -27.5 q-39.5 -27.5 -62 -72 q-22.5 -44.5 -22.5 -95.5 q0 -47 18.5 -83 q18.5 -36 52 -56.5 q33.5 -20.5 75.5 -20.5 q51 0 90 26 q39 26 59 69 l97 -50 q-20 -44 -57 -78 q-37 -34 -86.5 -53 q-49.5 -19 -106.5 -19 ZM243 0 l104 745 l81 0 l-104 -745 l-81 0 Z" /><glyph glyph-name="colonmonetary" unicode="&#x20a1;" d="M415 -12 q-73 0 -136 25.5 q-63 25.5 -110 72.5 q-47 47 -73 113 q-26 66 -26 147 q0 85 29.5 159.5 q29.5 74.5 82.5 131 q53 56.5 124.5 88.5 q71.5 32 156.5 32 q80 0 141.5 -27.5 q61.5 -27.5 102 -71.5 q40.5 -44 55.5 -95 l-109 -46 q-20 59 -69 96 q-49 37 -124 37 q-59 0 -108.5 -23 q-49.5 -23 -86.5 -64 q-37 -41 -57 -96.5 q-20 -55.5 -20 -121.5 q0 -75 28.5 -131.5 q28.5 -56.5 79.5 -87 q51 -30.5 119 -30.5 q78 0 133.5 38 q55.5 38 83.5 97 l104 -52 q-22 -51 -68 -94.5 q-46 -43.5 -110 -70 q-64 -26.5 -143 -26.5 ZM171 -100 l264 945 l80 0 l-264 -945 l-80 0 ZM306 -100 l264 945 l80 0 l-264 -945 l-80 0 Z" /><glyph glyph-name="currency" unicode="¤" d="M91 17 l-60 67 l86 78 q-10 19 -15.5 40.5 q-5.5 21.5 -5.5 45.5 q0 34 11.5 67 q11.5 33 32.5 61 l-70 78 l74 67 l70 -78 q26 16 54.5 24 q28.5 8 55.5 8 q29 0 55.5 -8 q26.5 -8 48.5 -24 l86 78 l60 -67 l-86 -78 q11 -21 16 -42.5 q5 -21.5 5 -43.5 q0 -34 -11.5 -67.5 q-11.5 -33.5 -31.5 -60.5 l69 -78 l-74 -67 l-69 78 q-25 -15 -53 -23 q-28 -8 -58 -8 q-27 0 -54 7.5 q-27 7.5 -50 23.5 l-86 -78 ZM292 167 q31 0 56.5 15.5 q25.5 15.5 41.5 41.5 q16 26 16 56 q0 27 -12.5 47.5 q-12.5 20.5 -33 32.5 q-20.5 12 -47.5 12 q-30 0 -56 -16 q-26 -16 -42 -41.5 q-16 -25.5 -16 -56.5 q0 -25 12 -46 q12 -21 33 -33 q21 -12 48 -12 Z" /><glyph glyph-name="dollar" unicode="$" d="M321 -12 q-73 0 -132.5 26 q-59.5 26 -100 72.5 q-40.5 46.5 -54.5 108.5 l102 37 q19 -67 68.5 -103.5 q49.5 -36.5 117.5 -36.5 q45 0 77 15 q32 15 49.5 40.5 q17.5 25.5 17.5 57.5 q0 34 -20.5 57 q-20.5 23 -62.5 36 l-131 42 q-76 25 -114.5 74 q-38.5 49 -38.5 117 q0 63 33 114 q33 51 91 81.5 q58 30.5 132 30.5 q68 0 122.5 -24 q54.5 -24 90.5 -66 q36 -42 49 -96 l-101 -37 q-16 56 -59 88 q-43 32 -104 32 q-41 0 -72 -14.5 q-31 -14.5 -48 -39.5 q-17 -25 -17 -59 q0 -34 20.5 -58.5 q20.5 -24.5 64.5 -39.5 l121 -40 q81 -26 121.5 -74 q40.5 -48 40.5 -116 q0 -61 -34 -112.5 q-34 -51.5 -93 -82 q-59 -30.5 -136 -30.5 ZM235 -100 l132 945 l81 0 l-132 -945 l-81 0 Z" /><glyph glyph-name="dong" unicode="&#x20ab;" d="M265 139 q-61 0 -108 26.5 q-47 26.5 -73 73.5 q-26 47 -26 108 q0 74 33 129.5 q33 55.5 87.5 86.5 q54.5 31 120.5 31 q53 0 91 -20.5 q38 -20.5 58 -53.5 l-22 -20 l34 245 l109 0 l-84 -596 l-102 0 l11 83 l24 -16 q-24 -38 -65.5 -57.5 q-41.5 -19.5 -87.5 -19.5 ZM279 237 q38 0 68 19 q30 19 47 51.5 q17 32.5 17 72.5 q0 33 -13.5 59 q-13.5 26 -38.5 41.5 q-25 15.5 -57 15.5 q-39 0 -69 -19 q-30 -19 -46.5 -51.5 q-16.5 -32.5 -16.5 -72.5 q0 -34 13.5 -60 q13.5 -26 38.5 -41 q25 -15 57 -15 ZM9 0 l11 75 l474 0 l-12 -75 l-473 0 ZM383 626 l10 75 l227 0 l-10 -75 l-227 0 Z" /><glyph glyph-name="Euro" unicode="&#x20ac;" d="M438 -12 q-88 0 -158.5 43 q-70.5 43 -111 122 q-40.5 79 -40.5 186 q0 86 26.5 162 q26.5 76 75 133.5 q48.5 57.5 115 90 q66.5 32.5 145.5 32.5 q100 0 172 -51.5 q72 -51.5 96 -140.5 l-108 -42 q-18 61 -62 95 q-44 34 -105 34 q-52 0 -95.5 -24 q-43.5 -24 -75.5 -66 q-32 -42 -50 -98 q-18 -56 -18 -120 q0 -76 25 -132 q25 -56 70 -87.5 q45 -31.5 104 -31.5 q62 0 110.5 34.5 q48.5 34.5 74.5 94.5 l103 -42 q-25 -59 -68.5 -102 q-43.5 -43 -101.5 -66.5 q-58 -23.5 -123 -23.5 ZM27 261 l11 77 l446 0 l-10 -77 l-447 0 ZM48 408 l10 78 l447 0 l-11 -78 l-446 0 Z" /><glyph glyph-name="franc" unicode="&#x20a3;" d="M81 0 l104 745 l485 0 l-14 -105 l-368 0 l-31 -224 l327 0 l-14 -105 l-328 0 l-43 -311 l-118 0 ZM17 117 l11 78 l398 0 l-11 -78 l-398 0 Z" /><glyph glyph-name="uni20B2" unicode="&#x20b2;" d="M413 -12 q-72 0 -134 25 q-62 25 -109 72 q-47 47 -73.5 113 q-26.5 66 -26.5 147 q0 87 30.5 162 q30.5 75 84.5 131 q54 56 126 87.5 q72 31.5 155 31.5 q78 0 139 -27 q61 -27 101.5 -70.5 q40.5 -43.5 55.5 -94.5 l-108 -51 q-19 61 -69.5 98.5 q-50.5 37.5 -126.5 37.5 q-59 0 -108.5 -23 q-49.5 -23 -86 -64 q-36.5 -41 -56 -95.5 q-19.5 -54.5 -19.5 -117.5 q0 -77 29.5 -134.5 q29.5 -57.5 82.5 -88.5 q53 -31 123 -31 q63 0 114.5 25.5 q51.5 25.5 84.5 72 q33 46.5 40 108.5 l7 51 l49 -48 l-283 0 l9 100 l346 0 l-7 -80 q-8 -79 -40 -141.5 q-32 -62.5 -82.5 -106 q-50.5 -43.5 -114 -66.5 q-63.5 -23 -133.5 -23 ZM320 -100 l132 945 l81 0 l-132 -945 l-81 0 Z" /><glyph glyph-name="uni20B4" unicode="&#x20b4;" d="M443 464 q23 16 38 41 q15 25 15 56 q0 42 -31 67.5 q-31 25.5 -85 25.5 q-42 0 -80.5 -20.5 q-38.5 -20.5 -53.5 -75.5 l-126 0 q14 65 54.5 109.5 q40.5 44.5 98 67 q57.5 22.5 119.5 22.5 q67 0 116.5 -23.5 q49.5 -23.5 77 -65 q27.5 -41.5 27.5 -94.5 q0 -42 -13 -68.5 q-13 -26.5 -25 -41.5 l-132 0 ZM302 -12 q-66 0 -116 24 q-50 24 -77.5 65 q-27.5 41 -27.5 94 q0 44 13.5 70 q13.5 26 24.5 41 l132 0 q-23 -17 -38 -41.5 q-15 -24.5 -15 -56.5 q0 -41 31 -66.5 q31 -25.5 85 -25.5 q28 0 54.5 8.5 q26.5 8.5 48 29.5 q21.5 21 32.5 58 l126 0 q-14 -66 -55.5 -110 q-41.5 -44 -98 -67 q-56.5 -23 -119.5 -23 ZM43 261 l11 77 l576 0 l-11 -77 l-576 0 ZM64 408 l11 78 l576 0 l-11 -78 l-576 0 Z" /><glyph glyph-name="uni20AD" unicode="&#x20ad;" d="M529 0 l-211 352 l1 52 l271 341 l143 0 l-291 -371 l224 -374 l-137 0 ZM81 0 l104 745 l118 0 l-104 -745 l-118 0 ZM48 334 l11 78 l628 0 l-11 -78 l-628 0 Z" /><glyph glyph-name="uni20BE" unicode="&#x20be;" d="M41 0 l15 105 l172 0 l-26 -21 q-61 44 -96.5 112.5 q-35.5 68.5 -35.5 150.5 q0 85 32 159.5 q32 74.5 89 131 q57 56.5 131.5 88 q74.5 31.5 160.5 31.5 q90 0 163.5 -33 q73.5 -33 120.5 -95 q47 -62 56 -148 l-125 0 q-8 54 -38.5 91.5 q-30.5 37.5 -78 57.5 q-47.5 20 -106.5 20 q-61 0 -113 -23 q-52 -23 -91 -64 q-39 -41 -61 -95 q-22 -54 -22 -117 q0 -46 14 -90 q14 -44 43.5 -79 q29.5 -35 77 -56 q47.5 -21 113.5 -21 l345 0 l-15 -105 l-725 0 ZM342 481 l51 364 l80 0 l-51 -364 l-80 0 ZM477 481 l51 364 l80 0 l-51 -364 l-80 0 Z" /><glyph glyph-name="lira" unicode="&#x20a4;" d="M1 0 l14 100 l100 0 l60 426 q10 70 46 122 q36 52 93.5 80.5 q57.5 28.5 130.5 28.5 q62 0 110.5 -24.5 q48.5 -24.5 77 -68.5 q28.5 -44 27.5 -103 l-107 -19 q0 55 -30.5 82.5 q-30.5 27.5 -80.5 27.5 q-62 0 -101.5 -35.5 q-39.5 -35.5 -48.5 -96.5 l-59 -420 l328 0 l-14 -100 l-546 0 ZM58 408 l11 78 l397 0 l-11 -78 l-397 0 ZM38 261 l11 77 l396 0 l-11 -77 l-396 0 Z" /><glyph glyph-name="uni20BA" unicode="&#x20ba;" d="M91 0 l104 745 l118 0 l-89 -640 l27 0 q92 0 160.5 44 q68.5 44 101.5 119 l126 0 q-25 -81 -79.5 -141 q-54.5 -60 -133 -93.5 q-78.5 -33.5 -176.5 -33.5 l-159 0 ZM59 418 l13 89 l436 123 l-13 -89 l-436 -123 ZM35 240 l12 89 l435 123 l-12 -89 l-435 -123 Z" /><glyph glyph-name="uni20BC" unicode="&#x20bc;" d="M34 0 l54 390 q12 78 54 138.5 q42 60.5 109 94.5 q67 34 148 34 q86 0 147.5 -35.5 q61.5 -35.5 91.5 -97.5 q30 -62 19 -140 l-54 -384 l-118 0 l54 384 q7 50 -9.5 87 q-16.5 37 -51.5 58 q-35 21 -85 21 q-48 0 -88.5 -21 q-40.5 -21 -67 -59 q-26.5 -38 -34.5 -90 l-53 -380 l-116 0 ZM280 0 l118 845 l81 0 l-118 -845 l-81 0 Z" /><glyph glyph-name="uni20A6" unicode="&#x20a6;" d="M81 0 l104 745 l140 0 l216 -672 l-37 -7 l95 679 l113 0 l-104 -745 l-141 0 l-211 676 l34 8 l-96 -684 l-113 0 ZM48 334 l11 78 l686 0 l-11 -78 l-686 0 Z" /><glyph glyph-name="peseta" unicode="&#x20a7;" d="M81 0 l104 745 l260 0 q70 0 122 -26 q52 -26 80.5 -75.5 q28.5 -49.5 28.5 -119.5 q0 -71 -34 -126 q-34 -55 -95 -86.5 q-61 -31.5 -144 -31.5 l-165 0 l-39 -280 l-118 0 ZM253 385 l157 0 q44 0 77 18.5 q33 18.5 52 50 q19 31.5 19 71.5 q0 54 -33 84.5 q-33 30.5 -89 30.5 l-148 0 l-35 -255 ZM68 474 l10 78 l665 0 l-10 -78 l-665 0 Z" /><glyph glyph-name="uni20B1" unicode="&#x20b1;" d="M81 0 l104 745 l260 0 q70 0 122 -26 q52 -26 80.5 -75.5 q28.5 -49.5 28.5 -119.5 q0 -71 -34 -126 q-34 -55 -95 -86.5 q-61 -31.5 -144 -31.5 l-165 0 l-39 -280 l-118 0 ZM253 385 l157 0 q44 0 77 18.5 q33 18.5 52 50 q19 31.5 19 71.5 q0 54 -33 84.5 q-33 30.5 -89 30.5 l-148 0 l-35 -255 ZM61 425 l8 63 l665 0 l-8 -63 l-665 0 ZM76 538 l9 62 l665 0 l-9 -62 l-665 0 Z" /><glyph glyph-name="uni20BD" unicode="&#x20bd;" d="M81 0 l39 280 l-80 0 l11 78 l80 0 l54 387 l260 0 q70 0 122 -26 q52 -26 80.5 -75.5 q28.5 -49.5 28.5 -119.5 q0 -71 -34 -126 q-34 -55 -95 -86.5 q-61 -31.5 -144 -31.5 l-165 0 l-39 -280 l-118 0 ZM253 385 l157 0 q44 0 77 18.5 q33 18.5 52 50 q19 31.5 19 71.5 q0 54 -33 84.5 q-33 30.5 -89 30.5 l-148 0 l-35 -255 ZM17 117 l11 78 l398 0 l-11 -78 l-398 0 Z" /><glyph glyph-name="uni20B9" unicode="&#x20b9;" d="M400 0 l-321 280 l15 105 l275 0 q44 0 77 18.5 q33 18.5 52 50 q19 31.5 19 71.5 q0 54 -33 84.5 q-33 30.5 -89 30.5 l-265 0 l14 105 l585 0 l-10 -77 l-181 0 l30 22 q33 -28 50 -70 q17 -42 17 -96 q0 -71 -34 -126 q-34 -55 -95 -86.5 q-61 -31.5 -144 -31.5 l-166 0 l13 35 l355 -315 l-164 0 ZM106 474 l11 78 l585 0 l-10 -78 l-586 0 Z" /><glyph glyph-name="uni20AA" unicode="&#x20aa;" d="M196 0 l83 591 l75 0 l-68 -479 l136 0 q9 0 16.5 7.5 q7.5 7.5 8.5 16.5 l86 609 l115 0 l-89 -630 q-7 -52 -42.5 -83.5 q-35.5 -31.5 -87.5 -31.5 l-233 0 ZM40 0 l104 745 l227 0 q54 0 82.5 -34.5 q28.5 -34.5 21.5 -86.5 l-66 -470 l-75 0 l65 462 q1 9 -2.5 13 q-3.5 4 -11.5 4 l-142 0 l-88 -633 l-115 0 Z" /><glyph glyph-name="sterling" unicode="£" d="M2 0 l14 100 l100 0 l60 426 q10 70 46 122 q36 52 93.5 80.5 q57.5 28.5 130.5 28.5 q62 0 110.5 -24.5 q48.5 -24.5 77 -68.5 q28.5 -44 27.5 -103 l-107 -19 q0 55 -30.5 82.5 q-30.5 27.5 -80.5 27.5 q-62 0 -101.5 -35.5 q-39.5 -35.5 -48.5 -96.5 l-59 -420 l328 0 l-14 -100 l-546 0 ZM49 340 l11 78 l396 0 l-11 -78 l-396 0 Z" /><glyph glyph-name="uni20B8" unicode="&#x20b8;" d="M171 0 l68 485 l-197 0 l14 105 l510 0 l-14 -105 l-194 0 l-68 -485 l-119 0 ZM67 668 l11 77 l510 0 l-11 -77 l-510 0 Z" /><glyph glyph-name="uni20AE" unicode="&#x20ae;" d="M172 0 l89 640 l-198 0 l15 105 l510 0 l-14 -105 l-194 0 l-90 -640 l-118 0 ZM65 320 l12 89 l436 123 l-13 -89 l-435 -123 ZM40 142 l13 89 l434 123 l-12 -89 l-435 -123 Z" /><glyph glyph-name="uni20A9" unicode="&#x20a9;" d="M149 0 l-41 745 l118 0 l15 -690 l-32 0 l264 690 l116 0 l70 -690 l-37 0 l209 690 l122 0 l-249 -745 l-129 0 l-68 680 l37 0 l-258 -680 l-137 0 ZM20 334 l11 78 l906 0 l-11 -78 l-906 0 Z" /><glyph glyph-name="yen" unicode="¥" d="M228 0 l46 336 l-196 409 l125 0 l159 -332 l-48 2 l248 330 l141 0 l-310 -409 l-46 -336 l-119 0 ZM128 295 l11 78 l397 0 l-11 -78 l-397 0 ZM108 148 l10 77 l397 0 l-11 -77 l-396 0 Z" /><glyph glyph-name="uni2219" unicode="&#x2219;" d="M258 194 q-44 0 -78.5 19.5 q-34.5 19.5 -54 53 q-19.5 33.5 -19.5 77.5 q0 51 25.5 93 q25.5 42 68.5 67.5 q43 25.5 94 25.5 q44 0 77.5 -20 q33.5 -20 52.5 -53.5 q19 -33.5 19 -75.5 q0 -51 -25 -93.5 q-25 -42.5 -67 -68 q-42 -25.5 -93 -25.5 Z" /><glyph glyph-name="uni2215" unicode="&#x2215;" d="M6 -60 l456 865 l130 0 l-456 -865 l-130 0 Z" /><glyph glyph-name="uni208C" unicode="&#x208c;" d="M100 295 l11 80 l315 0 l-11 -80 l-315 0 ZM77 124 l11 82 l315 0 l-11 -82 l-315 0 Z" /><glyph glyph-name="uni207C" unicode="&#x207c;" d="M131 518 l11 80 l315 0 l-11 -80 l-315 0 ZM108 347 l11 82 l315 0 l-11 -82 l-315 0 Z" /><glyph glyph-name="uni208B" unicode="&#x208b;" d="M90 220 l11 81 l315 0 l-11 -81 l-315 0 Z" /><glyph glyph-name="uni207B" unicode="&#x207b;" d="M121 443 l11 81 l315 0 l-11 -81 l-315 0 Z" /><glyph glyph-name="plus" unicode="+" d="M234 0 l28 201 l-200 0 l14 100 l200 0 l28 199 l101 0 l-28 -199 l199 0 l-14 -100 l-199 0 l-28 -201 l-101 0 Z" /><glyph glyph-name="minus" unicode="&#x2212;" d="M87 201 l14 100 l450 0 l-14 -100 l-450 0 Z" /><glyph glyph-name="multiply" unicode="×" d="M131 0 l-65 74 l178 156 l-131 152 l79 71 l131 -152 l176 154 l66 -73 l-177 -155 l134 -156 l-79 -71 l-134 156 l-178 -156 Z" /><glyph glyph-name="divide" unicode="÷" d="M62 201 l14 100 l500 0 l-14 -100 l-500 0 ZM226 0 l15 111 l115 0 l-15 -111 l-115 0 ZM281 390 l15 110 l115 0 l-15 -110 l-115 0 Z" /><glyph glyph-name="equal" unicode="=" d="M102 311 l15 100 l450 0 l-15 -100 l-450 0 ZM69 71 l14 100 l450 0 l-14 -100 l-450 0 Z" /><glyph glyph-name="notequal" unicode="&#x2260;" d="M102 311 l15 100 l450 0 l-15 -100 l-450 0 ZM69 71 l14 100 l450 0 l-14 -100 l-450 0 ZM404 511 l99 0 l-273 -540 l-99 0 l273 540 Z" /><glyph glyph-name="greater" unicode="&gt;" d="M59 22 l16 121 l370 152 l-1 -41 l-330 157 l15 109 l415 -195 l-15 -108 l-470 -195 Z" /><glyph glyph-name="less" unicode="&lt;" d="M515 22 l-415 195 l15 108 l470 195 l-17 -121 l-369 -152 l1 41 l330 -157 l-15 -109 Z" /><glyph glyph-name="greaterequal" unicode="&#x2265;" d="M77 150 l16 120 l349 102 l0 -29 l-323 105 l15 111 l421 -151 l-15 -108 l-463 -150 ZM56 0 l13 95 l443 0 l-13 -95 l-443 0 Z" /><glyph glyph-name="lessequal" unicode="&#x2264;" d="M533 150 l-421 150 l15 108 l463 150 l-16 -120 l-349 -102 l0 30 l323 -105 l-15 -111 ZM69 0 l14 95 l443 0 l-14 -95 l-443 0 Z" /><glyph glyph-name="plusminus" unicode="±" d="M259 170 l21 156 l-200 0 l14 100 l201 0 l21 154 l101 0 l-21 -154 l198 0 l-14 -100 l-199 0 l-21 -156 l-101 0 ZM34 0 l14 100 l500 0 l-14 -100 l-500 0 Z" /><glyph glyph-name="approxequal" unicode="&#x2248;" d="M80 311 l10 98 q34 33 75.5 46.5 q41.5 13.5 79.5 13.5 q37 0 61 -9 q24 -9 43.5 -20 q19.5 -11 40.5 -20 q21 -9 51 -9 q38 0 80 15.5 q42 15.5 76 45.5 l-10 -98 q-32 -32 -71.5 -46 q-39.5 -14 -78.5 -14 q-38 0 -63 9 q-25 9 -44.5 20 q-19.5 11 -41 20 q-21.5 9 -53.5 9 q-37 0 -78.5 -15.5 q-41.5 -15.5 -76.5 -45.5 ZM49 86 l9 98 q33 32 74 46 q41 14 82 14 q37 0 61 -9 q24 -9 43 -20 q19 -11 40 -20 q21 -9 52 -9 q38 0 79.5 15.5 q41.5 15.5 75.5 45.5 l-10 -98 q-32 -32 -71.5 -46 q-39.5 -14 -77.5 -14 q-38 0 -63 9 q-25 9 -44.5 20 q-19.5 11 -41 20 q-21.5 9 -53.5 9 q-37 0 -78.5 -15.5 q-41.5 -15.5 -76.5 -45.5 Z" /><glyph glyph-name="asciitilde" unicode="~" d="M414 200 q-34 0 -57 10 q-23 10 -40 23.5 q-17 13.5 -33 23.5 q-16 10 -37 10 q-28 0 -48 -17.5 q-20 -17.5 -29 -48.5 l-93 0 q9 79 54 121 q45 42 105 42 q35 0 57.5 -10 q22.5 -10 39.5 -23.5 q17 -13.5 33 -23.5 q16 -10 37 -10 q25 0 44 16 q19 16 30 50 l93 0 q-9 -79 -52 -121 q-43 -42 -104 -42 Z" /><glyph glyph-name="logicalnot" unicode="¬" d="M440 40 l22 161 l-400 0 l14 100 l500 0 l-36 -261 l-100 0 Z" /><glyph glyph-name="asciicircum" unicode="^" d="M120 422 l215 323 l107 0 l124 -323 l-119 0 l-88 234 l48 0 l-155 -234 l-132 0 Z" /><glyph glyph-name="infinity" unicode="&#x221e;" d="M257 98 q-48 0 -85.5 19.5 q-37.5 19.5 -59 54.5 q-21.5 35 -21.5 79 q0 54 27.5 97.5 q27.5 43.5 73.5 69.5 q46 26 102 26 q69 0 126.5 -38.5 q57.5 -38.5 91.5 -109.5 l-5 -50 q-49 -70 -114.5 -109 q-65.5 -39 -135.5 -39 ZM274 182 q38 0 75 23 q37 23 67 66 q-21 42 -53 65 q-32 23 -70 23 q-30 0 -53.5 -12.5 q-23.5 -12.5 -37 -35 q-13.5 -22.5 -13.5 -51.5 q0 -34 23 -56 q23 -22 62 -22 ZM638 98 q-70 0 -127.5 39 q-57.5 39 -91.5 109 l6 50 q48 70 113.5 109 q65.5 39 134.5 39 q49 0 86.5 -20 q37.5 -20 59 -54.5 q21.5 -34.5 21.5 -79.5 q0 -53 -27.5 -97 q-27.5 -44 -73 -69.5 q-45.5 -25.5 -101.5 -25.5 ZM638 182 q30 0 53 13 q23 13 37 36 q14 23 14 50 q0 35 -23 56.5 q-23 21.5 -62 21.5 q-39 0 -76 -23.5 q-37 -23.5 -66 -64.5 q21 -43 53 -66 q32 -23 70 -23 Z" /><glyph glyph-name="emptyset" unicode="&#x2205;" d="M432 -12 q-77 0 -143 27.5 q-66 27.5 -115.5 77 q-49.5 49.5 -76.5 115 q-27 65.5 -27 141.5 q0 84 32.5 157.5 q32.5 73.5 89.5 130 q57 56.5 131 88.5 q74 32 158 32 q77 0 142.5 -27.5 q65.5 -27.5 114.5 -76.5 q49 -49 76.5 -114.5 q27.5 -65.5 27.5 -140.5 q0 -85 -33 -159 q-33 -74 -90 -130.5 q-57 -56.5 -130.5 -88.5 q-73.5 -32 -156.5 -32 ZM433 73 q65 0 123.5 25.5 q58.5 25.5 103.5 70 q45 44.5 71 103 q26 58.5 26 126.5 q0 58 -21.5 108 q-21.5 50 -58.5 87.5 q-37 37.5 -87 58.5 q-50 21 -109 21 q-67 0 -126 -25.5 q-59 -25.5 -104 -70 q-45 -44.5 -70.5 -103.5 q-25.5 -59 -25.5 -125 q0 -78 36.5 -140.5 q36.5 -62.5 99 -99 q62.5 -36.5 142.5 -36.5 ZM43 0 l721 745 l105 0 l-720 -745 l-106 0 Z" /><glyph glyph-name="integral" unicode="&#x222b;" d="M76 -180 q-14 0 -28 2 q-14 2 -23 4 l8 97 q8 -1 17.5 -2 q9.5 -1 13.5 -1 q48 0 79.5 24.5 q31.5 24.5 39.5 81.5 l76 537 q10 66 40.5 109 q30.5 43 76.5 64 q46 21 101 21 q14 0 28 -2 q14 -2 23 -4 l-8 -96 q-8 2 -17.5 2 q-9.5 0 -13.5 0 q-47 0 -79 -24 q-32 -24 -40 -82 l-75 -536 q-9 -66 -40 -109 q-31 -43 -77.5 -64.5 q-46.5 -21.5 -101.5 -21.5 Z" /><glyph glyph-name="product" unicode="&#x220f;" d="M153 -100 l103 740 l-147 0 l14 105 l728 0 l-15 -105 l-145 0 l-103 -740 l-118 0 l104 740 l-200 0 l-104 -740 l-117 0 Z" /><glyph glyph-name="summation" unicode="&#x2211;" d="M20 -100 l12 90 l313 376 l-11 -85 l-208 375 l12 89 l520 0 l-14 -105 l-422 0 l21 43 l204 -373 l-287 -348 l-27 43 l422 0 l-15 -105 l-520 0 Z" /><glyph glyph-name="radical" unicode="&#x221a;" d="M304 -100 l-145 491 l65 -47 l-155 0 l14 97 l182 0 l122 -435 l-42 0 l414 739 l194 0 l-13 -97 l-154 0 l78 47 l-454 -795 l-106 0 Z" /><glyph glyph-name="uni00B5" unicode="µ" d="M-2 -140 l95 681 l114 0 l-46 -327 q-5 -37 5 -64 q10 -27 33.5 -42 q23.5 -15 57.5 -15 q37 0 67.5 16.5 q30.5 16.5 50.5 46.5 q20 30 26 69 l44 316 l113 0 l-75 -541 l-108 0 l15 118 l12 -22 q-24 -54 -71 -81 q-47 -27 -105 -27 q-37 0 -67 11 q-30 11 -52 30 l32 35 l-27 -204 l-114 0 Z" /><glyph glyph-name="partialdiff" unicode="&#x2202;" d="M327 -12 q-72 0 -128.5 31 q-56.5 31 -88.5 86 q-32 55 -32 127 q0 85 39 151.5 q39 66.5 106.5 105.5 q67.5 39 152.5 39 q46 0 82.5 -11 q36.5 -11 66 -30 q29.5 -19 53.5 -41 l-23 -79 q-30 32 -76.5 50.5 q-46.5 18.5 -95.5 18.5 q-55 0 -97.5 -24.5 q-42.5 -24.5 -66 -68 q-23.5 -43.5 -23.5 -100.5 q0 -44 17 -78.5 q17 -34.5 49 -54 q32 -19.5 74 -19.5 q58 0 99.5 35 q41.5 35 64.5 99 q23 64 23 151 q0 56 -13.5 112 q-13.5 56 -44 101.5 q-30.5 45.5 -79 72.5 q-48.5 27 -118.5 27 q-28 0 -56.5 -5 q-28.5 -5 -56.5 -17 l-7 101 q30 13 64 18.5 q34 5.5 69 5.5 q88 0 155 -34.5 q67 -34.5 112.5 -93 q45.5 -58.5 69 -133.5 q23.5 -75 23.5 -155 q0 -114 -40 -201.5 q-40 -87.5 -110.5 -137 q-70.5 -49.5 -163.5 -49.5 Z" /><glyph glyph-name="percent" unicode="%" d="M124 0 l710 745 l126 0 l-710 -745 l-126 0 ZM290 367 q-52 0 -93.5 24 q-41.5 24 -65.5 65.5 q-24 41.5 -24 91.5 q0 57 28.5 104.5 q28.5 47.5 76.5 76 q48 28.5 105 28.5 q52 0 93.5 -24 q41.5 -24 65 -65 q23.5 -41 23.5 -92 q0 -56 -28.5 -104 q-28.5 -48 -76 -76.5 q-47.5 -28.5 -104.5 -28.5 ZM297 458 q30 0 54 16 q24 16 38.5 41.5 q14.5 25.5 14.5 54.5 q0 25 -11 47 q-11 22 -32 35.5 q-21 13.5 -50 13.5 q-30 0 -55 -15.5 q-25 -15.5 -39.5 -40.5 q-14.5 -25 -14.5 -55 q0 -25 11.5 -47 q11.5 -22 33 -36 q21.5 -14 50.5 -14 ZM762 -12 q-52 0 -94 24 q-42 24 -65.5 65.5 q-23.5 41.5 -23.5 91.5 q0 58 29 105 q29 47 76.5 75.5 q47.5 28.5 105.5 28.5 q52 0 93 -24 q41 -24 64.5 -65 q23.5 -41 23.5 -92 q0 -56 -28.5 -104 q-28.5 -48 -76 -76.5 q-47.5 -28.5 -104.5 -28.5 ZM768 79 q31 0 55 15.5 q24 15.5 38.5 41 q14.5 25.5 14.5 55.5 q0 25 -11.5 47 q-11.5 22 -32 35.5 q-20.5 13.5 -49.5 13.5 q-30 0 -54.5 -15.5 q-24.5 -15.5 -39 -41 q-14.5 -25.5 -14.5 -54.5 q0 -25 11 -47 q11 -22 32.5 -36 q21.5 -14 49.5 -14 Z" /><glyph glyph-name="perthousand" unicode="&#x2030;" d="M124 0 l710 745 l126 0 l-710 -745 l-126 0 ZM290 367 q-52 0 -93.5 24 q-41.5 24 -65.5 65.5 q-24 41.5 -24 91.5 q0 57 28.5 104.5 q28.5 47.5 76.5 76 q48 28.5 105 28.5 q52 0 93.5 -24 q41.5 -24 65 -65 q23.5 -41 23.5 -92 q0 -56 -28.5 -104 q-28.5 -48 -76 -76.5 q-47.5 -28.5 -104.5 -28.5 ZM297 458 q30 0 54 16 q24 16 38.5 41.5 q14.5 25.5 14.5 54.5 q0 25 -11 47 q-11 22 -32 35.5 q-21 13.5 -50 13.5 q-30 0 -55 -15.5 q-25 -15.5 -39.5 -40.5 q-14.5 -25 -14.5 -55 q0 -25 11.5 -47 q11.5 -22 33 -36 q21.5 -14 50.5 -14 ZM762 -12 q-52 0 -94 24 q-42 24 -65.5 65.5 q-23.5 41.5 -23.5 91.5 q0 58 29 105 q29 47 76.5 75.5 q47.5 28.5 105.5 28.5 q52 0 93 -24 q41 -24 64.5 -65 q23.5 -41 23.5 -92 q0 -56 -28.5 -104 q-28.5 -48 -76 -76.5 q-47.5 -28.5 -104.5 -28.5 ZM768 79 q31 0 55 15.5 q24 15.5 38.5 41 q14.5 25.5 14.5 55.5 q0 25 -11.5 47 q-11.5 22 -32 35.5 q-20.5 13.5 -49.5 13.5 q-30 0 -54.5 -15.5 q-24.5 -15.5 -39 -41 q-14.5 -25.5 -14.5 -54.5 q0 -25 11 -47 q11 -22 32.5 -36 q21.5 -14 49.5 -14 ZM1198 -12 q-52 0 -94 24 q-42 24 -65.5 65.5 q-23.5 41.5 -23.5 91.5 q0 58 29 105 q29 47 76.5 75.5 q47.5 28.5 105.5 28.5 q52 0 93 -24 q41 -24 64.5 -65 q23.5 -41 23.5 -92 q0 -56 -28.5 -104 q-28.5 -48 -76 -76.5 q-47.5 -28.5 -104.5 -28.5 ZM1204 79 q31 0 55 15.5 q24 15.5 38.5 41 q14.5 25.5 14.5 55.5 q0 25 -11.5 47 q-11.5 22 -32 35.5 q-20.5 13.5 -49.5 13.5 q-30 0 -54.5 -15.5 q-24.5 -15.5 -39 -41 q-14.5 -25.5 -14.5 -54.5 q0 -25 11 -47 q11 -22 32.5 -36 q21.5 -14 49.5 -14 Z" /><glyph glyph-name="uni208A" unicode="&#x208a;" d="M181 85 l19 135 l-135 0 l11 81 l135 0 l19 134 l82 0 l-19 -134 l133 0 l-11 -81 l-134 0 l-18 -135 l-82 0 Z" /><glyph glyph-name="uni207A" unicode="&#x207a;" d="M212 308 l19 135 l-135 0 l11 81 l135 0 l19 134 l82 0 l-19 -134 l133 0 l-11 -81 l-134 0 l-18 -135 l-82 0 Z" /><glyph glyph-name="arrowup" unicode="&#x2191;" d="M87 249 l0 138 l243 238 l50 0 l248 -238 l0 -138 l-311 290 l76 1 l-306 -291 ZM306 0 l0 532 l102 0 l0 -532 l-102 0 Z" /><glyph glyph-name="uni2197" unicode="&#x2197;" d="M249 473 l351 0 l35 -35 l0 -350 l-102 -97 l0 431 l50 -51 l-431 0 l97 102 ZM514 427 l73 -72 l-376 -376 l-73 72 l376 376 Z" /><glyph glyph-name="arrowright" unicode="&#x2192;" d="M326 0 l290 311 l0 -76 l-290 306 l137 0 l238 -243 l0 -50 l-238 -248 l-137 0 ZM77 220 l0 102 l531 0 l0 -102 l-531 0 Z" /><glyph glyph-name="uni2198" unicode="&#x2198;" d="M198 0 l-97 103 l431 0 l-50 -52 l0 432 l102 -98 l0 -349 l-35 -36 l-351 0 ZM463 46 l-376 376 l73 72 l376 -375 l-73 -73 Z" /><glyph glyph-name="arrowdown" unicode="&#x2193;" d="M86 376 l306 -291 l-76 1 l311 290 l0 -138 l-248 -238 l-50 0 l-243 238 l0 138 ZM305 625 l102 0 l0 -532 l-102 0 l0 532 Z" /><glyph glyph-name="uni2199" unicode="&#x2199;" d="M514 0 l-350 0 l-36 36 l0 349 l103 98 l0 -432 l-51 52 l432 0 l-98 -103 ZM249 46 l-72 73 l376 375 l72 -72 l-376 -376 Z" /><glyph glyph-name="arrowleft" unicode="&#x2190;" d="M443 0 l-138 0 l-238 248 l0 50 l238 243 l138 0 l-291 -306 l1 76 l290 -311 ZM692 220 l-532 0 l0 102 l532 0 l0 -102 Z" /><glyph glyph-name="uni2196" unicode="&#x2196;" d="M521 473 l98 -102 l-432 0 l51 51 l0 -431 l-103 97 l0 350 l36 35 l350 0 ZM256 427 l376 -376 l-72 -72 l-376 376 l72 72 Z" /><glyph glyph-name="arrowboth" unicode="&#x2194;" d="M643 0 l290 311 l0 -76 l-290 306 l137 0 l238 -243 l0 -50 l-238 -248 l-137 0 ZM305 0 l-238 248 l0 50 l238 243 l138 0 l-291 -306 l1 76 l290 -311 l-138 0 ZM160 220 l0 102 l765 0 l0 -102 l-765 0 Z" /><glyph glyph-name="arrowupdn" unicode="&#x2195;" d="M128 272 l310 -290 l-75 0 l306 290 l0 -137 l-243 -238 l-51 0 l-247 238 l0 137 ZM128 610 l247 238 l51 0 l243 -238 l0 -138 l-306 291 l75 -1 l-310 -290 l0 138 ZM347 755 l103 0 l0 -765 l-103 0 l0 765 Z" /><glyph glyph-name="uni21A9" unicode="&#x21a9;" d="M157 220 l0 102 l532 0 q52 0 83.5 28.5 q31.5 28.5 31.5 75.5 q0 46 -31.5 74 q-31.5 28 -83.5 28 l-10 0 l0 102 l10 0 q65 0 114 -25.5 q49 -25.5 76 -71.5 q27 -46 27 -107 q0 -62 -27 -108.5 q-27 -46.5 -76 -72 q-49 -25.5 -114 -25.5 l-532 0 ZM302 0 l-238 248 l0 50 l238 243 l138 0 l-291 -306 l1 76 l290 -311 l-138 0 Z" /><glyph glyph-name="uni21AA" unicode="&#x21aa;" d="M847 220 l-532 0 q-65 0 -114 25.5 q-49 25.5 -76 72 q-27 46.5 -27 108.5 q0 61 27 107 q27 46 76 71.5 q49 25.5 114 25.5 l10 0 l0 -102 l-10 0 q-52 0 -83.5 -28 q-31.5 -28 -31.5 -74 q0 -47 31.5 -75.5 q31.5 -28.5 83.5 -28.5 l532 0 l0 -102 ZM702 0 l-138 0 l290 311 l1 -76 l-291 306 l138 0 l238 -243 l0 -50 l-238 -248 Z" /><glyph glyph-name="uni21B0" unicode="&#x21b0;" d="M689 -100 l0 320 l-532 0 l0 102 l634 0 l0 -422 l-102 0 ZM302 0 l-238 248 l0 50 l238 243 l138 0 l-291 -306 l1 76 l290 -311 l-138 0 Z" /><glyph glyph-name="uni21B1" unicode="&#x21b1;" d="M211 -100 l-103 0 l0 422 l634 0 l0 -102 l-531 0 l0 -320 ZM597 0 l-137 0 l290 311 l0 -76 l-290 306 l137 0 l238 -243 l0 -50 l-238 -248 Z" /><glyph glyph-name="uni21B2" unicode="&#x21b2;" d="M157 220 l0 102 l532 0 l0 320 l102 0 l0 -422 l-634 0 ZM302 0 l-238 248 l0 50 l238 243 l138 0 l-291 -306 l1 76 l290 -311 l-138 0 Z" /><glyph glyph-name="uni21B3" unicode="&#x21b3;" d="M787 220 l-634 0 l0 422 l102 0 l0 -320 l532 0 l0 -102 ZM642 0 l-138 0 l290 311 l1 -76 l-291 306 l138 0 l238 -243 l0 -50 l-238 -248 Z" /><glyph glyph-name="uni2B0E" unicode="&#x2b0e;" d="M541 93 l0 446 l-429 0 l0 103 l532 0 l0 -549 l-103 0 ZM565 0 l-243 238 l0 138 l306 -291 l-75 1 l310 290 l0 -138 l-247 -238 l-51 0 Z" /><glyph glyph-name="uni2B10" unicode="&#x2b10;" d="M407 93 l-103 0 l0 549 l532 0 l0 -103 l-429 0 l0 -446 ZM383 0 l-51 0 l-247 238 l0 138 l310 -290 l-75 -1 l306 291 l0 -138 l-243 -238 Z" /><glyph glyph-name="uni25CF" unicode="&#x25cf;" d="M479 -12 q-79 0 -149 30 q-70 30 -122.5 82.5 q-52.5 52.5 -82.5 122.5 q-30 70 -30 149 q0 80 30 149.5 q30 69.5 82.5 122.5 q52.5 53 122.5 83 q70 30 149 30 q80 0 149.5 -30 q69.5 -30 122 -83 q52.5 -53 82.5 -122.5 q30 -69.5 30 -149.5 q0 -79 -30 -149 q-30 -70 -82.5 -122.5 q-52.5 -52.5 -122 -82.5 q-69.5 -30 -149.5 -30 Z" /><glyph glyph-name="circle" unicode="&#x25cb;" d="M479 -12 q-79 0 -149 30 q-70 30 -122.5 82.5 q-52.5 52.5 -82.5 122.5 q-30 70 -30 149 q0 80 30 149.5 q30 69.5 82.5 122.5 q52.5 53 122.5 83 q70 30 149 30 q80 0 149.5 -30 q69.5 -30 122 -83 q52.5 -53 82.5 -122.5 q30 -69.5 30 -149.5 q0 -79 -30 -149 q-30 -70 -82.5 -122.5 q-52.5 -52.5 -122 -82.5 q-69.5 -30 -149.5 -30 ZM479 68 q63 0 118.5 23.5 q55.5 23.5 97 65 q41.5 41.5 65 97 q23.5 55.5 23.5 118.5 q0 63 -23.5 118.5 q-23.5 55.5 -65.5 97.5 q-42 42 -97 65.5 q-55 23.5 -118 23.5 q-62 0 -117.5 -23.5 q-55.5 -23.5 -97.5 -65.5 q-42 -42 -65.5 -97.5 q-23.5 -55.5 -23.5 -118.5 q0 -63 23.5 -118.5 q23.5 -55.5 65 -97 q41.5 -41.5 97 -65 q55.5 -23.5 118.5 -23.5 Z" /><glyph glyph-name="uni25C6" unicode="&#x25c6;" d="M451 -12 l-385 385 l384 384 l385 -384 l-384 -385 Z" /><glyph glyph-name="uni25C7" unicode="&#x25c7;" d="M451 -12 l-385 385 l384 384 l385 -384 l-384 -385 ZM451 102 l271 271 l-272 271 l-271 -271 l272 -271 Z" /><glyph glyph-name="lozenge" unicode="&#x25ca;" d="M213 0 l-138 373 l242 372 l135 0 l140 -372 l-244 -373 l-135 0 ZM263 63 l208 324 l-108 295 l37 0 l-205 -313 l108 -306 l-40 0 Z" /><glyph glyph-name="filledbox" unicode="&#x25a0;" d="M191 0 l0 745 l745 0 l0 -745 l-745 0 Z" /><glyph glyph-name="uni25A1" unicode="&#x25a1;" d="M191 0 l0 745 l745 0 l0 -745 l-745 0 ZM271 80 l585 0 l0 585 l-585 0 l0 -585 Z" /><glyph glyph-name="triagup" unicode="&#x25b2;" d="M14 0 l375 757 l375 -757 l-750 0 Z" /><glyph glyph-name="uni25B6" unicode="&#x25b6;" d="M193 757 l776 -385 l-776 -384 l0 769 Z" /><glyph glyph-name="triagdn" unicode="&#x25bc;" d="M118 745 l750 0 l-375 -757 l-375 757 Z" /><glyph glyph-name="uni25C0" unicode="&#x25c0;" d="M842 757 l0 -769 l-776 384 l776 385 Z" /><glyph glyph-name="uni25B3" unicode="&#x25b3;" d="M14 0 l375 757 l375 -757 l-750 0 ZM143 80 l492 0 l-246 497 l-246 -497 Z" /><glyph glyph-name="uni25B7" unicode="&#x25b7;" d="M193 -12 l0 769 l776 -385 l-776 -384 ZM273 117 l516 255 l-516 256 l0 -511 Z" /><glyph glyph-name="uni25BD" unicode="&#x25bd;" d="M118 745 l750 0 l-375 -757 l-375 757 ZM247 665 l246 -497 l246 497 l-492 0 Z" /><glyph glyph-name="uni25C1" unicode="&#x25c1;" d="M842 -12 l-776 384 l776 385 l0 -769 ZM762 117 l0 511 l-516 -256 l516 -255 Z" /><glyph glyph-name="uni0308" unicode="&#x308;" d="M168 640 l18 125 l125 0 l-18 -125 l-125 0 ZM373 640 l18 125 l125 0 l-18 -125 l-125 0 Z" /><glyph glyph-name="uni0307" unicode="&#x307;" d="M168 640 l18 125 l125 0 l-18 -125 l-125 0 Z" /><glyph glyph-name="gravecomb" unicode="&#x300;" d="M276 640 l-85 165 l148 0 l49 -165 l-112 0 Z" /><glyph glyph-name="acutecomb" unicode="&#x301;" d="M168 640 l97 165 l148 0 l-133 -165 l-112 0 Z" /><glyph glyph-name="uni030B" unicode="&#x30b;" d="M168 640 l72 165 l143 0 l-108 -165 l-107 0 ZM369 640 l72 165 l143 0 l-108 -165 l-107 0 Z" /><glyph glyph-name="uni0302" unicode="&#x302;" d="M168 640 l141 160 l132 0 l96 -160 l-109 0 l-56 90 l-80 -90 l-124 0 Z" /><glyph glyph-name="uni030C" unicode="&#x30c;" d="M285 640 l-95 160 l108 0 l55 -90 l81 90 l125 0 l-142 -160 l-132 0 Z" /><glyph glyph-name="uni0306" unicode="&#x306;" d="M359 640 q-63 0 -102 22.5 q-39 22.5 -55.5 59 q-16.5 36.5 -11.5 78.5 l110 0 q-3 -34 14 -53 q17 -19 52 -19 q36 0 59 19 q23 19 29 53 l109 0 q-7 -43 -31.5 -79.5 q-24.5 -36.5 -67 -58.5 q-42.5 -22 -105.5 -22 Z" /><glyph glyph-name="uni030A" unicode="&#x30a;" d="M283 605 q-45 0 -75 27 q-30 27 -30 72 q0 37 18.5 67 q18.5 30 49.5 48.5 q31 18.5 70 18.5 q46 0 75 -27 q29 -27 29 -71 q0 -37 -18.5 -68 q-18.5 -31 -49.5 -49 q-31 -18 -69 -18 ZM293 676 q22 0 37 16 q15 16 15 38 q0 17 -11 27.5 q-11 10.5 -28 10.5 q-22 0 -37 -15.5 q-15 -15.5 -15 -38.5 q0 -17 10.5 -27.5 q10.5 -10.5 28.5 -10.5 Z" /><glyph glyph-name="tildecomb" unicode="&#x303;" d="M420 640 q-27 0 -43 9 q-16 9 -27 20 q-11 11 -22 20 q-11 9 -28 9 q-17 0 -28 -13.5 q-11 -13.5 -15 -40.5 l-88 0 q7 49 26.5 81 q19.5 32 48 48 q28.5 16 60.5 16 q27 0 43.5 -8.5 q16.5 -8.5 28 -20 q11.5 -11.5 22.5 -20 q11 -8.5 27 -8.5 q20 0 30.5 14.5 q10.5 14.5 14.5 38.5 l88 0 q-11 -70 -50 -107.5 q-39 -37.5 -88 -37.5 Z" /><glyph glyph-name="uni0304" unicode="&#x304;" d="M171 660 l13 95 l305 0 l-13 -95 l-305 0 Z" /><glyph glyph-name="hookabovecomb" unicode="&#x309;" d="M281 600 l-40 59 q29 11 43.5 27 q14.5 16 14.5 37 q0 16 -13 26 q-13 10 -36 10 q-12 0 -25 -2 q-13 -2 -28 -8 l-4 72 q20 9 42 13 q22 4 44 4 q57 0 90 -26 q33 -26 33 -69 q0 -32 -16 -59 q-16 -27 -43.5 -48.5 q-27.5 -21.5 -61.5 -35.5 Z" /><glyph glyph-name="uni030F" unicode="&#x30f;" d="M277 640 l-86 167 l143 0 l49 -167 l-106 0 ZM478 640 l-86 167 l143 0 l49 -167 l-106 0 Z" /><glyph glyph-name="uni0311" unicode="&#x311;" d="M168 640 q7 42 31 78.5 q24 36.5 67.5 59 q43.5 22.5 105.5 22.5 q64 0 103 -22 q39 -22 55 -58.5 q16 -36.5 11 -79.5 l-109 0 q4 35 -13.5 54 q-17.5 19 -53.5 19 q-35 0 -58 -19 q-23 -19 -29 -54 l-110 0 Z" /><glyph glyph-name="uni0312" unicode="&#x312;" d="M163 600 l95 182 l106 0 l-60 -182 l-141 0 Z" /><glyph glyph-name="uni031B" unicode="&#x31b;" d="M168 640 l12 82 l8 0 q11 0 24 5 q13 5 23 19 q10 14 10 42 q0 14 -3 30.5 q-3 16.5 -8 32.5 l100 0 q5 -16 8.5 -32 q3.5 -16 3.5 -33 q0 -67 -41 -106.5 q-41 -39.5 -112 -39.5 l-25 0 Z" /><glyph glyph-name="dotbelowcomb" unicode="&#x323;" d="M48 -215 l18 125 l125 0 l-18 -125 l-125 0 Z" /><glyph glyph-name="uni0324" unicode="&#x324;" d="M48 -215 l18 125 l125 0 l-18 -125 l-125 0 ZM253 -215 l18 125 l125 0 l-18 -125 l-125 0 Z" /><glyph glyph-name="uni0326" unicode="&#x326;" d="M43 -251 l60 181 l142 0 l-96 -181 l-106 0 Z" /><glyph glyph-name="uni0327" unicode="&#x327;" d="M156 -235 q-28 0 -57.5 9 q-29.5 9 -48.5 26 l35 68 q14 -12 31.5 -18.5 q17.5 -6.5 34.5 -6.5 q23 0 38 11.5 q15 11.5 15 29.5 q0 19 -22.5 30 q-22.5 11 -66.5 15 l34 81 l69 0 l-17 -43 q46 -7 72 -28.5 q26 -21.5 26 -55.5 q0 -33 -19 -60 q-19 -27 -51.5 -42.5 q-32.5 -15.5 -72.5 -15.5 Z" /><glyph glyph-name="uni0328" unicode="&#x328;" d="M178 -235 q-55 0 -86.5 27.5 q-31.5 27.5 -31.5 69.5 q0 41 21.5 76 q21.5 35 59.5 60 q38 25 87 35 l30 0 l-5 -33 q-25 -5 -46.5 -23 q-21.5 -18 -34.5 -42 q-13 -24 -13 -48 q0 -20 13.5 -32 q13.5 -12 32.5 -12 q18 0 34.5 6.5 q16.5 6.5 32.5 18.5 l16 -68 q-22 -16 -50 -25.5 q-28 -9.5 -60 -9.5 Z" /><glyph glyph-name="uni032E" unicode="&#x32e;" d="M235 -250 q-64 0 -103 23 q-39 23 -55 59.5 q-16 36.5 -11 77.5 l110 0 q-4 -34 13.5 -53 q17.5 -19 52.5 -19 q36 0 58.5 19 q22.5 19 28.5 53 l109 0 q-6 -44 -31 -80.5 q-25 -36.5 -67.5 -58 q-42.5 -21.5 -104.5 -21.5 Z" /><glyph glyph-name="uni0331" unicode="&#x331;" d="M51 -195 l13 95 l305 0 l-13 -95 l-305 0 Z" /></font>
</defs>
</svg>
