<?xml version="1.0" standalone="no"?><!DOCTYPE svg PUBLIC "-//W3C//DTD SVG 1.1//EN" "http://www.w3.org/Graphics/SVG/1.1/DTD/svg11.dtd" ><svg xmlns="http://www.w3.org/2000/svg"><metadata></metadata><defs><font id="2.071;TOKO;PlusJakartaSans-ExtraLight" horiz-adv-x="1356"><font-face font-family="Plus Jakarta Sans ExtraLight" font-weight="250" font-stretch="normal" units-per-em="1000" panose-1="0 0 0 0 0 0 0 0 0 0" ascent="1038" descent="-222" x-height="0" bbox="-228 -233 1317 1169" underline-thickness="40" underline-position="-155" unicode-range="U+000d-fb02" /><missing-glyph horiz-adv-x="640" d="M60 675 l0 70 l520 0 l0 -70 l-520 0 ZM60 0 l0 70 l520 0 l0 -70 l-520 0 ZM60 225 l0 70 l520 0 l0 -70 l-520 0 ZM60 450 l0 70 l520 0 l0 -70 l-520 0 Z" /><glyph glyph-name="A" unicode="A" d="M22 0 l276 745 l48 0 l276 -745 l-55 0 l-72 197 l-346 0 l-72 -197 l-55 0 ZM165 242 l314 0 l-169 462 l24 0 l-169 -462 Z" /><glyph glyph-name="AE" unicode="Æ" d="M22 0 l276 745 l634 0 l0 -45 l-410 0 l0 -304 l390 0 l0 -45 l-390 0 l0 -306 l410 0 l0 -45 l-460 0 l0 197 l-323 0 l-72 -197 l-55 0 ZM165 242 l307 0 l0 458 l-139 0 l-168 -458 Z" /><glyph glyph-name="B" unicode="B" d="M99 0 l0 745 l301 0 q60 0 104.5 -24.5 q44.5 -24.5 69.5 -67 q25 -42.5 25 -96.5 q0 -58 -31.5 -103 q-31.5 -45 -85.5 -62 l0 9 q45 -11 78 -39 q33 -28 51 -67.5 q18 -39.5 18 -86.5 q0 -94 -59 -151 q-59 -57 -170 -57 l-301 0 ZM149 45 l242 0 q88 0 138 44.5 q50 44.5 50 117.5 q0 74 -48.5 118.5 q-48.5 44.5 -129.5 44.5 l-252 0 l0 -325 ZM149 415 l245 0 q71 0 113 39 q42 39 42 104 q0 65 -40.5 103.5 q-40.5 38.5 -114.5 38.5 l-245 0 l0 -285 Z" /><glyph glyph-name="C" unicode="C" d="M430 -12 q-76 0 -140 28.5 q-64 28.5 -112 80.5 q-48 52 -74.5 122 q-26.5 70 -26.5 154 q0 83 26.5 153.5 q26.5 70.5 74.5 122 q48 51.5 112 80 q64 28.5 140 28.5 q74 0 133 -27.5 q59 -27.5 100 -69 q41 -41.5 59 -84.5 l-47 -21 q-33 70 -96.5 112 q-63.5 42 -148.5 42 q-89 0 -157.5 -42.5 q-68.5 -42.5 -107 -118 q-38.5 -75.5 -38.5 -175.5 q0 -100 38.5 -176 q38.5 -76 107 -118.5 q68.5 -42.5 157.5 -42.5 q85 0 148.5 42 q63.5 42 96.5 112 l47 -21 q-18 -43 -59 -84.5 q-41 -41.5 -100 -69 q-59 -27.5 -133 -27.5 Z" /><glyph glyph-name="D" unicode="D" d="M99 0 l0 745 l238 0 q108 0 187 -45.5 q79 -45.5 122 -129 q43 -83.5 43 -197.5 q0 -113 -43 -197 q-43 -84 -122 -130 q-79 -46 -187 -46 l-238 0 ZM149 45 l186 0 q91 0 159.5 41 q68.5 41 106.5 115 q38 74 38 172 q0 98 -38 171.5 q-38 73.5 -106.5 114.5 q-68.5 41 -159.5 41 l-186 0 l0 -655 Z" /><glyph glyph-name="Eth" unicode="Ð" d="M29 350 l0 45 l290 0 l0 -45 l-290 0 ZM99 0 l0 745 l238 0 q108 0 187 -45.5 q79 -45.5 122 -129 q43 -83.5 43 -197.5 q0 -113 -43 -197 q-43 -84 -122 -130 q-79 -46 -187 -46 l-238 0 ZM149 45 l186 0 q91 0 159.5 41 q68.5 41 106.5 115 q38 74 38 172 q0 98 -38 171.5 q-38 73.5 -106.5 114.5 q-68.5 41 -159.5 41 l-186 0 l0 -655 Z" /><glyph glyph-name="E" unicode="E" d="M99 0 l0 745 l460 0 l0 -45 l-410 0 l0 -304 l390 0 l0 -45 l-390 0 l0 -306 l410 0 l0 -45 l-460 0 Z" /><glyph glyph-name="uni018F" unicode="&#x18f;" d="M410 -12 q-71 0 -131.5 26.5 q-60.5 26.5 -106 74 q-45.5 47.5 -70.5 111 q-25 63.5 -25 138.5 q0 13 1 24 q1 11 3 26 l670 0 l0 -46 l-642 0 l17 12 q0 -2 0 -5.5 q0 -3.5 0 -5.5 q0 -88 37 -157.5 q37 -69.5 101.5 -109.5 q64.5 -40 144.5 -40 q64 0 120 26 q56 26 98 72 q42 46 66 107 q24 61 24 132 q0 72 -24 133 q-24 61 -67 106.5 q-43 45.5 -101 71 q-58 25.5 -127 25.5 q-86 0 -158 -40 q-72 -40 -112 -109 l-41 22 q27 52 74 91.5 q47 39.5 108 61.5 q61 22 129 22 q78 0 145 -29.5 q67 -29.5 117.5 -82 q50.5 -52.5 78.5 -122.5 q28 -70 28 -152 q0 -81 -27 -150.5 q-27 -69.5 -76 -121.5 q-49 -52 -114 -81.5 q-65 -29.5 -140 -29.5 Z" /><glyph glyph-name="F" unicode="F" d="M99 0 l0 745 l450 0 l0 -45 l-400 0 l0 -304 l360 0 l0 -45 l-360 0 l0 -351 l-50 0 Z" /><glyph glyph-name="G" unicode="G" d="M433 -12 q-78 0 -143 28.5 q-65 28.5 -113 80 q-48 51.5 -74 121.5 q-26 70 -26 154 q0 84 26.5 154 q26.5 70 74.5 122 q48 52 113 80.5 q65 28.5 143 28.5 q77 0 138 -27.5 q61 -27.5 102 -69 q41 -41.5 59 -84.5 l-47 -21 q-33 70 -97.5 112 q-64.5 42 -154.5 42 q-89 0 -158.5 -42.5 q-69.5 -42.5 -109 -118.5 q-39.5 -76 -39.5 -176 q0 -100 39.5 -176 q39.5 -76 108.5 -118 q69 -42 158 -42 q82 0 146 37 q64 37 101 101 q37 64 37 145 l0 30 l22 -26 l-305 0 l0 45 l333 0 l0 -49 q0 -67 -24.5 -127 q-24.5 -60 -69 -106 q-44.5 -46 -105.5 -72 q-61 -26 -135 -26 Z" /><glyph glyph-name="H" unicode="H" d="M99 0 l0 745 l50 0 l0 -343 l440 0 l0 343 l50 0 l0 -745 l-50 0 l0 357 l-440 0 l0 -357 l-50 0 Z" /><glyph glyph-name="Hbar" unicode="&#x126;" d="M3 573 l0 45 l732 0 l0 -45 l-732 0 ZM99 0 l0 745 l50 0 l0 -343 l440 0 l0 343 l50 0 l0 -745 l-50 0 l0 357 l-440 0 l0 -357 l-50 0 Z" /><glyph glyph-name="I" unicode="I" d="M99 0 l0 745 l50 0 l0 -745 l-50 0 Z" /><glyph glyph-name="J" unicode="J" d="M66 0 l0 50 l38 0 q60 0 94 36.5 q34 36.5 34 107.5 l0 551 l50 0 l0 -554 q0 -59 -22 -102 q-22 -43 -62 -66 q-40 -23 -94 -23 l-38 0 Z" /><glyph glyph-name="K" unicode="K" d="M99 0 l0 745 l50 0 l0 -460 l-19 9 l409 451 l67 0 l-303 -336 l2 35 l324 -444 l-62 0 l-284 390 l-134 -149 l0 -241 l-50 0 Z" /><glyph glyph-name="L" unicode="L" d="M99 0 l0 745 l50 0 l0 -700 l340 0 l0 -45 l-390 0 Z" /><glyph glyph-name="Ldot" unicode="&#x13f;" d="M319 332 q-16 0 -28 11.5 q-12 11.5 -12 28.5 q0 17 12 28.5 q12 11.5 28 11.5 q16 0 28 -11.5 q12 -11.5 12 -28.5 q0 -17 -12 -28.5 q-12 -11.5 -28 -11.5 ZM99 0 l0 745 l50 0 l0 -700 l340 0 l0 -45 l-390 0 Z" /><glyph glyph-name="Lslash" unicode="&#x141;" d="M50 245 l0 55 l283 200 l0 -55 l-283 -200 ZM167 0 l0 745 l50 0 l0 -700 l340 0 l0 -45 l-390 0 Z" /><glyph glyph-name="M" unicode="M" d="M99 0 l0 745 l40 0 l276 -422 l-15 0 l279 422 l40 0 l0 -745 l-50 0 l0 662 l6 -8 l-265 -408 l-2 0 l-267 408 l8 8 l0 -662 l-50 0 Z" /><glyph glyph-name="N" unicode="N" d="M99 0 l0 745 l40 0 l466 -667 l-16 0 l0 667 l50 0 l0 -745 l-40 0 l-469 671 l19 0 l0 -671 l-50 0 Z" /><glyph glyph-name="Eng" unicode="&#x14a;" d="M483 -220 q-12 0 -21.5 1.5 q-9.5 1.5 -17.5 3.5 l0 43 q17 -3 36 -3 q52 0 80.5 28.5 q28.5 28.5 28.5 84.5 l0 112 l21 -66 l-482 690 l21 6 l0 -680 l-50 0 l0 745 l40 0 l471 -674 l-21 -6 l0 680 l50 0 l0 -807 q0 -51 -20 -86.5 q-20 -35.5 -55 -53.5 q-35 -18 -81 -18 Z" /><glyph glyph-name="O" unicode="O" d="M442 -12 q-75 0 -141.5 28 q-66.5 28 -116.5 79.5 q-50 51.5 -78.5 122 q-28.5 70.5 -28.5 155.5 q0 85 28.5 155 q28.5 70 79 121.5 q50.5 51.5 116.5 79.5 q66 28 141 28 q75 0 141 -28 q66 -28 116.5 -79.5 q50.5 -51.5 79 -122 q28.5 -70.5 28.5 -154.5 q0 -85 -28.5 -155.5 q-28.5 -70.5 -78.5 -122 q-50 -51.5 -116.5 -79.5 q-66.5 -28 -141.5 -28 ZM442 36 q70 0 128 26.5 q58 26.5 100 73.5 q42 47 64.5 108 q22.5 61 22.5 129 q0 67 -22.5 127.5 q-22.5 60.5 -64 107.5 q-41.5 47 -99.5 74 q-58 27 -129 27 q-70 0 -128 -27 q-58 -27 -100 -74 q-42 -47 -64.5 -107.5 q-22.5 -60.5 -22.5 -127.5 q0 -68 22.5 -129 q22.5 -61 64.5 -108 q42 -47 100 -73.5 q58 -26.5 128 -26.5 Z" /><glyph glyph-name="Ohorn" unicode="&#x1a0;" d="M442 -12 q-75 0 -141.5 28 q-66.5 28 -116.5 79.5 q-50 51.5 -78.5 122 q-28.5 70.5 -28.5 155.5 q0 85 28.5 155 q28.5 70 79 121.5 q50.5 51.5 116.5 79.5 q66 28 141 28 l213 0 q16 0 28 5.5 q12 5.5 18.5 18 q6.5 12.5 6.5 31.5 q0 21 -6 41 q-6 20 -14 40 l45 0 q8 -22 14.5 -43.5 q6.5 -21.5 6.5 -43.5 q0 -44 -27 -67 q-27 -23 -69 -23 l-70 0 l9 6 q62 -29 109.5 -80 q47.5 -51 74 -119 q26.5 -68 26.5 -150 q0 -85 -28.5 -155.5 q-28.5 -70.5 -78.5 -122 q-50 -51.5 -116.5 -79.5 q-66.5 -28 -141.5 -28 ZM442 36 q70 0 128 26.5 q58 26.5 100 73.5 q42 47 64.5 108 q22.5 61 22.5 129 q0 67 -22.5 127.5 q-22.5 60.5 -64 107.5 q-41.5 47 -99.5 74 q-58 27 -129 27 q-70 0 -128 -27 q-58 -27 -100 -74 q-42 -47 -64.5 -107.5 q-22.5 -60.5 -22.5 -127.5 q0 -68 22.5 -129 q22.5 -61 64.5 -108 q42 -47 100 -73.5 q58 -26.5 128 -26.5 Z" /><glyph glyph-name="Oslash" unicode="Ø" d="M105 0 l610 745 l64 0 l-610 -745 l-64 0 ZM442 -12 q-75 0 -141.5 28 q-66.5 28 -116.5 79.5 q-50 51.5 -78.5 122 q-28.5 70.5 -28.5 155.5 q0 85 28.5 155 q28.5 70 79 121.5 q50.5 51.5 116.5 79.5 q66 28 141 28 q75 0 141 -28 q66 -28 116.5 -79.5 q50.5 -51.5 79 -122 q28.5 -70.5 28.5 -154.5 q0 -85 -28.5 -155.5 q-28.5 -70.5 -78.5 -122 q-50 -51.5 -116.5 -79.5 q-66.5 -28 -141.5 -28 ZM442 36 q70 0 128 26.5 q58 26.5 100 73.5 q42 47 64.5 108 q22.5 61 22.5 129 q0 67 -22.5 127.5 q-22.5 60.5 -64 107.5 q-41.5 47 -99.5 74 q-58 27 -129 27 q-70 0 -128 -27 q-58 -27 -100 -74 q-42 -47 -64.5 -107.5 q-22.5 -60.5 -22.5 -127.5 q0 -68 22.5 -129 q22.5 -61 64.5 -108 q42 -47 100 -73.5 q58 -26.5 128 -26.5 Z" /><glyph glyph-name="OE" unicode="&#x152;" d="M442 -12 q-75 0 -141.5 28 q-66.5 28 -116.5 79.5 q-50 51.5 -78.5 122 q-28.5 70.5 -28.5 155.5 q0 85 28.5 155 q28.5 70 79 121.5 q50.5 51.5 116.5 79.5 q66 28 141 28 q73 0 138 -26.5 q65 -26.5 115 -75.5 q50 -49 79 -117 l-11 -13 l0 220 l460 0 l0 -45 l-410 0 l0 -304 l390 0 l0 -45 l-390 0 l0 -306 l410 0 l0 -45 l-460 0 l0 220 l11 -13 q-29 -67 -79 -116.5 q-50 -49.5 -115 -76 q-65 -26.5 -138 -26.5 ZM442 36 q70 0 128 26.5 q58 26.5 100 73.5 q42 47 64.5 108 q22.5 61 22.5 129 q0 67 -22.5 127.5 q-22.5 60.5 -64 107.5 q-41.5 47 -99.5 74 q-58 27 -129 27 q-70 0 -128 -27 q-58 -27 -100 -74 q-42 -47 -64.5 -107.5 q-22.5 -60.5 -22.5 -127.5 q0 -68 22.5 -129 q22.5 -61 64.5 -108 q42 -47 100 -73.5 q58 -26.5 128 -26.5 Z" /><glyph glyph-name="P" unicode="P" d="M99 0 l0 745 l244 0 q70 0 123 -28 q53 -28 83 -78.5 q30 -50.5 30 -116.5 q0 -66 -30 -116 q-30 -50 -83 -78 q-53 -28 -123 -28 l-194 0 l0 -300 l-50 0 ZM149 345 l194 0 q55 0 96.5 22.5 q41.5 22.5 65.5 63 q24 40.5 24 92.5 q0 53 -23.5 92.5 q-23.5 39.5 -65.5 62 q-42 22.5 -97 22.5 l-194 0 l0 -355 Z" /><glyph glyph-name="Thorn" unicode="Þ" d="M95 0 l0 745 l50 0 l0 -150 l194 0 q70 0 123 -28 q53 -28 83 -78.5 q30 -50.5 30 -116.5 q0 -66 -30 -116 q-30 -50 -83 -78 q-53 -28 -123 -28 l-194 0 l0 -150 l-50 0 ZM145 195 l194 0 q55 0 96.5 22.5 q41.5 22.5 65.5 63 q24 40.5 24 92.5 q0 53 -23.5 92.5 q-23.5 39.5 -65.5 62 q-42 22.5 -97 22.5 l-194 0 l0 -355 Z" /><glyph glyph-name="Q" unicode="Q" d="M442 -12 q-75 0 -141.5 28 q-66.5 28 -116.5 79.5 q-50 51.5 -78.5 122 q-28.5 70.5 -28.5 155.5 q0 85 28.5 155 q28.5 70 79 121.5 q50.5 51.5 116.5 79.5 q66 28 141 28 q75 0 141 -28 q66 -28 116.5 -79.5 q50.5 -51.5 79 -122 q28.5 -70.5 28.5 -154.5 q0 -85 -28.5 -155.5 q-28.5 -70.5 -78.5 -122 q-50 -51.5 -116.5 -79.5 q-66.5 -28 -141.5 -28 ZM442 36 q70 0 128 26.5 q58 26.5 100 73.5 q42 47 64.5 108 q22.5 61 22.5 129 q0 67 -22.5 127.5 q-22.5 60.5 -64 107.5 q-41.5 47 -99.5 74 q-58 27 -129 27 q-70 0 -128 -27 q-58 -27 -100 -74 q-42 -47 -64.5 -107.5 q-22.5 -60.5 -22.5 -127.5 q0 -68 22.5 -129 q22.5 -61 64.5 -108 q42 -47 100 -73.5 q58 -26.5 128 -26.5 ZM674 -90 l-250 388 l59 0 l250 -388 l-59 0 Z" /><glyph glyph-name="R" unicode="R" d="M99 0 l0 745 l244 0 q70 0 123 -28 q53 -28 83 -78.5 q30 -50.5 30 -116.5 q0 -81 -45 -138 q-45 -57 -121 -76 l178 -308 l-59 0 l-189 331 l54 -31 l-248 0 l0 -300 l-50 0 ZM149 345 l194 0 q55 0 96.5 22.5 q41.5 22.5 65.5 63 q24 40.5 24 92.5 q0 53 -23.5 92.5 q-23.5 39.5 -65.5 62 q-42 22.5 -97 22.5 l-194 0 l0 -355 Z" /><glyph glyph-name="S" unicode="S" d="M332 -12 q-71 0 -125.5 26.5 q-54.5 26.5 -90 69.5 q-35.5 43 -50.5 90 l45 14 q29 -76 85 -116.5 q56 -40.5 135 -40.5 q53 0 94 18.5 q41 18.5 65 52.5 q24 34 24 82 q0 61 -35.5 94.5 q-35.5 33.5 -82.5 46.5 l-139 40 q-86 25 -123 78 q-37 53 -37 120 q0 58 28 101.5 q28 43.5 76 68 q48 24.5 108 24.5 q62 0 111.5 -24.5 q49.5 -24.5 84 -64 q34.5 -39.5 48.5 -85.5 l-45 -14 q-26 71 -79 108 q-53 37 -119 37 q-46 0 -83.5 -18.5 q-37.5 -18.5 -59.5 -52.5 q-22 -34 -22 -81 q0 -55 29 -91 q29 -36 105 -59 l126 -38 q73 -22 115 -71.5 q42 -49.5 42 -119.5 q0 -58 -30 -101.5 q-30 -43.5 -82 -68.5 q-52 -25 -118 -25 Z" /><glyph glyph-name="T" unicode="T" d="M233 0 l0 700 l-211 0 l0 45 l470 0 l0 -45 l-209 0 l0 -700 l-50 0 Z" /><glyph glyph-name="Tbar" unicode="&#x166;" d="M112 350 l0 45 l290 0 l0 -45 l-290 0 ZM233 0 l0 700 l-211 0 l0 45 l470 0 l0 -45 l-209 0 l0 -700 l-50 0 Z" /><glyph glyph-name="U" unicode="U" d="M345 -12 q-74 0 -130.5 33 q-56.5 33 -88 92 q-31.5 59 -31.5 138 l0 494 l50 0 l0 -498 q0 -63 25 -111 q25 -48 70.5 -75.5 q45.5 -27.5 104.5 -27.5 q60 0 105 27.5 q45 27.5 70 75.5 q25 48 25 111 l0 498 l50 0 l0 -494 q0 -79 -31.5 -138 q-31.5 -59 -87.5 -92 q-56 -33 -131 -33 Z" /><glyph glyph-name="Uhorn" unicode="&#x1af;" d="M345 -12 q-74 0 -130.5 33 q-56.5 33 -88 92 q-31.5 59 -31.5 138 l0 494 l50 0 l0 -498 q0 -63 25 -111 q25 -48 70.5 -75.5 q45.5 -27.5 104.5 -27.5 q60 0 105 27.5 q45 27.5 70 75.5 q25 48 25 111 l0 498 l43 0 q24 0 38.5 13 q14.5 13 14.5 42 q0 21 -6 41 q-6 20 -14 40 l45 0 q8 -22 14.5 -43.5 q6.5 -21.5 6.5 -43.5 q0 -42 -23.5 -66 q-23.5 -24 -61.5 -24 l-7 0 l0 -453 q0 -79 -31.5 -138 q-31.5 -59 -87.5 -92 q-56 -33 -131 -33 Z" /><glyph glyph-name="V" unicode="V" d="M303 0 l-281 745 l55 0 l261 -699 l-21 0 l260 699 l55 0 l-281 -745 l-48 0 Z" /><glyph glyph-name="W" unicode="W" d="M245 0 l-223 745 l54 0 l206 -701 l-26 1 l214 700 l48 0 l214 -700 l-26 -1 l206 701 l54 0 l-223 -745 l-48 0 l-215 706 l28 0 l-215 -706 l-48 0 Z" /><glyph glyph-name="X" unicode="X" d="M22 0 l240 382 l-230 363 l62 0 l204 -324 l-7 0 l203 324 l61 0 l-230 -363 l242 -382 l-62 0 l-215 343 l8 0 l-214 -343 l-62 0 Z" /><glyph glyph-name="Y" unicode="Y" d="M287 0 l0 333 l-265 412 l57 0 l247 -376 l-26 0 l245 376 l57 0 l-265 -412 l0 -333 l-50 0 Z" /><glyph glyph-name="Z" unicode="Z" d="M33 0 l0 30 l462 670 l-435 0 l0 45 l503 0 l0 -30 l-461 -670 l471 0 l0 -45 l-540 0 Z" /><glyph glyph-name="a" unicode="a" d="M237 -12 q-48 0 -86.5 18.5 q-38.5 18.5 -61.5 52 q-23 33.5 -23 77.5 q0 36 16.5 69.5 q16.5 33.5 54 58.5 q37.5 25 100.5 35 l220 37 l0 -43 l-205 -34 q-78 -13 -109 -46 q-31 -33 -31 -75 q0 -50 37 -79 q37 -29 92 -29 q61 0 105.5 29 q44.5 29 69.5 76.5 q25 47.5 25 102.5 l0 127 q0 59 -40.5 94.5 q-40.5 35.5 -107.5 35.5 q-51 0 -94 -25 q-43 -25 -67 -66 l-40 21 q15 30 44.5 55.5 q29.5 25.5 69.5 41.5 q40 16 87 16 q57 0 100.5 -22 q43.5 -22 68 -61 q24.5 -39 24.5 -90 l0 -365 l-45 0 l0 115 l4 0 q-13 -33 -43 -62 q-30 -29 -72 -47 q-42 -18 -93 -18 Z" /><glyph glyph-name="ae" unicode="æ" d="M237 -12 q-48 0 -86.5 18.5 q-38.5 18.5 -61.5 52 q-23 33.5 -23 77.5 q0 36 16.5 69.5 q16.5 33.5 54 58.5 q37.5 25 100.5 35 l203 34 l0 32 q0 59 -40 94.5 q-40 35.5 -107 35.5 q-51 0 -94 -25 q-43 -25 -67 -66 l-40 21 q15 30 44.5 55.5 q29.5 25.5 69.5 41.5 q40 16 87 16 q78 0 130.5 -41 q52.5 -41 61.5 -108 l-16 1 q31 68 91 108 q60 40 136 40 q51 0 95 -19 q44 -19 76.5 -53 q32.5 -34 50.5 -79.5 q18 -45.5 18 -98.5 q0 -10 -0.5 -19 q-0.5 -9 -2.5 -20 l-447 0 q4 -63 33 -112.5 q29 -49.5 77.5 -78 q48.5 -28.5 109.5 -28.5 q57 0 103 27 q46 27 74 76 l38 -20 q-19 -38 -52 -66.5 q-33 -28.5 -74.5 -43.5 q-41.5 -15 -88.5 -15 q-76 0 -137.5 38 q-61.5 38 -94.5 102 l12 15 l0 -143 l-46 0 l0 140 l8 -18 q-12 -34 -42 -65 q-30 -31 -73 -50 q-43 -19 -96 -19 ZM241 30 q61 0 105.5 29 q44.5 29 69 76.5 q24.5 47.5 24.5 102.5 l0 52 l-188 -31 q-78 -13 -109 -46 q-31 -33 -31 -75 q0 -50 37 -79 q37 -29 92 -29 ZM487 289 l403 0 q0 59 -25.5 105.5 q-25.5 46.5 -69.5 74 q-44 27.5 -99 27.5 q-55 0 -100.5 -27 q-45.5 -27 -74 -74 q-28.5 -47 -34.5 -106 Z" /><glyph glyph-name="b" unicode="b" d="M349 -12 q-76 0 -135.5 39.5 q-59.5 39.5 -88.5 104.5 l8 17 l0 -149 l-45 0 l0 757 l45 0 l0 -380 l-8 17 q29 65 88.5 104.5 q59.5 39.5 135.5 39.5 q74 0 132.5 -36 q58.5 -36 92.5 -98.5 q34 -62.5 34 -140.5 q0 -78 -34 -140 q-34 -62 -92.5 -98.5 q-58.5 -36.5 -132.5 -36.5 ZM349 33 q61 0 108.5 30 q47.5 30 75 82 q27.5 52 27.5 118 q0 66 -27.5 118 q-27.5 52 -75 82 q-47.5 30 -108.5 30 q-60 0 -108.5 -30 q-48.5 -30 -76.5 -81.5 q-28 -51.5 -28 -118.5 q0 -66 28 -118 q28 -52 76.5 -82 q48.5 -30 108.5 -30 Z" /><glyph glyph-name="c" unicode="c" d="M328 -12 q-73 0 -132.5 36 q-59.5 36 -94.5 98.5 q-35 62.5 -35 140.5 q0 79 35 141 q35 62 94.5 98 q59.5 36 132.5 36 q49 0 90.5 -16 q41.5 -16 73 -44 q31.5 -28 49.5 -64 l-38 -21 q-28 50 -73 76.5 q-45 26.5 -102 26.5 q-61 0 -110 -29 q-49 -29 -78 -81.5 q-29 -52.5 -29 -122.5 q0 -70 29 -122.5 q29 -52.5 78 -81.5 q49 -29 110 -29 q57 0 102 27 q45 27 73 76 l38 -20 q-18 -35 -49.5 -63.5 q-31.5 -28.5 -73 -45 q-41.5 -16.5 -90.5 -16.5 Z" /><glyph glyph-name="d" unicode="d" d="M325 -12 q-73 0 -132 36.5 q-59 36.5 -93 98.5 q-34 62 -34 140 q0 78 34 140.5 q34 62.5 93 98.5 q59 36 132 36 q76 0 136 -39.5 q60 -39.5 88 -104.5 l-8 -17 l0 380 l45 0 l0 -757 l-45 0 l0 149 l8 -17 q-28 -65 -88 -104.5 q-60 -39.5 -136 -39.5 ZM325 33 q61 0 109 30 q48 30 76 82 q28 52 28 118 q0 67 -28 118.5 q-28 51.5 -76 81.5 q-48 30 -109 30 q-61 0 -108.5 -30 q-47.5 -30 -75 -82 q-27.5 -52 -27.5 -118 q0 -66 27.5 -118 q27.5 -52 75 -82 q47.5 -30 108.5 -30 Z" /><glyph glyph-name="dcroat" unicode="&#x111;" d="M434 620 l0 40 l260 0 l0 -40 l-260 0 ZM325 -12 q-73 0 -132 36.5 q-59 36.5 -93 98.5 q-34 62 -34 140 q0 78 34 140.5 q34 62.5 93 98.5 q59 36 132 36 q76 0 136 -39.5 q60 -39.5 88 -104.5 l-8 -17 l0 380 l45 0 l0 -757 l-45 0 l0 149 l8 -17 q-28 -65 -88 -104.5 q-60 -39.5 -136 -39.5 ZM325 33 q61 0 109 30 q48 30 76 82 q28 52 28 118 q0 67 -28 118.5 q-28 51.5 -76 81.5 q-48 30 -109 30 q-61 0 -108.5 -30 q-47.5 -30 -75 -82 q-27.5 -52 -27.5 -118 q0 -66 27.5 -118 q27.5 -52 75 -82 q47.5 -30 108.5 -30 Z" /><glyph glyph-name="eth" unicode="ð" d="M335 -12 q-58 0 -107.5 20.5 q-49.5 20.5 -85.5 57.5 q-36 37 -56 86.5 q-20 49.5 -20 106.5 q0 76 34 137 q34 61 94 96.5 q60 35.5 138 35.5 q45 0 90 -15 q45 -15 83 -51 q38 -36 63 -98 l-20 -16 q0 54 -17 110.5 q-17 56.5 -48.5 109 q-31.5 52.5 -76 94.5 q-44.5 42 -99 66.5 q-54.5 24.5 -116.5 24.5 q-23 0 -48 -4 q-25 -4 -52 -13 l-13 42 q60 18 118 18 q78 0 141.5 -29 q63.5 -29 112 -78.5 q48.5 -49.5 81.5 -113.5 q33 -64 50 -134.5 q17 -70.5 17 -139.5 q0 -104 -35 -173.5 q-35 -69.5 -94.5 -104.5 q-59.5 -35 -133.5 -35 ZM331 31 q61 0 110 30.5 q49 30.5 78 82.5 q29 52 29 116 q0 63 -28 114 q-28 51 -77 81 q-49 30 -112 30 q-63 0 -112 -30 q-49 -30 -77 -81.5 q-28 -51.5 -28 -114.5 q0 -65 29.5 -116.5 q29.5 -51.5 79 -81.5 q49.5 -30 108.5 -30 ZM251 588 l0 42 l276 97 l0 -43 l-276 -96 Z" /><glyph glyph-name="e" unicode="e" d="M331 -12 q-75 0 -135 36.5 q-60 36.5 -95 99 q-35 62.5 -35 139.5 q0 78 34 140.5 q34 62.5 91.5 98.5 q57.5 36 129.5 36 q51 0 95 -19 q44 -19 76.5 -53 q32.5 -34 50.5 -79.5 q18 -45.5 18 -98.5 q0 -10 -0.5 -19 q-0.5 -9 -2.5 -20 l-469 0 l0 40 l443 0 l-17 -13 q3 62 -22 111.5 q-25 49.5 -70 79 q-45 29.5 -102 29.5 q-59 0 -106.5 -31 q-47.5 -31 -75.5 -83.5 q-28 -52.5 -28 -118.5 q0 -66 29 -119 q29 -53 78.5 -83.5 q49.5 -30.5 112.5 -30.5 q57 0 103 27 q46 27 74 76 l38 -20 q-19 -38 -52 -66.5 q-33 -28.5 -74.5 -43.5 q-41.5 -15 -88.5 -15 Z" /><glyph glyph-name="uni0259" unicode="&#x259;" d="M306 -12 q-51 0 -95 19 q-44 19 -76.5 53 q-32.5 34 -50.5 79.5 q-18 45.5 -18 98.5 q0 10 1 19 q1 9 2 20 l469 0 l0 -40 l-443 0 l17 13 q-3 -61 22 -111 q25 -50 70 -79.5 q45 -29.5 102 -29.5 q59 0 106.5 31 q47.5 31 75.5 84 q28 53 28 118 q0 67 -28.5 119.5 q-28.5 52.5 -78.5 83 q-50 30.5 -113 30.5 q-57 0 -103 -27 q-46 -27 -74 -76 l-38 20 q20 39 52.5 67 q32.5 28 74 43 q41.5 15 88.5 15 q75 0 135 -36.5 q60 -36.5 95 -98.5 q35 -62 35 -140 q0 -78 -33.5 -140 q-33.5 -62 -91.5 -98.5 q-58 -36.5 -130 -36.5 Z" /><glyph glyph-name="f" unicode="f" d="M143 0 l0 486 l-109 0 l0 40 l109 0 l0 53 q0 56 20.5 96 q20.5 40 57 61 q36.5 21 84.5 21 q12 0 22 -1.5 q10 -1.5 17 -3.5 l0 -41 q-8 2 -18 2.5 q-10 0.5 -18 0.5 q-56 0 -88 -35.5 q-32 -35.5 -32 -99.5 l0 -53 l133 0 l0 -40 l-133 0 l0 -486 l-45 0 Z" /><glyph glyph-name="g" unicode="g" d="M331 -220 q-51 0 -94.5 16.5 q-43.5 16.5 -76.5 45 q-33 28.5 -52 63.5 l38 22 q29 -49 77 -77 q48 -28 108 -28 q50 0 95.5 20.5 q45.5 20.5 75 64 q29.5 43.5 29.5 111.5 l0 151 l10 -17 q-28 -65 -86.5 -104.5 q-58.5 -39.5 -134.5 -39.5 q-73 0 -130.5 36 q-57.5 36 -90.5 96 q-33 60 -33 133 q0 73 33 133 q33 60 90.5 96 q57.5 36 130.5 36 q76 0 134.5 -39.5 q58.5 -39.5 86.5 -104.5 l-10 -17 l0 149 l45 0 l0 -508 q0 -69 -31.5 -123 q-31.5 -54 -86.5 -84.5 q-55 -30.5 -127 -30.5 ZM320 53 q61 0 107.5 29.5 q46.5 29.5 73.5 79.5 q27 50 27 111 q0 62 -27 111.5 q-27 49.5 -73.5 79 q-46.5 29.5 -107.5 29.5 q-61 0 -107.5 -29.5 q-46.5 -29.5 -72.5 -79.5 q-26 -50 -26 -111 q0 -61 26 -111 q26 -50 72.5 -79.5 q46.5 -29.5 107.5 -29.5 Z" /><glyph glyph-name="h" unicode="h" d="M88 0 l0 757 l45 0 l0 -342 l-12 5 q16 53 63.5 85.5 q47.5 32.5 110.5 32.5 q53 0 98 -24 q45 -24 72.5 -67.5 q27.5 -43.5 27.5 -101.5 l0 -345 l-45 0 l0 340 q0 48 -21 82.5 q-21 34.5 -56.5 53.5 q-35.5 19 -79.5 19 q-50 0 -85.5 -23.5 q-35.5 -23.5 -54 -63 q-18.5 -39.5 -18.5 -88.5 l0 -320 l-45 0 Z" /><glyph glyph-name="hbar" unicode="&#x127;" d="M-19 620 l0 40 l260 0 l0 -40 l-260 0 ZM88 0 l0 757 l45 0 l0 -342 l-12 5 q16 53 63.5 85.5 q47.5 32.5 110.5 32.5 q53 0 98 -24 q45 -24 72.5 -67.5 q27.5 -43.5 27.5 -101.5 l0 -345 l-45 0 l0 340 q0 48 -21 82.5 q-21 34.5 -56.5 53.5 q-35.5 19 -79.5 19 q-50 0 -85.5 -23.5 q-35.5 -23.5 -54 -63 q-18.5 -39.5 -18.5 -88.5 l0 -320 l-45 0 Z" /><glyph glyph-name="i" unicode="i" d="M88 0 l0 526 l45 0 l0 -526 l-45 0 ZM88 635 l0 110 l45 0 l0 -110 l-45 0 Z" /><glyph glyph-name="dotlessi" unicode="&#x131;" d="M70 0 l0 526 l45 0 l0 -526 l-45 0 Z" /><glyph glyph-name="j" unicode="j" d="M-18 -220 q-12 0 -21.5 1.5 q-9.5 1.5 -17.5 3.5 l0 41 q17 -3 36 -3 q52 0 80.5 29.5 q28.5 29.5 28.5 85.5 l0 588 l45 0 l0 -588 q0 -51 -19 -86.5 q-19 -35.5 -52.5 -53.5 q-33.5 -18 -79.5 -18 ZM88 635 l0 110 l45 0 l0 -110 l-45 0 Z" /><glyph glyph-name="uni0237" unicode="&#x237;" d="M-18 -220 q-12 0 -21.5 1.5 q-9.5 1.5 -17.5 3.5 l0 41 q17 -3 36 -3 q52 0 80.5 29.5 q28.5 29.5 28.5 85.5 l0 588 l45 0 l0 -588 q0 -51 -19 -86.5 q-19 -35.5 -52.5 -53.5 q-33.5 -18 -79.5 -18 Z" /><glyph glyph-name="k" unicode="k" d="M88 0 l0 757 l45 0 l0 -552 l-30 0 l327 321 l68 0 l-218 -213 l238 -313 l-60 0 l-228 299 l31 1 l-135 -137 l7 19 l0 -182 l-45 0 Z" /><glyph glyph-name="kgreenlandic" unicode="&#x138;" d="M462 0 l-201 276 l1 24 l158 226 l58 0 l-166 -237 l206 -289 l-56 0 ZM88 0 l0 526 l45 0 l0 -526 l-45 0 ZM109 266 l0 40 l190 0 l0 -40 l-190 0 Z" /><glyph glyph-name="l" unicode="l" d="M88 0 l0 757 l45 0 l0 -757 l-45 0 Z" /><glyph glyph-name="ldot" unicode="&#x140;" d="M271 332 q-16 0 -28 11.5 q-12 11.5 -12 28.5 q0 17 12 28.5 q12 11.5 28 11.5 q16 0 28 -11.5 q12 -11.5 12 -28.5 q0 -17 -12 -28.5 q-12 -11.5 -28 -11.5 ZM88 0 l0 757 l45 0 l0 -757 l-45 0 Z" /><glyph glyph-name="lslash" unicode="&#x142;" d="M44 292 l0 55 l206 144 l0 -55 l-206 -144 ZM124 0 l0 757 l45 0 l0 -757 l-45 0 Z" /><glyph glyph-name="m" unicode="m" d="M88 0 l0 526 l45 0 l0 -113 l-9 15 q17 50 62.5 80 q45.5 30 103.5 30 q62 0 114 -36.5 q52 -36.5 71 -98.5 l-16 0 q14 60 65 97.5 q51 37.5 116 37.5 q51 0 95 -24 q44 -24 71 -67.5 q27 -43.5 27 -101.5 l0 -345 l-45 0 l0 340 q0 48 -21 82.5 q-21 34.5 -55.5 53.5 q-34.5 19 -75.5 19 q-47 0 -81.5 -23.5 q-34.5 -23.5 -53 -63 q-18.5 -39.5 -18.5 -88.5 l0 -320 l-45 0 l0 340 q0 48 -21 82.5 q-21 34.5 -55.5 53.5 q-34.5 19 -75.5 19 q-47 0 -81.5 -23.5 q-34.5 -23.5 -53 -63 q-18.5 -39.5 -18.5 -88.5 l0 -320 l-45 0 Z" /><glyph glyph-name="n" unicode="n" d="M88 0 l0 526 l45 0 l0 -111 l-12 5 q16 53 63.5 85.5 q47.5 32.5 110.5 32.5 q53 0 98 -24 q45 -24 72.5 -67.5 q27.5 -43.5 27.5 -101.5 l0 -345 l-45 0 l0 340 q0 48 -21 82.5 q-21 34.5 -56.5 53.5 q-35.5 19 -79.5 19 q-50 0 -85.5 -23.5 q-35.5 -23.5 -54 -63 q-18.5 -39.5 -18.5 -88.5 l0 -320 l-45 0 Z" /><glyph glyph-name="eng" unicode="&#x14b;" d="M331 -220 q-12 0 -21.5 1.5 q-9.5 1.5 -17.5 3.5 l0 41 q17 -3 36 -3 q52 0 80.5 29.5 q28.5 29.5 28.5 85.5 l0 402 q0 48 -21 82.5 q-21 34.5 -56.5 53.5 q-35.5 19 -79.5 19 q-50 0 -85.5 -23.5 q-35.5 -23.5 -54 -63 q-18.5 -39.5 -18.5 -88.5 l0 -320 l-45 0 l0 526 l45 0 l0 -111 l-12 5 q16 53 63.5 85.5 q47.5 32.5 110.5 32.5 q53 0 98 -24 q45 -24 72.5 -67.5 q27.5 -43.5 27.5 -101.5 l0 -407 q0 -51 -19 -86.5 q-19 -35.5 -52.5 -53.5 q-33.5 -18 -79.5 -18 Z" /><glyph glyph-name="o" unicode="o" d="M331 -12 q-75 0 -135 36 q-60 36 -95 98.5 q-35 62.5 -35 140.5 q0 79 35 141 q35 62 95 98 q60 36 135 36 q76 0 135.5 -36 q59.5 -36 94.5 -98 q35 -62 35 -141 q0 -78 -35 -140.5 q-35 -62.5 -94.5 -98.5 q-59.5 -36 -135.5 -36 ZM331 31 q61 0 110 30.5 q49 30.5 78 83.5 q29 53 29 118 q0 66 -28.5 118.5 q-28.5 52.5 -77.5 83 q-49 30.5 -110 30.5 q-62 0 -111.5 -30.5 q-49.5 -30.5 -78 -83 q-28.5 -52.5 -28.5 -118.5 q0 -65 29 -118 q29 -53 78 -83.5 q49 -30.5 110 -30.5 Z" /><glyph glyph-name="ohorn" unicode="&#x1a1;" d="M331 -12 q-75 0 -135 36 q-60 36 -95 98.5 q-35 62.5 -35 140.5 q0 79 35 141 q35 62 95 98 q60 36 135 36 l113 0 q16 0 28 5.5 q12 5.5 18.5 18 q6.5 12.5 6.5 31.5 q0 21 -6 41 q-6 20 -14 40 l45 0 q8 -22 14.5 -43.5 q6.5 -21.5 6.5 -43.5 q0 -42 -24.5 -65 q-24.5 -23 -63.5 -25 l4 9 q62 -34 99.5 -97.5 q37.5 -63.5 37.5 -145.5 q0 -78 -35 -140.5 q-35 -62.5 -94.5 -98.5 q-59.5 -36 -135.5 -36 ZM331 31 q61 0 110 30.5 q49 30.5 78 83.5 q29 53 29 118 q0 66 -28.5 118.5 q-28.5 52.5 -77.5 83 q-49 30.5 -111 30.5 q-61 0 -110.5 -30.5 q-49.5 -30.5 -78 -83 q-28.5 -52.5 -28.5 -118.5 q0 -65 29 -118 q29 -53 78 -83.5 q49 -30.5 110 -30.5 Z" /><glyph glyph-name="oslash" unicode="ø" d="M63 0 l469 526 l66 0 l-469 -526 l-66 0 ZM331 -12 q-75 0 -135 36 q-60 36 -95 98.5 q-35 62.5 -35 140.5 q0 79 35 141 q35 62 95 98 q60 36 135 36 q76 0 135.5 -36 q59.5 -36 94.5 -98 q35 -62 35 -141 q0 -78 -35 -140.5 q-35 -62.5 -94.5 -98.5 q-59.5 -36 -135.5 -36 ZM331 31 q61 0 110 30.5 q49 30.5 78 83.5 q29 53 29 118 q0 66 -28.5 118.5 q-28.5 52.5 -77.5 83 q-49 30.5 -110 30.5 q-62 0 -111.5 -30.5 q-49.5 -30.5 -78 -83 q-28.5 -52.5 -28.5 -118.5 q0 -65 29 -118 q29 -53 78 -83.5 q49 -30.5 110 -30.5 Z" /><glyph glyph-name="oe" unicode="&#x153;" d="M331 -12 q-75 0 -135 36 q-60 36 -95 98.5 q-35 62.5 -35 140.5 q0 79 35 141 q35 62 95 98 q60 36 135 36 q60 0 110.5 -23 q50.5 -23 87 -64.5 q36.5 -41.5 53.5 -96.5 l-16 -1 q17 55 52 96.5 q35 41.5 83.5 65 q48.5 23.5 105.5 23.5 q51 0 95 -19 q44 -19 76.5 -53 q32.5 -34 50.5 -79.5 q18 -45.5 18 -98.5 q0 -10 -0.5 -19 q-0.5 -9 -2.5 -20 l-447 0 q4 -63 33 -112.5 q29 -49.5 77.5 -78 q48.5 -28.5 109.5 -28.5 q57 0 103 27 q46 27 74 76 l38 -20 q-19 -38 -52 -66.5 q-33 -28.5 -74.5 -43.5 q-41.5 -15 -88.5 -15 q-90 0 -157.5 51.5 q-67.5 51.5 -94.5 133.5 l17 0 q-17 -55 -53 -96.5 q-36 -41.5 -86.5 -65 q-50.5 -23.5 -111.5 -23.5 ZM331 31 q61 0 110 30.5 q49 30.5 78 83.5 q29 53 29 118 q0 66 -28.5 118.5 q-28.5 52.5 -77.5 83 q-49 30.5 -111 30.5 q-61 0 -110.5 -30.5 q-49.5 -30.5 -78 -83 q-28.5 -52.5 -28.5 -118.5 q0 -65 29 -118 q29 -53 78 -83.5 q49 -30.5 110 -30.5 ZM598 289 l403 0 q0 59 -25.5 105.5 q-25.5 46.5 -69.5 74 q-44 27.5 -99 27.5 q-55 0 -100.5 -27 q-45.5 -27 -74 -74 q-28.5 -47 -34.5 -106 Z" /><glyph glyph-name="p" unicode="p" d="M88 -200 l0 726 l45 0 l0 -149 l-8 17 q29 65 88.5 104.5 q59.5 39.5 135.5 39.5 q74 0 132.5 -36 q58.5 -36 92.5 -98.5 q34 -62.5 34 -140.5 q0 -78 -34 -140 q-34 -62 -92.5 -98.5 q-58.5 -36.5 -132.5 -36.5 q-76 0 -135.5 39.5 q-59.5 39.5 -88.5 104.5 l8 17 l0 -349 l-45 0 ZM349 33 q61 0 108.5 30 q47.5 30 75 82 q27.5 52 27.5 118 q0 66 -27.5 118 q-27.5 52 -75 82 q-47.5 30 -108.5 30 q-60 0 -108.5 -30 q-48.5 -30 -76.5 -81.5 q-28 -51.5 -28 -117.5 q0 -67 28 -119 q28 -52 76.5 -82 q48.5 -30 108.5 -30 Z" /><glyph glyph-name="thorn" unicode="þ" d="M88 -200 l0 945 l45 0 l0 -368 l-8 17 q29 65 88.5 104.5 q59.5 39.5 135.5 39.5 q74 0 132.5 -36 q58.5 -36 92.5 -98.5 q34 -62.5 34 -140.5 q0 -78 -34 -140 q-34 -62 -92.5 -98.5 q-58.5 -36.5 -132.5 -36.5 q-76 0 -135.5 39.5 q-59.5 39.5 -88.5 104.5 l8 17 l0 -349 l-45 0 ZM349 33 q61 0 108.5 30 q47.5 30 75 82 q27.5 52 27.5 118 q0 66 -27.5 118 q-27.5 52 -75 82 q-47.5 30 -108.5 30 q-60 0 -108.5 -30 q-48.5 -30 -76.5 -81.5 q-28 -51.5 -28 -118.5 q0 -66 28 -118 q28 -52 76.5 -82 q48.5 -30 108.5 -30 Z" /><glyph glyph-name="q" unicode="q" d="M541 -200 l0 349 l8 -17 q-28 -65 -88 -104.5 q-60 -39.5 -136 -39.5 q-73 0 -132 36.5 q-59 36.5 -93 98.5 q-34 62 -34 140 q0 78 34 140.5 q34 62.5 93 98.5 q59 36 132 36 q76 0 136 -39.5 q60 -39.5 88 -104.5 l-8 -17 l0 149 l45 0 l0 -726 l-45 0 ZM325 33 q61 0 109 30 q48 30 76 82 q28 52 28 118 q0 67 -28 118.5 q-28 51.5 -76 81.5 q-48 30 -109 30 q-61 0 -108.5 -30 q-47.5 -30 -75 -82 q-27.5 -52 -27.5 -118 q0 -66 27.5 -118 q27.5 -52 75 -82 q47.5 -30 108.5 -30 Z" /><glyph glyph-name="r" unicode="r" d="M88 0 l0 526 l45 0 l0 -111 l-12 5 q15 53 60 82.5 q45 29.5 104 29.5 l33 0 l0 -45 l-34 0 q-72 0 -111.5 -47 q-39.5 -47 -39.5 -120 l0 -320 l-45 0 Z" /><glyph glyph-name="s" unicode="s" d="M260 -12 q-70 0 -124 34.5 q-54 34.5 -81 95.5 l42 19 q26 -50 68.5 -78 q42.5 -28 94.5 -28 q56 0 94.5 28 q38.5 28 38.5 74 q0 24 -11 43 q-11 19 -32.5 33.5 q-21.5 14.5 -52.5 22.5 l-87 24 q-64 17 -96 52.5 q-32 35.5 -32 86.5 q0 42 21.5 74.5 q21.5 32.5 58.5 50.5 q37 18 82 18 q64 0 116.5 -32.5 q52.5 -32.5 72.5 -85.5 l-44 -20 q-22 45 -60 70 q-38 25 -85 25 q-50 0 -83 -28 q-33 -28 -33 -71 q0 -22 10 -39.5 q10 -17.5 30 -30.5 q20 -13 49 -21 l88 -25 q65 -18 100 -55.5 q35 -37.5 35 -89.5 q0 -42 -24 -75.5 q-24 -33.5 -64.5 -52.5 q-40.5 -19 -91.5 -19 Z" /><glyph glyph-name="germandbls" unicode="ß" d="M99 -140 l0 691 q0 63 28 109 q28 46 75 71.5 q47 25.5 105 25.5 q56 0 101.5 -23.5 q45.5 -23.5 72.5 -66.5 q27 -43 27 -102 q0 -69 -37 -111.5 q-37 -42.5 -102 -66.5 l-3 18 q85 -22 129 -71 q44 -49 44 -125 q0 -63 -29.5 -110 q-29.5 -47 -80 -73 q-50.5 -26 -115.5 -26 l-69 0 l0 45 l69 0 q77 0 125.5 45 q48.5 45 48.5 118 q0 74 -50 119 q-50 45 -131 45 l-62 0 l0 45 l55 0 q44 0 79.5 18 q35.5 18 56.5 51.5 q21 33.5 21 78.5 q0 42 -19 75.5 q-19 33.5 -53.5 52.5 q-34.5 19 -79.5 19 q-45 0 -81 -20 q-36 -20 -57.5 -56 q-21.5 -36 -21.5 -85 l0 -691 l-46 0 Z" /><glyph glyph-name="t" unicode="t" d="M270 -6 q-61 0 -94 33 q-33 33 -33 99 l0 360 l-100 0 l0 40 l50 0 q26 0 38 13 q12 13 12 41 l0 70 l45 0 l0 -124 l114 0 l0 -40 l-114 0 l0 -360 q0 -18 5.5 -39 q5.5 -21 24 -35.5 q18.5 -14.5 56.5 -14.5 q8 0 20 1 q12 1 19 2 l0 -40 q-10 -3 -23.5 -4.5 q-13.5 -1.5 -19.5 -1.5 Z" /><glyph glyph-name="tbar" unicode="&#x167;" d="M36 243 l0 40 l259 0 l0 -40 l-259 0 ZM270 -6 q-61 0 -94 33 q-33 33 -33 99 l0 360 l-100 0 l0 40 l50 0 q26 0 38 13 q12 13 12 41 l0 70 l45 0 l0 -124 l114 0 l0 -40 l-114 0 l0 -360 q0 -18 5.5 -39 q5.5 -21 24 -35.5 q18.5 -14.5 56.5 -14.5 q8 0 20 1 q12 1 19 2 l0 -40 q-10 -3 -23.5 -4.5 q-13.5 -1.5 -19.5 -1.5 Z" /><glyph glyph-name="u" unicode="u" d="M275 -12 q-52 0 -97 23 q-45 23 -73 67 q-28 44 -28 108 l0 340 l45 0 l0 -340 q0 -50 21.5 -85 q21.5 -35 57.5 -52.5 q36 -17.5 78 -17.5 q51 0 86.5 23.5 q35.5 23.5 53.5 63.5 q18 40 18 88 l0 320 l45 0 l0 -526 l-45 0 l0 111 l12 -5 q-16 -52 -62.5 -85 q-46.5 -33 -111.5 -33 Z" /><glyph glyph-name="uhorn" unicode="&#x1b0;" d="M275 -12 q-52 0 -97 23 q-45 23 -73 67 q-28 44 -28 108 l0 340 l45 0 l0 -340 q0 -50 21.5 -85 q21.5 -35 57.5 -52.5 q36 -17.5 78 -17.5 q51 0 86.5 23.5 q35.5 23.5 53.5 63.5 q18 40 18 88 l0 320 l28 0 q24 0 38.5 13 q14.5 13 14.5 42 q0 21 -6 41 q-6 20 -14 40 l45 0 q8 -22 14.5 -43.5 q6.5 -21.5 6.5 -43.5 q0 -45 -27.5 -67.5 q-27.5 -22.5 -71.5 -22.5 l17 23 l0 -508 l-45 0 l0 77 q-22 -40 -64.5 -64.5 q-42.5 -24.5 -97.5 -24.5 Z" /><glyph glyph-name="v" unicode="v" d="M234 0 l-212 526 l51 0 l195 -487 l-19 0 l196 487 l52 0 l-215 -526 l-48 0 Z" /><glyph glyph-name="w" unicode="w" d="M202 0 l-180 526 l50 0 l165 -493 l-21 0 l144 493 l48 0 l144 -493 l-22 0 l167 493 l50 0 l-181 -526 l-48 0 l-138 469 l8 0 l-138 -469 l-48 0 Z" /><glyph glyph-name="x" unicode="x" d="M22 0 l187 263 l-185 263 l57 0 l176 -250 l-39 0 l175 250 l58 0 l-185 -263 l186 -263 l-58 0 l-176 250 l39 0 l-178 -250 l-57 0 Z" /><glyph glyph-name="y" unicode="y" d="M81 -220 q-12 0 -28 2 q-16 2 -31 7 l0 41 q14 -4 29.5 -5.5 q15.5 -1.5 26.5 -1.5 q49 1 78.5 26.5 q29.5 25.5 50.5 74.5 l42 98 l2 -46 l-223 550 l51 0 l201 -496 l-28 0 l203 496 l52 0 l-252 -607 q-11 -27 -32.5 -59.5 q-21.5 -32.5 -56 -56 q-34.5 -23.5 -85.5 -23.5 Z" /><glyph glyph-name="z" unicode="z" d="M33 0 l0 30 l337 486 l15 -30 l-333 0 l0 40 l358 0 l0 -30 l-338 -486 l-15 30 l356 0 l0 -40 l-380 0 Z" /><glyph glyph-name="fi" unicode="&#xfb01;" d="M143 0 l0 486 l-109 0 l0 40 l109 0 l0 53 q0 56 20.5 96 q20.5 40 57 61 q36.5 21 84.5 21 q12 0 22 -1.5 q10 -1.5 17 -3.5 l0 -41 q-8 2 -18 2.5 q-10 0.5 -18 0.5 q-56 0 -88 -35.5 q-32 -35.5 -32 -99.5 l0 -53 l303 0 l0 -40 l-303 0 l0 -486 l-45 0 ZM447 0 l0 526 l45 0 l0 -526 l-45 0 Z" /><glyph glyph-name="fl" unicode="&#xfb02;" d="M143 0 l0 486 l-109 0 l0 40 l109 0 l0 53 q0 56 20.5 96 q20.5 40 57 61 q36.5 21 84.5 21 q12 0 22 -1.5 q10 -1.5 17 -3.5 l0 -41 q-8 2 -18 2.5 q-10 0.5 -18 0.5 q-56 0 -88 -35.5 q-32 -35.5 -32 -99.5 l0 -53 l303 0 l0 -40 l-303 0 l0 -486 l-45 0 ZM475 0 l0 757 l45 0 l0 -757 l-45 0 Z" /><glyph glyph-name="ordfeminine" unicode="ª" d="M188 367 q-51 0 -86.5 29 q-35.5 29 -35.5 75 q0 40 28 73 q28 33 93 44 l149 25 l0 -40 l-138 -23 q-48 -8 -67 -28.5 q-19 -20.5 -19 -48.5 q0 -30 23 -49 q23 -19 56 -19 q41 0 71 18.5 q30 18.5 46.5 49 q16.5 30.5 16.5 66.5 l0 92 q0 37 -26.5 60 q-26.5 23 -69.5 23 q-34 0 -62.5 -17 q-28.5 -17 -42.5 -46 l-39 22 q17 34 57 58 q40 24 87 24 q62 0 100.5 -35 q38.5 -35 38.5 -89 l0 -256 l-43 0 l0 77 l5 -3 q-14 -34 -53 -58 q-39 -24 -89 -24 Z" /><glyph glyph-name="ordmasculine" unicode="º" d="M255 367 q-53 0 -96 25.5 q-43 25.5 -68 69.5 q-25 44 -25 99 q0 56 25 99.5 q25 43.5 68 69 q43 25.5 96 25.5 q53 0 95.5 -25.5 q42.5 -25.5 67.5 -69 q25 -43.5 25 -99.5 q0 -56 -25 -100 q-25 -44 -67.5 -69 q-42.5 -25 -95.5 -25 ZM255 409 q39 0 71 20 q32 20 51.5 54.5 q19.5 34.5 19.5 77.5 q0 43 -19 77.5 q-19 34.5 -51 54.5 q-32 20 -72 20 q-40 0 -72.5 -20 q-32.5 -20 -51.5 -54.5 q-19 -34.5 -19 -77.5 q0 -42 19 -76.5 q19 -34.5 51.5 -55 q32.5 -20.5 72.5 -20.5 Z" /><glyph glyph-name="uni0394" unicode="&#x394;" d="M22 0 l0 45 l259 700 l48 0 l259 -700 l0 -45 l-566 0 ZM64 11 l-24 34 l530 0 l-24 -34 l-253 694 l24 0 l-253 -694 Z" /><glyph glyph-name="uni03A9" unicode="&#x3a9;" d="M77 0 l0 45 l211 0 l-16 -12 q-87 48 -141 136.5 q-54 88.5 -54 203.5 q0 85 28.5 155 q28.5 70 79 121.5 q50.5 51.5 116.5 79.5 q66 28 141 28 q75 0 141 -28 q66 -28 116.5 -79.5 q50.5 -51.5 79 -121.5 q28.5 -70 28.5 -155 q0 -115 -54 -203.5 q-54 -88.5 -141 -136.5 l-16 12 l211 0 l0 -45 l-250 0 l0 45 q62 27 106.5 76 q44.5 49 69 114 q24.5 65 24.5 138 q0 67 -22.5 127.5 q-22.5 60.5 -64.5 107.5 q-42 47 -99.5 74 q-57.5 27 -128.5 27 q-70 0 -128 -27 q-58 -27 -100 -74 q-42 -47 -64.5 -107.5 q-22.5 -60.5 -22.5 -127.5 q0 -73 24.5 -138 q24.5 -65 69.5 -114 q45 -49 106 -76 l0 -45 l-250 0 Z" /><glyph glyph-name="pi" unicode="&#x3c0;" d="M143 0 l0 486 l-100 0 l0 40 l540 0 l0 -40 l-100 0 l0 -486 l-45 0 l0 486 l-250 0 l0 -486 l-45 0 Z" /><glyph glyph-name="zero" unicode="0" d="M358 -12 q-85 0 -149.5 48.5 q-64.5 48.5 -100.5 135.5 q-36 87 -36 201 q0 115 36 201 q36 86 100 134.5 q64 48.5 149 48.5 q85 0 149 -48 q64 -48 100 -134.5 q36 -86.5 36 -201.5 q0 -115 -35.5 -201.5 q-35.5 -86.5 -99.5 -135 q-64 -48.5 -149 -48.5 ZM358 36 q74 0 126.5 43 q52.5 43 80 119 q27.5 76 27.5 175 q0 100 -27.5 175.5 q-27.5 75.5 -80 118 q-52.5 42.5 -127.5 42.5 q-74 0 -127 -42.5 q-53 -42.5 -80.5 -118.5 q-27.5 -76 -27.5 -175 q0 -99 28 -175 q28 -76 81 -119 q53 -43 127 -43 Z" /><glyph glyph-name="one" unicode="1" d="M178 0 l0 700 l-140 0 l0 45 l190 0 l0 -745 l-50 0 Z" /><glyph glyph-name="two" unicode="2" d="M56 0 l0 30 l210 230 q63 69 105.5 116.5 q42.5 47.5 64 89 q21.5 41.5 21.5 92.5 q0 72 -44 113 q-44 41 -124 41 q-76 0 -126 -43.5 q-50 -43.5 -68 -122.5 l-45 10 q14 65 48 110 q34 45 83.5 68 q49.5 23 107.5 23 q61 0 110.5 -24.5 q49.5 -24.5 78.5 -69 q29 -44.5 29 -105.5 q0 -49 -21 -93.5 q-21 -44.5 -59.5 -92 q-38.5 -47.5 -92.5 -105.5 l-204 -222 l390 0 l0 -45 l-464 0 Z" /><glyph glyph-name="three" unicode="3" d="M293 -12 q-61 0 -112 23.5 q-51 23.5 -85.5 68.5 q-34.5 45 -47.5 109 l46 12 q16 -77 66 -122.5 q50 -45.5 132 -45.5 q60 0 104.5 24 q44.5 24 69 67.5 q24.5 43.5 24.5 99.5 q0 61 -26.5 100.5 q-26.5 39.5 -71 59.5 q-44.5 20 -98.5 20 q-9 0 -21.5 -1 q-12.5 -1 -23.5 -3 l-6 20 l208 280 l-376 0 l0 45 l440 0 l0 -30 l-212 -284 l1 14 q60 3 113.5 -23.5 q53.5 -26.5 87 -77 q33.5 -50.5 33.5 -121.5 q0 -65 -30.5 -118.5 q-30.5 -53.5 -85.5 -85 q-55 -31.5 -129 -31.5 Z" /><glyph glyph-name="four" unicode="4" d="M432 0 l0 176 l-389 0 l0 40 l394 529 l45 0 l0 -524 l81 0 l0 -45 l-81 0 l0 -176 l-50 0 ZM89 203 l-7 18 l350 0 l0 475 l23 -5 l-366 -488 Z" /><glyph glyph-name="five" unicode="5" d="M304 -12 q-63 0 -115 24.5 q-52 24.5 -86.5 69.5 q-34.5 45 -46.5 107 l46 12 q17 -80 70 -124 q53 -44 132 -44 q58 0 101 25.5 q43 25.5 67 70.5 q24 45 24 103 q0 55 -25.5 98.5 q-25.5 43.5 -69 68.5 q-43.5 25 -96.5 25 q-58 0 -104 -26.5 q-46 -26.5 -67 -61.5 l-43 10 l54 399 l370 0 l0 -45 l-354 0 l24 9 l-43 -321 l-11 6 q25 36 73 56.5 q48 20.5 103 20.5 q68 0 122 -31.5 q54 -31.5 85.5 -85.5 q31.5 -54 31.5 -122 q0 -71 -31 -126 q-31 -55 -85.5 -86.5 q-54.5 -31.5 -125.5 -31.5 Z" /><glyph glyph-name="six" unicode="6" d="M294 -12 q-67 0 -120 31.5 q-53 31.5 -83.5 87 q-30.5 55.5 -30.5 126.5 q0 48 12.5 89 q12.5 41 35.5 81 q23 40 56 83 l196 259 l59 0 l-282 -379 l-17 0 q23 37 53.5 57 q30.5 20 64 28 q33.5 8 62.5 8 q64 0 116 -29.5 q52 -29.5 83 -82 q31 -52.5 31 -122.5 q0 -69 -31.5 -122.5 q-31.5 -53.5 -85 -84 q-53.5 -30.5 -119.5 -30.5 ZM295 33 q53 0 94.5 24.5 q41.5 24.5 65.5 67 q24 42.5 24 97.5 q0 56 -24 99.5 q-24 43.5 -65.5 68 q-41.5 24.5 -94.5 24.5 q-52 0 -94 -24.5 q-42 -24.5 -66 -68 q-24 -43.5 -24 -99.5 q0 -55 24.5 -98 q24.5 -43 66.5 -67 q42 -24 93 -24 Z" /><glyph glyph-name="seven" unicode="7" d="M74 0 l349 700 l-382 0 l0 45 l440 0 l0 -40 l-352 -705 l-55 0 Z" /><glyph glyph-name="eight" unicode="8" d="M303 -12 q-69 0 -123 29.5 q-54 29.5 -85.5 80.5 q-31.5 51 -31.5 116 q0 74 42 131 q42 57 111 79 l4 -15 q-54 23 -83.5 65.5 q-29.5 42.5 -29.5 96.5 q0 53 26 95 q26 42 70.5 66.5 q44.5 24.5 99.5 24.5 q56 0 100 -24 q44 -24 69.5 -66 q25.5 -42 25.5 -96 q0 -54 -27.5 -95 q-27.5 -41 -82.5 -67 l2 15 q69 -21 111 -78.5 q42 -57.5 42 -131.5 q0 -65 -31.5 -116 q-31.5 -51 -85.5 -80.5 q-54 -29.5 -123 -29.5 ZM303 33 q57 0 99.5 22.5 q42.5 22.5 66.5 63 q24 40.5 24 93.5 q0 54 -24 94.5 q-24 40.5 -66.5 63 q-42.5 22.5 -99.5 22.5 q-57 0 -99.5 -22.5 q-42.5 -22.5 -66.5 -63 q-24 -40.5 -24 -94.5 q0 -53 24 -93.5 q24 -40.5 66.5 -63 q42.5 -22.5 99.5 -22.5 ZM303 438 q42 0 74.5 18 q32.5 18 51.5 49 q19 31 19 71 q0 39 -19 69.5 q-19 30.5 -51.5 48.5 q-32.5 18 -74.5 18 q-41 0 -74.5 -18 q-33.5 -18 -52.5 -48.5 q-19 -30.5 -19 -69.5 q0 -40 19 -71 q19 -31 52 -49 q33 -18 75 -18 Z" /><glyph glyph-name="nine" unicode="9" d="M168 0 l282 379 l17 0 q-22 -36 -53 -56.5 q-31 -20.5 -64 -28.5 q-33 -8 -63 -8 q-63 0 -115.5 29.5 q-52.5 29.5 -83.5 82 q-31 52.5 -31 122.5 q0 70 31.5 123 q31.5 53 85 83.5 q53.5 30.5 119.5 30.5 q67 0 120 -31.5 q53 -31.5 83.5 -87 q30.5 -55.5 30.5 -126.5 q0 -47 -12 -88.5 q-12 -41.5 -35.5 -81 q-23.5 -39.5 -56.5 -83.5 l-196 -259 l-59 0 ZM292 331 q53 0 94.5 24.5 q41.5 24.5 65.5 68 q24 43.5 24 99.5 q0 56 -24.5 98.5 q-24.5 42.5 -66 66.5 q-41.5 24 -93.5 24 q-53 0 -94.5 -24.5 q-41.5 -24.5 -65.5 -67 q-24 -42.5 -24 -97.5 q0 -56 24 -99.5 q24 -43.5 65.5 -68 q41.5 -24.5 94.5 -24.5 Z" /><glyph glyph-name="fraction" unicode="&#x2044;" d="M-149 0 l446 745 l52 0 l-446 -745 l-52 0 Z" /><glyph glyph-name="uni2080" unicode="&#x2080;" d="M259 -8 q-61 0 -107 34 q-46 34 -71.5 95 q-25.5 61 -25.5 141 q0 79 25.5 139.5 q25.5 60.5 71.5 94.5 q46 34 106 34 q61 0 106 -34 q45 -34 70.5 -94.5 q25.5 -60.5 25.5 -140.5 q0 -80 -25 -140.5 q-25 -60.5 -70.5 -94.5 q-45.5 -34 -105.5 -34 ZM259 36 q48 0 83 28.5 q35 28.5 53.5 79.5 q18.5 51 18.5 118 q0 66 -19 116.5 q-19 50.5 -53.5 79 q-34.5 28.5 -83.5 28.5 q-48 0 -83 -28.5 q-35 -28.5 -54.5 -79 q-19.5 -50.5 -19.5 -117.5 q0 -66 19.5 -117 q19.5 -51 55 -79.5 q35.5 -28.5 83.5 -28.5 Z" /><glyph glyph-name="uni2081" unicode="&#x2081;" d="M126 0 l0 480 l-98 0 l0 42 l145 0 l0 -522 l-47 0 Z" /><glyph glyph-name="uni2082" unicode="&#x2082;" d="M45 0 l0 30 l147 159 q43 46 71 78 q28 32 42 59.5 q14 27.5 14 60.5 q0 47 -28.5 74 q-28.5 27 -78.5 27 q-49 0 -83 -28 q-34 -28 -46 -80 l-42 10 q9 43 32.5 74 q23.5 31 59 48.5 q35.5 17.5 78.5 17.5 q44 0 79 -18 q35 -18 55.5 -49.5 q20.5 -31.5 20.5 -74.5 q0 -47 -29.5 -91 q-29.5 -44 -86.5 -106 l-138 -149 l265 0 l0 -42 l-332 0 Z" /><glyph glyph-name="uni2083" unicode="&#x2083;" d="M212 -8 q-42 0 -77.5 15.5 q-35.5 15.5 -60 44.5 q-24.5 29 -35.5 69 l40 15 q14 -48 48.5 -75.5 q34.5 -27.5 84.5 -27.5 q57 0 92.5 34 q35.5 34 35.5 91 q0 59 -37.5 89 q-37.5 30 -90.5 30 q-18 0 -36 -3 l-8 20 l144 186 l-251 0 l0 42 l306 0 l0 -36 l-140 -183 l-3 11 q44 0 81 -19.5 q37 -19.5 59.5 -54.5 q22.5 -35 22.5 -83 q0 -45 -22.5 -82.5 q-22.5 -37.5 -61.5 -60 q-39 -22.5 -91 -22.5 Z" /><glyph glyph-name="uni2084" unicode="&#x2084;" d="M308 0 l0 123 l-267 0 l0 37 l270 362 l41 0 l0 -360 l62 0 l0 -39 l-62 0 l0 -123 l-44 0 ZM79 146 l-6 16 l235 0 l0 318 l18 -4 l-247 -330 Z" /><glyph glyph-name="uni2085" unicode="&#x2085;" d="M216 -8 q-43 0 -78.5 16 q-35.5 16 -60.5 45 q-25 29 -35 68 l39 15 q14 -49 50.5 -76 q36.5 -27 84.5 -27 q56 0 91 37 q35 37 35 92 q0 37 -16.5 65.5 q-16.5 28.5 -45 45.5 q-28.5 17 -63.5 17 q-35 0 -66.5 -17 q-31.5 -17 -45.5 -41 l-38 8 l38 282 l262 0 l0 -41 l-245 0 l20 13 l-31 -224 l-15 8 q21 27 54 41 q33 14 70 14 q48 0 86 -22.5 q38 -22.5 60.5 -61.5 q22.5 -39 22.5 -87 q0 -49 -22 -87 q-22 -38 -61 -60.5 q-39 -22.5 -90 -22.5 Z" /><glyph glyph-name="uni2086" unicode="&#x2086;" d="M205 -8 q-47 0 -85 22 q-38 22 -59.5 61 q-21.5 39 -21.5 88 q0 47 17.5 87.5 q17.5 40.5 49.5 83.5 l142 188 l56 0 l-190 -253 l-12 -1 q21 34 53 44.5 q32 10.5 57 10.5 q45 0 81.5 -21 q36.5 -21 58 -58 q21.5 -37 21.5 -86 q0 -48 -22.5 -85.5 q-22.5 -37.5 -60.5 -59 q-38 -21.5 -85 -21.5 ZM206 33 q51 0 85.5 35 q34.5 35 34.5 89 q0 54 -34.5 89 q-34.5 35 -85.5 35 q-51 0 -85.5 -35.5 q-34.5 -35.5 -34.5 -88.5 q0 -54 35 -89 q35 -35 85 -35 Z" /><glyph glyph-name="uni2087" unicode="&#x2087;" d="M64 0 l240 481 l-264 0 l0 41 l314 0 l0 -39 l-239 -483 l-51 0 Z" /><glyph glyph-name="uni2088" unicode="&#x2088;" d="M225 -8 q-49 0 -88 21 q-39 21 -61.5 56.5 q-22.5 35.5 -22.5 80.5 q0 51 29.5 90.5 q29.5 39.5 76.5 55.5 l2 -13 q-39 16 -59 47.5 q-20 31.5 -20 66.5 q0 38 19 68 q19 30 51.5 47.5 q32.5 17.5 72.5 17.5 q41 0 73.5 -17.5 q32.5 -17.5 51 -47.5 q18.5 -30 18.5 -68 q0 -40 -21.5 -69 q-21.5 -29 -56.5 -45 l0 13 q52 -17 79.5 -57.5 q27.5 -40.5 27.5 -88.5 q0 -45 -22.5 -80.5 q-22.5 -35.5 -61.5 -56.5 q-39 -21 -88 -21 ZM225 33 q55 0 90 32 q35 32 35 84 q0 53 -34.5 85.5 q-34.5 32.5 -90.5 32.5 q-55 0 -90.5 -32.5 q-35.5 -32.5 -35.5 -85.5 q0 -52 35.5 -84 q35.5 -32 90.5 -32 ZM225 308 q41 0 68 25.5 q27 25.5 27 65.5 q0 39 -27.5 64 q-27.5 25 -67.5 25 q-41 0 -68.5 -25 q-27.5 -25 -27.5 -64 q0 -40 27.5 -65.5 q27.5 -25.5 68.5 -25.5 Z" /><glyph glyph-name="uni2089" unicode="&#x2089;" d="M108 0 l190 252 l12 2 q-21 -32 -51 -43 q-30 -11 -59 -11 q-45 0 -81.5 21 q-36.5 21 -58 58 q-21.5 37 -21.5 85 q0 48 22 85.5 q22 37.5 60 59 q38 21.5 85 21.5 q48 0 85.5 -22 q37.5 -22 59.5 -61 q22 -39 22 -89 q0 -50 -19.5 -90.5 q-19.5 -40.5 -48.5 -79.5 l-141 -188 l-56 0 ZM206 241 q51 0 85.5 35 q34.5 35 34.5 90 q0 53 -35 87.5 q-35 34.5 -85 34.5 q-51 0 -85.5 -34.5 q-34.5 -34.5 -34.5 -87.5 q0 -55 34.5 -90 q34.5 -35 85.5 -35 Z" /><glyph glyph-name="space" unicode=" " d="" /><glyph glyph-name="uni00A0" unicode=" " d="" /><glyph glyph-name="uni2002" unicode="&#x2002;" d="" /><glyph glyph-name="uni2003" unicode="&#x2003;" d="" /><glyph glyph-name="uni2007" unicode="&#x2007;" d="" /><glyph glyph-name="uni2008" unicode="&#x2008;" d="" /><glyph glyph-name="uni2009" unicode="&#x2009;" d="" /><glyph glyph-name="uni200A" unicode="&#x200a;" d="" /><glyph glyph-name="uni200B" unicode="&#x200b;" d="" /><glyph glyph-name="CR" unicode="" d="" /><glyph glyph-name="period" unicode="." d="M103 0 l0 90 l55 0 l0 -90 l-55 0 Z" /><glyph glyph-name="comma" unicode="," d="M81 -123 l0 34 q21 7 32 28.5 q11 21.5 11 60.5 l-23 0 l0 90 l55 0 l0 -70 q0 -61 -20 -96.5 q-20 -35.5 -55 -46.5 Z" /><glyph glyph-name="colon" unicode=":" d="M103 0 l0 90 l55 0 l0 -90 l-55 0 ZM103 436 l0 90 l55 0 l0 -90 l-55 0 Z" /><glyph glyph-name="semicolon" unicode=";" d="M103 -123 l0 29 q21 7 34 30.5 q13 23.5 14 63.5 l-28 0 l0 90 l55 0 l0 -70 q0 -61 -20 -96.5 q-20 -35.5 -55 -46.5 ZM123 436 l0 90 l55 0 l0 -90 l-55 0 Z" /><glyph glyph-name="exclam" unicode="!" d="M105 208 l-2 537 l50 0 l-3 -537 l-45 0 ZM101 0 l0 90 l55 0 l0 -90 l-55 0 Z" /><glyph glyph-name="exclamdown" unicode="¡" d="M103 -219 l2 537 l45 0 l3 -537 l-50 0 ZM101 436 l0 90 l55 0 l0 -90 l-55 0 Z" /><glyph glyph-name="question" unicode="?" d="M160 208 l0 4 q0 46 16 81 q16 35 42.5 64 q26.5 29 55.5 56 q41 39 73.5 81 q32.5 42 32.5 98 q0 31 -16 58.5 q-16 27.5 -46.5 45 q-30.5 17.5 -73.5 17.5 q-63 0 -106.5 -38.5 q-43.5 -38.5 -58.5 -107.5 l-44 9 q10 56 39 96.5 q29 40.5 73 62.5 q44 22 97 22 q53 0 95 -23 q42 -23 66.5 -60.5 q24.5 -37.5 24.5 -83.5 q0 -48 -21 -85 q-21 -37 -52 -68.5 q-31 -31.5 -62 -62.5 q-35 -36 -62.5 -74 q-27.5 -38 -27.5 -88 l0 -4 l-45 0 ZM156 0 l0 90 l55 0 l0 -90 l-55 0 Z" /><glyph glyph-name="questiondown" unicode="¿" d="M230 -231 q-52 0 -94.5 23 q-42.5 23 -67 61 q-24.5 38 -24.5 83 q0 48 21 85 q21 37 52 68.5 q31 31.5 62 62.5 q35 36 62.5 74.5 q27.5 38.5 27.5 87.5 l0 4 l45 0 l0 -4 q0 -46 -16 -81 q-16 -35 -42 -64 q-26 -29 -56 -56 q-41 -39 -73.5 -81 q-32.5 -42 -32.5 -98 q0 -30 16 -58 q16 -28 46.5 -45.5 q30.5 -17.5 73.5 -17.5 q63 0 106.5 38.5 q43.5 38.5 58.5 107.5 l44 -9 q-9 -56 -38.5 -96.5 q-29.5 -40.5 -73.5 -62.5 q-44 -22 -97 -22 ZM263 436 l0 90 l55 0 l0 -90 l-55 0 Z" /><glyph glyph-name="periodcentered" unicode="·" d="M103 226 l0 90 l55 0 l0 -90 l-55 0 Z" /><glyph glyph-name="bullet" unicode="&#x2022;" d="M230 138 q-36 0 -64.5 16.5 q-28.5 16.5 -45.5 45.5 q-17 29 -17 65 q0 34 17 62 q17 28 45.5 44.5 q28.5 16.5 64.5 16.5 q35 0 62 -16.5 q27 -16.5 43.5 -44.5 q16.5 -28 17.5 -62 q0 -36 -16.5 -65 q-16.5 -29 -44 -45.5 q-27.5 -16.5 -62.5 -16.5 Z" /><glyph glyph-name="asterisk" unicode="*" d="M133 398 l-40 29 l95 125 l-136 46 l14 47 l138 -45 l0 145 l50 0 l0 -145 l137 45 l16 -47 l-135 -46 l94 -125 l-40 -29 l-97 125 l-96 -125 Z" /><glyph glyph-name="numbersign" unicode="#" d="M95 0 l61 213 l-120 0 l0 45 l133 0 l66 230 l-120 0 l0 45 l133 0 l61 212 l52 0 l-61 -212 l234 0 l62 212 l52 0 l-62 -212 l120 0 l0 -46 l-132 0 l-67 -229 l120 0 l0 -45 l-133 0 l-61 -213 l-52 0 l61 213 l-234 0 l-61 -213 l-52 0 ZM221 258 l234 0 l67 230 l-235 0 l-66 -230 Z" /><glyph glyph-name="slash" unicode="/" d="M2 -120 l338 825 l55 0 l-338 -825 l-55 0 Z" /><glyph glyph-name="backslash" unicode="\" d="M340 -120 l-338 825 l55 0 l338 -825 l-55 0 Z" /><glyph glyph-name="hyphen" unicode="-" d="M74 241 l0 45 l320 0 l0 -45 l-320 0 Z" /><glyph glyph-name="endash" unicode="&#x2013;" d="M74 241 l0 45 l400 0 l0 -45 l-400 0 Z" /><glyph glyph-name="emdash" unicode="&#x2014;" d="M74 241 l0 45 l740 0 l0 -45 l-740 0 Z" /><glyph glyph-name="underscore" unicode="_" d="M74 -45 l0 45 l400 0 l0 -45 l-400 0 Z" /><glyph glyph-name="uni208D" unicode="&#x208d;" d="M158 -96 q-53 62 -80.5 142.5 q-27.5 80.5 -27.5 166.5 q0 89 27.5 168 q27.5 79 80.5 141 l42 0 q-50 -69 -77 -148 q-27 -79 -27 -161 q0 -78 27 -158 q27 -80 77 -151 l-42 0 Z" /><glyph glyph-name="uni208E" unicode="&#x208e;" d="M20 -96 q51 71 77.5 150.5 q26.5 79.5 26.5 158.5 q0 81 -26.5 160.5 q-26.5 79.5 -77.5 148.5 l42 0 q53 -62 81 -140.5 q28 -78.5 28 -168.5 q0 -86 -28 -166.5 q-28 -80.5 -81 -142.5 l-42 0 Z" /><glyph glyph-name="parenleft" unicode="(" d="M198 -130 q-73 87 -110.5 202 q-37.5 115 -37.5 236 q0 128 38 240 q38 112 110 197 l51 0 q-72 -95 -110.5 -208 q-38.5 -113 -38.5 -229 q0 -112 38.5 -226 q38.5 -114 110.5 -212 l-51 0 Z" /><glyph glyph-name="parenright" unicode=")" d="M20 -130 q72 98 110.5 212 q38.5 114 38.5 226 q0 116 -38.5 229 q-38.5 113 -110.5 208 l51 0 q72 -85 110 -197 q38 -112 38 -240 q0 -121 -37.5 -236 q-37.5 -115 -110.5 -202 l-51 0 Z" /><glyph glyph-name="braceleft" unicode="{" d="M240 -130 q-54 0 -89 36.5 q-35 36.5 -35 94.5 l0 204 q0 35 -16.5 57.5 q-16.5 22.5 -54.5 22.5 l-27 0 l0 46 l27 0 q38 0 54.5 22.5 q16.5 22.5 16.5 58.5 l0 202 q0 58 35 94.5 q35 36.5 89 36.5 l28 0 l0 -45 l-28 0 q-34 0 -54 -24 q-20 -24 -20 -60 l0 -204 q0 -30 -8.5 -55.5 q-8.5 -25.5 -31.5 -48.5 q23 -22 31.5 -50.5 q8.5 -28.5 8.5 -54.5 l0 -204 q0 -36 20 -60 q20 -24 54 -24 l28 0 l0 -45 l-28 0 Z" /><glyph glyph-name="braceright" unicode="}" d="M23 -130 l0 45 l28 0 q35 0 54.5 24 q19.5 24 19.5 60 l0 204 q0 26 8.5 54.5 q8.5 28.5 31.5 50.5 q-23 23 -31.5 48.5 q-8.5 25.5 -8.5 55.5 l0 204 q0 36 -19.5 60 q-19.5 24 -54.5 24 l-28 0 l0 45 l28 0 q54 0 89 -36.5 q35 -36.5 35 -94.5 l0 -202 q0 -36 17 -58.5 q17 -22.5 54 -22.5 l27 0 l0 -46 l-27 0 q-37 0 -54 -22.5 q-17 -22.5 -17 -57.5 l0 -204 q0 -58 -35 -94.5 q-35 -36.5 -89 -36.5 l-28 0 Z" /><glyph glyph-name="bracketleft" unicode="[" d="M88 -130 l0 875 l170 0 l0 -45 l-120 0 l0 -785 l120 0 l0 -45 l-170 0 Z" /><glyph glyph-name="bracketright" unicode="]" d="M23 -130 l0 45 l120 0 l0 785 l-120 0 l0 45 l170 0 l0 -875 l-170 0 Z" /><glyph glyph-name="uni207D" unicode="&#x207d;" d="M158 127 q-53 62 -80.5 142.5 q-27.5 80.5 -27.5 166.5 q0 89 27.5 168 q27.5 79 80.5 141 l42 0 q-50 -69 -77 -148 q-27 -79 -27 -161 q0 -78 27 -158 q27 -80 77 -151 l-42 0 Z" /><glyph glyph-name="uni207E" unicode="&#x207e;" d="M20 127 q51 71 77.5 150.5 q26.5 79.5 26.5 158.5 q0 81 -26.5 160.5 q-26.5 79.5 -77.5 148.5 l42 0 q53 -62 81 -140.5 q28 -78.5 28 -168.5 q0 -86 -28 -166.5 q-28 -80.5 -81 -142.5 l-42 0 Z" /><glyph glyph-name="quotesinglbase" unicode="&#x201a;" d="M81 -105 l0 32 q21 5 32.5 24.5 q11.5 19.5 11.5 48.5 l-24 0 l0 90 l55 0 l0 -76 q0 -45 -21 -77.5 q-21 -32.5 -54 -41.5 Z" /><glyph glyph-name="quotedblbase" unicode="&#x201e;" d="M81 -105 l0 32 q21 5 32.5 24.5 q11.5 19.5 11.5 48.5 l-24 0 l0 90 l55 0 l0 -76 q0 -45 -21 -77.5 q-21 -32.5 -54 -41.5 ZM211 -105 l0 32 q21 5 32.5 24.5 q11.5 19.5 11.5 48.5 l-24 0 l0 90 l55 0 l0 -76 q0 -45 -21 -77.5 q-21 -32.5 -54 -41.5 Z" /><glyph glyph-name="quotedblleft" unicode="&#x201c;" d="M211 562 l0 76 q0 45 21 77.5 q21 32.5 54 41.5 l0 -32 q-21 -4 -32.5 -24 q-11.5 -20 -11.5 -49 l24 0 l0 -90 l-55 0 ZM81 562 l0 76 q0 45 21 77.5 q21 32.5 54 41.5 l0 -32 q-21 -4 -32.5 -24 q-11.5 -20 -11.5 -49 l24 0 l0 -90 l-55 0 Z" /><glyph glyph-name="quotedblright" unicode="&#x201d;" d="M211 550 l0 32 q21 5 32.5 24.5 q11.5 19.5 11.5 48.5 l-24 0 l0 90 l55 0 l0 -76 q0 -45 -21 -77.5 q-21 -32.5 -54 -41.5 ZM81 550 l0 32 q21 5 32.5 24.5 q11.5 19.5 11.5 48.5 l-24 0 l0 90 l55 0 l0 -76 q0 -45 -21 -77.5 q-21 -32.5 -54 -41.5 Z" /><glyph glyph-name="quoteleft" unicode="&#x2018;" d="M81 562 l0 76 q0 45 21 77.5 q21 32.5 54 41.5 l0 -32 q-21 -4 -32.5 -24 q-11.5 -20 -11.5 -49 l24 0 l0 -90 l-55 0 Z" /><glyph glyph-name="quoteright" unicode="&#x2019;" d="M81 550 l0 32 q21 5 32.5 24.5 q11.5 19.5 11.5 48.5 l-24 0 l0 90 l55 0 l0 -76 q0 -45 -21 -77.5 q-21 -32.5 -54 -41.5 Z" /><glyph glyph-name="guillemotleft" unicode="«" d="M180 83 l-151 186 l151 186 l47 0 l-147 -186 l147 -186 l-47 0 ZM396 83 l-151 186 l151 186 l47 0 l-147 -186 l147 -186 l-47 0 Z" /><glyph glyph-name="guillemotright" unicode="»" d="M245 83 l147 186 l-147 186 l47 0 l151 -186 l-151 -186 l-47 0 ZM29 83 l147 186 l-147 186 l47 0 l151 -186 l-151 -186 l-47 0 Z" /><glyph glyph-name="guilsinglleft" unicode="&#x2039;" d="M180 83 l-151 186 l151 186 l47 0 l-147 -186 l147 -186 l-47 0 Z" /><glyph glyph-name="guilsinglright" unicode="&#x203a;" d="M29 83 l147 186 l-147 186 l47 0 l151 -186 l-151 -186 l-47 0 Z" /><glyph glyph-name="quotedbl" unicode="&quot;" d="M93 560 l-10 185 l55 0 l-10 -185 l-35 0 ZM218 560 l-10 185 l55 0 l-10 -185 l-35 0 Z" /><glyph glyph-name="quotesingle" unicode="&#39;" d="M93 560 l-10 185 l55 0 l-10 -185 l-35 0 Z" /><glyph glyph-name="florin" unicode="&#x192;" d="M92 -12 q-12 0 -21.5 1.5 q-9.5 1.5 -17.5 3.5 l0 41 q8 -1 18 -2 q10 -1 18 -1 q56 0 88 37 q32 37 32 108 l0 175 l-133 0 l0 45 l133 0 l0 173 q0 61 20.5 103 q20.5 42 57 63.5 q36.5 21.5 84.5 21.5 q12 0 22 -1.5 q10 -1.5 17 -3.5 l0 -41 q-8 2 -18 2.5 q-10 0.5 -18 0.5 q-56 0 -88 -37 q-32 -37 -32 -108 l0 -173 l133 0 l0 -45 l-133 0 l0 -175 q0 -61 -20.5 -103 q-20.5 -42 -56.5 -63.5 q-36 -21.5 -85 -21.5 Z" /><glyph glyph-name="uni0E3F" unicode="&#xe3f;" d="M99 0 l0 745 l301 0 q60 0 104.5 -24.5 q44.5 -24.5 69.5 -67 q25 -42.5 25 -96.5 q0 -58 -31.5 -103 q-31.5 -45 -85.5 -62 l0 9 q45 -11 78 -39 q33 -28 51 -67.5 q18 -39.5 18 -86.5 q0 -94 -59 -151 q-59 -57 -170 -57 l-301 0 ZM149 45 l242 0 q88 0 138 44.5 q50 44.5 50 117.5 q0 74 -48.5 118.5 q-48.5 44.5 -129.5 44.5 l-252 0 l0 -325 ZM149 415 l245 0 q71 0 113 39 q42 39 42 104 q0 65 -40.5 103.5 q-40.5 38.5 -114.5 38.5 l-245 0 l0 -285 ZM316 -100 l0 945 l45 0 l0 -945 l-45 0 Z" /><glyph glyph-name="uni2605" unicode="&#x2605;" d="M191 -12 l95 293 l-250 182 l309 0 l95 294 l96 -294 l309 0 l-250 -182 l96 -293 l-251 181 l-249 -181 Z" /><glyph glyph-name="uni2606" unicode="&#x2606;" d="M191 -12 l95 293 l-250 182 l309 0 l95 294 l96 -294 l309 0 l-250 -182 l96 -293 l-251 181 l-249 -181 ZM267 93 l173 125 l175 -126 l-67 204 l174 127 l-215 0 l-67 205 l-66 -205 l-215 0 l174 -127 l-66 -203 Z" /><glyph glyph-name="at" unicode="@" d="M483 -205 q-86 0 -160 31.5 q-74 31.5 -129 87.5 q-55 56 -86 130.5 q-31 74.5 -31 160.5 q0 86 31 160 q31 74 86.5 129.5 q55.5 55.5 129.5 86.5 q74 31 159 31 q92 0 166.5 -33 q74.5 -33 127.5 -90 q53 -57 81.5 -129 q28.5 -72 28.5 -151 q0 -66 -20 -113 q-20 -47 -53.5 -71.5 q-33.5 -24.5 -74.5 -24.5 q-32 0 -59 13.5 q-27 13.5 -44.5 37.5 q-17.5 24 -21.5 54 l15 2 q-15 -37 -39 -61 q-24 -24 -54 -35 q-30 -11 -65 -11 q-57 0 -102.5 27.5 q-45.5 27.5 -72 75.5 q-26.5 48 -26.5 108 q0 59 26.5 107 q26.5 48 72.5 76 q46 28 102 28 q49 0 93.5 -24 q44.5 -24 64.5 -74 l-15 -13 l0 101 l48 0 l0 -283 q0 -37 20 -60.5 q20 -23.5 59 -23.5 q42 0 70 42.5 q28 42.5 28 122.5 q0 75 -26 140 q-26 65 -74 114 q-48 49 -113 76 q-65 27 -143 27 q-79 0 -145 -28 q-66 -28 -113.5 -77.5 q-47.5 -49.5 -73.5 -114 q-26 -64.5 -26 -137.5 q0 -77 26.5 -144 q26.5 -67 74.5 -118 q48 -51 114.5 -79.5 q66.5 -28.5 147.5 -28.5 q46 0 88.5 10.5 q42.5 10.5 77.5 32.5 l21 -41 q-83 -47 -192 -47 ZM469 45 q43 0 75.5 21.5 q32.5 21.5 51 59 q18.5 37.5 18.5 85.5 q0 74 -40 120 q-40 46 -104 46 q-42 0 -76.5 -20.5 q-34.5 -20.5 -55 -58 q-20.5 -37.5 -20.5 -87.5 q0 -48 20 -85.5 q20 -37.5 54 -59 q34 -21.5 77 -21.5 Z" /><glyph glyph-name="ampersand" unicode="&amp;" d="M250 -12 q-55 0 -99 21.5 q-44 21.5 -69.5 60.5 q-25.5 39 -25.5 92 q0 41 14.5 73.5 q14.5 32.5 38.5 60.5 q24 28 54.5 53 q30.5 25 62.5 49 l28 22 q40 30 70 56 q30 26 47 54.5 q17 28.5 17 63.5 q0 51 -33 83 q-33 32 -79 32 q-49 0 -80.5 -33.5 q-31.5 -33.5 -31.5 -82.5 q0 -35 16 -66 q16 -31 39.5 -57 q23.5 -26 44.5 -48 l421 -422 l-70 0 l-387 386 q-22 22 -48.5 52.5 q-26.5 30.5 -46 69.5 q-19.5 39 -19.5 85 q0 47 21.5 84 q21.5 37 58 58.5 q36.5 21.5 82.5 21.5 q44 0 81 -21 q37 -21 59 -57.5 q22 -36.5 22 -84.5 q0 -48 -22 -85.5 q-22 -37.5 -56.5 -67.5 q-34.5 -30 -70.5 -58 l-27 -21 q-45 -34 -80.5 -64 q-35.5 -30 -55.5 -62.5 q-20 -32.5 -20 -73.5 q0 -58 40.5 -92 q40.5 -34 103.5 -34 q45 0 78.5 16 q33.5 16 58.5 41.5 q25 25.5 44.5 54 q19.5 28.5 35.5 53.5 l115 172 l60 0 l-133 -200 q-16 -25 -38.5 -56.5 q-22.5 -31.5 -52.5 -61 q-30 -29.5 -71.5 -48.5 q-41.5 -19 -96.5 -19 Z" /><glyph glyph-name="paragraph" unicode="¶" d="M198 -100 l0 553 q-45 0 -78.5 18 q-33.5 18 -52.5 51 q-19 33 -19 77 q0 44 18.5 77 q18.5 33 52 51 q33.5 18 79.5 18 l50 0 l0 -845 l-50 0 Z" /><glyph glyph-name="section" unicode="§" d="M273 -90 q-74 0 -133 38 q-59 38 -85 99 l44 20 q27 -55 75 -83.5 q48 -28.5 102 -28.5 q57 0 96 30 q39 30 39 78 q0 25 -11.5 45 q-11.5 20 -33.5 35.5 q-22 15.5 -56 24.5 l-92 26 q-67 19 -101 56.5 q-34 37.5 -34 89.5 q0 44 23 78 q23 34 61.5 53.5 q38.5 19.5 86.5 19.5 l0 -35 q-53 0 -88 -32.5 q-35 -32.5 -35 -82.5 q0 -21 10.5 -40 q10.5 -19 31.5 -33.5 q21 -14.5 52 -23.5 l93 -26 q68 -19 105 -59.5 q37 -40.5 37 -93.5 q0 -44 -24 -79.5 q-24 -35.5 -66.5 -55.5 q-42.5 -20 -96.5 -20 ZM291 176 l0 35 q59 0 99.5 33 q40.5 33 40.5 85 q0 25 -11.5 45 q-11.5 20 -33.5 35.5 q-22 15.5 -56 24.5 l-92 26 q-67 19 -101 56.5 q-34 37.5 -34 89.5 q0 44 22.5 78 q22.5 34 61.5 53.5 q39 19.5 88 19.5 q66 0 121 -34.5 q55 -34.5 77 -89.5 l-46 -21 q-23 47 -63.5 73.5 q-40.5 26.5 -89.5 26.5 q-53 0 -88 -30 q-35 -30 -35 -75 q0 -21 10.5 -40 q10.5 -19 31.5 -33.5 q21 -14.5 52 -23.5 l93 -26 q68 -19 105 -59.5 q37 -40.5 37 -93.5 q0 -44 -25 -79.5 q-25 -35.5 -68 -55.5 q-43 -20 -96 -20 Z" /><glyph glyph-name="copyright" unicode="©" d="M448 -12 q-80 0 -150 29.5 q-70 29.5 -123 82.5 q-53 53 -82.5 123 q-29.5 70 -29.5 150 q0 79 29.5 148.5 q29.5 69.5 82.5 122.5 q53 53 122.5 83 q69.5 30 150.5 30 q80 0 149.5 -30 q69.5 -30 122.5 -83 q53 -53 82.5 -122.5 q29.5 -69.5 29.5 -148.5 q0 -81 -30 -150.5 q-30 -69.5 -83 -122.5 q-53 -53 -122.5 -82.5 q-69.5 -29.5 -148.5 -29.5 ZM448 36 q70 0 130.5 26 q60.5 26 106.5 72 q46 46 71.5 107.5 q25.5 61.5 25.5 131.5 q0 69 -25.5 130 q-25.5 61 -71.5 107.5 q-46 46.5 -106.5 72.5 q-60.5 26 -130.5 26 q-70 0 -131 -26 q-61 -26 -107 -72 q-46 -46 -71.5 -107 q-25.5 -61 -25.5 -131 q0 -70 25.5 -131.5 q25.5 -61.5 71.5 -107.5 q46 -46 107 -72 q61 -26 131 -26 ZM451 163 q-56 0 -100.5 27.5 q-44.5 27.5 -70.5 75 q-26 47.5 -26 107.5 q0 61 26 108 q26 47 70.5 74 q44.5 27 100.5 27 q42 0 75.5 -15 q33.5 -15 56.5 -38 q23 -23 33 -49 l-44 -21 q-14 33 -45.5 55 q-31.5 22 -75.5 22 q-65 0 -106 -45.5 q-41 -45.5 -41 -117.5 q0 -73 41 -118.5 q41 -45.5 106 -45.5 q45 0 75.5 22 q30.5 22 45.5 55 l44 -21 q-10 -25 -33 -48.5 q-23 -23.5 -56.5 -38.5 q-33.5 -15 -75.5 -15 Z" /><glyph glyph-name="registered" unicode="®" d="M320 272 q-71 0 -129.5 34.5 q-58.5 34.5 -93 92.5 q-34.5 58 -34.5 129 q0 70 34.5 128 q34.5 58 92.5 93 q58 35 130 35 q53 0 99.5 -20 q46.5 -20 81.5 -55.5 q35 -35.5 55 -81.5 q20 -46 20 -99 q0 -71 -35 -129 q-35 -58 -93 -92.5 q-58 -34.5 -128 -34.5 ZM320 315 q59 0 107 28.5 q48 28.5 76.5 77 q28.5 48.5 28.5 107.5 q0 59 -28.5 107 q-28.5 48 -76.5 76.5 q-48 28.5 -107 28.5 q-60 0 -108 -28.5 q-48 -28.5 -76.5 -76.5 q-28.5 -48 -28.5 -107 q0 -59 28.5 -107.5 q28.5 -48.5 76.5 -77 q48 -28.5 108 -28.5 ZM231 394 l0 270 l100 0 q40 0 66 -22.5 q26 -22.5 26 -62.5 q0 -24 -12 -45.5 q-12 -21.5 -39 -32.5 l63 -107 l-50 0 l-57 101 l-53 0 l0 -101 l-44 0 ZM275 533 l56 0 q22 0 35 13 q13 13 13 34 q0 20 -13 32 q-13 12 -35 12 l-56 0 l0 -91 Z" /><glyph glyph-name="trademark" unicode="&#x2122;" d="M167 298 l0 403 l-123 0 l0 44 l293 0 l0 -44 l-122 0 l0 -403 l-48 0 ZM411 298 l0 447 l43 0 l167 -244 l-20 0 l167 244 l43 0 l0 -447 l-49 0 l0 382 l14 -7 l-163 -238 l-4 0 l-162 238 l13 7 l0 -382 l-49 0 Z" /><glyph glyph-name="degree" unicode="°" d="M220 486 q-38 0 -69 17.5 q-31 17.5 -48.5 48 q-17.5 30.5 -17.5 69.5 q0 39 17.5 69.5 q17.5 30.5 48.5 48.5 q31 18 69 18 q39 0 69.5 -18 q30.5 -18 48 -49 q17.5 -31 17.5 -70 q0 -38 -17.5 -68.5 q-17.5 -30.5 -48 -48 q-30.5 -17.5 -69.5 -17.5 ZM220 524 q36 0 66 26.5 q30 26.5 30 70.5 q0 44 -30 70.5 q-30 26.5 -66 26.5 q-37 0 -66.5 -26 q-29.5 -26 -29.5 -71 q0 -44 29 -70.5 q29 -26.5 67 -26.5 Z" /><glyph glyph-name="minute" unicode="&#x2032;" d="M110 560 l0 185 l55 0 l-10 -185 l-45 0 Z" /><glyph glyph-name="second" unicode="&#x2033;" d="M110 560 l0 185 l55 0 l-10 -185 l-45 0 ZM235 560 l0 185 l55 0 l-10 -185 l-45 0 Z" /><glyph glyph-name="bar" unicode="|" d="M110 -190 l0 1035 l50 0 l0 -1035 l-50 0 Z" /><glyph glyph-name="brokenbar" unicode="¦" d="M110 428 l0 417 l50 0 l0 -417 l-50 0 ZM110 -190 l0 418 l50 0 l0 -418 l-50 0 Z" /><glyph glyph-name="dagger" unicode="&#x2020;" d="M284 -190 l0 671 l-245 0 l0 45 l245 0 l0 219 l50 0 l0 -219 l245 0 l0 -45 l-245 0 l0 -671 l-50 0 Z" /><glyph glyph-name="uni2113" unicode="&#x2113;" d="M300 -6 q-56 0 -82.5 27 q-26.5 27 -26.5 73 l0 497 q0 52 14.5 89 q14.5 37 42 57 q27.5 20 65.5 20 q38 0 64.5 -24 q26.5 -24 40.5 -69 q14 -45 14 -109 q0 -88 -15.5 -154 q-15.5 -66 -46.5 -114.5 q-31 -48.5 -77 -84.5 q-46 -36 -106 -62.5 q-60 -26.5 -134 -48.5 l-13 38 q92 29 158 62.5 q66 33.5 108 81 q42 47.5 61.5 116.5 q19.5 69 19.5 170 q0 76 -20 118 q-20 42 -56 42 q-35 0 -55 -33 q-20 -33 -20 -92 l0 -500 q0 -60 66 -60 l89 0 l0 -40 l-91 0 Z" /><glyph glyph-name="daggerdbl" unicode="&#x2021;" d="M295 -190 l0 220 l-245 0 l0 45 l245 0 l0 406 l-245 0 l0 45 l245 0 l0 219 l50 0 l0 -219 l245 0 l0 -45 l-245 0 l0 -406 l245 0 l0 -45 l-245 0 l0 -220 l-50 0 Z" /><glyph glyph-name="estimated" unicode="&#x212e;" d="M449 -10 q-85 0 -155.5 28 q-70.5 28 -121.5 77.5 q-51 49.5 -78.5 114.5 q-27.5 65 -27.5 139 q0 75 28 140.5 q28 65.5 79 115 q51 49.5 120.5 77.5 q69.5 28 152.5 28 q83 0 152.5 -28 q69.5 -28 120.5 -77.5 q51 -49.5 79 -114.5 q28 -65 28 -140 l0 -9 l-609 0 q-5 0 -5 -6 l0 -195 q0 -7 1.5 -10.5 q1.5 -3.5 8.5 -11.5 q39 -45 92 -75.5 q53 -30.5 135 -30.5 q81 0 134.5 31 q53.5 31 101.5 86 l58 0 q-35 -41 -75.5 -72.5 q-40.5 -31.5 -93.5 -49 q-53 -17.5 -125 -17.5 ZM217 360 l458 0 q4 0 4 6 l0 196 q0 3 -1 10 q-1 7 -9 14 q-30 32 -60.5 55 q-30.5 23 -69 35 q-38.5 12 -93.5 12 q-82 0 -134 -31 q-52 -31 -89 -74 q-8 -10 -9.5 -13 q-1.5 -3 -1.5 -11 l0 -193 q0 -6 5 -6 Z" /><glyph glyph-name="uni20B3" unicode="&#x20b3;" d="M22 0 l276 745 l48 0 l276 -745 l-55 0 l-257 704 l24 0 l-257 -704 l-55 0 ZM22 197 l0 45 l600 0 l0 -45 l-600 0 ZM22 352 l0 45 l600 0 l0 -45 l-600 0 Z" /><glyph glyph-name="uni20BF" unicode="&#x20bf;" d="M99 0 l0 745 l301 0 q60 0 104.5 -24.5 q44.5 -24.5 69.5 -67 q25 -42.5 25 -96.5 q0 -58 -31.5 -103 q-31.5 -45 -85.5 -62 l0 9 q45 -11 78 -39 q33 -28 51 -67.5 q18 -39.5 18 -86.5 q0 -94 -59 -151 q-59 -57 -170 -57 l-301 0 ZM149 45 l242 0 q88 0 138 44.5 q50 44.5 50 117.5 q0 74 -48.5 118.5 q-48.5 44.5 -129.5 44.5 l-252 0 l0 -325 ZM149 415 l245 0 q71 0 113 39 q42 39 42 104 q0 65 -40.5 103.5 q-40.5 38.5 -114.5 38.5 l-245 0 l0 -285 ZM236 -100 l0 127 l45 0 l0 -127 l-45 0 ZM406 -100 l0 127 l45 0 l0 -127 l-45 0 ZM236 718 l0 127 l45 0 l0 -127 l-45 0 ZM406 718 l0 127 l45 0 l0 -127 l-45 0 Z" /><glyph glyph-name="uni20B5" unicode="&#x20b5;" d="M430 -12 q-76 0 -140 28.5 q-64 28.5 -112 80.5 q-48 52 -74.5 122 q-26.5 70 -26.5 154 q0 83 26.5 153.5 q26.5 70.5 74.5 122 q48 51.5 112 80 q64 28.5 140 28.5 q74 0 133 -27.5 q59 -27.5 100 -69 q41 -41.5 59 -84.5 l-47 -21 q-33 70 -96.5 112 q-63.5 42 -148.5 42 q-89 0 -157.5 -42.5 q-68.5 -42.5 -107 -118 q-38.5 -75.5 -38.5 -175.5 q0 -100 38.5 -176 q38.5 -76 107 -118.5 q68.5 -42.5 157.5 -42.5 q85 0 148.5 42 q63.5 42 96.5 112 l47 -21 q-18 -43 -59 -84.5 q-41 -41.5 -100 -69 q-59 -27.5 -133 -27.5 ZM408 -100 l0 945 l45 0 l0 -945 l-45 0 Z" /><glyph glyph-name="cent" unicode="¢" d="M328 98 q-73 0 -132.5 36 q-59.5 36 -94.5 98.5 q-35 62.5 -35 140.5 q0 79 35 141 q35 62 94.5 98 q59.5 36 132.5 36 q49 0 90.5 -16 q41.5 -16 73 -44 q31.5 -28 49.5 -64 l-38 -21 q-28 50 -73 76.5 q-45 26.5 -102 26.5 q-61 0 -110 -29 q-49 -29 -78 -81.5 q-29 -52.5 -29 -122.5 q0 -70 29 -122.5 q29 -52.5 78 -81.5 q49 -29 110 -29 q57 0 102 27 q45 27 73 76 l38 -20 q-18 -35 -49.5 -63.5 q-31.5 -28.5 -73 -45 q-41.5 -16.5 -90.5 -16.5 ZM304 0 l0 745 l45 0 l0 -745 l-45 0 Z" /><glyph glyph-name="colonmonetary" unicode="&#x20a1;" d="M430 -12 q-76 0 -140 28.5 q-64 28.5 -112 80.5 q-48 52 -74.5 122 q-26.5 70 -26.5 154 q0 83 26.5 153.5 q26.5 70.5 74.5 122 q48 51.5 112 80 q64 28.5 140 28.5 q74 0 133 -27.5 q59 -27.5 100 -69 q41 -41.5 59 -84.5 l-47 -21 q-33 70 -96.5 112 q-63.5 42 -148.5 42 q-89 0 -157.5 -42.5 q-68.5 -42.5 -107 -118 q-38.5 -75.5 -38.5 -175.5 q0 -100 38.5 -176 q38.5 -76 107 -118.5 q68.5 -42.5 157.5 -42.5 q85 0 148.5 42 q63.5 42 96.5 112 l47 -21 q-18 -43 -59 -84.5 q-41 -41.5 -100 -69 q-59 -27.5 -133 -27.5 ZM256 -100 l132 945 l45 0 l-132 -945 l-45 0 ZM426 -100 l132 945 l45 0 l-132 -945 l-45 0 Z" /><glyph glyph-name="currency" unicode="¤" d="M97 43 l-31 32 l74 74 q-21 27 -31.5 58 q-10.5 31 -10.5 62 q0 31 10.5 62 q10.5 31 31.5 59 l-74 75 l31 30 l74 -74 q26 20 58 32 q32 12 63 12 q32 0 63.5 -12 q31.5 -12 57.5 -32 l74 74 l31 -30 l-73 -75 q20 -28 30.5 -59 q10.5 -31 10.5 -62 q0 -32 -10.5 -62.5 q-10.5 -30.5 -30.5 -57.5 l73 -74 l-31 -32 l-74 74 q-29 -22 -60.5 -32 q-31.5 -10 -60.5 -10 q-28 0 -60.5 10 q-32.5 10 -60.5 32 l-74 -74 ZM292 123 q41 0 74.5 20 q33.5 20 53.5 53 q20 33 20 73 q0 40 -20 73.5 q-20 33.5 -53.5 53.5 q-33.5 20 -74.5 20 q-40 0 -74 -20 q-34 -20 -54.5 -53.5 q-20.5 -33.5 -20.5 -73.5 q0 -40 20.5 -73 q20.5 -33 54.5 -53 q34 -20 74 -20 Z" /><glyph glyph-name="dollar" unicode="$" d="M332 -12 q-71 0 -125.5 26.5 q-54.5 26.5 -90 69.5 q-35.5 43 -50.5 90 l45 14 q29 -76 85 -116.5 q56 -40.5 135 -40.5 q53 0 94 18.5 q41 18.5 65 52.5 q24 34 24 82 q0 61 -35.5 94.5 q-35.5 33.5 -82.5 46.5 l-139 40 q-86 25 -123 78 q-37 53 -37 120 q0 58 28 101.5 q28 43.5 76 68 q48 24.5 108 24.5 q62 0 111.5 -24.5 q49.5 -24.5 84 -64 q34.5 -39.5 48.5 -85.5 l-45 -14 q-26 71 -79 108 q-53 37 -119 37 q-46 0 -83.5 -18.5 q-37.5 -18.5 -59.5 -52.5 q-22 -34 -22 -81 q0 -55 29 -91 q29 -36 105 -59 l126 -38 q73 -22 115 -71.5 q42 -49.5 42 -119.5 q0 -58 -30 -101.5 q-30 -43.5 -82 -68.5 q-52 -25 -118 -25 ZM306 -100 l0 945 l45 0 l0 -945 l-45 0 Z" /><glyph glyph-name="dong" unicode="&#x20ab;" d="M275 139 q-59 0 -106.5 29 q-47.5 29 -75 79.5 q-27.5 50.5 -27.5 113.5 q0 63 27.5 113 q27.5 50 75 79 q47.5 29 106.5 29 q58 0 104 -28 q46 -28 70 -76 l-8 -15 l0 282 l45 0 l0 -596 l-45 0 l0 110 l8 -12 q-22 -49 -69 -78.5 q-47 -29.5 -105 -29.5 ZM276 185 q47 0 83.5 23 q36.5 23 58 63 q21.5 40 21.5 90 q0 51 -21.5 90.5 q-21.5 39.5 -58.5 62.5 q-37 23 -83 23 q-46 0 -83 -23 q-37 -23 -58 -63 q-21 -40 -21 -90 q0 -50 21 -90 q21 -40 58 -63 q37 -23 83 -23 ZM66 0 l0 44 l441 0 l0 -44 l-441 0 ZM361 641 l0 44 l205 0 l0 -44 l-205 0 Z" /><glyph glyph-name="Euro" unicode="&#x20ac;" d="M452 -12 q-67 0 -126 28 q-59 28 -103 79.5 q-44 51.5 -69 122 q-25 70.5 -25 155.5 q0 84 25 154.5 q25 70.5 69 122 q44 51.5 103 79.5 q59 28 126 28 q89 0 159.5 -46.5 q70.5 -46.5 103.5 -134.5 l-45 -17 q-28 75 -87 114 q-59 39 -131 39 q-78 0 -140 -44 q-62 -44 -97.5 -120.5 q-35.5 -76.5 -35.5 -174.5 q0 -98 35.5 -175 q35.5 -77 97.5 -121 q62 -44 140 -44 q72 0 131 39 q59 39 87 114 l45 -17 q-22 -58 -61 -98.5 q-39 -40.5 -90.5 -61.5 q-51.5 -21 -111.5 -21 ZM39 273 l0 45 l490 0 l0 -45 l-490 0 ZM39 428 l0 45 l490 0 l0 -45 l-490 0 Z" /><glyph glyph-name="franc" unicode="&#x20a3;" d="M130 0 l0 745 l450 0 l0 -45 l-400 0 l0 -304 l360 0 l0 -45 l-360 0 l0 -351 l-50 0 ZM50 153 l0 45 l330 0 l0 -45 l-330 0 Z" /><glyph glyph-name="uni20B2" unicode="&#x20b2;" d="M433 -12 q-78 0 -143 28.5 q-65 28.5 -113 80 q-48 51.5 -74 121.5 q-26 70 -26 154 q0 84 26.5 154 q26.5 70 74.5 122 q48 52 113 80.5 q65 28.5 143 28.5 q77 0 138 -27.5 q61 -27.5 102 -69 q41 -41.5 59 -84.5 l-47 -21 q-33 70 -97.5 112 q-64.5 42 -154.5 42 q-89 0 -158.5 -42.5 q-69.5 -42.5 -109 -118.5 q-39.5 -76 -39.5 -176 q0 -100 39.5 -176 q39.5 -76 108.5 -118 q69 -42 158 -42 q82 0 146 37 q64 37 101 101 q37 64 37 145 l0 30 l22 -26 l-305 0 l0 45 l333 0 l0 -49 q0 -67 -24.5 -127 q-24.5 -60 -69 -106 q-44.5 -46 -105.5 -72 q-61 -26 -135 -26 ZM391 -100 l0 945 l45 0 l0 -945 l-45 0 Z" /><glyph glyph-name="uni20B4" unicode="&#x20b4;" d="M460 455 q25 21 35 47 q10 26 10 60 q0 47 -22 81 q-22 34 -59 52.5 q-37 18.5 -84 18.5 q-61 0 -111 -31.5 q-50 -31.5 -71 -93.5 l-49 0 q11 46 43 84 q32 38 80.5 61 q48.5 23 108.5 23 q60 0 108 -24.5 q48 -24.5 76 -68 q28 -43.5 28 -101.5 q0 -29 -7.5 -56.5 q-7.5 -27.5 -25.5 -51.5 l-60 0 ZM321 -12 q-59 0 -107.5 24.5 q-48.5 24.5 -76.5 68 q-28 43.5 -28 101.5 q0 29 7.5 56.5 q7.5 27.5 25.5 51.5 l60 0 q-25 -21 -35 -47 q-10 -26 -10 -60 q0 -46 22 -80.5 q22 -34.5 59.5 -53 q37.5 -18.5 83.5 -18.5 q61 0 111 31.5 q50 31.5 71 93.5 l49 0 q-10 -46 -42.5 -84 q-32.5 -38 -81 -61 q-48.5 -23 -108.5 -23 ZM66 273 l0 45 l520 0 l0 -45 l-520 0 ZM66 428 l0 45 l520 0 l0 -45 l-520 0 Z" /><glyph glyph-name="uni20AD" unicode="&#x20ad;" d="M609 0 l-270 358 l3 30 l229 357 l60 0 l-239 -371 l276 -374 l-59 0 ZM138 0 l0 745 l50 0 l0 -745 l-50 0 ZM50 350 l0 45 l581 0 l0 -45 l-581 0 Z" /><glyph glyph-name="uni20BE" unicode="&#x20be;" d="M77 0 l0 45 l211 0 l-4 -12 q-59 31 -106 76.5 q-47 45.5 -74 110 q-27 64.5 -27 149.5 q0 87 28.5 158.5 q28.5 71.5 79.5 123 q51 51.5 117.5 79 q66.5 27.5 142.5 27.5 q83 0 155.5 -32 q72.5 -32 123 -90 q50.5 -58 65.5 -136 l-54 0 q-14 66 -57.5 113 q-43.5 47 -104.5 72 q-61 25 -128 25 q-72 0 -130.5 -27 q-58.5 -27 -100.5 -73.5 q-42 -46.5 -64.5 -106.5 q-22.5 -60 -22.5 -126 q0 -68 23.5 -128 q23.5 -60 65.5 -105.5 q42 -45.5 97.5 -71.5 q55.5 -26 119.5 -26 l336 0 l0 -45 l-692 0 ZM338 499 l0 346 l45 0 l0 -346 l-45 0 ZM508 499 l0 346 l45 0 l0 -346 l-45 0 Z" /><glyph glyph-name="lira" unicode="&#x20a4;" d="M50 0 l0 45 l100 0 l0 489 q0 67 27.5 117 q27.5 50 77 78 q49.5 28 114.5 28 q59 0 107.5 -22 q48.5 -22 80.5 -64.5 q32 -42.5 41 -104.5 l-45 -10 q-10 74 -58.5 115 q-48.5 41 -125.5 41 q-76 0 -122.5 -48 q-46.5 -48 -46.5 -130 l0 -489 l349 0 l0 -45 l-499 0 ZM50 428 l0 45 l350 0 l0 -45 l-350 0 ZM50 273 l0 45 l350 0 l0 -45 l-350 0 Z" /><glyph glyph-name="uni20BA" unicode="&#x20ba;" d="M130 0 l0 745 l50 0 l0 -700 l36 0 q104 0 178.5 54 q74.5 54 105.5 146 l54 0 q-32 -114 -120 -179.5 q-88 -65.5 -216 -65.5 l-88 0 ZM50 444 l0 48 l337 100 l0 -48 l-337 -100 ZM50 267 l0 48 l337 100 l0 -48 l-337 -100 Z" /><glyph glyph-name="uni20BC" unicode="&#x20bc;" d="M95 0 l0 382 q0 79 31.5 138 q31.5 59 88 92 q56.5 33 130.5 33 q75 0 131 -33 q56 -33 87.5 -92 q31.5 -59 31.5 -138 l0 -382 l-50 0 l0 386 q0 63 -25 111.5 q-25 48.5 -70 75.5 q-45 27 -105 27 q-59 0 -104.5 -27 q-45.5 -27 -70.5 -75.5 q-25 -48.5 -25 -111.5 l0 -386 l-50 0 ZM323 0 l0 845 l45 0 l0 -845 l-45 0 Z" /><glyph glyph-name="uni20A6" unicode="&#x20a6;" d="M130 0 l0 745 l46 0 l409 -687 l-14 0 l0 687 l45 0 l0 -745 l-46 0 l-412 691 l17 0 l0 -691 l-45 0 ZM50 350 l0 45 l646 0 l0 -45 l-646 0 Z" /><glyph glyph-name="peseta" unicode="&#x20a7;" d="M130 0 l0 745 l244 0 q70 0 123 -28 q53 -28 83 -78.5 q30 -50.5 30 -116.5 q0 -66 -30 -116 q-30 -50 -83 -78 q-53 -28 -123 -28 l-194 0 l0 -300 l-50 0 ZM180 345 l194 0 q55 0 96.5 22.5 q41.5 22.5 65.5 63 q24 40.5 24 92.5 q0 53 -23.5 92.5 q-23.5 39.5 -65.5 62 q-42 22.5 -97 22.5 l-194 0 l0 -355 ZM50 500 l0 45 l620 0 l0 -45 l-620 0 Z" /><glyph glyph-name="uni20B1" unicode="&#x20b1;" d="M130 0 l0 745 l244 0 q70 0 123 -28 q53 -28 83 -78.5 q30 -50.5 30 -116.5 q0 -66 -30 -116 q-30 -50 -83 -78 q-53 -28 -123 -28 l-194 0 l0 -300 l-50 0 ZM180 345 l194 0 q55 0 96.5 22.5 q41.5 22.5 65.5 63 q24 40.5 24 93.5 q0 52 -23.5 91.5 q-23.5 39.5 -65.5 62 q-42 22.5 -97 22.5 l-194 0 l0 -355 ZM50 423 l0 45 l620 0 l0 -45 l-620 0 ZM50 578 l0 45 l620 0 l0 -45 l-620 0 Z" /><glyph glyph-name="uni20BD" unicode="&#x20bd;" d="M130 0 l0 300 l-80 0 l0 45 l80 0 l0 400 l244 0 q70 0 123 -28 q53 -28 83 -78.5 q30 -50.5 30 -116.5 q0 -66 -30 -116 q-30 -50 -83 -78 q-53 -28 -123 -28 l-194 0 l0 -300 l-50 0 ZM180 345 l194 0 q55 0 96.5 22.5 q41.5 22.5 65.5 63 q24 40.5 24 93.5 q0 52 -23.5 91.5 q-23.5 39.5 -65.5 62 q-42 22.5 -97 22.5 l-194 0 l0 -355 ZM50 153 l0 45 l330 0 l0 -45 l-330 0 Z" /><glyph glyph-name="uni20B9" unicode="&#x20b9;" d="M518 0 l-419 300 l0 45 l244 0 q55 0 96.5 22.5 q41.5 22.5 65.5 63 q24 40.5 24 92.5 q0 53 -23.5 92.5 q-23.5 39.5 -65.5 62 q-42 22.5 -97 22.5 l-244 0 l0 45 l540 0 l0 -45 l-182 0 l16 13 q50 -28 78 -77.5 q28 -49.5 28 -113.5 q0 -66 -30 -116 q-30 -50 -83 -78 q-53 -28 -123 -28 l-191 0 l7 21 l442 -321 l-83 0 ZM99 500 l0 45 l540 0 l0 -45 l-540 0 Z" /><glyph glyph-name="uni20AA" unicode="&#x20aa;" d="M239 0 l0 610 l50 0 l0 -565 l199 0 q14 0 23.5 10.5 q9.5 10.5 9.5 26.5 l0 663 l50 0 l0 -669 q0 -34 -22 -55 q-22 -21 -56 -21 l-254 0 ZM99 0 l0 745 l255 0 q34 0 55 -21.5 q21 -21.5 21 -54.5 l0 -534 l-50 0 l0 528 q0 16 -10.5 26.5 q-10.5 10.5 -25.5 10.5 l-195 0 l0 -700 l-50 0 Z" /><glyph glyph-name="sterling" unicode="£" d="M50 0 l0 45 l100 0 l0 489 q0 67 27.5 117 q27.5 50 77 78 q49.5 28 114.5 28 q59 0 107.5 -22 q48.5 -22 80.5 -64.5 q32 -42.5 41 -104.5 l-45 -10 q-10 74 -58.5 115 q-48.5 41 -125.5 41 q-76 0 -122.5 -48 q-46.5 -48 -46.5 -130 l0 -489 l349 0 l0 -45 l-499 0 ZM50 356 l0 45 l350 0 l0 -45 l-350 0 Z" /><glyph glyph-name="uni20B8" unicode="&#x20b8;" d="M233 0 l0 580 l-211 0 l0 45 l470 0 l0 -45 l-209 0 l0 -580 l-50 0 ZM22 700 l0 45 l470 0 l0 -45 l-470 0 Z" /><glyph glyph-name="uni20AE" unicode="&#x20ae;" d="M233 0 l0 700 l-211 0 l0 45 l470 0 l0 -45 l-209 0 l0 -700 l-50 0 ZM88 374 l0 48 l337 100 l0 -48 l-337 -100 ZM88 197 l0 48 l337 100 l0 -48 l-337 -100 Z" /><glyph glyph-name="uni20A9" unicode="&#x20a9;" d="M224 0 l-199 745 l50 0 l183 -701 l-23 1 l190 700 l44 0 l190 -700 l-23 -1 l183 701 l50 0 l-199 -745 l-45 0 l-190 706 l24 0 l-190 -706 l-45 0 ZM22 350 l0 45 l850 0 l0 -45 l-850 0 Z" /><glyph glyph-name="yen" unicode="¥" d="M287 0 l0 333 l-265 412 l57 0 l247 -376 l-26 0 l245 376 l57 0 l-265 -412 l0 -333 l-50 0 ZM137 308 l0 45 l350 0 l0 -45 l-350 0 ZM137 153 l0 45 l350 0 l0 -45 l-350 0 Z" /><glyph glyph-name="uni2219" unicode="&#x2219;" d="M202 260 q-32 0 -57.5 15 q-25.5 15 -40.5 41 q-15 26 -15 58 q0 31 15 56 q15 25 40.5 40 q25.5 15 57.5 15 q32 0 57 -15 q25 -15 39.5 -40 q14.5 -25 14.5 -56 q1 -32 -14 -58 q-15 -26 -40 -41 q-25 -15 -57 -15 Z" /><glyph glyph-name="uni2215" unicode="&#x2215;" d="M38 -60 l338 865 l55 0 l-338 -865 l-55 0 Z" /><glyph glyph-name="uni208C" unicode="&#x208c;" d="M73 321 l0 43 l315 0 l0 -43 l-315 0 ZM73 157 l0 42 l315 0 l0 -42 l-315 0 Z" /><glyph glyph-name="uni207C" unicode="&#x207c;" d="M73 544 l0 43 l315 0 l0 -43 l-315 0 ZM73 380 l0 42 l315 0 l0 -42 l-315 0 Z" /><glyph glyph-name="uni208B" unicode="&#x208b;" d="M73 240 l0 41 l315 0 l0 -41 l-315 0 Z" /><glyph glyph-name="uni207B" unicode="&#x207b;" d="M73 463 l0 41 l315 0 l0 -41 l-315 0 Z" /><glyph glyph-name="plus" unicode="+" d="M276 0 l0 228 l-228 0 l0 45 l228 0 l0 227 l45 0 l0 -227 l227 0 l0 -45 l-227 0 l0 -228 l-45 0 Z" /><glyph glyph-name="minus" unicode="&#x2212;" d="M73 228 l0 45 l450 0 l0 -45 l-450 0 Z" /><glyph glyph-name="multiply" unicode="×" d="M123 0 l-32 31 l175 176 l-174 174 l31 32 l175 -174 l175 174 l31 -32 l-174 -174 l175 -176 l-32 -31 l-175 175 l-175 -175 Z" /><glyph glyph-name="divide" unicode="÷" d="M48 228 l0 45 l500 0 l0 -45 l-500 0 ZM271 0 l0 78 l55 0 l0 -78 l-55 0 ZM271 422 l0 78 l55 0 l0 -78 l-55 0 Z" /><glyph glyph-name="equal" unicode="=" d="M73 346 l0 45 l450 0 l0 -45 l-450 0 ZM73 111 l0 45 l450 0 l0 -45 l-450 0 Z" /><glyph glyph-name="notequal" unicode="&#x2260;" d="M73 346 l0 45 l450 0 l0 -45 l-450 0 ZM73 111 l0 45 l450 0 l0 -45 l-450 0 ZM364 491 l48 0 l-176 -481 l-48 0 l176 481 Z" /><glyph glyph-name="greater" unicode="&gt;" d="M63 50 l0 50 l341 174 l0 -22 l-341 174 l0 50 l385 -195 l0 -36 l-385 -195 Z" /><glyph glyph-name="less" unicode="&lt;" d="M533 50 l-385 195 l0 36 l385 195 l0 -50 l-341 -174 l0 22 l341 -174 l0 -50 Z" /><glyph glyph-name="greaterequal" unicode="&#x2265;" d="M63 115 l0 50 l341 144 l0 -22 l-341 144 l0 50 l385 -165 l0 -36 l-385 -165 ZM63 0 l0 45 l386 0 l0 -45 l-386 0 Z" /><glyph glyph-name="lessequal" unicode="&#x2264;" d="M534 115 l-385 165 l0 36 l385 165 l0 -50 l-341 -144 l0 22 l341 -144 l0 -50 ZM148 0 l0 45 l386 0 l0 -45 l-386 0 Z" /><glyph glyph-name="plusminus" unicode="±" d="M276 145 l0 198 l-228 0 l0 45 l228 0 l0 197 l45 0 l0 -197 l227 0 l0 -45 l-227 0 l0 -198 l-45 0 ZM48 0 l0 45 l500 0 l0 -45 l-500 0 Z" /><glyph glyph-name="approxequal" unicode="&#x2248;" d="M49 305 l0 49 q28 30 65 44.5 q37 14.5 77 14.5 q36 0 62 -9 q26 -9 48 -20 q22 -11 46 -20 q24 -9 57 -9 q43 0 80.5 17 q37.5 17 62.5 42 l0 -50 q-26 -27 -62 -42.5 q-36 -15.5 -81 -15.5 q-36 0 -61.5 9 q-25.5 9 -47.5 20 q-22 11 -46 20 q-24 9 -57 9 q-41 0 -79 -16.5 q-38 -16.5 -64 -42.5 ZM49 107 l0 49 q26 27 61.5 43 q35.5 16 80.5 16 q36 0 62 -9 q26 -9 48 -20 q22 -11 46 -20 q24 -9 57 -9 q43 0 80.5 17 q37.5 17 62.5 42 l0 -50 q-26 -27 -62.5 -42.5 q-36.5 -15.5 -80.5 -15.5 q-36 0 -61.5 9 q-25.5 9 -47.5 20 q-22 11 -46 20 q-24 9 -57 9 q-41 0 -79 -16.5 q-38 -16.5 -64 -42.5 Z" /><glyph glyph-name="asciitilde" unicode="~" d="M392 203 q-33 0 -56.5 12.5 q-23.5 12.5 -43.5 28.5 q-20 16 -41.5 28.5 q-21.5 12.5 -49.5 12.5 q-27 0 -46.5 -15.5 q-19.5 -15.5 -24.5 -60.5 l-43 0 q2 62 37 91.5 q35 29.5 80 29.5 q33 0 56.5 -12.5 q23.5 -12.5 43.5 -28.5 q20 -16 41.5 -28.5 q21.5 -12.5 49.5 -12.5 q27 0 46.5 15.5 q19.5 15.5 24.5 60.5 l43 0 q-2 -61 -37 -91 q-35 -30 -80 -30 Z" /><glyph glyph-name="logicalnot" unicode="¬" d="M503 40 l0 188 l-455 0 l0 45 l500 0 l0 -233 l-45 0 Z" /><glyph glyph-name="asciicircum" unicode="^" d="M113 428 l167 317 l36 0 l167 -317 l-52 0 l-150 285 l34 0 l-150 -285 l-52 0 Z" /><glyph glyph-name="infinity" unicode="&#x221e;" d="M261 90 q-50 0 -92 22.5 q-42 22.5 -66.5 61.5 q-24.5 39 -24.5 89 q0 50 24.5 89 q24.5 39 66.5 61.5 q42 22.5 92 22.5 q72 0 130 -42 q58 -42 98 -118 l0 -26 q-40 -76 -98 -118 q-58 -42 -130 -42 ZM261 138 q56 0 100 33 q44 33 77 92 q-33 59 -77 92 q-44 33 -100 33 q-58 0 -95.5 -35 q-37.5 -35 -37.5 -90 q0 -55 37.5 -90 q37.5 -35 95.5 -35 ZM669 90 q-72 0 -129.5 42 q-57.5 42 -98.5 118 l0 26 q41 76 98.5 118 q57.5 42 129.5 42 q51 0 92.5 -22.5 q41.5 -22.5 66 -61.5 q24.5 -39 24.5 -89 q0 -50 -24.5 -89 q-24.5 -39 -66 -61.5 q-41.5 -22.5 -92.5 -22.5 ZM669 138 q59 0 96 35 q37 35 37 90 q0 55 -37 90 q-37 35 -96 35 q-56 0 -100 -33 q-44 -33 -77 -92 q33 -59 77 -92 q44 -33 100 -33 Z" /><glyph glyph-name="emptyset" unicode="&#x2205;" d="M462 -12 q-80 0 -150 29.5 q-70 29.5 -123 82.5 q-53 53 -82.5 123 q-29.5 70 -29.5 150 q0 79 29.5 148.5 q29.5 69.5 82.5 122.5 q53 53 122.5 83 q69.5 30 150.5 30 q80 0 149.5 -30 q69.5 -30 122.5 -83 q53 -53 82.5 -122.5 q29.5 -69.5 29.5 -148.5 q0 -81 -30 -150.5 q-30 -69.5 -83 -122.5 q-53 -53 -122.5 -82.5 q-69.5 -29.5 -148.5 -29.5 ZM462 36 q70 0 130.5 26 q60.5 26 106.5 72 q46 46 71.5 107.5 q25.5 61.5 25.5 131.5 q0 69 -25.5 130 q-25.5 61 -71.5 107.5 q-46 46.5 -106.5 72.5 q-60.5 26 -130.5 26 q-70 0 -131 -26 q-61 -26 -107 -72 q-46 -46 -71.5 -107 q-25.5 -61 -25.5 -131 q0 -70 25.5 -131.5 q25.5 -61.5 71.5 -107.5 q46 -46 107 -72 q61 -26 131 -26 ZM119 0 l620 745 l59 0 l-620 -745 l-59 0 Z" /><glyph glyph-name="integral" unicode="&#x222b;" d="M92 -180 q-12 0 -21.5 1.5 q-9.5 1.5 -17.5 3.5 l0 41 q8 -1 18 -2 q10 -1 18 -1 q56 0 88 37 q32 37 32 108 l0 561 q0 61 20.5 103 q20.5 42 57 63.5 q36.5 21.5 84.5 21.5 q12 0 22 -1.5 q10 -1.5 17 -3.5 l0 -41 q-8 2 -18 2.5 q-10 0.5 -18 0.5 q-56 0 -88 -37 q-32 -37 -32 -108 l0 -561 q0 -61 -20.5 -103 q-20.5 -42 -56.5 -63.5 q-36 -21.5 -85 -21.5 Z" /><glyph glyph-name="product" unicode="&#x220f;" d="M198 -100 l0 800 l-161 0 l0 45 l670 0 l0 -45 l-159 0 l0 -800 l-50 0 l0 800 l-250 0 l0 -800 l-50 0 Z" /><glyph glyph-name="summation" unicode="&#x2211;" d="M46 -100 l0 30 l290 423 l0 -60 l-290 422 l0 30 l503 0 l0 -45 l-471 0 l16 30 l281 -407 l-281 -408 l-16 30 l471 0 l0 -45 l-503 0 Z" /><glyph glyph-name="radical" unicode="&#x221a;" d="M340 -100 l-230 514 l51 -33 l-121 0 l0 45 l120 0 l222 -495 l-30 0 l365 814 l120 0 l0 -45 l-120 0 l51 33 l-376 -833 l-52 0 Z" /><glyph glyph-name="uni00B5" unicode="µ" d="M77 -140 l0 666 l45 0 l0 -340 q0 -50 21.5 -85 q21.5 -35 57.5 -52.5 q36 -17.5 78 -17.5 q51 0 86.5 23.5 q35.5 23.5 53.5 63.5 q18 40 18 88 l0 320 l45 0 l0 -526 l-45 0 l0 113 l9 -15 q-17 -49 -63 -79.5 q-46 -30.5 -108 -30.5 q-51 0 -96 22 q-45 22 -71 65 l14 16 l0 -231 l-45 0 Z" /><glyph glyph-name="partialdiff" unicode="&#x2202;" d="M312 -12 q-71 0 -128 34 q-57 34 -90.5 94 q-33.5 60 -33.5 138 q0 78 34.5 140 q34.5 62 96.5 98 q62 36 143 36 q61 0 112.5 -19.5 q51.5 -19.5 94.5 -53.5 l0 -46 q-40 39 -97.5 57.5 q-57.5 18.5 -107.5 18.5 q-66 0 -117.5 -30.5 q-51.5 -30.5 -81 -83 q-29.5 -52.5 -29.5 -118.5 q0 -64 27 -114.5 q27 -50.5 73.5 -79 q46.5 -28.5 103.5 -28.5 q60 0 111 32.5 q51 32.5 81.5 101 q30.5 68.5 30.5 176.5 q0 77 -22.5 150.5 q-22.5 73.5 -64 132.5 q-41.5 59 -100.5 94 q-59 35 -133 35 q-24 0 -50 -4.5 q-26 -4.5 -54 -14.5 l-11 43 q31 10 60 14.5 q29 4.5 56 4.5 q71 0 129 -27 q58 -27 101.5 -73 q43.5 -46 73.5 -105 q30 -59 45 -124 q15 -65 15 -129 q0 -117 -36 -194.5 q-36 -77.5 -96.5 -116.5 q-60.5 -39 -135.5 -39 Z" /><glyph glyph-name="percent" unicode="%" d="M124 0 l615 745 l61 0 l-615 -745 l-61 0 ZM237 385 q-50 0 -92 25 q-42 25 -67.5 67.5 q-25.5 42.5 -25.5 93.5 q0 52 25.5 94 q25.5 42 67.5 67 q42 25 92 25 q50 0 91.5 -25 q41.5 -25 66.5 -67 q25 -42 25 -94 q0 -51 -25 -93.5 q-25 -42.5 -66.5 -67.5 q-41.5 -25 -91.5 -25 ZM237 428 q40 0 71 21 q31 21 49 54 q18 33 18 68 q0 36 -18 68.5 q-18 32.5 -49 53.5 q-31 21 -71 21 q-40 0 -71.5 -20.5 q-31.5 -20.5 -50 -53.5 q-18.5 -33 -18.5 -69 q0 -36 18.5 -68.5 q18.5 -32.5 50 -53.5 q31.5 -21 71.5 -21 ZM693 -12 q-50 0 -92 25 q-42 25 -67.5 67 q-25.5 42 -25.5 94 q0 52 25.5 94 q25.5 42 67.5 67 q42 25 92 25 q50 0 91.5 -25 q41.5 -25 66.5 -67 q25 -42 25 -94 q0 -52 -25 -94 q-25 -42 -66.5 -67 q-41.5 -25 -91.5 -25 ZM693 31 q40 0 71 21 q31 21 49 54 q18 33 18 68 q0 36 -18 68.5 q-18 32.5 -49 53.5 q-31 21 -71 21 q-40 0 -71.5 -20.5 q-31.5 -20.5 -50 -53.5 q-18.5 -33 -18.5 -69 q0 -36 18.5 -68.5 q18.5 -32.5 50 -53.5 q31.5 -21 71.5 -21 Z" /><glyph glyph-name="perthousand" unicode="&#x2030;" d="M124 0 l615 745 l61 0 l-615 -745 l-61 0 ZM237 385 q-50 0 -92 25 q-42 25 -67.5 67.5 q-25.5 42.5 -25.5 93.5 q0 52 25.5 94 q25.5 42 67.5 67 q42 25 92 25 q50 0 91.5 -25 q41.5 -25 66.5 -67 q25 -42 25 -94 q0 -51 -25 -93.5 q-25 -42.5 -66.5 -67.5 q-41.5 -25 -91.5 -25 ZM237 428 q40 0 71 21 q31 21 49 54 q18 33 18 68 q0 36 -18 68.5 q-18 32.5 -49 53.5 q-31 21 -71 21 q-40 0 -71.5 -20.5 q-31.5 -20.5 -50 -53.5 q-18.5 -33 -18.5 -69 q0 -36 18.5 -68.5 q18.5 -32.5 50 -53.5 q31.5 -21 71.5 -21 ZM693 -12 q-50 0 -92 25 q-42 25 -67.5 67 q-25.5 42 -25.5 94 q0 52 25.5 94 q25.5 42 67.5 67 q42 25 92 25 q50 0 91.5 -25 q41.5 -25 66.5 -67 q25 -42 25 -94 q0 -52 -25 -94 q-25 -42 -66.5 -67 q-41.5 -25 -91.5 -25 ZM693 31 q40 0 71 21 q31 21 49 54 q18 33 18 68 q0 36 -18 68.5 q-18 32.5 -49 53.5 q-31 21 -71 21 q-40 0 -71.5 -20.5 q-31.5 -20.5 -50 -53.5 q-18.5 -33 -18.5 -69 q0 -36 18.5 -68.5 q18.5 -32.5 50 -53.5 q31.5 -21 71.5 -21 ZM1121 -12 q-50 0 -92 25 q-42 25 -67.5 67 q-25.5 42 -25.5 94 q0 52 25.5 94 q25.5 42 67.5 67 q42 25 92 25 q50 0 91.5 -25 q41.5 -25 66.5 -67 q25 -42 25 -94 q0 -52 -25 -94 q-25 -42 -66.5 -67 q-41.5 -25 -91.5 -25 ZM1121 31 q40 0 71 21 q31 21 49 54 q18 33 18 68 q0 36 -18 68.5 q-18 32.5 -49 53.5 q-31 21 -71 21 q-40 0 -71.5 -20.5 q-31.5 -20.5 -50 -53.5 q-18.5 -33 -18.5 -69 q0 -36 18.5 -68.5 q18.5 -32.5 50 -53.5 q31.5 -21 71.5 -21 Z" /><glyph glyph-name="uni208A" unicode="&#x208a;" d="M202 85 l0 155 l-154 0 l0 41 l154 0 l0 154 l42 0 l0 -154 l154 0 l0 -41 l-154 0 l0 -155 l-42 0 Z" /><glyph glyph-name="uni207A" unicode="&#x207a;" d="M202 308 l0 155 l-154 0 l0 41 l154 0 l0 154 l42 0 l0 -154 l154 0 l0 -41 l-154 0 l0 -155 l-42 0 Z" /><glyph glyph-name="arrowup" unicode="&#x2191;" d="M48 278 l0 56 l237 265 l34 0 l255 -265 l0 -56 l-297 306 l49 1 l-278 -307 ZM282 0 l0 565 l40 0 l0 -565 l-40 0 Z" /><glyph glyph-name="uni2197" unicode="&#x2197;" d="M114 473 l360 0 l24 -24 l0 -356 l-45 -40 l0 416 l36 -36 l-416 0 l41 40 ZM447 452 l29 -29 l-400 -399 l-28 28 l399 400 Z" /><glyph glyph-name="arrowright" unicode="&#x2192;" d="M325 0 l306 297 l1 -49 l-307 278 l56 0 l265 -237 l0 -34 l-265 -255 l-56 0 ZM47 252 l0 40 l565 0 l0 -40 l-565 0 Z" /><glyph glyph-name="uni2198" unicode="&#x2198;" d="M114 0 l-41 40 l416 0 l-36 -36 l0 416 l45 -40 l0 -356 l-24 -24 l-360 0 ZM447 21 l-399 400 l28 28 l400 -399 l-29 -29 Z" /><glyph glyph-name="arrowdown" unicode="&#x2193;" d="M40 321 l278 -307 l-49 1 l297 306 l0 -56 l-255 -265 l-34 0 l-237 265 l0 56 ZM274 599 l40 0 l0 -565 l-40 0 l0 565 Z" /><glyph glyph-name="uni2199" unicode="&#x2199;" d="M489 0 l-360 0 l-24 24 l0 356 l45 40 l0 -416 l-36 36 l416 0 l-41 -40 ZM156 21 l-29 29 l400 399 l28 -28 l-399 -400 Z" /><glyph glyph-name="arrowleft" unicode="&#x2190;" d="M357 0 l-56 0 l-265 255 l0 34 l265 237 l56 0 l-307 -278 l1 49 l306 -297 ZM635 252 l-565 0 l0 40 l565 0 l0 -40 Z" /><glyph glyph-name="uni2196" unicode="&#x2196;" d="M488 473 l41 -40 l-416 0 l36 36 l0 -416 l-45 40 l0 356 l24 24 l360 0 ZM155 452 l399 -400 l-28 -28 l-400 399 l29 29 Z" /><glyph glyph-name="arrowboth" unicode="&#x2194;" d="M567 0 l306 297 l1 -49 l-307 278 l56 0 l265 -237 l0 -34 l-265 -255 l-56 0 ZM311 0 l-265 255 l0 34 l265 237 l56 0 l-307 -278 l1 49 l306 -297 l-56 0 ZM80 252 l0 40 l774 0 l0 -40 l-774 0 Z" /><glyph glyph-name="arrowupdn" unicode="&#x2195;" d="M55 272 l297 -306 l-49 -1 l278 307 l0 -56 l-237 -265 l-34 0 l-255 265 l0 56 ZM55 528 l255 265 l34 0 l237 -265 l0 -56 l-278 307 l49 -1 l-297 -306 l0 56 ZM307 759 l40 0 l0 -774 l-40 0 l0 774 Z" /><glyph glyph-name="uni21A9" unicode="&#x21a9;" d="M77 252 l0 40 l565 0 q79 0 127 41 q48 41 48 108 q0 67 -48 108 q-48 41 -127 41 l-10 0 l0 40 l10 0 q65 0 113 -23.5 q48 -23.5 75 -66 q27 -42.5 27 -99.5 q0 -56 -27 -99 q-27 -43 -75 -66.5 q-48 -23.5 -113 -23.5 l-565 0 ZM308 0 l-265 255 l0 34 l265 237 l56 0 l-307 -278 l1 49 l306 -297 l-56 0 Z" /><glyph glyph-name="uni21AA" unicode="&#x21aa;" d="M837 252 l-565 0 q-64 0 -112.5 23.5 q-48.5 23.5 -75.5 66.5 q-27 43 -27 99 q0 57 27 99.5 q27 42.5 75.5 66 q48.5 23.5 112.5 23.5 l10 0 l0 -40 l-10 0 q-79 0 -127 -41 q-48 -41 -48 -108 q0 -67 48 -108 q48 -41 127 -41 l565 0 l0 -40 ZM606 0 l-56 0 l306 297 l1 -49 l-307 278 l56 0 l265 -237 l0 -34 l-265 -255 Z" /><glyph glyph-name="uni21B0" unicode="&#x21b0;" d="M643 -100 l0 352 l-565 0 l0 40 l605 0 l0 -392 l-40 0 ZM309 0 l-265 255 l0 34 l265 237 l56 0 l-307 -278 l1 49 l306 -297 l-56 0 Z" /><glyph glyph-name="uni21B1" unicode="&#x21b1;" d="M125 -100 l-40 0 l0 392 l605 0 l0 -40 l-565 0 l0 -352 ZM459 0 l-56 0 l306 297 l1 -49 l-307 278 l56 0 l265 -237 l0 -34 l-265 -255 Z" /><glyph glyph-name="uni21B2" unicode="&#x21b2;" d="M77 252 l0 40 l565 0 l0 352 l40 0 l0 -392 l-605 0 ZM308 0 l-265 255 l0 34 l265 237 l56 0 l-307 -278 l1 49 l306 -297 l-56 0 Z" /><glyph glyph-name="uni21B3" unicode="&#x21b3;" d="M682 252 l-605 0 l0 392 l40 0 l0 -352 l565 0 l0 -40 ZM451 0 l-56 0 l306 297 l1 -49 l-307 278 l56 0 l265 -237 l0 -34 l-265 -255 Z" /><glyph glyph-name="uni2B0E" unicode="&#x2b0e;" d="M564 34 l0 570 l-525 0 l0 40 l565 0 l0 -610 l-40 0 ZM567 0 l-237 265 l0 56 l278 -307 l-49 1 l297 306 l0 -56 l-255 -265 l-34 0 Z" /><glyph glyph-name="uni2B10" unicode="&#x2b10;" d="M64 34 l-40 0 l0 610 l565 0 l0 -40 l-525 0 l0 -570 ZM61 0 l-34 0 l-255 265 l0 56 l297 -306 l-49 -1 l278 307 l0 -56 l-237 -265 Z" /><glyph glyph-name="uni25CF" unicode="&#x25cf;" d="M447 -12 q-79 0 -149 30 q-70 30 -122.5 82.5 q-52.5 52.5 -82.5 122.5 q-30 70 -30 149 q0 80 30 149.5 q30 69.5 82.5 122.5 q52.5 53 122.5 83 q70 30 149 30 q80 0 149.5 -30 q69.5 -30 122 -83 q52.5 -53 82.5 -122.5 q30 -69.5 30 -149.5 q0 -79 -30 -149 q-30 -70 -82.5 -122.5 q-52.5 -52.5 -122 -82.5 q-69.5 -30 -149.5 -30 Z" /><glyph glyph-name="circle" unicode="&#x25cb;" d="M447 -12 q-79 0 -149 30 q-70 30 -122.5 82.5 q-52.5 52.5 -82.5 122.5 q-30 70 -30 149 q0 80 30 149.5 q30 69.5 82.5 122.5 q52.5 53 122.5 83 q70 30 149 30 q80 0 149.5 -30 q69.5 -30 122 -83 q52.5 -53 82.5 -122.5 q30 -69.5 30 -149.5 q0 -79 -30 -149 q-30 -70 -82.5 -122.5 q-52.5 -52.5 -122 -82.5 q-69.5 -30 -149.5 -30 ZM447 28 q71 0 133.5 26.5 q62.5 26.5 110 74 q47.5 47.5 74 110 q26.5 62.5 26.5 133.5 q0 71 -26.5 133.5 q-26.5 62.5 -74 110 q-47.5 47.5 -110 74.5 q-62.5 27 -133.5 27 q-71 0 -133.5 -27 q-62.5 -27 -110 -74.5 q-47.5 -47.5 -74 -110 q-26.5 -62.5 -26.5 -133.5 q0 -71 26.5 -133.5 q26.5 -62.5 74 -110 q47.5 -47.5 110 -74 q62.5 -26.5 133.5 -26.5 Z" /><glyph glyph-name="uni25C6" unicode="&#x25c6;" d="M422 -12 l-385 385 l384 384 l385 -384 l-384 -385 Z" /><glyph glyph-name="uni25C7" unicode="&#x25c7;" d="M422 -12 l-385 385 l384 384 l385 -384 l-384 -385 ZM422 45 l327 328 l-328 327 l-327 -327 l328 -328 Z" /><glyph glyph-name="lozenge" unicode="&#x25ca;" d="M241 0 l-195 373 l195 372 l58 0 l197 -372 l-197 -373 l-58 0 ZM252 20 l184 353 l-184 352 l36 0 l-184 -352 l184 -353 l-36 0 Z" /><glyph glyph-name="filledbox" unicode="&#x25a0;" d="M110 0 l0 745 l745 0 l0 -745 l-745 0 Z" /><glyph glyph-name="uni25A1" unicode="&#x25a1;" d="M110 0 l0 745 l745 0 l0 -745 l-745 0 ZM150 40 l665 0 l0 665 l-665 0 l0 -665 Z" /><glyph glyph-name="triagup" unicode="&#x25b2;" d="M38 0 l375 757 l375 -757 l-750 0 Z" /><glyph glyph-name="uni25B6" unicode="&#x25b6;" d="M110 757 l776 -385 l-776 -384 l0 769 Z" /><glyph glyph-name="triagdn" unicode="&#x25bc;" d="M-16 745 l750 0 l-375 -757 l-375 757 Z" /><glyph glyph-name="uni25C0" unicode="&#x25c0;" d="M813 757 l0 -769 l-776 384 l776 385 Z" /><glyph glyph-name="uni25B3" unicode="&#x25b3;" d="M38 0 l375 757 l375 -757 l-750 0 ZM102 40 l622 0 l-311 627 l-311 -627 Z" /><glyph glyph-name="uni25B7" unicode="&#x25b7;" d="M110 -12 l0 769 l776 -385 l-776 -384 ZM150 52 l646 320 l-646 321 l0 -641 Z" /><glyph glyph-name="uni25BD" unicode="&#x25bd;" d="M38 745 l750 0 l-375 -757 l-375 757 ZM102 705 l311 -627 l311 627 l-622 0 Z" /><glyph glyph-name="uni25C1" unicode="&#x25c1;" d="M772 -12 l-776 384 l776 385 l0 -769 ZM732 52 l0 641 l-646 -321 l646 -320 Z" /><glyph glyph-name="uni0308" unicode="&#x308;" d="M103 640 l0 75 l70 0 l0 -75 l-70 0 ZM253 640 l0 75 l70 0 l0 -75 l-70 0 Z" /><glyph glyph-name="uni0307" unicode="&#x307;" d="M103 640 l0 75 l70 0 l0 -75 l-70 0 Z" /><glyph glyph-name="gravecomb" unicode="&#x300;" d="M211 640 l-108 150 l61 0 l92 -150 l-45 0 Z" /><glyph glyph-name="acutecomb" unicode="&#x301;" d="M103 640 l92 150 l61 0 l-108 -150 l-45 0 Z" /><glyph glyph-name="uni030B" unicode="&#x30b;" d="M103 640 l52 150 l61 0 l-68 -150 l-45 0 ZM244 640 l52 150 l61 0 l-68 -150 l-45 0 Z" /><glyph glyph-name="uni0302" unicode="&#x302;" d="M103 640 l125 150 l43 0 l126 -150 l-51 0 l-96 114 l-96 -114 l-51 0 Z" /><glyph glyph-name="uni030C" unicode="&#x30c;" d="M228 640 l-125 150 l51 0 l96 -114 l96 114 l51 0 l-126 -150 l-43 0 Z" /><glyph glyph-name="uni0306" unicode="&#x306;" d="M240 640 q-43 0 -73.5 18 q-30.5 18 -47 49.5 q-16.5 31.5 -16.5 72.5 l46 0 q0 -44 23.5 -72 q23.5 -28 67.5 -28 q44 0 67.5 28 q23.5 28 23.5 72 l46 0 q0 -41 -16.5 -72.5 q-16.5 -31.5 -47 -49.5 q-30.5 -18 -73.5 -18 Z" /><glyph glyph-name="uni030A" unicode="&#x30a;" d="M198 620 q-39 0 -67 25.5 q-28 25.5 -28 68.5 q0 43 28 68.5 q28 25.5 66 25.5 q39 0 67 -26 q28 -26 28 -68 q0 -43 -28 -68.5 q-28 -25.5 -66 -25.5 ZM197 656 q23 0 40.5 16 q17.5 16 17.5 42 q0 26 -17.5 41.5 q-17.5 15.5 -40.5 15.5 q-23 0 -39.5 -15.5 q-16.5 -15.5 -16.5 -41.5 q0 -26 16.5 -42 q16.5 -16 39.5 -16 Z" /><glyph glyph-name="tildecomb" unicode="&#x303;" d="M302 640 q-25 0 -41.5 10.5 q-16.5 10.5 -28 25 q-11.5 14.5 -22.5 25 q-11 10.5 -27 10.5 q-19 0 -29.5 -16 q-10.5 -16 -10.5 -51 l-40 0 q0 48 21.5 77 q21.5 29 61.5 29 q25 0 40 -10.5 q15 -10.5 26.5 -25 q11.5 -14.5 23 -25 q11.5 -10.5 28.5 -10.5 q21 0 32 16.5 q11 16.5 11 50.5 l40 0 q0 -46 -22 -76 q-22 -30 -63 -30 Z" /><glyph glyph-name="uni0304" unicode="&#x304;" d="M103 660 l0 40 l250 0 l0 -40 l-250 0 Z" /><glyph glyph-name="hookabovecomb" unicode="&#x309;" d="M194 600 l-21 27 q22 8 33.5 24.5 q11.5 16.5 11.5 35.5 q0 21 -15.5 34.5 q-15.5 13.5 -39.5 13.5 q-13 0 -26.5 -3.5 q-13.5 -3.5 -25.5 -11.5 l-8 32 q12 8 30 13 q18 5 35 5 q41 0 65.5 -22.5 q24.5 -22.5 24.5 -58.5 q0 -27 -17.5 -52 q-17.5 -25 -46.5 -37 Z" /><glyph glyph-name="uni030F" unicode="&#x30f;" d="M211 640 l-108 148 l61 0 l92 -148 l-45 0 ZM352 640 l-108 148 l61 0 l92 -148 l-45 0 Z" /><glyph glyph-name="uni0311" unicode="&#x311;" d="M103 640 q0 41 16.5 72.5 q16.5 31.5 47 49.5 q30.5 18 73.5 18 q43 0 73.5 -18 q30.5 -18 47 -49.5 q16.5 -31.5 16.5 -72.5 l-46 0 q0 44 -23.5 72 q-23.5 28 -67.5 28 q-44 0 -67.5 -28 q-23.5 -28 -23.5 -72 l-46 0 Z" /><glyph glyph-name="uni0312" unicode="&#x312;" d="M103 600 l58 163 l35 0 l-48 -163 l-45 0 Z" /><glyph glyph-name="uni031B" unicode="&#x31b;" d="M103 640 l0 41 l13 0 q16 0 28 5.5 q12 5.5 18.5 18 q6.5 12.5 6.5 31.5 q0 21 -6 41 q-6 20 -14 40 l45 0 q8 -22 14.5 -43.5 q6.5 -21.5 6.5 -43.5 q0 -44 -27 -67 q-27 -23 -69 -23 l-16 0 Z" /><glyph glyph-name="dotbelowcomb" unicode="&#x323;" d="M103 -165 l0 75 l70 0 l0 -75 l-70 0 Z" /><glyph glyph-name="uni0324" unicode="&#x324;" d="M103 -165 l0 75 l70 0 l0 -75 l-70 0 ZM253 -165 l0 75 l70 0 l0 -75 l-70 0 Z" /><glyph glyph-name="uni0326" unicode="&#x326;" d="M103 -233 l48 163 l45 0 l-58 -163 l-35 0 Z" /><glyph glyph-name="uni0327" unicode="&#x327;" d="M199 -220 q-28 0 -53 10 q-25 10 -43 29 l15 32 q16 -17 37.5 -26.5 q21.5 -9.5 41.5 -9.5 q25 0 39.5 13.5 q14.5 13.5 14.5 32.5 q0 28 -28 43.5 q-28 15.5 -75 19.5 l25 86 l43 0 l-16 -59 q43 -7 68.5 -31 q25.5 -24 25.5 -56 q0 -38 -26.5 -61 q-26.5 -23 -68.5 -23 Z" /><glyph glyph-name="uni0328" unicode="&#x328;" d="M198 -220 q-39 0 -67 22 q-28 22 -28 62 q0 38 18.5 69.5 q18.5 31.5 47.5 53.5 q29 22 60 28 l17 0 l0 -15 q-24 -10 -47 -29.5 q-23 -19.5 -38 -45 q-15 -25.5 -15 -54.5 q0 -27 14 -41.5 q14 -14.5 40 -14.5 q20 0 41.5 9.5 q21.5 9.5 37.5 26.5 l15 -32 q-18 -19 -43 -29 q-25 -10 -53 -10 Z" /><glyph glyph-name="uni032E" unicode="&#x32e;" d="M240 -230 q-43 0 -73.5 18 q-30.5 18 -47 49.5 q-16.5 31.5 -16.5 72.5 l46 0 q0 -44 23.5 -72 q23.5 -28 67.5 -28 q44 0 67.5 28 q23.5 28 23.5 72 l46 0 q0 -41 -16.5 -72.5 q-16.5 -31.5 -47 -49.5 q-30.5 -18 -73.5 -18 Z" /><glyph glyph-name="uni0331" unicode="&#x331;" d="M103 -140 l0 40 l250 0 l0 -40 l-250 0 Z" /></font>
</defs>
</svg>
