<?xml version="1.0" standalone="no"?><!DOCTYPE svg PUBLIC "-//W3C//DTD SVG 1.1//EN" "http://www.w3.org/Graphics/SVG/1.1/DTD/svg11.dtd" ><svg xmlns="http://www.w3.org/2000/svg"><metadata></metadata><defs><font id="2.071;TOKO;PlusJakartaSans-SemiBold" horiz-adv-x="1458"><font-face font-family="Plus Jakarta Sans SemiBold" font-weight="600" font-stretch="normal" units-per-em="1000" panose-1="0 0 0 0 0 0 0 0 0 0" ascent="1038" descent="-222" x-height="0" bbox="-165 -251 1392 1242" underline-thickness="40" underline-position="-155" unicode-range="U+000d-fb02" /><missing-glyph horiz-adv-x="640" d="M60 675 l0 70 l520 0 l0 -70 l-520 0 ZM60 0 l0 70 l520 0 l0 -70 l-520 0 ZM60 225 l0 70 l520 0 l0 -70 l-520 0 ZM60 450 l0 70 l520 0 l0 -70 l-520 0 Z" /><glyph glyph-name="A" unicode="A" d="M11 0 l262 745 l146 0 l262 -745 l-126 0 l-57 167 l-303 0 l-58 -167 l-126 0 ZM229 272 l233 0 l-132 390 l33 0 l-134 -390 Z" /><glyph glyph-name="AE" unicode="Æ" d="M11 0 l262 745 l683 0 l0 -105 l-373 0 l0 -214 l353 0 l0 -105 l-353 0 l0 -216 l373 0 l0 -105 l-490 0 l0 167 l-271 0 l-58 -167 l-126 0 ZM229 272 l237 0 l0 368 l-110 0 l-127 -368 Z" /><glyph glyph-name="B" unicode="B" d="M77 0 l0 745 l314 0 q70 0 121 -24.5 q51 -24.5 78 -70 q27 -45.5 27 -107.5 q0 -54 -27.5 -98.5 q-27.5 -44.5 -85.5 -70.5 l0 50 q51 -20 83 -50.5 q32 -30.5 46.5 -68.5 q14.5 -38 14.5 -80 q0 -105 -68.5 -165 q-68.5 -60 -187.5 -60 l-315 0 ZM195 105 l206 0 q59 0 94 32.5 q35 32.5 35 86.5 q0 55 -35 87.5 q-35 32.5 -94 32.5 l-206 0 l0 -239 ZM195 448 l199 0 q48 0 77 27.5 q29 27.5 29 72.5 q0 45 -29 70 q-29 25 -77 25 l-199 0 l0 -195 Z" /><glyph glyph-name="C" unicode="C" d="M424 -12 q-79 0 -146.5 29 q-67.5 29 -117 80.5 q-49.5 51.5 -77.5 121.5 q-28 70 -28 154 q0 83 27.5 153.5 q27.5 70.5 77.5 122 q50 51.5 117 80 q67 28.5 147 28.5 q79 0 141.5 -27 q62.5 -27 105.5 -70.5 q43 -43.5 62 -94.5 l-106 -50 q-24 60 -76.5 97.5 q-52.5 37.5 -126.5 37.5 q-74 0 -131 -35 q-57 -35 -88.5 -97 q-31.5 -62 -31.5 -145 q0 -83 31.5 -145.5 q31.5 -62.5 88.5 -97 q57 -34.5 131 -34.5 q74 0 126.5 37 q52.5 37 76.5 97 l106 -50 q-19 -50 -62 -94 q-43 -44 -105.5 -71 q-62.5 -27 -141.5 -27 Z" /><glyph glyph-name="D" unicode="D" d="M77 0 l0 745 l244 0 q116 0 201.5 -46.5 q85.5 -46.5 132.5 -130.5 q47 -84 47 -195 q0 -110 -47 -194.5 q-47 -84.5 -132.5 -131.5 q-85.5 -47 -201.5 -47 l-244 0 ZM195 105 l128 0 q79 0 137.5 33 q58.5 33 90.5 93 q32 60 32 142 q0 82 -32.5 141.5 q-32.5 59.5 -90.5 92.5 q-58 33 -137 33 l-128 0 l0 -535 Z" /><glyph glyph-name="Eth" unicode="Ð" d="M20 323 l0 100 l333 0 l0 -100 l-333 0 ZM77 0 l0 745 l244 0 q116 0 201.5 -46.5 q85.5 -46.5 132.5 -130.5 q47 -84 47 -195 q0 -110 -47 -194.5 q-47 -84.5 -132.5 -131.5 q-85.5 -47 -201.5 -47 l-244 0 ZM195 105 l128 0 q79 0 137.5 33 q58.5 33 90.5 93 q32 60 32 142 q0 82 -32.5 141.5 q-32.5 59.5 -90.5 92.5 q-58 33 -137 33 l-128 0 l0 -535 Z" /><glyph glyph-name="E" unicode="E" d="M77 0 l0 745 l491 0 l0 -105 l-373 0 l0 -214 l353 0 l0 -105 l-353 0 l0 -216 l373 0 l0 -105 l-491 0 Z" /><glyph glyph-name="uni018F" unicode="&#x18f;" d="M403 -12 q-76 0 -139.5 26.5 q-63.5 26.5 -110 74 q-46.5 47.5 -72.5 112.5 q-26 65 -26 142 q0 18 1.5 34 q1.5 16 5.5 32 l609 0 l0 -98 l-538 0 l52 37 q-1 -9 -1.5 -17 q-0.5 -8 -0.5 -17 q0 -62 29 -111.5 q29 -49.5 79.5 -78 q50.5 -28.5 116.5 -28.5 q52 0 97 19 q45 19 77.5 55.5 q32.5 36.5 49.5 87.5 q17 51 15 115 q2 59 -16 109.5 q-18 50.5 -53 88 q-35 37.5 -83 58.5 q-48 21 -106 21 q-70 0 -125.5 -31.5 q-55.5 -31.5 -85.5 -86.5 l-99 48 q25 54 71 93.5 q46 39.5 108 61.5 q62 22 132 22 q82 0 150.5 -29.5 q68.5 -29.5 119 -82 q50.5 -52.5 78 -123 q27.5 -70.5 27.5 -152.5 q0 -80 -26 -149 q-26 -69 -74 -121.5 q-48 -52.5 -114.5 -82 q-66.5 -29.5 -147.5 -29.5 Z" /><glyph glyph-name="F" unicode="F" d="M77 0 l0 745 l485 0 l0 -105 l-367 0 l0 -224 l327 0 l0 -105 l-327 0 l0 -311 l-118 0 Z" /><glyph glyph-name="G" unicode="G" d="M426 -12 q-79 0 -146.5 29 q-67.5 29 -118 80.5 q-50.5 51.5 -78.5 121.5 q-28 70 -28 154 q0 83 27.5 153.5 q27.5 70.5 77.5 122 q50 51.5 117 80 q67 28.5 147 28.5 q79 0 141.5 -27 q62.5 -27 105.5 -70.5 q43 -43.5 62 -94.5 l-105 -51 q-23 61 -76 98.5 q-53 37.5 -128 37.5 q-74 0 -131 -35 q-57 -35 -88.5 -97 q-31.5 -62 -31.5 -145 q0 -83 32.5 -145.5 q32.5 -62.5 89.5 -97 q57 -34.5 131 -34.5 q62 0 113.5 25.5 q51.5 25.5 82.5 72 q31 46.5 31 108.5 l0 51 l53 -48 l-282 0 l0 100 l346 0 l0 -70 q0 -82 -28 -146.5 q-28 -64.5 -76 -109.5 q-48 -45 -110 -68 q-62 -23 -130 -23 Z" /><glyph glyph-name="H" unicode="H" d="M77 0 l0 745 l118 0 l0 -328 l345 0 l0 328 l117 0 l0 -745 l-117 0 l0 312 l-345 0 l0 -312 l-118 0 Z" /><glyph glyph-name="Hbar" unicode="&#x126;" d="M-4 544 l0 103 l743 0 l0 -103 l-743 0 ZM77 0 l0 745 l118 0 l0 -328 l345 0 l0 328 l117 0 l0 -745 l-117 0 l0 312 l-345 0 l0 -312 l-118 0 Z" /><glyph glyph-name="I" unicode="I" d="M77 0 l0 745 l118 0 l0 -745 l-118 0 Z" /><glyph glyph-name="J" unicode="J" d="M44 0 l0 110 l43 0 q50 0 80 29.5 q30 29.5 30 79.5 l0 526 l117 0 l0 -522 q0 -68 -27.5 -118 q-27.5 -50 -79 -77.5 q-51.5 -27.5 -120.5 -27.5 l-43 0 Z" /><glyph glyph-name="K" unicode="K" d="M77 0 l0 745 l118 0 l0 -404 l-31 12 l337 392 l147 0 l-298 -349 l6 84 l304 -480 l-139 0 l-218 341 l-108 -126 l0 -215 l-118 0 Z" /><glyph glyph-name="L" unicode="L" d="M77 0 l0 745 l118 0 l0 -640 l322 0 l0 -105 l-440 0 Z" /><glyph glyph-name="Ldot" unicode="&#x13f;" d="M357 305 q-29 0 -48.5 19.5 q-19.5 19.5 -19.5 48.5 q0 28 19.5 47.5 q19.5 19.5 48.5 19.5 q28 0 47.5 -19.5 q19.5 -19.5 19.5 -47.5 q0 -29 -19.5 -48.5 q-19.5 -19.5 -47.5 -19.5 ZM77 0 l0 745 l118 0 l0 -640 l322 0 l0 -105 l-440 0 Z" /><glyph glyph-name="Lslash" unicode="&#x141;" d="M39 217 l0 113 l337 200 l0 -113 l-337 -200 ZM148 0 l0 745 l118 0 l0 -640 l322 0 l0 -105 l-440 0 Z" /><glyph glyph-name="M" unicode="M" d="M77 0 l0 745 l110 0 l280 -388 l-55 0 l275 388 l110 0 l0 -745 l-117 0 l0 606 l44 -12 l-281 -384 l-12 0 l-275 384 l39 12 l0 -606 l-118 0 Z" /><glyph glyph-name="N" unicode="N" d="M77 0 l0 745 l95 0 l418 -577 l-45 -7 l0 584 l117 0 l0 -745 l-95 0 l-415 581 l43 8 l0 -589 l-118 0 Z" /><glyph glyph-name="Eng" unicode="&#x14a;" d="M467 -221 q-11 0 -24.5 1.5 q-13.5 1.5 -22.5 3.5 l0 101 q19 -3 38 -3 q42 0 65.5 20 q23.5 20 23.5 63 l0 114 l30 -94 l-412 580 l30 9 l0 -574 l-118 0 l0 745 l95 0 l404 -557 l-31 -10 l0 567 l117 0 l0 -780 q0 -59 -24.5 -101 q-24.5 -42 -68.5 -63.5 q-44 -21.5 -102 -21.5 Z" /><glyph glyph-name="O" unicode="O" d="M439 -12 q-81 0 -150.5 29 q-69.5 29 -122 81 q-52.5 52 -82 122 q-29.5 70 -29.5 153 q0 83 29.5 153.5 q29.5 70.5 81.5 122 q52 51.5 122 80 q70 28.5 151 28.5 q82 0 151.5 -28.5 q69.5 -28.5 122 -80.5 q52.5 -52 81.5 -122 q29 -70 29 -153 q0 -83 -29.5 -153 q-29.5 -70 -81.5 -122 q-52 -52 -122 -81 q-70 -29 -151 -29 ZM439 96 q58 0 106.5 21 q48.5 21 84.5 58.5 q36 37.5 56 88 q20 50.5 20 109.5 q0 59 -20 109 q-20 50 -56 88 q-36 38 -84.5 59 q-48.5 21 -106.5 21 q-58 0 -106.5 -21 q-48.5 -21 -84.5 -59 q-36 -38 -55.5 -88 q-19.5 -50 -19.5 -109 q0 -59 19.5 -109.5 q19.5 -50.5 55.5 -88 q36 -37.5 85 -58.5 q49 -21 106 -21 Z" /><glyph glyph-name="Ohorn" unicode="&#x1a0;" d="M439 -12 q-81 0 -150.5 29 q-69.5 29 -122 81 q-52.5 52 -82 122 q-29.5 70 -29.5 153 q0 83 29.5 153.5 q29.5 70.5 81.5 122 q52 51.5 122 80 q70 28.5 151 28.5 l207 0 q9 0 20 2.5 q11 2.5 19.5 13.5 q8.5 11 8.5 35 q0 18 -6 38 q-6 20 -15 40 l109 0 q10 -20 17 -41 q7 -21 7 -48 q0 -66 -29.5 -94.5 q-29.5 -28.5 -77.5 -28.5 l-63 0 l23 18 q50 -33 87 -82 q37 -49 57 -108.5 q20 -59.5 20 -128.5 q0 -83 -29.5 -153 q-29.5 -70 -81.5 -122 q-52 -52 -122 -81 q-70 -29 -151 -29 ZM439 96 q58 0 106.5 21 q48.5 21 84.5 58.5 q36 37.5 56 88 q20 50.5 20 109.5 q0 59 -20 109 q-20 50 -56 88 q-36 38 -84.5 59 q-48.5 21 -106.5 21 q-58 0 -106.5 -21 q-48.5 -21 -84.5 -59 q-36 -38 -55.5 -88 q-19.5 -50 -19.5 -109 q0 -59 19.5 -109.5 q19.5 -50.5 55.5 -88 q36 -37.5 85 -58.5 q49 -21 106 -21 Z" /><glyph glyph-name="Oslash" unicode="Ø" d="M66 0 l610 745 l136 0 l-610 -745 l-136 0 ZM439 -12 q-81 0 -150.5 29 q-69.5 29 -122 81 q-52.5 52 -82 122 q-29.5 70 -29.5 153 q0 83 29.5 153.5 q29.5 70.5 81.5 122 q52 51.5 122 80 q70 28.5 151 28.5 q82 0 151.5 -28.5 q69.5 -28.5 122 -80.5 q52.5 -52 81.5 -122 q29 -70 29 -153 q0 -83 -29.5 -153 q-29.5 -70 -81.5 -122 q-52 -52 -122 -81 q-70 -29 -151 -29 ZM439 96 q58 0 106.5 21 q48.5 21 84.5 58.5 q36 37.5 56 88 q20 50.5 20 109.5 q0 59 -20 109 q-20 50 -56 88 q-36 38 -84.5 59 q-48.5 21 -106.5 21 q-58 0 -106.5 -21 q-48.5 -21 -84.5 -59 q-36 -38 -55.5 -88 q-19.5 -50 -19.5 -109 q0 -59 19.5 -109.5 q19.5 -50.5 55.5 -88 q36 -37.5 85 -58.5 q49 -21 106 -21 Z" /><glyph glyph-name="OE" unicode="&#x152;" d="M439 -12 q-81 0 -150.5 29 q-69.5 29 -122 81 q-52.5 52 -82 122 q-29.5 70 -29.5 153 q0 83 29.5 153.5 q29.5 70.5 81.5 122 q52 51.5 122 80 q70 28.5 151 28.5 q60 0 114.5 -16.5 q54.5 -16.5 100.5 -48 q46 -31.5 80 -76.5 l-23 -23 l0 152 l490 0 l0 -105 l-373 0 l0 -214 l353 0 l0 -105 l-353 0 l0 -216 l373 0 l0 -105 l-490 0 l0 153 l23 -22 q-34 -45 -80 -77 q-46 -32 -100.5 -49 q-54.5 -17 -114.5 -17 ZM439 96 q58 0 106.5 21 q48.5 21 84.5 58.5 q36 37.5 56 88 q20 50.5 20 109.5 q0 59 -20 109 q-20 50 -56 88 q-36 38 -84.5 59 q-48.5 21 -106.5 21 q-58 0 -106.5 -21 q-48.5 -21 -84.5 -59 q-36 -38 -55.5 -88 q-19.5 -50 -19.5 -109 q0 -59 19.5 -109.5 q19.5 -50.5 55.5 -88 q36 -37.5 85 -58.5 q49 -21 106 -21 Z" /><glyph glyph-name="P" unicode="P" d="M77 0 l0 745 l271 0 q75 0 132.5 -27.5 q57.5 -27.5 89.5 -80 q32 -52.5 32 -125.5 q0 -72 -32.5 -124 q-32.5 -52 -89.5 -80 q-57 -28 -132 -28 l-153 0 l0 -280 l-118 0 ZM195 385 l156 0 q40 0 70 16 q30 16 47 44.5 q17 28.5 17 67.5 q0 39 -17 67.5 q-17 28.5 -47 44 q-30 15.5 -70 15.5 l-156 0 l0 -255 Z" /><glyph glyph-name="Thorn" unicode="Þ" d="M70 0 l0 745 l118 0 l0 -140 l153 0 q75 0 132.5 -27.5 q57.5 -27.5 89.5 -80 q32 -52.5 32 -125.5 q0 -72 -32.5 -124 q-32.5 -52 -89.5 -80 q-57 -28 -132 -28 l-153 0 l0 -140 l-118 0 ZM188 245 l156 0 q40 0 70 16 q30 16 47 44.5 q17 28.5 17 67.5 q0 39 -17 67.5 q-17 28.5 -47 44 q-30 15.5 -70 15.5 l-156 0 l0 -255 Z" /><glyph glyph-name="Q" unicode="Q" d="M439 -12 q-81 0 -150.5 29 q-69.5 29 -122 81 q-52.5 52 -82 122 q-29.5 70 -29.5 153 q0 83 29.5 153.5 q29.5 70.5 81.5 122 q52 51.5 122 80 q70 28.5 151 28.5 q82 0 151.5 -28.5 q69.5 -28.5 122 -80.5 q52.5 -52 81.5 -122 q29 -70 29 -153 q0 -83 -29.5 -153 q-29.5 -70 -81.5 -122 q-52 -52 -122 -81 q-70 -29 -151 -29 ZM439 96 q58 0 106.5 21 q48.5 21 84.5 58.5 q36 37.5 56 88 q20 50.5 20 109.5 q0 59 -20 109 q-20 50 -56 88 q-36 38 -84.5 59 q-48.5 21 -106.5 21 q-58 0 -106.5 -21 q-48.5 -21 -84.5 -59 q-36 -38 -55.5 -88 q-19.5 -50 -19.5 -109 q0 -59 19.5 -109.5 q19.5 -50.5 55.5 -88 q36 -37.5 85 -58.5 q49 -21 106 -21 ZM626 -90 l-244 388 l126 0 l245 -388 l-127 0 Z" /><glyph glyph-name="R" unicode="R" d="M77 0 l0 745 l271 0 q75 0 132 -27.5 q57 -27.5 89.5 -80 q32.5 -52.5 32.5 -125.5 q0 -77 -38.5 -132 q-38.5 -55 -103.5 -80 l172 -300 l-134 0 l-183 325 l77 -45 l-197 0 l0 -280 l-118 0 ZM195 385 l155 0 q41 0 71 16 q30 16 46.5 44.5 q16.5 28.5 16.5 67.5 q0 39 -16.5 67.5 q-16.5 28.5 -46.5 44 q-30 15.5 -71 15.5 l-155 0 l0 -255 Z" /><glyph glyph-name="S" unicode="S" d="M338 -12 q-70 0 -130 26.5 q-60 26.5 -102 72.5 q-42 46 -62 106 l100 42 q27 -69 79 -106 q52 -37 120 -37 q40 0 70 12.5 q30 12.5 46.5 35.5 q16.5 23 16.5 53 q0 41 -23 65 q-23 24 -68 38 l-140 44 q-84 26 -128 79.5 q-44 53.5 -44 125.5 q0 63 31 110.5 q31 47.5 85.5 74.5 q54.5 27 124.5 27 q67 0 122 -23.5 q55 -23.5 94.5 -64.5 q39.5 -41 57.5 -95 l-98 -43 q-22 59 -68.5 91 q-46.5 32 -107.5 32 q-37 0 -65 -12.5 q-28 -12.5 -43.5 -36 q-15.5 -23.5 -15.5 -54.5 q0 -36 23 -64 q23 -28 70 -42 l130 -41 q89 -27 134 -77.5 q45 -50.5 45 -125.5 q0 -62 -32.5 -110 q-32.5 -48 -89.5 -75.5 q-57 -27.5 -132 -27.5 Z" /><glyph glyph-name="T" unicode="T" d="M209 0 l0 640 l-198 0 l0 105 l510 0 l0 -105 l-195 0 l0 -640 l-117 0 Z" /><glyph glyph-name="Tbar" unicode="&#x166;" d="M100 323 l0 100 l333 0 l0 -100 l-333 0 ZM209 0 l0 640 l-198 0 l0 105 l510 0 l0 -105 l-195 0 l0 -640 l-117 0 Z" /><glyph glyph-name="U" unicode="U" d="M356 -12 q-83 0 -147.5 35 q-64.5 35 -101 96 q-36.5 61 -36.5 139 l0 487 l118 0 l0 -482 q0 -49 21.5 -87 q21.5 -38 59 -59 q37.5 -21 86.5 -21 q50 0 87.5 21 q37.5 21 59 59 q21.5 38 21.5 87 l0 482 l117 0 l0 -487 q0 -78 -36 -139 q-36 -61 -100.5 -96 q-64.5 -35 -148.5 -35 Z" /><glyph glyph-name="Uhorn" unicode="&#x1af;" d="M356 -12 q-83 0 -147.5 35 q-64.5 35 -101 96 q-36.5 61 -36.5 139 l0 487 l118 0 l0 -482 q0 -49 21.5 -87 q21.5 -38 59 -59 q37.5 -21 86.5 -21 q50 0 87.5 21 q37.5 21 59 59 q21.5 38 21.5 87 l0 482 l104 0 q14 0 29.5 8.5 q15.5 8.5 15.5 42.5 q0 18 -6 38 q-6 20 -15 40 l109 0 q10 -20 17 -41 q7 -21 7 -48 q0 -66 -36.5 -97 q-36.5 -31 -100.5 -31 l-7 0 l0 -399 q0 -78 -36 -139 q-36 -61 -100.5 -96 q-64.5 -35 -148.5 -35 Z" /><glyph glyph-name="V" unicode="V" d="M275 0 l-264 745 l127 0 l216 -636 l-25 0 l215 636 l127 0 l-264 -745 l-132 0 Z" /><glyph glyph-name="W" unicode="W" d="M216 0 l-205 745 l125 0 l166 -645 l-31 0 l172 645 l123 0 l172 -645 l-32 0 l167 645 l124 0 l-204 -745 l-133 0 l-173 635 l35 0 l-174 -635 l-132 0 Z" /><glyph glyph-name="X" unicode="X" d="M11 0 l243 377 l-239 368 l134 0 l200 -308 l-57 0 l198 308 l134 0 l-238 -368 l243 -377 l-134 0 l-203 316 l57 -1 l-205 -315 l-133 0 Z" /><glyph glyph-name="Y" unicode="Y" d="M266 0 l0 336 l-255 409 l133 0 l204 -331 l-47 0 l203 331 l133 0 l-254 -409 l0 -336 l-117 0 Z" /><glyph glyph-name="Z" unicode="Z" d="M17 0 l0 90 l382 550 l-360 0 l0 105 l511 0 l0 -89 l-382 -551 l391 0 l0 -105 l-542 0 Z" /><glyph glyph-name="a" unicode="a" d="M228 -12 q-55 0 -96.5 19.5 q-41.5 19.5 -64.5 54 q-23 34.5 -23 81.5 q0 44 19.5 79 q19.5 35 60.5 59 q41 24 103 34 l188 31 l0 -89 l-166 -29 q-45 -8 -66 -28.5 q-21 -20.5 -21 -52.5 q0 -31 23.5 -50.5 q23.5 -19.5 60.5 -19.5 q46 0 80.5 20 q34.5 20 53.5 53.5 q19 33.5 19 74.5 l0 139 q0 40 -29.5 65.5 q-29.5 25.5 -78.5 25.5 q-45 0 -78.5 -23.5 q-33.5 -23.5 -49.5 -60.5 l-94 47 q15 40 49 70.5 q34 30.5 79.5 47.5 q45.5 17 96.5 17 q64 0 113.5 -24 q49.5 -24 77 -66.5 q27.5 -42.5 27.5 -98.5 l0 -364 l-108 0 l0 98 l23 -3 q-19 -33 -48.5 -57 q-29.5 -24 -67 -37 q-37.5 -13 -83.5 -13 Z" /><glyph glyph-name="ae" unicode="æ" d="M228 -12 q-55 0 -96.5 19.5 q-41.5 19.5 -64.5 54 q-23 34.5 -23 81.5 q0 44 19.5 79 q19.5 35 60.5 59 q41 24 103 34 l172 28 l0 21 q0 40 -29.5 65.5 q-29.5 25.5 -78.5 25.5 q-45 0 -78.5 -23.5 q-33.5 -23.5 -49.5 -60.5 l-94 47 q15 40 49 70.5 q34 30.5 79.5 47.5 q45.5 17 96.5 17 q71 0 123.5 -30 q52.5 -30 76.5 -80 l-38 0 q35 51 90.5 80.5 q55.5 29.5 123.5 29.5 q61 0 109 -21 q48 -21 81 -57.5 q33 -36.5 50.5 -83.5 q17.5 -47 17.5 -100 q0 -13 -1 -27 q-1 -14 -4 -26 l-402 0 q3 -45 24.5 -79 q21.5 -34 56.5 -52.5 q35 -18.5 78 -18.5 q49 0 83.5 22 q34.5 22 54.5 57 l92 -45 q-16 -38 -49 -68.5 q-33 -30.5 -77.5 -48 q-44.5 -17.5 -94.5 -17.5 q-66 0 -119.5 26 q-53.5 26 -90.5 77 l24 23 l0 -114 l-99 0 l0 116 l21 -25 q-20 -32 -49 -55 q-29 -23 -66 -35.5 q-37 -12.5 -82 -12.5 ZM246 77 q46 0 80.5 20 q34.5 20 53.5 53.5 q19 33.5 19 74.5 l0 29 l-150 -26 q-45 -8 -66 -28.5 q-21 -20.5 -21 -52.5 q0 -31 23.5 -50.5 q23.5 -19.5 60.5 -19.5 ZM523 328 l285 0 q-1 39 -19.5 68 q-18.5 29 -49.5 45.5 q-31 16.5 -69 16.5 q-36 0 -67.5 -15.5 q-31.5 -15.5 -52 -44.5 q-20.5 -29 -27.5 -70 Z" /><glyph glyph-name="b" unicode="b" d="M355 -12 q-63 0 -114.5 26 q-51.5 26 -79.5 75 l13 21 l0 -110 l-108 0 l0 757 l113 0 l0 -328 l-18 26 q30 46 80 72 q50 26 114 26 q77 0 138.5 -37 q61.5 -37 97 -101 q35.5 -64 35.5 -144 q0 -80 -35.5 -144 q-35.5 -64 -96.5 -101.5 q-61 -37.5 -139 -37.5 ZM344 93 q48 0 85 23 q37 23 58.5 63.5 q21.5 40.5 21.5 91.5 q0 51 -21.5 91 q-21.5 40 -58.5 63 q-37 23 -85 23 q-47 0 -84.5 -23 q-37.5 -23 -59 -63 q-21.5 -40 -21.5 -91 q0 -51 21.5 -91.5 q21.5 -40.5 59 -63.5 q37.5 -23 84.5 -23 Z" /><glyph glyph-name="c" unicode="c" d="M323 -12 q-81 0 -143.5 37.5 q-62.5 37.5 -99 101.5 q-36.5 64 -36.5 145 q0 80 36 144 q36 64 99 100.5 q63 36.5 144 36.5 q55 0 103 -19.5 q48 -19.5 83.5 -53.5 q35.5 -34 52.5 -79 l-99 -46 q-17 42 -54.5 67.5 q-37.5 25.5 -85.5 25.5 q-46 0 -82.5 -22.5 q-36.5 -22.5 -57.5 -63 q-21 -40.5 -21 -91.5 q0 -51 21 -91.5 q21 -40.5 57.5 -63.5 q36.5 -23 82.5 -23 q49 0 85.5 25.5 q36.5 25.5 54.5 68.5 l99 -47 q-16 -43 -51.5 -77.5 q-35.5 -34.5 -83.5 -54.5 q-48 -20 -104 -20 Z" /><glyph glyph-name="d" unicode="d" d="M316 -12 q-78 0 -139.5 37.5 q-61.5 37.5 -97 101.5 q-35.5 64 -35.5 144 q0 80 36 144 q36 64 97 101 q61 37 138 37 q65 0 115 -26 q50 -26 79 -72 l-17 -26 l0 328 l112 0 l0 -757 l-107 0 l0 110 l13 -21 q-28 -49 -80 -75 q-52 -26 -114 -26 ZM327 93 q47 0 84.5 23 q37.5 23 59 63.5 q21.5 40.5 21.5 91.5 q0 51 -21.5 91 q-21.5 40 -59 63 q-37.5 23 -84.5 23 q-47 0 -85 -23 q-38 -23 -59 -63 q-21 -40 -21 -91 q0 -51 21 -91.5 q21 -40.5 58.5 -63.5 q37.5 -23 85.5 -23 Z" /><glyph glyph-name="dcroat" unicode="&#x111;" d="M403 595 l0 90 l290 0 l0 -90 l-290 0 ZM316 -12 q-78 0 -139.5 37.5 q-61.5 37.5 -97 101.5 q-35.5 64 -35.5 144 q0 80 36 144 q36 64 97 101 q61 37 138 37 q65 0 115 -26 q50 -26 79 -72 l-17 -26 l0 328 l112 0 l0 -757 l-107 0 l0 110 l13 -21 q-28 -49 -80 -75 q-52 -26 -114 -26 ZM327 93 q47 0 84.5 23 q37.5 23 59 63.5 q21.5 40.5 21.5 91.5 q0 51 -21.5 91 q-21.5 40 -59 63 q-37.5 23 -84.5 23 q-47 0 -85 -23 q-38 -23 -59 -63 q-21 -40 -21 -91 q0 -51 21 -91.5 q21 -40.5 58.5 -63.5 q37.5 -23 85.5 -23 Z" /><glyph glyph-name="eth" unicode="ð" d="M330 -12 q-59 0 -111 21 q-52 21 -91 58.5 q-39 37.5 -61.5 88.5 q-22.5 51 -22.5 112 q0 78 36.5 140.5 q36.5 62.5 99.5 98.5 q63 36 142 36 q35 0 68 -8.5 q33 -8.5 62 -27 q29 -18.5 53 -50.5 l-21 -42 q-1 51 -16 94 q-15 43 -41.5 77.5 q-26.5 34.5 -63 59 q-36.5 24.5 -78.5 37.5 q-42 13 -89 13 q-26 0 -53.5 -4.5 q-27.5 -4.5 -54.5 -13.5 l-16 93 q73 25 141 25 q75 0 137.5 -25.5 q62.5 -25.5 110.5 -70.5 q48 -45 81 -104.5 q33 -59.5 50 -128.5 q17 -69 17 -142 q0 -115 -37 -189.5 q-37 -74.5 -100 -111 q-63 -36.5 -142 -36.5 ZM327 93 q48 0 85 23 q37 23 58.5 62.5 q21.5 39.5 21.5 89.5 q0 48 -20.5 86.5 q-20.5 38.5 -57.5 61 q-37 22.5 -87 22.5 q-48 0 -85.5 -22.5 q-37.5 -22.5 -58.5 -61 q-21 -38.5 -21 -87.5 q0 -50 22 -89.5 q22 -39.5 59.5 -62 q37.5 -22.5 83.5 -22.5 ZM229 572 l0 59 l326 124 l0 -60 l-326 -123 Z" /><glyph glyph-name="e" unicode="e" d="M320 -12 q-81 0 -143.5 37.5 q-62.5 37.5 -97.5 102 q-35 64.5 -35 144.5 q0 82 35.5 145 q35.5 63 95.5 99.5 q60 36.5 136 36.5 q61 0 109 -21 q48 -21 81 -57.5 q33 -36.5 50.5 -83.5 q17.5 -47 17.5 -100 q0 -13 -1 -27 q-1 -14 -4 -26 l-431 0 l0 90 l367 0 l-54 -41 q10 49 -6.5 87.5 q-16.5 38.5 -50 61 q-33.5 22.5 -78.5 22.5 q-45 0 -80 -22.5 q-35 -22.5 -54 -64 q-19 -41.5 -15 -100.5 q-5 -55 15.5 -96 q20.5 -41 58 -64 q37.5 -23 85.5 -23 q49 0 83.5 22 q34.5 22 54.5 57 l92 -45 q-16 -38 -49.5 -68.5 q-33.5 -30.5 -80 -48 q-46.5 -17.5 -101.5 -17.5 Z" /><glyph glyph-name="uni0259" unicode="&#x259;" d="M303 -12 q-62 0 -109.5 21 q-47.5 21 -81 58 q-33.5 37 -51 84 q-17.5 47 -17.5 99 q0 14 1.5 27.5 q1.5 13.5 4.5 25.5 l431 0 l0 -90 l-367 0 l53 41 q-9 -48 7 -87 q16 -39 50.5 -61.5 q34.5 -22.5 78.5 -22.5 q44 0 79.5 22.5 q35.5 22.5 54.5 64.5 q19 42 15 100 q4 56 -16 97 q-20 41 -58 63.5 q-38 22.5 -85 22.5 q-49 0 -83.5 -22 q-34.5 -22 -55.5 -57 l-92 46 q17 38 50.5 68 q33.5 30 80 47.5 q46.5 17.5 101.5 17.5 q81 0 143 -37.5 q62 -37.5 97 -101.5 q35 -64 35 -145 q0 -80 -35 -144 q-35 -64 -95 -100.5 q-60 -36.5 -136 -36.5 Z" /><glyph glyph-name="f" unicode="f" d="M127 0 l0 439 l-100 0 l0 102 l100 0 l0 28 q0 61 25 102.5 q25 41.5 69.5 63.5 q44.5 22 102.5 22 q11 0 25 -1.5 q14 -1.5 23 -3.5 l0 -98 q-8 2 -18 2.5 q-10 0.5 -16 0.5 q-45 0 -72 -20.5 q-27 -20.5 -27 -67.5 l0 -28 l124 0 l0 -102 l-124 0 l0 -439 l-112 0 Z" /><glyph glyph-name="g" unicode="g" d="M327 -220 q-59 0 -109 19 q-50 19 -86 52.5 q-36 33.5 -54 78.5 l104 43 q14 -38 51.5 -63 q37.5 -25 92.5 -25 q43 0 77 16.5 q34 16.5 54 48 q20 31.5 20 75.5 l0 122 l20 -23 q-28 -52 -77.5 -79 q-49.5 -27 -111.5 -27 q-75 0 -135 35 q-60 35 -94.5 96 q-34.5 61 -34.5 137 q0 77 34.5 137 q34.5 60 93.5 95 q59 35 135 35 q62 0 110.5 -26.5 q48.5 -26.5 79.5 -76.5 l-15 -28 l0 119 l107 0 l0 -516 q0 -70 -33.5 -125.5 q-33.5 -55.5 -92.5 -87.5 q-59 -32 -136 -32 ZM321 123 q45 0 80 21.5 q35 21.5 55.5 58 q20.5 36.5 20.5 82.5 q0 46 -21 83 q-21 37 -56 58.5 q-35 21.5 -79 21.5 q-46 0 -82 -21.5 q-36 -21.5 -56.5 -58 q-20.5 -36.5 -20.5 -83.5 q0 -45 20.5 -82 q20.5 -37 56.5 -58.5 q36 -21.5 82 -21.5 Z" /><glyph glyph-name="h" unicode="h" d="M66 0 l0 757 l113 0 l0 -322 l-18 14 q20 51 64 77.5 q44 26.5 102 26.5 q60 0 106 -26 q46 -26 72 -72 q26 -46 26 -105 l0 -350 l-112 0 l0 319 q0 41 -15.5 69.5 q-15.5 28.5 -42.5 44 q-27 15.5 -62 15.5 q-34 0 -61.5 -15.5 q-27.5 -15.5 -43 -44.5 q-15.5 -29 -15.5 -69 l0 -319 l-113 0 Z" /><glyph glyph-name="hbar" unicode="&#x127;" d="M-22 595 l0 90 l290 0 l0 -90 l-290 0 ZM66 0 l0 757 l113 0 l0 -322 l-18 14 q20 51 64 77.5 q44 26.5 102 26.5 q60 0 106 -26 q46 -26 72 -72 q26 -46 26 -105 l0 -350 l-112 0 l0 319 q0 41 -15.5 69.5 q-15.5 28.5 -42.5 44 q-27 15.5 -62 15.5 q-34 0 -61.5 -15.5 q-27.5 -15.5 -43 -44.5 q-15.5 -29 -15.5 -69 l0 -319 l-113 0 Z" /><glyph glyph-name="i" unicode="i" d="M66 0 l0 541 l113 0 l0 -541 l-113 0 ZM66 615 l0 130 l113 0 l0 -130 l-113 0 Z" /><glyph glyph-name="dotlessi" unicode="&#x131;" d="M53 0 l0 541 l113 0 l0 -541 l-113 0 Z" /><glyph glyph-name="j" unicode="j" d="M-17 -221 q-11 0 -24.5 1.5 q-13.5 1.5 -22.5 3.5 l0 98 q19 -3 38 -3 q42 0 67 21.5 q25 21.5 25 64.5 l0 576 l113 0 l0 -576 q0 -59 -25 -101 q-25 -42 -69 -63.5 q-44 -21.5 -102 -21.5 ZM66 615 l0 130 l113 0 l0 -130 l-113 0 Z" /><glyph glyph-name="uni0237" unicode="&#x237;" d="M-17 -221 q-11 0 -24.5 1.5 q-13.5 1.5 -22.5 3.5 l0 98 q19 -3 38 -3 q42 0 67 21.5 q25 21.5 25 64.5 l0 576 l113 0 l0 -576 q0 -59 -25 -101 q-25 -42 -69 -63.5 q-44 -21.5 -102 -21.5 Z" /><glyph glyph-name="k" unicode="k" d="M66 0 l0 757 l113 0 l0 -507 l-44 11 l271 280 l141 0 l-204 -217 l213 -324 l-130 0 l-190 287 l67 9 l-160 -170 l36 75 l0 -201 l-113 0 Z" /><glyph glyph-name="kgreenlandic" unicode="&#x138;" d="M427 0 l-167 237 l4 93 l138 211 l128 0 l-169 -260 l195 -281 l-129 0 ZM66 0 l0 541 l113 0 l0 -541 l-113 0 ZM135 233 l0 102 l194 0 l0 -102 l-194 0 Z" /><glyph glyph-name="l" unicode="l" d="M66 0 l0 757 l113 0 l0 -757 l-113 0 Z" /><glyph glyph-name="ldot" unicode="&#x140;" d="M310 305 q-28 0 -48 19.5 q-20 19.5 -20 48.5 q0 28 20 47.5 q20 19.5 48 19.5 q28 0 47.5 -19.5 q19.5 -19.5 19.5 -47.5 q0 -29 -19.5 -48.5 q-19.5 -19.5 -47.5 -19.5 ZM66 0 l0 757 l113 0 l0 -757 l-113 0 Z" /><glyph glyph-name="lslash" unicode="&#x142;" d="M33 251 l0 113 l285 169 l0 -113 l-285 -169 ZM120 0 l0 757 l112 0 l0 -757 l-112 0 Z" /><glyph glyph-name="m" unicode="m" d="M66 0 l0 541 l108 0 l0 -117 l-14 18 q17 55 62 83 q45 28 103 28 q65 0 115.5 -34.5 q50.5 -34.5 67.5 -91.5 l-32 -3 q24 65 73.5 97 q49.5 32 113.5 32 q56 0 101.5 -26 q45.5 -26 72.5 -72 q27 -46 27 -105 l0 -350 l-113 0 l0 319 q0 41 -14.5 69.5 q-14.5 28.5 -40 44 q-25.5 15.5 -59.5 15.5 q-34 0 -60 -15.5 q-26 -15.5 -41 -44.5 q-15 -29 -15 -69 l0 -319 l-112 0 l0 319 q0 41 -14.5 69.5 q-14.5 28.5 -40 44 q-25.5 15.5 -60.5 15.5 q-34 0 -60 -15.5 q-26 -15.5 -40.5 -44.5 q-14.5 -29 -14.5 -69 l0 -319 l-113 0 Z" /><glyph glyph-name="n" unicode="n" d="M66 0 l0 541 l108 0 l0 -106 l-13 14 q20 51 64 77.5 q44 26.5 102 26.5 q60 0 106 -26 q46 -26 72 -72 q26 -46 26 -106 l0 -349 l-112 0 l0 319 q0 41 -15 69.5 q-15 28.5 -42.5 44 q-27.5 15.5 -62.5 15.5 q-35 0 -62.5 -15.5 q-27.5 -15.5 -42.5 -44.5 q-15 -29 -15 -69 l0 -319 l-113 0 Z" /><glyph glyph-name="eng" unicode="&#x14b;" d="M327 -221 q-11 0 -24.5 1.5 q-13.5 1.5 -22.5 3.5 l0 98 q19 -3 38 -3 q42 0 67 21.5 q25 21.5 25 64.5 l0 354 q0 41 -15 69.5 q-15 28.5 -42 44 q-27 15.5 -62 15.5 q-35 0 -62.5 -15.5 q-27.5 -15.5 -43 -44.5 q-15.5 -29 -15.5 -69 l0 -319 l-112 0 l0 541 l107 0 l0 -106 l-12 14 q19 51 63 77.5 q44 26.5 103 26.5 q59 0 105 -26 q46 -26 72.5 -72 q26.5 -46 26.5 -105 l0 -385 q0 -59 -25 -101 q-25 -42 -69 -63.5 q-44 -21.5 -102 -21.5 Z" /><glyph glyph-name="o" unicode="o" d="M327 -12 q-78 0 -142.5 37 q-64.5 37 -102.5 101 q-38 64 -38 145 q0 82 38 145.5 q38 63.5 102 100 q64 36.5 143 36.5 q80 0 143.5 -36.5 q63.5 -36.5 101 -100 q37.5 -63.5 37.5 -145.5 q0 -82 -38 -146 q-38 -64 -102 -100.5 q-64 -36.5 -142 -36.5 ZM327 93 q48 0 85 23 q37 23 58.5 63.5 q21.5 40.5 21.5 91.5 q0 51 -21.5 91 q-21.5 40 -58.5 63 q-37 23 -85 23 q-47 0 -84.5 -23 q-37.5 -23 -59 -63 q-21.5 -40 -21.5 -91 q0 -51 21.5 -91.5 q21.5 -40.5 59 -63.5 q37.5 -23 84.5 -23 Z" /><glyph glyph-name="ohorn" unicode="&#x1a1;" d="M327 -12 q-78 0 -142.5 37 q-64.5 37 -102.5 101 q-38 64 -38 145 q0 82 38 145.5 q38 63.5 102 100 q64 36.5 143 36.5 l109 0 q9 0 20.5 3 q11.5 3 20 14 q8.5 11 8.5 34 q0 19 -6.5 39 q-6.5 20 -14.5 39 l100 0 q9 -20 16 -41 q7 -21 7 -47 q0 -53 -27.5 -82.5 q-27.5 -29.5 -72.5 -37.5 l7 27 q53 -37 84 -96.5 q31 -59.5 31 -133.5 q0 -82 -38 -146 q-38 -64 -102 -100.5 q-64 -36.5 -142 -36.5 ZM327 93 q48 0 85 23 q37 23 58.5 63.5 q21.5 40.5 21.5 91.5 q0 51 -21.5 91 q-21.5 40 -58.5 63 q-37 23 -85 23 q-47 0 -84.5 -23 q-37.5 -23 -59 -63 q-21.5 -40 -21.5 -91 q0 -51 21.5 -91.5 q21.5 -40.5 59 -63.5 q37.5 -23 84.5 -23 Z" /><glyph glyph-name="oslash" unicode="ø" d="M25 0 l469 541 l135 0 l-469 -541 l-135 0 ZM327 -12 q-78 0 -142.5 37 q-64.5 37 -102.5 101 q-38 64 -38 145 q0 82 38 145.5 q38 63.5 102 100 q64 36.5 143 36.5 q80 0 143.5 -36.5 q63.5 -36.5 101 -100 q37.5 -63.5 37.5 -145.5 q0 -82 -38 -146 q-38 -64 -102 -100.5 q-64 -36.5 -142 -36.5 ZM327 93 q48 0 85 23 q37 23 58.5 63.5 q21.5 40.5 21.5 91.5 q0 51 -21.5 91 q-21.5 40 -58.5 63 q-37 23 -85 23 q-47 0 -84.5 -23 q-37.5 -23 -59 -63 q-21.5 -40 -21.5 -91 q0 -51 21.5 -91.5 q21.5 -40.5 59 -63.5 q37.5 -23 84.5 -23 Z" /><glyph glyph-name="oe" unicode="&#x153;" d="M327 -12 q-78 0 -142.5 37 q-64.5 37 -102.5 101 q-38 64 -38 145 q0 82 38 145.5 q38 63.5 102 100 q64 36.5 143 36.5 q53 0 99.5 -17 q46.5 -17 83.5 -47.5 q37 -30.5 60 -72.5 l-38 -1 q23 43 57.5 74 q34.5 31 79 47.5 q44.5 16.5 94.5 16.5 q61 0 109 -21 q48 -21 81 -57.5 q33 -36.5 50.5 -83.5 q17.5 -47 17.5 -100 q0 -13 -1 -27 q-1 -14 -4 -26 l-402 0 q3 -45 24.5 -79 q21.5 -34 56.5 -52.5 q35 -18.5 78 -18.5 q49 0 83.5 22 q34.5 22 54.5 57 l92 -45 q-16 -38 -49.5 -68.5 q-33.5 -30.5 -80 -48 q-46.5 -17.5 -101.5 -17.5 q-80 0 -142.5 38 q-62.5 38 -96.5 101 l38 0 q-24 -42 -61.5 -73.5 q-37.5 -31.5 -83.5 -48.5 q-46 -17 -99 -17 ZM327 93 q48 0 85 23 q37 23 58.5 63.5 q21.5 40.5 21.5 91.5 q0 51 -21.5 91 q-21.5 40 -58.5 63 q-37 23 -85 23 q-47 0 -84.5 -23 q-37.5 -23 -59 -63 q-21.5 -40 -21.5 -91 q0 -51 21.5 -91.5 q21.5 -40.5 59 -63.5 q37.5 -23 84.5 -23 ZM616 328 l285 0 q-1 39 -19.5 68 q-18.5 29 -49.5 45.5 q-31 16.5 -69 16.5 q-36 0 -67.5 -15.5 q-31.5 -15.5 -52 -44.5 q-20.5 -29 -27.5 -70 Z" /><glyph glyph-name="p" unicode="p" d="M66 -200 l0 741 l108 0 l0 -112 l-13 26 q30 46 80 72 q50 26 114 26 q77 0 138.5 -37 q61.5 -37 97 -101 q35.5 -64 35.5 -144 q0 -80 -35.5 -144 q-35.5 -64 -96.5 -101.5 q-61 -37.5 -139 -37.5 q-63 0 -114.5 26 q-51.5 26 -79.5 75 l18 21 l0 -310 l-113 0 ZM344 93 q48 0 85 23 q37 23 58.5 63.5 q21.5 40.5 21.5 91.5 q0 51 -21.5 91 q-21.5 40 -58.5 63 q-37 23 -85 23 q-47 0 -84.5 -23 q-37.5 -23 -59 -63 q-21.5 -40 -21.5 -91 q0 -51 21.5 -91.5 q21.5 -40.5 59 -63.5 q37.5 -23 84.5 -23 Z" /><glyph glyph-name="thorn" unicode="þ" d="M66 -200 l0 945 l108 0 l0 -316 l-13 26 q30 46 80 72 q50 26 114 26 q77 0 138.5 -37 q61.5 -37 97 -101 q35.5 -64 35.5 -144 q0 -80 -35.5 -144 q-35.5 -64 -96.5 -101.5 q-61 -37.5 -139 -37.5 q-63 0 -114.5 26 q-51.5 26 -79.5 75 l18 21 l0 -310 l-113 0 ZM344 93 q48 0 85 23 q37 23 58.5 63.5 q21.5 40.5 21.5 91.5 q0 51 -21.5 91 q-21.5 40 -58.5 63 q-37 23 -85 23 q-47 0 -84.5 -23 q-37.5 -23 -59 -63 q-21.5 -40 -21.5 -91 q0 -51 21.5 -91.5 q21.5 -40.5 59 -63.5 q37.5 -23 84.5 -23 Z" /><glyph glyph-name="q" unicode="q" d="M492 -200 l0 310 l18 -21 q-28 -49 -80 -75 q-52 -26 -114 -26 q-78 0 -139.5 37.5 q-61.5 37.5 -97 101.5 q-35.5 64 -35.5 144 q0 80 36 144 q36 64 97 101 q61 37 138 37 q65 0 115 -26 q50 -26 79 -72 l-12 -26 l0 112 l107 0 l0 -741 l-112 0 ZM327 93 q47 0 84.5 23 q37.5 23 59 63.5 q21.5 40.5 21.5 91.5 q0 51 -21.5 91 q-21.5 40 -59 63 q-37.5 23 -84.5 23 q-47 0 -85 -23 q-38 -23 -59 -63 q-21 -40 -21 -91 q0 -51 21 -91.5 q21 -40.5 58.5 -63.5 q37.5 -23 85.5 -23 Z" /><glyph glyph-name="r" unicode="r" d="M66 0 l0 541 l108 0 l0 -109 l-10 16 q18 53 58 76.5 q40 23.5 96 23.5 l33 0 l0 -103 l-47 0 q-56 0 -90.5 -34.5 q-34.5 -34.5 -34.5 -98.5 l0 -312 l-113 0 Z" /><glyph glyph-name="s" unicode="s" d="M266 -12 q-83 0 -145.5 41 q-62.5 41 -87.5 110 l87 41 q22 -46 60.5 -73 q38.5 -27 85.5 -27 q40 0 65 18 q25 18 25 49 q0 20 -11 32.5 q-11 12.5 -27.5 20.5 q-16.5 8 -33.5 12 l-85 24 q-70 20 -104.5 60.5 q-34.5 40.5 -34.5 94.5 q0 49 25 85.5 q25 36.5 69 56.5 q44 20 99 20 q74 0 132 -36.5 q58 -36.5 82 -101.5 l-87 -41 q-16 39 -50.5 62 q-34.5 23 -77.5 23 q-37 0 -59 -17.5 q-22 -17.5 -22 -45.5 q0 -19 10 -31.5 q10 -12.5 26 -20 q16 -7.5 33 -12.5 l88 -26 q67 -19 103 -59.5 q36 -40.5 36 -96.5 q0 -48 -25.5 -84.5 q-25.5 -36.5 -70.5 -57 q-45 -20.5 -105 -20.5 Z" /><glyph glyph-name="germandbls" unicode="ß" d="M77 -155 l0 670 q0 75 32 129.5 q32 54.5 87 83.5 q55 29 126 29 q70 0 122 -25.5 q52 -25.5 81 -71.5 q29 -46 29 -107 q0 -58 -30 -104 q-30 -46 -85 -64 l-6 31 q79 -27 115.5 -73.5 q36.5 -46.5 36.5 -118.5 q0 -68 -30 -118.5 q-30 -50.5 -85 -78 q-55 -27.5 -131 -27.5 l-64 0 l0 100 l59 0 q60 0 96.5 34 q36.5 34 36.5 90 q0 55 -36 88 q-36 33 -97 33 l-59 0 l0 100 l51 0 q33 0 57.5 14 q24.5 14 39 38 q14.5 24 14.5 55 q0 31 -14.5 54.5 q-14.5 23.5 -40.5 37 q-26 13.5 -61 13.5 q-38 0 -68 -17 q-30 -17 -46.5 -48.5 q-16.5 -31.5 -16.5 -76.5 l0 -670 l-113 0 Z" /><glyph glyph-name="t" unicode="t" d="M300 -6 q-85 0 -132 48 q-47 48 -47 135 l0 262 l-95 0 l0 102 l15 0 q38 0 59 22 q21 22 21 60 l0 42 l113 0 l0 -124 l123 0 l0 -102 l-123 0 l0 -257 q0 -28 9 -47.5 q9 -19.5 29 -30 q20 -10.5 52 -10.5 q8 0 18 1 q10 1 19 2 l0 -97 q-14 -2 -31 -4 q-17 -2 -30 -2 Z" /><glyph glyph-name="tbar" unicode="&#x167;" d="M12 220 l0 102 l331 0 l0 -102 l-331 0 ZM300 -6 q-85 0 -132 48 q-47 48 -47 135 l0 262 l-95 0 l0 102 l15 0 q38 0 59 22 q21 22 21 60 l0 42 l113 0 l0 -124 l123 0 l0 -102 l-123 0 l0 -257 q0 -28 9 -47.5 q9 -19.5 29 -30 q20 -10.5 52 -10.5 q8 0 18 1 q10 1 19 2 l0 -97 q-14 -2 -31 -4 q-17 -2 -30 -2 Z" /><glyph glyph-name="u" unicode="u" d="M259 -12 q-61 0 -107 27.5 q-46 27.5 -71.5 77 q-25.5 49.5 -25.5 114.5 l0 334 l113 0 l0 -324 q0 -37 15 -65 q15 -28 42 -43.5 q27 -15.5 62 -15.5 q36 0 63 16 q27 16 42.5 45 q15.5 29 15.5 68 l0 319 l112 0 l0 -541 l-107 0 l0 106 l12 -14 q-19 -50 -63 -77 q-44 -27 -103 -27 Z" /><glyph glyph-name="uhorn" unicode="&#x1b0;" d="M259 -12 q-61 0 -107 27.5 q-46 27.5 -71.5 77 q-25.5 49.5 -25.5 114.5 l0 334 l113 0 l0 -324 q0 -37 15 -65 q15 -28 42 -43.5 q27 -15.5 62 -15.5 q36 0 63 16 q27 16 42.5 45 q15.5 29 15.5 68 l0 319 l74 0 q16 0 31 9.5 q15 9.5 15 41.5 q0 19 -6.5 39 q-6.5 20 -14.5 39 l100 0 q9 -20 16 -41 q7 -21 7 -47 q0 -66 -40.5 -95 q-40.5 -29 -104.5 -27 l35 47 l0 -507 l-107 0 l0 66 q-23 -38 -63 -58 q-40 -20 -91 -20 Z" /><glyph glyph-name="v" unicode="v" d="M223 0 l-212 541 l123 0 l163 -441 l-45 0 l163 441 l124 0 l-213 -541 l-103 0 Z" /><glyph glyph-name="w" unicode="w" d="M197 0 l-186 541 l120 0 l142 -431 l-42 0 l145 431 l103 0 l144 -431 l-42 0 l143 431 l120 0 l-187 -541 l-102 0 l-146 441 l37 0 l-146 -441 l-103 0 Z" /><glyph glyph-name="x" unicode="x" d="M12 0 l189 271 l-189 270 l133 0 l155 -226 l-64 0 l155 226 l133 0 l-190 -270 l189 -271 l-133 0 l-153 227 l62 0 l-154 -227 l-133 0 Z" /><glyph glyph-name="y" unicode="y" d="M114 -220 q-20 0 -39.5 3.5 q-19.5 3.5 -35.5 10.5 l0 97 q12 -3 29 -5.5 q17 -2.5 33 -2.5 q47 0 69.5 20.5 q22.5 20.5 40.5 62.5 l36 82 l-2 -95 l-234 588 l121 0 l173 -451 l-41 0 l172 451 l122 0 l-239 -600 q-19 -48 -47.5 -84.5 q-28.5 -36.5 -67 -56.5 q-38.5 -20 -90.5 -20 Z" /><glyph glyph-name="z" unicode="z" d="M17 0 l0 93 l318 385 l18 -39 l-321 0 l0 102 l421 0 l0 -92 l-314 -386 l-18 40 l333 0 l0 -103 l-437 0 Z" /><glyph glyph-name="fi" unicode="&#xfb01;" d="M127 0 l0 439 l-100 0 l0 102 l100 0 l0 28 q0 61 25 102.5 q25 41.5 69.5 63.5 q44.5 22 102.5 22 q11 0 25 -1.5 q14 -1.5 23 -3.5 l0 -98 q-8 2 -18 2.5 q-10 0.5 -16 0.5 q-45 0 -72 -20.5 q-27 -20.5 -27 -67.5 l0 -28 l259 0 l0 -102 l-259 0 l0 -439 l-112 0 ZM445 0 l0 541 l112 0 l0 -541 l-112 0 Z" /><glyph glyph-name="fl" unicode="&#xfb02;" d="M127 0 l0 439 l-100 0 l0 102 l100 0 l0 28 q0 61 25 102.5 q25 41.5 69.5 63.5 q44.5 22 102.5 22 q11 0 25 -1.5 q14 -1.5 23 -3.5 l0 -98 q-8 2 -18 2.5 q-10 0.5 -16 0.5 q-45 0 -72 -20.5 q-27 -20.5 -27 -67.5 l0 -28 l259 0 l0 -102 l-259 0 l0 -439 l-112 0 ZM468 0 l0 757 l112 0 l0 -757 l-112 0 Z" /><glyph glyph-name="ordfeminine" unicode="ª" d="M176 357 q-60 0 -96 30 q-36 30 -36 80 q0 48 33.5 79.5 q33.5 31.5 98.5 42.5 l124 20 l0 -72 l-106 -18 q-26 -5 -38.5 -16.5 q-12.5 -11.5 -12.5 -32.5 q0 -18 14 -29.5 q14 -11.5 36 -11.5 q28 0 49.5 12 q21.5 12 33.5 33 q12 21 12 46 l0 99 q0 24 -18.5 40 q-18.5 16 -49.5 16 q-29 0 -51.5 -16.5 q-22.5 -16.5 -32.5 -40.5 l-77 37 q17 46 63 73 q46 27 102 27 q70 0 114.5 -38 q44.5 -38 44.5 -98 l0 -253 l-89 0 l0 64 l21 1 q-23 -36 -57 -55 q-34 -19 -82 -19 Z" /><glyph glyph-name="ordmasculine" unicode="º" d="M247 357 q-56 0 -102 26 q-46 26 -73.5 70.5 q-27.5 44.5 -27.5 102.5 q0 58 27.5 103 q27.5 45 73.5 70.5 q46 25.5 102 25.5 q56 0 101.5 -25.5 q45.5 -25.5 72.5 -70.5 q27 -45 27 -103 q0 -58 -27 -102.5 q-27 -44.5 -73 -70.5 q-46 -26 -101 -26 ZM247 444 q30 0 53 14.5 q23 14.5 36.5 40 q13.5 25.5 13.5 57.5 q0 33 -13.5 58 q-13.5 25 -36.5 40 q-23 15 -53 15 q-30 0 -54 -15 q-24 -15 -37 -40 q-13 -25 -13 -58 q0 -32 13 -57.5 q13 -25.5 37 -40 q24 -14.5 54 -14.5 Z" /><glyph glyph-name="uni0394" unicode="&#x394;" d="M11 0 l0 105 l226 640 l146 0 l225 -640 l0 -105 l-597 0 ZM120 56 l-35 49 l449 0 l-35 -49 l-206 606 l33 0 l-206 -606 Z" /><glyph glyph-name="uni03A9" unicode="&#x3a9;" d="M55 0 l0 105 l176 0 l-24 -21 q-69 47 -110.5 122.5 q-41.5 75.5 -41.5 166.5 q0 83 29.5 153.5 q29.5 70.5 81.5 122 q52 51.5 122 80 q70 28.5 151 28.5 q82 0 151.5 -28.5 q69.5 -28.5 122 -80 q52.5 -51.5 81.5 -122 q29 -70.5 29 -153.5 q0 -91 -41 -166.5 q-41 -75.5 -110 -122.5 l-25 21 l176 0 l0 -105 l-305 0 l0 105 q56 17 98 55.5 q42 38.5 66 93.5 q24 55 24 119 q0 59 -20 109 q-20 50 -56 88 q-36 38 -84.5 59 q-48.5 21 -106.5 21 q-58 0 -106.5 -21 q-48.5 -21 -84.5 -59 q-36 -38 -55.5 -88 q-19.5 -50 -19.5 -109 q0 -64 23.5 -119 q23.5 -55 66 -93.5 q42.5 -38.5 98.5 -55.5 l0 -105 l-306 0 Z" /><glyph glyph-name="pi" unicode="&#x3c0;" d="M121 0 l0 439 l-95 0 l0 102 l619 0 l0 -102 l-94 0 l0 -439 l-113 0 l0 439 l-205 0 l0 -439 l-112 0 Z" /><glyph glyph-name="zero" unicode="0" d="M359 -12 q-89 0 -156 48.5 q-67 48.5 -104.5 135 q-37.5 86.5 -37.5 201.5 q0 116 37.5 202 q37.5 86 104 134 q66.5 48 155.5 48 q89 0 155.5 -48 q66.5 -48 104 -134.5 q37.5 -86.5 37.5 -201.5 q0 -115 -37 -201.5 q-37 -86.5 -103.5 -135 q-66.5 -48.5 -155.5 -48.5 ZM359 96 q55 0 95 34 q40 34 62 96 q22 62 22 147 q0 85 -22 147 q-22 62 -62 96 q-40 34 -96 34 q-55 0 -95 -34 q-40 -34 -62 -96 q-22 -62 -22 -147 q0 -84 22 -146.5 q22 -62.5 62.5 -96.5 q40.5 -34 95.5 -34 Z" /><glyph glyph-name="one" unicode="1" d="M176 0 l0 645 l-143 0 l0 100 l260 0 l0 -745 l-117 0 Z" /><glyph glyph-name="two" unicode="2" d="M50 0 l0 85 l204 218 q60 64 94.5 103.5 q34.5 39.5 50 69.5 q15.5 30 15.5 63 q0 54 -33 83.5 q-33 29.5 -85 29.5 q-54 0 -93 -30.5 q-39 -30.5 -54 -88.5 l-104 30 q12 59 48 102.5 q36 43.5 88.5 67.5 q52.5 24 113.5 24 q71 0 124 -26.5 q53 -26.5 82.5 -73.5 q29.5 -47 29.5 -109 q0 -41 -15.5 -79.5 q-15.5 -38.5 -47.5 -81 q-32 -42.5 -82 -95.5 l-180 -192 l339 0 l0 -100 l-495 0 Z" /><glyph glyph-name="three" unicode="3" d="M293 -12 q-60 0 -112.5 22 q-52.5 22 -90 62 q-37.5 40 -53.5 94 l100 38 q20 -53 61 -82 q41 -29 95 -29 q44 0 76.5 17 q32.5 17 51 48 q18.5 31 18.5 75 q0 43 -18.5 74 q-18.5 31 -51 47 q-32.5 16 -76.5 16 q-18 0 -36.5 -3 q-18.5 -3 -32.5 -8 l-26 55 l196 231 l-317 0 l0 100 l449 0 l0 -95 l-192 -230 l-3 38 q67 -1 118 -29.5 q51 -28.5 79.5 -78 q28.5 -49.5 28.5 -114.5 q0 -70 -34 -126.5 q-34 -56.5 -93.5 -89 q-59.5 -32.5 -136.5 -32.5 Z" /><glyph glyph-name="four" unicode="4" d="M394 0 l0 168 l-355 0 l0 98 l350 479 l117 0 l0 -479 l103 0 l0 -98 l-103 0 l0 -168 l-112 0 ZM126 223 l-19 43 l287 0 l0 385 l32 -10 l-300 -418 Z" /><glyph glyph-name="five" unicode="5" d="M299 -12 q-59 0 -111 21.5 q-52 21.5 -90 60.5 q-38 39 -54 94 l99 38 q19 -53 62 -81 q43 -28 94 -28 q42 0 74 19 q32 19 50.5 52 q18.5 33 18.5 75 q0 43 -18.5 75.5 q-18.5 32.5 -50.5 51 q-32 18.5 -74 18.5 q-42 0 -77 -19 q-35 -19 -51 -51 l-95 21 l58 410 l397 0 l0 -100 l-351 0 l45 49 l-43 -314 l-37 25 q30 42 73 61 q43 19 98 19 q73 0 127.5 -32.5 q54.5 -32.5 85 -88 q30.5 -55.5 30.5 -125.5 q0 -71 -34 -128 q-34 -57 -92.5 -90 q-58.5 -33 -133.5 -33 Z" /><glyph glyph-name="six" unicode="6" d="M301 -12 q-73 0 -130 32 q-57 32 -89.5 88 q-32.5 56 -32.5 127 q0 37 8 74 q8 37 28.5 77 q20.5 40 55.5 86 l208 273 l141 0 l-255 -330 l-20 13 q14 16 30.5 25 q16.5 9 35 13 q18.5 4 39.5 4 q67 0 120 -31 q53 -31 83.5 -84 q30.5 -53 30.5 -122 q0 -70 -33 -125.5 q-33 -55.5 -89.5 -87.5 q-56.5 -32 -130.5 -32 ZM301 93 q39 0 69 18 q30 18 48 49.5 q18 31.5 18 71.5 q0 41 -17.5 72 q-17.5 31 -48 48.5 q-30.5 17.5 -69.5 17.5 q-38 0 -68.5 -17.5 q-30.5 -17.5 -48.5 -48.5 q-18 -31 -18 -72 q0 -40 18 -71.5 q18 -31.5 48.5 -49.5 q30.5 -18 68.5 -18 Z" /><glyph glyph-name="seven" unicode="7" d="M75 0 l318 645 l-358 0 l0 100 l481 0 l0 -100 l-313 -645 l-128 0 Z" /><glyph glyph-name="eight" unicode="8" d="M315 -12 q-78 0 -136.5 30.5 q-58.5 30.5 -90.5 82 q-32 51.5 -32 114.5 q0 72 39.5 124.5 q39.5 52.5 111.5 76.5 l-5 -30 q-53 20 -83.5 67.5 q-30.5 47.5 -30.5 104.5 q0 57 29.5 102 q29.5 45 81 71 q51.5 26 116.5 26 q66 0 117 -25.5 q51 -25.5 80.5 -70.5 q29.5 -45 29.5 -103 q0 -59 -30.5 -105.5 q-30.5 -46.5 -82.5 -66.5 l-5 30 q72 -25 112 -77 q40 -52 40 -124 q0 -63 -32.5 -114.5 q-32.5 -51.5 -91.5 -82 q-59 -30.5 -137 -30.5 ZM315 88 q43 0 75 16.5 q32 16.5 50 45.5 q18 29 18 68 q0 39 -18 68 q-18 29 -50 45 q-32 16 -75 16 q-42 0 -74 -16 q-32 -16 -50 -45 q-18 -29 -18 -68 q0 -39 18 -68 q18 -29 50 -45.5 q32 -16.5 74 -16.5 ZM315 447 q32 0 56.5 13.5 q24.5 13.5 38.5 37.5 q14 24 14 54 q0 31 -14 54.5 q-14 23.5 -38.5 37 q-24.5 13.5 -56.5 13.5 q-31 0 -56 -13.5 q-25 -13.5 -39 -37 q-14 -23.5 -14 -54.5 q0 -30 14 -54 q14 -24 39 -37.5 q25 -13.5 56 -13.5 Z" /><glyph glyph-name="nine" unicode="9" d="M111 0 l255 330 l20 -13 q-14 -15 -30.5 -24 q-16.5 -9 -35 -13 q-18.5 -4 -39.5 -4 q-67 0 -120 30.5 q-53 30.5 -83.5 84 q-30.5 53.5 -30.5 121.5 q0 71 33 126 q33 55 90 87 q57 32 130 32 q74 0 130.5 -32 q56.5 -32 89 -87.5 q32.5 -55.5 32.5 -126.5 q0 -38 -8 -75 q-8 -37 -28 -76.5 q-20 -39.5 -56 -86.5 l-208 -273 l-141 0 ZM300 375 q39 0 69 18 q30 18 48 49 q18 31 18 71 q0 41 -18 72.5 q-18 31.5 -48.5 49 q-30.5 17.5 -68.5 17.5 q-38 0 -68.5 -17.5 q-30.5 -17.5 -48.5 -49 q-18 -31.5 -18 -72.5 q0 -40 17.5 -71 q17.5 -31 48.5 -49 q31 -18 69 -18 Z" /><glyph glyph-name="fraction" unicode="&#x2044;" d="M-165 0 l446 745 l90 0 l-446 -745 l-90 0 Z" /><glyph glyph-name="uni2080" unicode="&#x2080;" d="M245 -8 q-62 0 -109.5 34 q-47.5 34 -73.5 94.5 q-26 60.5 -26 140.5 q0 80 26 141 q26 61 73 94.5 q47 33.5 109 33.5 q64 0 111 -33.5 q47 -33.5 73 -94.5 q26 -61 26 -141 q0 -80 -26 -141 q-26 -61 -73 -94.5 q-47 -33.5 -110 -33.5 ZM245 81 q35 0 60 22 q25 22 38.5 62.5 q13.5 40.5 13.5 95.5 q0 56 -13.5 96 q-13.5 40 -38.5 62 q-25 22 -61 22 q-33 0 -58 -22 q-25 -22 -38.5 -61.5 q-13.5 -39.5 -13.5 -96.5 q0 -55 13.5 -95.5 q13.5 -40.5 38.5 -62.5 q25 -22 59 -22 Z" /><glyph glyph-name="uni2081" unicode="&#x2081;" d="M118 0 l0 438 l-100 0 l0 84 l198 0 l0 -522 l-98 0 Z" /><glyph glyph-name="uni2082" unicode="&#x2082;" d="M29 0 l0 74 l141 149 q39 40 62 66 q23 26 33 45 q10 19 10 39 q0 32 -20.5 50.5 q-20.5 18.5 -51.5 18.5 q-33 0 -57 -18.5 q-24 -18.5 -35 -54.5 l-86 26 q9 42 35.5 72.5 q26.5 30.5 64 46.5 q37.5 16 78.5 16 q51 0 89 -18.5 q38 -18.5 59.5 -51.5 q21.5 -33 21.5 -76 q0 -47 -25.5 -87 q-25.5 -40 -69.5 -86 l-122 -128 l224 0 l0 -83 l-351 0 Z" /><glyph glyph-name="uni2083" unicode="&#x2083;" d="M206 -8 q-43 0 -81 16 q-38 16 -65 45 q-27 29 -37 67 l85 31 q13 -34 38.5 -52.5 q25.5 -18.5 59.5 -18.5 q41 0 66 23 q25 23 25 64 q0 39 -24.5 61.5 q-24.5 22.5 -66.5 22.5 q-31 0 -55 -11 l-22 47 l135 152 l-211 0 l0 83 l320 0 l0 -78 l-135 -156 l1 36 q47 -1 82 -20.5 q35 -19.5 54.5 -54 q19.5 -34.5 19.5 -80.5 q0 -50 -24.5 -90.5 q-24.5 -40.5 -67.5 -63.5 q-43 -23 -97 -23 Z" /><glyph glyph-name="uni2084" unicode="&#x2084;" d="M270 0 l0 115 l-238 0 l0 82 l232 325 l102 0 l0 -326 l77 0 l0 -81 l-77 0 l0 -115 l-96 0 ZM103 161 l-17 35 l184 0 l0 249 l25 -8 l-192 -276 Z" /><glyph glyph-name="uni2085" unicode="&#x2085;" d="M211 -8 q-40 0 -77.5 15 q-37.5 15 -65 43 q-27.5 28 -37.5 68 l85 30 q12 -34 38 -51 q26 -17 57 -17 q39 0 64 25 q25 25 25 65 q0 26 -11.5 46 q-11.5 20 -31 31.5 q-19.5 11.5 -46.5 11.5 q-25 0 -47.5 -11.5 q-22.5 -11.5 -31.5 -34.5 l-80 19 l41 290 l286 0 l0 -83 l-247 0 l38 43 l-30 -218 l-29 23 q20 29 48.5 42 q28.5 13 68.5 13 q52 0 90 -22.5 q38 -22.5 59 -61 q21 -38.5 21 -88.5 q0 -51 -24.5 -91 q-24.5 -40 -66.5 -63.5 q-42 -23.5 -96 -23.5 Z" /><glyph glyph-name="uni2086" unicode="&#x2086;" d="M211 -8 q-53 0 -94.5 22.5 q-41.5 22.5 -64.5 61.5 q-23 39 -23 89 q0 41 14.5 80 q14.5 39 51.5 87 l146 190 l117 0 l-176 -226 l-16 17 q15 11 29.5 15 q14.5 4 31.5 4 q48 0 85 -21.5 q37 -21.5 58.5 -59 q21.5 -37.5 21.5 -84.5 q0 -50 -23.5 -90 q-23.5 -40 -64 -62.5 q-40.5 -22.5 -93.5 -22.5 ZM211 80 q35 0 59 24 q24 24 24 62 q0 38 -24 61.5 q-24 23.5 -59 23.5 q-35 0 -59.5 -23.5 q-24.5 -23.5 -24.5 -61.5 q0 -38 24.5 -62 q24.5 -24 59.5 -24 Z" /><glyph glyph-name="uni2087" unicode="&#x2087;" d="M49 0 l216 439 l-245 0 l0 83 l347 0 l0 -83 l-210 -439 l-108 0 Z" /><glyph glyph-name="uni2088" unicode="&#x2088;" d="M224 -8 q-56 0 -98 21.5 q-42 21.5 -64.5 57.5 q-22.5 36 -22.5 80 q0 51 27.5 86 q27.5 35 78.5 52 l-6 -24 q-37 12 -58.5 46.5 q-21.5 34.5 -21.5 75.5 q0 42 21.5 74 q21.5 32 58.5 50.5 q37 18.5 85 18.5 q48 0 85.5 -18.5 q37.5 -18.5 59 -50.5 q21.5 -32 21.5 -74 q0 -41 -21.5 -75.5 q-21.5 -34.5 -58.5 -46.5 l-5 25 q52 -19 79 -54.5 q27 -35.5 27 -85.5 q0 -43 -23 -79 q-23 -36 -64.5 -57.5 q-41.5 -21.5 -99.5 -21.5 ZM224 74 q40 0 64.5 22 q24.5 22 24.5 58 q0 35 -24.5 56.5 q-24.5 21.5 -64.5 21.5 q-39 0 -63 -21.5 q-24 -21.5 -24 -56.5 q0 -36 24.5 -58 q24.5 -22 62.5 -22 ZM224 315 q31 0 49.5 19 q18.5 19 18.5 47 q0 29 -19 47.5 q-19 18.5 -49 18.5 q-29 0 -48 -18.5 q-19 -18.5 -19 -47.5 q0 -28 19 -47 q19 -19 48 -19 Z" /><glyph glyph-name="uni2089" unicode="&#x2089;" d="M63 0 l176 226 l16 -17 q-17 -11 -32 -15 q-15 -4 -34 -4 q-46 0 -82 21.5 q-36 21.5 -57 59 q-21 37.5 -21 84.5 q0 50 23 89.5 q23 39.5 64.5 62.5 q41.5 23 94.5 23 q53 0 94 -22.5 q41 -22.5 64 -61.5 q23 -39 23 -89 q0 -38 -13 -77 q-13 -39 -53 -90 l-146 -190 l-117 0 ZM211 271 q35 0 59 24 q24 24 24 61 q0 38 -24 62 q-24 24 -59 24 q-35 0 -59.5 -24 q-24.5 -24 -24.5 -62 q0 -37 24.5 -61 q24.5 -24 59.5 -24 Z" /><glyph glyph-name="space" unicode=" " d="" /><glyph glyph-name="uni00A0" unicode=" " d="" /><glyph glyph-name="uni2002" unicode="&#x2002;" d="" /><glyph glyph-name="uni2003" unicode="&#x2003;" d="" /><glyph glyph-name="uni2007" unicode="&#x2007;" d="" /><glyph glyph-name="uni2008" unicode="&#x2008;" d="" /><glyph glyph-name="uni2009" unicode="&#x2009;" d="" /><glyph glyph-name="uni200A" unicode="&#x200a;" d="" /><glyph glyph-name="uni200B" unicode="&#x200b;" d="" /><glyph glyph-name="CR" unicode="" d="" /><glyph glyph-name="period" unicode="." d="M116 0 l0 130 l115 0 l0 -130 l-115 0 Z" /><glyph glyph-name="comma" unicode="," d="M95 -147 l0 55 q33 8 51 30.5 q18 22.5 22 61.5 l-53 0 l0 130 l115 0 l0 -85 q0 -80 -34 -129 q-34 -49 -101 -63 Z" /><glyph glyph-name="colon" unicode=":" d="M116 0 l0 130 l115 0 l0 -130 l-115 0 ZM116 411 l0 130 l115 0 l0 -130 l-115 0 Z" /><glyph glyph-name="semicolon" unicode=";" d="M116 -147 l0 52 q33 8 52 32 q19 24 23 63 l-55 0 l0 130 l115 0 l0 -85 q0 -80 -34 -129 q-34 -49 -101 -63 ZM136 411 l0 130 l115 0 l0 -130 l-115 0 Z" /><glyph glyph-name="exclam" unicode="!" d="M121 222 l-8 523 l115 0 l-7 -523 l-100 0 ZM113 0 l0 130 l115 0 l0 -130 l-115 0 Z" /><glyph glyph-name="exclamdown" unicode="¡" d="M113 -204 l8 523 l100 0 l7 -523 l-115 0 ZM113 411 l0 130 l115 0 l0 -130 l-115 0 Z" /><glyph glyph-name="question" unicode="?" d="M196 222 l0 17 q0 44 14.5 78 q14.5 34 37 61.5 q22.5 27.5 46.5 50.5 q34 32 60.5 62 q26.5 30 26.5 70 q0 25 -12 45.5 q-12 20.5 -35.5 33 q-23.5 12.5 -57.5 12.5 q-47 0 -80.5 -28.5 q-33.5 -28.5 -42.5 -76.5 l-105 25 q9 55 40.5 96.5 q31.5 41.5 80 65 q48.5 23.5 109.5 23.5 q69 0 118.5 -27.5 q49.5 -27.5 75.5 -71.5 q26 -44 26 -95 q0 -41 -16.5 -73.5 q-16.5 -32.5 -42 -59.5 q-25.5 -27 -52.5 -53 q-32 -31 -56.5 -64.5 q-24.5 -33.5 -24.5 -78.5 l0 -12 l-110 0 ZM196 0 l0 130 l115 0 l0 -130 l-115 0 Z" /><glyph glyph-name="questiondown" unicode="¿" d="M278 -216 q-69 0 -118.5 28 q-49.5 28 -76 72.5 q-26.5 44.5 -26.5 93.5 q0 42 17 74 q17 32 42.5 59 q25.5 27 51.5 53 q32 31 56.5 65 q24.5 34 24.5 79 l0 11 l110 0 l0 -16 q0 -45 -14 -79 q-14 -34 -37 -60.5 q-23 -26.5 -47 -50.5 q-32 -33 -59 -62.5 q-27 -29.5 -27 -70.5 q0 -24 12 -45 q12 -21 35.5 -33.5 q23.5 -12.5 57.5 -12.5 q47 0 80.5 29 q33.5 29 41.5 77 l105 -25 q-8 -55 -39.5 -97 q-31.5 -42 -80 -65.5 q-48.5 -23.5 -109.5 -23.5 ZM245 411 l0 130 l115 0 l0 -130 l-115 0 Z" /><glyph glyph-name="periodcentered" unicode="·" d="M116 206 l0 130 l115 0 l0 -130 l-115 0 Z" /><glyph glyph-name="bullet" unicode="&#x2022;" d="M312 76 q-56 0 -100 25.5 q-44 25.5 -70 69.5 q-26 44 -26 101 q0 53 25.5 95.5 q25.5 42.5 69.5 68 q44 25.5 101 25.5 q54 0 96 -25.5 q42 -25.5 67 -68.5 q25 -43 26 -95 q0 -57 -25 -101 q-25 -44 -68 -69.5 q-43 -25.5 -96 -25.5 Z" /><glyph glyph-name="asterisk" unicode="*" d="M182 371 l-73 53 l77 104 l-119 40 l28 86 l119 -40 l0 131 l91 0 l0 -131 l119 40 l28 -86 l-119 -40 l78 -104 l-73 -53 l-78 104 l-78 -104 Z" /><glyph glyph-name="numbersign" unicode="#" d="M125 0 l50 174 l-120 0 l0 100 l148 0 l57 198 l-120 0 l0 100 l149 0 l50 173 l115 0 l-50 -173 l180 0 l49 173 l115 0 l-49 -173 l120 0 l0 -100 l-149 0 l-57 -198 l120 0 l0 -100 l-149 0 l-49 -174 l-115 0 l49 174 l-179 0 l-50 -174 l-115 0 ZM318 274 l180 0 l57 198 l-180 0 l-57 -198 Z" /><glyph glyph-name="slash" unicode="/" d="M11 -120 l334 825 l125 0 l-334 -825 l-125 0 Z" /><glyph glyph-name="backslash" unicode="\" d="M345 -120 l-334 825 l125 0 l334 -825 l-125 0 Z" /><glyph glyph-name="hyphen" unicode="-" d="M83 221 l0 100 l400 0 l0 -100 l-400 0 Z" /><glyph glyph-name="endash" unicode="&#x2013;" d="M83 221 l0 100 l460 0 l0 -100 l-460 0 Z" /><glyph glyph-name="emdash" unicode="&#x2014;" d="M83 221 l0 100 l790 0 l0 -100 l-790 0 Z" /><glyph glyph-name="underscore" unicode="_" d="M83 -100 l0 100 l475 0 l0 -100 l-475 0 Z" /><glyph glyph-name="uni208D" unicode="&#x208d;" d="M178 -120 q-59 68 -89 148.5 q-30 80.5 -30 172.5 q0 93 29.5 173 q29.5 80 89.5 148 l78 0 q-50 -77 -74.5 -157 q-24.5 -80 -24.5 -164 q0 -85 25 -165.5 q25 -80.5 74 -155.5 l-78 0 Z" /><glyph glyph-name="uni208E" unicode="&#x208e;" d="M31 -120 q50 75 74.5 156 q24.5 81 24.5 165 q0 87 -25 167 q-25 80 -74 154 l79 0 q60 -69 89.5 -149.5 q29.5 -80.5 29.5 -171.5 q0 -89 -29 -169.5 q-29 -80.5 -90 -151.5 l-79 0 Z" /><glyph glyph-name="parenleft" unicode="(" d="M225 -160 q-82 96 -124 210 q-42 114 -42 243 q0 130 42 244 q42 114 124 208 l95 0 q-71 -105 -107.5 -218.5 q-36.5 -113.5 -36.5 -233.5 q0 -119 36.5 -233.5 q36.5 -114.5 107.5 -219.5 l-95 0 Z" /><glyph glyph-name="parenright" unicode=")" d="M31 -160 q72 105 108 219.5 q36 114.5 36 233.5 q0 120 -36 233.5 q-36 113.5 -108 218.5 l95 0 q83 -94 125 -208 q42 -114 42 -244 q0 -129 -42 -243 q-42 -114 -125 -210 l-95 0 Z" /><glyph glyph-name="braceleft" unicode="{" d="M286 -160 q-77 0 -121.5 41.5 q-44.5 41.5 -44.5 112.5 l0 182 q0 29 -14 46 q-14 17 -42 17 l-30 0 l0 100 l30 0 q28 0 42 17.5 q14 17.5 14 46.5 l0 188 q0 72 44.5 113 q44.5 41 121.5 41 l42 0 l0 -100 l-42 0 q-24 0 -37.5 -15 q-13.5 -15 -13.5 -41 l0 -177 q1 -38 -13 -69.5 q-14 -31.5 -42 -52.5 q27 -18 41.5 -49 q14.5 -31 13.5 -67 l0 -178 q0 -25 13.5 -40.5 q13.5 -15.5 37.5 -15.5 l42 0 l0 -100 l-42 0 Z" /><glyph glyph-name="braceright" unicode="}" d="M43 -160 l0 100 l42 0 q24 0 38 15.5 q14 15.5 13 40.5 l0 178 q0 36 14.5 67 q14.5 31 41.5 49 q-28 21 -42.5 52.5 q-14.5 31.5 -13.5 69.5 l0 177 q1 26 -13 41 q-14 15 -38 15 l-42 0 l0 100 l42 0 q78 0 122 -41 q44 -41 44 -113 l0 -188 q0 -29 14.5 -46.5 q14.5 -17.5 41.5 -17.5 l30 0 l0 -100 l-30 0 q-27 0 -41.5 -17 q-14.5 -17 -14.5 -46 l0 -182 q0 -71 -44 -112.5 q-44 -41.5 -122 -41.5 l-42 0 Z" /><glyph glyph-name="bracketleft" unicode="[" d="M99 -160 l0 905 l240 0 l0 -100 l-125 0 l0 -705 l125 0 l0 -100 l-240 0 Z" /><glyph glyph-name="bracketright" unicode="]" d="M43 -160 l0 100 l125 0 l0 705 l-125 0 l0 100 l240 0 l0 -905 l-240 0 Z" /><glyph glyph-name="uni207D" unicode="&#x207d;" d="M178 103 q-59 68 -89 148.5 q-30 80.5 -30 172.5 q0 93 29.5 173 q29.5 80 89.5 148 l78 0 q-50 -77 -74.5 -157 q-24.5 -80 -24.5 -164 q0 -85 25 -165.5 q25 -80.5 74 -155.5 l-78 0 Z" /><glyph glyph-name="uni207E" unicode="&#x207e;" d="M31 103 q50 75 74.5 156 q24.5 81 24.5 165 q0 87 -25 167 q-25 80 -74 154 l79 0 q60 -69 89.5 -149.5 q29.5 -80.5 29.5 -171.5 q0 -89 -29 -169.5 q-29 -80.5 -90 -151.5 l-79 0 Z" /><glyph glyph-name="quotesinglbase" unicode="&#x201a;" d="M95 -137 l0 55 q33 8 51 29.5 q18 21.5 22 52.5 l-53 0 l0 130 l115 0 l0 -85 q0 -73 -34 -120.5 q-34 -47.5 -101 -61.5 Z" /><glyph glyph-name="quotedblbase" unicode="&#x201e;" d="M95 -137 l0 55 q33 8 51 29.5 q18 21.5 22 52.5 l-53 0 l0 130 l115 0 l0 -85 q0 -73 -34 -120.5 q-34 -47.5 -101 -61.5 ZM280 -137 l0 55 q33 8 51 29.5 q18 21.5 22 52.5 l-53 0 l0 130 l115 0 l0 -85 q0 -73 -34 -120.5 q-34 -47.5 -101 -61.5 Z" /><glyph glyph-name="quotedblleft" unicode="&#x201c;" d="M280 490 l0 85 q0 73 34.5 120.5 q34.5 47.5 100.5 61.5 l0 -55 q-32 -8 -50 -29.5 q-18 -21.5 -22 -52.5 l52 0 l0 -130 l-115 0 ZM95 490 l0 85 q0 73 34.5 120.5 q34.5 47.5 100.5 61.5 l0 -55 q-32 -8 -50 -29.5 q-18 -21.5 -22 -52.5 l52 0 l0 -130 l-115 0 Z" /><glyph glyph-name="quotedblright" unicode="&#x201d;" d="M280 478 l0 55 q33 8 51 29.5 q18 21.5 22 52.5 l-53 0 l0 130 l115 0 l0 -85 q0 -73 -34 -120.5 q-34 -47.5 -101 -61.5 ZM95 478 l0 55 q33 8 51 29.5 q18 21.5 22 52.5 l-53 0 l0 130 l115 0 l0 -85 q0 -73 -34 -120.5 q-34 -47.5 -101 -61.5 Z" /><glyph glyph-name="quoteleft" unicode="&#x2018;" d="M95 490 l0 85 q0 73 34.5 120.5 q34.5 47.5 100.5 61.5 l0 -55 q-32 -8 -50 -29.5 q-18 -21.5 -22 -52.5 l52 0 l0 -130 l-115 0 Z" /><glyph glyph-name="quoteright" unicode="&#x2019;" d="M95 478 l0 55 q33 8 51 29.5 q18 21.5 22 52.5 l-53 0 l0 130 l115 0 l0 -85 q0 -73 -34 -120.5 q-34 -47.5 -101 -61.5 Z" /><glyph glyph-name="guillemotleft" unicode="«" d="M193 74 l-153 195 l153 195 l126 0 l-152 -195 l152 -195 l-126 0 ZM463 74 l-153 195 l153 195 l126 0 l-152 -195 l152 -195 l-126 0 Z" /><glyph glyph-name="guillemotright" unicode="»" d="M310 74 l152 195 l-152 195 l127 0 l153 -195 l-153 -195 l-127 0 ZM40 74 l152 195 l-152 195 l127 0 l153 -195 l-153 -195 l-127 0 Z" /><glyph glyph-name="guilsinglleft" unicode="&#x2039;" d="M193 74 l-153 195 l153 195 l126 0 l-152 -195 l152 -195 l-126 0 Z" /><glyph glyph-name="guilsinglright" unicode="&#x203a;" d="M40 74 l152 195 l-152 195 l127 0 l153 -195 l-153 -195 l-127 0 Z" /><glyph glyph-name="quotedbl" unicode="&quot;" d="M107 484 l-15 261 l105 0 l-15 -261 l-75 0 ZM282 484 l-16 261 l105 0 l-14 -261 l-75 0 Z" /><glyph glyph-name="quotesingle" unicode="&#39;" d="M107 484 l-15 261 l105 0 l-15 -261 l-75 0 Z" /><glyph glyph-name="florin" unicode="&#x192;" d="M131 -12 q-12 0 -25.5 1.5 q-13.5 1.5 -23.5 3.5 l0 98 q9 -1 19 -2 q10 -1 16 -1 q45 0 71.5 23 q26.5 23 26.5 80 l0 133 l-124 0 l0 98 l124 0 l0 138 q0 66 25.5 109.5 q25.5 43.5 70.5 65.5 q45 22 101 22 q12 0 26 -1.5 q14 -1.5 23 -3.5 l0 -98 q-9 2 -18.5 2.5 q-9.5 0.5 -16.5 0.5 q-45 0 -71.5 -22.5 q-26.5 -22.5 -26.5 -80.5 l0 -132 l124 0 l0 -98 l-124 0 l0 -138 q0 -66 -25.5 -110 q-25.5 -44 -70 -66 q-44.5 -22 -101.5 -22 Z" /><glyph glyph-name="uni0E3F" unicode="&#xe3f;" d="M77 0 l0 745 l314 0 q70 0 121 -24.5 q51 -24.5 78 -70 q27 -45.5 27 -107.5 q0 -54 -27.5 -98.5 q-27.5 -44.5 -85.5 -70.5 l0 50 q51 -20 83 -50.5 q32 -30.5 46.5 -68.5 q14.5 -38 14.5 -80 q0 -105 -68.5 -165 q-68.5 -60 -187.5 -60 l-315 0 ZM195 105 l206 0 q59 0 94 32.5 q35 32.5 35 86.5 q0 55 -35 87.5 q-35 32.5 -94 32.5 l-206 0 l0 -239 ZM195 448 l199 0 q48 0 77 27.5 q29 27.5 29 72.5 q0 45 -29 70 q-29 25 -77 25 l-199 0 l0 -195 ZM300 -100 l0 945 l80 0 l0 -945 l-80 0 Z" /><glyph glyph-name="uni2605" unicode="&#x2605;" d="M205 -12 l95 293 l-250 182 l309 0 l95 294 l96 -294 l309 0 l-250 -182 l96 -293 l-251 181 l-249 -181 Z" /><glyph glyph-name="uni2606" unicode="&#x2606;" d="M205 -12 l95 293 l-250 182 l309 0 l95 294 l96 -294 l309 0 l-250 -182 l96 -293 l-251 181 l-249 -181 ZM338 171 l116 85 l118 -85 l-45 137 l117 85 l-145 0 l-45 138 l-44 -138 l-145 0 l117 -85 l-44 -137 Z" /><glyph glyph-name="at" unicode="@" d="M484 -214 q-92 0 -170 31 q-78 31 -136.5 88 q-58.5 57 -90.5 134.5 q-32 77.5 -32 169.5 q0 92 32.5 169.5 q32.5 77.5 90.5 134 q58 56.5 136 87.5 q78 31 169 31 q92 0 169 -32 q77 -32 132.5 -89.5 q55.5 -57.5 85.5 -133.5 q30 -76 30 -165 q0 -64 -21.5 -111.5 q-21.5 -47.5 -60 -73.5 q-38.5 -26 -91.5 -26 q-33 0 -64.5 13 q-31.5 13 -53 39 q-21.5 26 -25.5 66 l21 -38 q-11 -25 -34.5 -43 q-23.5 -18 -53.5 -27.5 q-30 -9.5 -63 -9.5 q-58 0 -105.5 28 q-47.5 28 -75 76 q-27.5 48 -27.5 109 q0 61 27.5 110 q27.5 49 75 78.5 q47.5 29.5 107.5 29.5 q49 0 88.5 -19 q39.5 -19 56.5 -51 l-9 -27 l0 87 l83 0 l0 -261 q0 -36 14.5 -54 q14.5 -18 40.5 -18 q35 0 54 30 q19 30 19 95 q0 70 -22 130 q-22 60 -63.5 104.5 q-41.5 44.5 -100.5 69 q-59 24.5 -133 24.5 q-73 0 -134 -24.5 q-61 -24.5 -105 -69 q-44 -44.5 -68 -105 q-24 -60.5 -24 -132.5 q0 -72 24 -133 q24 -61 68.5 -106 q44.5 -45 105.5 -70 q61 -25 133 -25 q47 0 89.5 11 q42.5 11 78.5 32 l41 -78 q-91 -55 -209 -55 ZM462 88 q36 0 63 17 q27 17 43 46 q16 29 16 65 q0 54 -34.5 90 q-34.5 36 -86.5 36 q-35 1 -63 -15.5 q-28 -16.5 -44 -45 q-16 -28.5 -16 -65.5 q0 -36 16 -65.5 q16 -29.5 44 -46 q28 -16.5 62 -16.5 Z" /><glyph glyph-name="ampersand" unicode="&amp;" d="M293 -12 q-66 0 -116 24.5 q-50 24.5 -78.5 69 q-28.5 44.5 -28.5 103.5 q0 50 18 87.5 q18 37.5 45 64 q27 26.5 54 44.5 q27 18 45 28 l61 34 q30 17 57 36 q27 19 44 43 q17 24 17 54 q0 36 -24 60.5 q-24 24.5 -60 24.5 q-36 0 -60 -24 q-24 -24 -24 -62 q0 -26 12.5 -51 q12.5 -25 30 -46.5 q17.5 -21.5 34.5 -40.5 l400 -437 l-141 0 l-343 369 q-24 26 -47.5 55.5 q-23.5 29.5 -39 65.5 q-15.5 36 -15.5 80 q0 57 26.5 99 q26.5 42 70 65 q43.5 23 95.5 23 q53 0 96 -23.5 q43 -23.5 68.5 -64.5 q25.5 -41 25.5 -93 q0 -54 -25 -93 q-25 -39 -60.5 -66 q-35.5 -27 -66.5 -46 l-61 -36 q-24 -14 -50.5 -34.5 q-26.5 -20.5 -44.5 -48 q-18 -27.5 -18 -65.5 q0 -47 29.5 -73 q29.5 -26 77.5 -26 q31 0 55 10 q24 10 42.5 26 q18.5 16 33 35.5 q14.5 19.5 26.5 36.5 l116 170 l121 0 l-134 -208 q-16 -24 -38 -53.5 q-22 -29.5 -53 -56 q-31 -26.5 -73.5 -43.5 q-42.5 -17 -99.5 -17 Z" /><glyph glyph-name="paragraph" unicode="¶" d="M267 -100 l0 448 q-59 0 -104.5 25.5 q-45.5 25.5 -71.5 70.5 q-26 45 -26 102 q0 58 26 103 q26 45 71.5 70.5 q45.5 25.5 104.5 25.5 l118 0 l0 -845 l-118 0 Z" /><glyph glyph-name="section" unicode="§" d="M277 -100 q-87 0 -152 43 q-65 43 -92 116 l88 41 q24 -49 65 -77.5 q41 -28.5 91 -28.5 q43 0 70.5 20 q27.5 20 27.5 53 q0 21 -11.5 35 q-11.5 14 -29.5 23 q-18 9 -37 14 l-89 25 q-74 22 -110.5 64 q-36.5 42 -36.5 98 q0 51 26.5 89 q26.5 38 72.5 59.5 q46 21.5 103 21.5 l-1 -65 q-41 0 -64.5 -23.5 q-23.5 -23.5 -23.5 -60.5 q0 -25 11.5 -42.5 q11.5 -17.5 30.5 -28 q19 -10.5 41 -17.5 l84 -25 q70 -20 108 -62.5 q38 -42.5 38 -101.5 q0 -50 -26.5 -88 q-26.5 -38 -73.5 -60 q-47 -22 -110 -22 ZM277 161 l0 64 q43 0 70.5 23.5 q27.5 23.5 27.5 64.5 q0 25 -11.5 42 q-11.5 17 -31.5 29 q-20 12 -44 18 l-80 23 q-74 22 -110.5 64 q-36.5 42 -36.5 98 q0 51 26.5 89 q26.5 38 72.5 59.5 q46 21.5 103 21.5 q76 0 137 -38 q61 -38 87 -107 l-89 -41 q-17 42 -54 66.5 q-37 24.5 -82 24.5 q-41 0 -64.5 -19.5 q-23.5 -19.5 -23.5 -49.5 q0 -21 11 -35 q11 -14 28 -22 q17 -8 35 -13 l93 -28 q70 -20 108 -62.5 q38 -42.5 38 -101.5 q0 -50 -26.5 -88 q-26.5 -38 -73.5 -60 q-47 -22 -110 -22 Z" /><glyph glyph-name="copyright" unicode="©" d="M463 -12 q-80 0 -150 30 q-70 30 -123 83 q-53 53 -83 123 q-30 70 -30 150 q0 79 29.5 148.5 q29.5 69.5 82.5 122.5 q53 53 123 82.5 q70 29.5 151 29.5 q79 0 148.5 -29.5 q69.5 -29.5 122.5 -82.5 q53 -53 83 -122.5 q30 -69.5 30 -148.5 q0 -81 -30 -150.5 q-30 -69.5 -83 -122.5 q-53 -53 -122.5 -83 q-69.5 -30 -148.5 -30 ZM463 73 q62 0 116.5 23 q54.5 23 95.5 64 q41 41 64 96 q23 55 23 118 q0 62 -23 116 q-23 54 -64.5 95 q-41.5 41 -95.5 64.5 q-54 23.5 -116 23.5 q-63 0 -118 -23 q-55 -23 -96 -64 q-41 -41 -64 -95.5 q-23 -54.5 -23 -116.5 q0 -63 23 -118 q23 -55 64 -96 q41 -41 96 -64 q55 -23 118 -23 ZM468 163 q-59 0 -105.5 27.5 q-46.5 27.5 -73.5 75 q-27 47.5 -27 107.5 q0 61 27 108 q27 47 73.5 74 q46.5 27 105.5 27 q44 0 79.5 -14.5 q35.5 -14.5 60.5 -39 q25 -24.5 35 -55.5 l-81 -33 q-10 25 -34.5 43 q-24.5 18 -59.5 18 q-52 0 -84 -35.5 q-32 -35.5 -32 -92.5 q0 -57 32 -93 q32 -36 84 -36 q34 0 58.5 17.5 q24.5 17.5 35.5 44.5 l81 -34 q-10 -30 -35 -55 q-25 -25 -60.5 -39.5 q-35.5 -14.5 -79.5 -14.5 Z" /><glyph glyph-name="registered" unicode="®" d="M334 272 q-71 0 -129.5 34.5 q-58.5 34.5 -93 93 q-34.5 58.5 -34.5 128.5 q0 71 34.5 129.5 q34.5 58.5 93 92.5 q58.5 34 129.5 34 q53 0 99.5 -19.5 q46.5 -19.5 81.5 -54.5 q35 -35 55 -82 q20 -47 20 -100 q0 -70 -34.5 -128.5 q-34.5 -58.5 -92.5 -93 q-58 -34.5 -129 -34.5 ZM334 338 q53 0 95.5 25.5 q42.5 25.5 68.5 68.5 q26 43 26 96 q0 53 -26 96.5 q-26 43.5 -69 69 q-43 25.5 -95 25.5 q-54 0 -97 -26 q-43 -26 -68.5 -69 q-25.5 -43 -25.5 -96 q0 -53 25.5 -96 q25.5 -43 69 -68.5 q43.5 -25.5 96.5 -25.5 ZM229 393 l0 271 l116 0 q43 0 71 -22 q28 -22 28 -67 q0 -30 -13.5 -49.5 q-13.5 -19.5 -35.5 -30.5 l59 -102 l-74 0 l-52 93 l-30 0 l0 -93 l-69 0 ZM298 545 l48 0 q14 0 22 9 q8 9 8 21 q0 13 -8 21.5 q-8 8.5 -22 8.5 l-48 0 l0 -60 Z" /><glyph glyph-name="trademark" unicode="&#x2122;" d="M177 298 l0 361 l-112 0 l0 86 l321 0 l0 -86 l-110 0 l0 -361 l-99 0 ZM427 298 l0 447 l96 0 l168 -219 l-46 0 l163 219 l96 0 l0 -447 l-99 0 l0 340 l41 -9 l-174 -220 l-13 0 l-167 220 l34 9 l0 -340 l-99 0 Z" /><glyph glyph-name="degree" unicode="°" d="M259 429 q-47 0 -84 21.5 q-37 21.5 -59 59 q-22 37.5 -22 83.5 q0 46 22 83 q22 37 59 59 q37 22 84 22 q46 0 83.5 -22 q37.5 -22 59.5 -59 q22 -37 22 -83 q0 -46 -22 -83.5 q-22 -37.5 -59.5 -59 q-37.5 -21.5 -83.5 -21.5 ZM258 510 q35 0 59.5 23.5 q24.5 23.5 24.5 58.5 q0 37 -25 60.5 q-25 23.5 -59 23.5 q-35 0 -59 -23.5 q-24 -23.5 -24 -60.5 q0 -35 24 -58.5 q24 -23.5 59 -23.5 Z" /><glyph glyph-name="minute" unicode="&#x2032;" d="M124 484 l0 261 l105 0 l-14 -261 l-91 0 Z" /><glyph glyph-name="second" unicode="&#x2033;" d="M124 484 l0 261 l105 0 l-14 -261 l-91 0 ZM299 484 l0 261 l105 0 l-15 -261 l-90 0 Z" /><glyph glyph-name="bar" unicode="|" d="M124 -190 l0 1035 l115 0 l0 -1035 l-115 0 Z" /><glyph glyph-name="brokenbar" unicode="¦" d="M124 428 l0 417 l115 0 l0 -417 l-115 0 ZM124 -190 l0 418 l115 0 l0 -418 l-115 0 Z" /><glyph glyph-name="dagger" unicode="&#x2020;" d="M271 -190 l0 621 l-212 0 l0 107 l212 0 l0 207 l115 0 l0 -207 l213 0 l0 -107 l-213 0 l0 -621 l-115 0 Z" /><glyph glyph-name="uni2113" unicode="&#x2113;" d="M384 -6 q-83 0 -123 37.5 q-40 37.5 -40 114.5 l0 416 q0 61 24.5 104.5 q24.5 43.5 66 67 q41.5 23.5 92.5 23.5 q54 0 93 -26 q39 -26 60 -70 q21 -44 21 -99 q0 -69 -26 -129.5 q-26 -60.5 -72.5 -113 q-46.5 -52.5 -108.5 -95 q-62 -42.5 -134 -75 q-72 -32.5 -150 -53.5 l-31 93 q92 27 166 64.5 q74 37.5 126.5 85 q52.5 47.5 81 104.5 q28.5 57 28.5 123 q0 47 -15.5 73 q-15.5 26 -43.5 26 q-28 0 -46.5 -24.5 q-18.5 -24.5 -18.5 -71.5 l0 -416 q0 -61 66 -61 l99 0 l0 -98 l-115 0 Z" /><glyph glyph-name="daggerdbl" unicode="&#x2021;" d="M287 -190 l0 207 l-212 0 l0 108 l212 0 l0 306 l-212 0 l0 107 l212 0 l0 207 l115 0 l0 -207 l213 0 l0 -107 l-213 0 l0 -306 l213 0 l0 -108 l-213 0 l0 -207 l-115 0 Z" /><glyph glyph-name="estimated" unicode="&#x212e;" d="M427 -10 q-85 0 -155.5 28 q-70.5 28 -121.5 77.5 q-51 49.5 -78.5 114.5 q-27.5 65 -27.5 139 q0 75 28 140.5 q28 65.5 79 115 q51 49.5 120.5 77.5 q69.5 28 152.5 28 q83 0 152.5 -28 q69.5 -28 120.5 -77.5 q51 -49.5 79 -114.5 q28 -65 28 -140 l0 -9 l-609 0 q-5 0 -5 -6 l0 -195 q0 -7 1.5 -10.5 q1.5 -3.5 8.5 -11.5 q39 -45 92 -75.5 q53 -30.5 135 -30.5 q81 0 134.5 31 q53.5 31 101.5 86 l58 0 q-35 -41 -75.5 -72.5 q-40.5 -31.5 -93.5 -49 q-53 -17.5 -125 -17.5 ZM195 360 l458 0 q4 0 4 6 l0 196 q0 3 -1 10 q-1 7 -9 14 q-30 32 -60.5 55 q-30.5 23 -69 35 q-38.5 12 -93.5 12 q-82 0 -134 -31 q-52 -31 -89 -74 q-8 -10 -9.5 -13 q-1.5 -3 -1.5 -11 l0 -193 q0 -6 5 -6 Z" /><glyph glyph-name="uni20B3" unicode="&#x20b3;" d="M11 0 l262 745 l146 0 l262 -745 l-126 0 l-225 662 l33 0 l-226 -662 l-126 0 ZM11 183 l0 77 l670 0 l0 -77 l-670 0 ZM11 330 l0 78 l670 0 l0 -78 l-670 0 Z" /><glyph glyph-name="uni20BF" unicode="&#x20bf;" d="M77 0 l0 745 l314 0 q70 0 121 -24.5 q51 -24.5 78 -70 q27 -45.5 27 -107.5 q0 -54 -27.5 -98.5 q-27.5 -44.5 -85.5 -70.5 l0 50 q51 -20 83 -50.5 q32 -30.5 46.5 -68.5 q14.5 -38 14.5 -80 q0 -105 -68.5 -165 q-68.5 -60 -187.5 -60 l-315 0 ZM195 105 l206 0 q59 0 94 32.5 q35 32.5 35 86.5 q0 55 -35 87.5 q-35 32.5 -94 32.5 l-206 0 l0 -239 ZM195 448 l199 0 q48 0 77 27.5 q29 27.5 29 72.5 q0 45 -29 70 q-29 25 -77 25 l-199 0 l0 -195 ZM234 -100 l0 147 l80 0 l0 -147 l-80 0 ZM369 -100 l0 147 l80 0 l0 -147 l-80 0 ZM234 699 l0 146 l80 0 l0 -146 l-80 0 ZM369 699 l0 146 l80 0 l0 -146 l-80 0 Z" /><glyph glyph-name="uni20B5" unicode="&#x20b5;" d="M424 -12 q-79 0 -146.5 29 q-67.5 29 -117 80.5 q-49.5 51.5 -77.5 121.5 q-28 70 -28 154 q0 83 27.5 153.5 q27.5 70.5 77.5 122 q50 51.5 117 80 q67 28.5 147 28.5 q79 0 141.5 -27 q62.5 -27 105.5 -70.5 q43 -43.5 62 -94.5 l-106 -50 q-24 60 -76.5 97.5 q-52.5 37.5 -126.5 37.5 q-74 0 -131 -35 q-57 -35 -88.5 -97 q-31.5 -62 -31.5 -145 q0 -83 31.5 -145.5 q31.5 -62.5 88.5 -97 q57 -34.5 131 -34.5 q74 0 126.5 37 q52.5 37 76.5 97 l106 -50 q-19 -50 -62 -94 q-43 -44 -105.5 -71 q-62.5 -27 -141.5 -27 ZM384 -100 l0 945 l80 0 l0 -945 l-80 0 Z" /><glyph glyph-name="cent" unicode="¢" d="M323 91 q-81 0 -143.5 37 q-62.5 37 -99 101.5 q-36.5 64.5 -36.5 144.5 q0 81 36 144.5 q36 63.5 99 100.5 q63 37 144 37 q55 0 103 -19.5 q48 -19.5 83.5 -53.5 q35.5 -34 52.5 -80 l-99 -45 q-17 42 -54.5 67.5 q-37.5 25.5 -85.5 25.5 q-46 0 -82.5 -23 q-36.5 -23 -57.5 -63 q-21 -40 -21 -92 q0 -51 21 -91 q21 -40 57.5 -63 q36.5 -23 82.5 -23 q49 0 85.5 25.5 q36.5 25.5 54.5 68.5 l99 -47 q-16 -44 -51.5 -78.5 q-35.5 -34.5 -83.5 -54 q-48 -19.5 -104 -19.5 ZM279 0 l0 745 l80 0 l0 -745 l-80 0 Z" /><glyph glyph-name="colonmonetary" unicode="&#x20a1;" d="M424 -12 q-79 0 -146.5 29 q-67.5 29 -117 80.5 q-49.5 51.5 -77.5 121.5 q-28 70 -28 154 q0 83 27.5 153.5 q27.5 70.5 77.5 122 q50 51.5 117 80 q67 28.5 147 28.5 q79 0 141.5 -27 q62.5 -27 105.5 -70.5 q43 -43.5 62 -94.5 l-106 -50 q-24 60 -76.5 97.5 q-52.5 37.5 -126.5 37.5 q-74 0 -131 -35 q-57 -35 -88.5 -97 q-31.5 -62 -31.5 -145 q0 -83 31.5 -145.5 q31.5 -62.5 88.5 -97 q57 -34.5 131 -34.5 q74 0 126.5 37 q52.5 37 76.5 97 l106 -50 q-19 -50 -62 -94 q-43 -44 -105.5 -71 q-62.5 -27 -141.5 -27 ZM236 -100 l132 945 l80 0 l-132 -945 l-80 0 ZM371 -100 l132 945 l80 0 l-132 -945 l-80 0 Z" /><glyph glyph-name="currency" unicode="¤" d="M111 17 l-67 67 l78 78 q-15 23 -23 50.5 q-8 27.5 -8 56.5 q0 29 8 56.5 q8 27.5 23 50.5 l-78 78 l67 67 l78 -78 q24 15 51 23.5 q27 8.5 56 8.5 q29 0 56.5 -8 q27.5 -8 51.5 -24 l77 78 l67 -67 l-77 -78 q14 -23 22.5 -50 q8.5 -27 8.5 -57 q0 -30 -8.5 -57 q-8.5 -27 -22.5 -50 l77 -78 l-67 -67 l-77 78 q-23 -15 -50.5 -23 q-27.5 -8 -57.5 -8 q-28 0 -55 7.5 q-27 7.5 -52 23.5 l-78 -78 ZM296 167 q29 0 52 13.5 q23 13.5 37 37 q14 23.5 14 51.5 q0 29 -14 52 q-14 23 -37 37 q-23 14 -52 14 q-28 0 -51.5 -14 q-23.5 -14 -37.5 -37 q-14 -23 -14 -52 q0 -28 14 -51.5 q14 -23.5 37.5 -37 q23.5 -13.5 51.5 -13.5 Z" /><glyph glyph-name="dollar" unicode="$" d="M338 -12 q-70 0 -130 26.5 q-60 26.5 -102 72.5 q-42 46 -62 106 l100 42 q27 -69 79 -106 q52 -37 120 -37 q40 0 70 12.5 q30 12.5 46.5 35.5 q16.5 23 16.5 53 q0 41 -23 65 q-23 24 -68 38 l-140 44 q-84 26 -128 79.5 q-44 53.5 -44 125.5 q0 63 31 110.5 q31 47.5 85.5 74.5 q54.5 27 124.5 27 q67 0 122 -23.5 q55 -23.5 94.5 -64.5 q39.5 -41 57.5 -95 l-98 -43 q-22 59 -68.5 91 q-46.5 32 -107.5 32 q-37 0 -65 -12.5 q-28 -12.5 -43.5 -36 q-15.5 -23.5 -15.5 -54.5 q0 -36 23 -64 q23 -28 70 -42 l130 -41 q89 -27 134 -77.5 q45 -50.5 45 -125.5 q0 -62 -32.5 -110 q-32.5 -48 -89.5 -75.5 q-57 -27.5 -132 -27.5 ZM292 -100 l0 945 l80 0 l0 -945 l-80 0 Z" /><glyph glyph-name="dong" unicode="&#x20ab;" d="M264 139 q-63 0 -112.5 30.5 q-49.5 30.5 -78.5 82 q-29 51.5 -29 114.5 q0 64 29.5 115.5 q29.5 51.5 79 82 q49.5 30.5 111.5 30.5 q50 0 88.5 -19 q38.5 -19 60.5 -53 l-16 -22 l0 245 l107 0 l0 -596 l-101 0 l0 83 l10 -21 q-23 -35 -62.5 -53.5 q-39.5 -18.5 -86.5 -18.5 ZM276 237 q35 0 62 16.5 q27 16.5 43 46 q16 29.5 16 66.5 q0 38 -16 67 q-16 29 -43 46 q-27 17 -62 17 q-35 0 -62.5 -17 q-27.5 -17 -43 -46 q-15.5 -29 -15.5 -67 q0 -37 15.5 -66.5 q15.5 -29.5 43 -46 q27.5 -16.5 62.5 -16.5 ZM44 0 l0 75 l479 0 l0 -75 l-479 0 ZM337 626 l0 75 l227 0 l0 -75 l-227 0 Z" /><glyph glyph-name="Euro" unicode="&#x20ac;" d="M447 -12 q-72 0 -133 28.5 q-61 28.5 -106 80 q-45 51.5 -70 122 q-25 70.5 -25 154.5 q0 84 24.5 154 q24.5 70 69.5 122 q45 52 106.5 80 q61.5 28 134.5 28 q99 0 174.5 -51.5 q75.5 -51.5 105.5 -140.5 l-105 -42 q-22 61 -68.5 95 q-46.5 34 -107.5 34 q-61 0 -110.5 -35.5 q-49.5 -35.5 -78.5 -98.5 q-29 -63 -29 -145 q0 -82 28 -145.5 q28 -63.5 77 -99 q49 -35.5 112 -35.5 q62 0 108.5 34.5 q46.5 34.5 68.5 94.5 l105 -42 q-20 -59 -61 -102 q-41 -43 -97 -66.5 q-56 -23.5 -123 -23.5 ZM28 261 l0 77 l446 0 l0 -77 l-446 0 ZM28 408 l0 78 l446 0 l0 -78 l-446 0 Z" /><glyph glyph-name="franc" unicode="&#x20a3;" d="M119 0 l0 745 l485 0 l0 -105 l-368 0 l0 -224 l328 0 l0 -105 l-328 0 l0 -311 l-117 0 ZM39 117 l0 78 l397 0 l0 -78 l-397 0 Z" /><glyph glyph-name="uni20B2" unicode="&#x20b2;" d="M426 -12 q-79 0 -146.5 29 q-67.5 29 -118 80.5 q-50.5 51.5 -78.5 121.5 q-28 70 -28 154 q0 83 27.5 153.5 q27.5 70.5 77.5 122 q50 51.5 117 80 q67 28.5 147 28.5 q79 0 141.5 -27 q62.5 -27 105.5 -70.5 q43 -43.5 62 -94.5 l-105 -51 q-23 61 -76 98.5 q-53 37.5 -128 37.5 q-74 0 -131 -35 q-57 -35 -88.5 -97 q-31.5 -62 -31.5 -145 q0 -83 32.5 -145.5 q32.5 -62.5 89.5 -97 q57 -34.5 131 -34.5 q62 0 113.5 25.5 q51.5 25.5 82.5 72 q31 46.5 31 108.5 l0 51 l53 -48 l-282 0 l0 100 l346 0 l0 -70 q0 -82 -28 -146.5 q-28 -64.5 -76 -109.5 q-48 -45 -110 -68 q-62 -23 -130 -23 ZM378 -100 l0 945 l80 0 l0 -945 l-80 0 Z" /><glyph glyph-name="uni20B4" unicode="&#x20b4;" d="M419 464 q21 16 32 37.5 q11 21.5 11 48.5 q0 31 -15.5 54.5 q-15.5 23.5 -43.5 36.5 q-28 13 -67 13 q-42 0 -80 -19 q-38 -19 -56 -67 l-126 0 q13 60 51.5 102.5 q38.5 42.5 93.5 64.5 q55 22 118 22 q71 0 125.5 -26.5 q54.5 -26.5 85.5 -72.5 q31 -46 31 -105 q0 -27 -7 -48 q-7 -21 -21 -41 l-132 0 ZM328 -12 q-71 0 -126 26.5 q-55 26.5 -85.5 73 q-30.5 46.5 -30.5 105.5 q0 26 7 47 q7 21 20 42 l132 0 q-20 -16 -31.5 -37.5 q-11.5 -21.5 -11.5 -48.5 q0 -31 15.5 -54.5 q15.5 -23.5 44 -36.5 q28.5 -13 66.5 -13 q43 0 80.5 19 q37.5 19 55.5 67 l126 0 q-12 -60 -50.5 -102.5 q-38.5 -42.5 -93.5 -65 q-55 -22.5 -118 -22.5 ZM44 261 l0 77 l576 0 l0 -77 l-576 0 ZM44 408 l0 78 l576 0 l0 -78 l-576 0 Z" /><glyph glyph-name="uni20AD" unicode="&#x20ad;" d="M560 0 l-258 344 l6 60 l218 341 l141 0 l-239 -371 l276 -374 l-144 0 ZM119 0 l0 745 l117 0 l0 -745 l-117 0 ZM39 334 l0 78 l628 0 l0 -78 l-628 0 Z" /><glyph glyph-name="uni20BE" unicode="&#x20be;" d="M55 0 l0 105 l176 0 l-24 -21 q-46 32 -80 76 q-34 44 -53 98.5 q-19 54.5 -19 114.5 q0 83 29.5 153.5 q29.5 70.5 82 122 q52.5 51.5 122 80 q69.5 28.5 151.5 28.5 q90 0 166 -33 q76 -33 127.5 -95 q51.5 -62 66.5 -148 l-126 0 q-11 54 -44.5 91.5 q-33.5 37.5 -82.5 57.5 q-49 20 -108 20 q-58 0 -106.5 -21 q-48.5 -21 -84.5 -59 q-36 -38 -55.5 -88 q-19.5 -50 -19.5 -109 q0 -48 15 -95.5 q15 -47.5 47 -86.5 q32 -39 82.5 -62.5 q50.5 -23.5 121.5 -23.5 l341 0 l0 -105 l-725 0 ZM332 481 l0 364 l80 0 l0 -364 l-80 0 ZM467 481 l0 364 l80 0 l0 -364 l-80 0 Z" /><glyph glyph-name="lira" unicode="&#x20a4;" d="M39 0 l0 100 l100 0 l0 423 q0 70 29.5 122.5 q29.5 52.5 84.5 82 q55 29.5 130 29.5 q60 0 110.5 -23 q50.5 -23 84 -65 q33.5 -42 40.5 -100 l-104 -30 q-7 55 -43 84 q-36 29 -88 29 q-60 0 -93.5 -34 q-33.5 -34 -33.5 -95 l0 -423 l329 0 l0 -100 l-546 0 ZM39 408 l0 78 l396 0 l0 -78 l-396 0 ZM39 261 l0 77 l396 0 l0 -77 l-396 0 Z" /><glyph glyph-name="uni20BA" unicode="&#x20ba;" d="M129 0 l0 745 l117 0 l0 -640 l19 0 q84 0 144.5 40 q60.5 40 89.5 122 l127 0 q-34 -128 -127.5 -197.5 q-93.5 -69.5 -235.5 -69.5 l-134 0 ZM39 418 l0 89 l418 123 l0 -89 l-418 -123 ZM39 240 l0 89 l418 123 l0 -89 l-418 -123 Z" /><glyph glyph-name="uni20BC" unicode="&#x20bc;" d="M71 0 l0 387 q0 78 36.5 139 q36.5 61 101 96 q64.5 35 147.5 35 q84 0 148.5 -35 q64.5 -35 100.5 -96 q36 -61 36 -139 l0 -387 l-117 0 l0 382 q0 50 -21.5 87.5 q-21.5 37.5 -59 59 q-37.5 21.5 -87.5 21.5 q-49 0 -86.5 -21.5 q-37.5 -21.5 -59 -59 q-21.5 -37.5 -21.5 -87.5 l0 -382 l-118 0 ZM316 0 l0 845 l80 0 l0 -845 l-80 0 Z" /><glyph glyph-name="uni20A6" unicode="&#x20a6;" d="M119 0 l0 745 l140 0 l311 -672 l-37 -7 l0 679 l112 0 l0 -745 l-140 0 l-309 676 l35 8 l0 -684 l-112 0 ZM39 334 l0 78 l686 0 l0 -78 l-686 0 Z" /><glyph glyph-name="peseta" unicode="&#x20a7;" d="M119 0 l0 745 l271 0 q75 0 132 -27.5 q57 -27.5 89.5 -80 q32.5 -52.5 32.5 -125.5 q0 -72 -32.5 -124 q-32.5 -52 -89.5 -80 q-57 -28 -132 -28 l-154 0 l0 -280 l-117 0 ZM236 385 l156 0 q41 0 71 16 q30 16 46.5 44.5 q16.5 28.5 16.5 67.5 q0 39 -16.5 67.5 q-16.5 28.5 -46.5 44 q-30 15.5 -71 15.5 l-156 0 l0 -255 ZM39 474 l0 78 l665 0 l0 -78 l-665 0 Z" /><glyph glyph-name="uni20B1" unicode="&#x20b1;" d="M119 0 l0 745 l271 0 q75 0 132 -27.5 q57 -27.5 89.5 -80 q32.5 -52.5 32.5 -125.5 q0 -72 -32.5 -124 q-32.5 -52 -89.5 -80 q-57 -28 -132 -28 l-154 0 l0 -280 l-117 0 ZM236 385 l156 0 q41 0 71 16 q30 16 46.5 44.5 q16.5 28.5 16.5 67.5 q0 39 -16.5 67.5 q-16.5 28.5 -46.5 44 q-30 15.5 -71 15.5 l-156 0 l0 -255 ZM39 425 l0 63 l665 0 l0 -63 l-665 0 ZM39 538 l0 62 l665 0 l0 -62 l-665 0 Z" /><glyph glyph-name="uni20BD" unicode="&#x20bd;" d="M119 0 l0 280 l-80 0 l0 78 l80 0 l0 387 l271 0 q75 0 132 -27.5 q57 -27.5 89.5 -80 q32.5 -52.5 32.5 -125.5 q0 -72 -32.5 -124 q-32.5 -52 -89.5 -80 q-57 -28 -132 -28 l-154 0 l0 -280 l-117 0 ZM236 385 l156 0 q41 0 71 16 q30 16 46.5 44.5 q16.5 28.5 16.5 67.5 q0 39 -16.5 67.5 q-16.5 28.5 -46.5 44 q-30 15.5 -71 15.5 l-156 0 l0 -255 ZM39 117 l0 78 l397 0 l0 -78 l-397 0 Z" /><glyph glyph-name="uni20B9" unicode="&#x20b9;" d="M439 0 l-362 280 l0 105 l274 0 q40 0 70 16 q30 16 47 44.5 q17 28.5 17 67.5 q0 39 -17 67.5 q-17 28.5 -47 44 q-30 15.5 -70 15.5 l-274 0 l0 105 l585 0 l0 -77 l-167 0 l29 22 q37 -30 57.5 -75 q20.5 -45 20.5 -103 q0 -72 -32.5 -124 q-32.5 -52 -89.5 -80 q-57 -28 -132 -28 l-144 0 l11 33 l398 -313 l-174 0 ZM77 474 l0 78 l585 0 l0 -78 l-585 0 Z" /><glyph glyph-name="uni20AA" unicode="&#x20aa;" d="M234 0 l0 591 l75 0 l0 -479 l137 0 q9 0 14.5 6 q5.5 6 5.5 15 l0 612 l115 0 l0 -627 q0 -52 -32.5 -85 q-32.5 -33 -84.5 -33 l-230 0 ZM77 0 l0 745 l230 0 q54 0 86 -33 q32 -33 32 -85 l0 -473 l-75 0 l0 459 q0 9 -5 14.5 q-5 5.5 -14 5.5 l-139 0 l0 -633 l-115 0 Z" /><glyph glyph-name="sterling" unicode="£" d="M39 0 l0 100 l100 0 l0 423 q0 70 29.5 122.5 q29.5 52.5 84.5 82 q55 29.5 130 29.5 q60 0 110.5 -23 q50.5 -23 84 -65 q33.5 -42 40.5 -100 l-104 -30 q-7 55 -43 84 q-36 29 -88 29 q-60 0 -93.5 -34 q-33.5 -34 -33.5 -95 l0 -423 l329 0 l0 -100 l-546 0 ZM39 340 l0 78 l396 0 l0 -78 l-396 0 Z" /><glyph glyph-name="uni20B8" unicode="&#x20b8;" d="M209 0 l0 485 l-198 0 l0 105 l510 0 l0 -105 l-195 0 l0 -485 l-117 0 ZM11 668 l0 77 l510 0 l0 -77 l-510 0 Z" /><glyph glyph-name="uni20AE" unicode="&#x20ae;" d="M209 0 l0 640 l-198 0 l0 105 l511 0 l0 -105 l-195 0 l0 -640 l-118 0 ZM58 320 l0 89 l418 123 l0 -89 l-418 -123 ZM58 142 l0 89 l418 123 l0 -89 l-418 -123 Z" /><glyph glyph-name="uni20A9" unicode="&#x20a9;" d="M187 0 l-145 745 l117 0 l111 -690 l-31 0 l167 690 l117 0 l166 -690 l-31 0 l112 690 l117 0 l-145 -745 l-130 0 l-163 680 l30 0 l-163 -680 l-129 0 ZM11 334 l0 78 l906 0 l0 -78 l-906 0 Z" /><glyph glyph-name="yen" unicode="¥" d="M266 0 l0 336 l-255 409 l133 0 l204 -331 l-47 0 l203 331 l133 0 l-254 -409 l0 -336 l-117 0 ZM126 295 l0 78 l396 0 l0 -78 l-396 0 ZM126 148 l0 77 l396 0 l0 -77 l-396 0 Z" /><glyph glyph-name="uni2219" unicode="&#x2219;" d="M263 194 q-47 0 -85.5 22.5 q-38.5 22.5 -61 60.5 q-22.5 38 -22.5 86 q0 47 22.5 84.5 q22.5 37.5 61 60 q38.5 22.5 85.5 22.5 q47 0 84.5 -22.5 q37.5 -22.5 60 -60 q22.5 -37.5 22.5 -84.5 q0 -48 -22 -86 q-22 -38 -60 -60.5 q-38 -22.5 -85 -22.5 Z" /><glyph glyph-name="uni2215" unicode="&#x2215;" d="M52 -60 l334 865 l125 0 l-334 -865 l-125 0 Z" /><glyph glyph-name="uni208C" unicode="&#x208c;" d="M96 295 l0 80 l315 0 l0 -80 l-315 0 ZM96 124 l0 82 l315 0 l0 -82 l-315 0 Z" /><glyph glyph-name="uni207C" unicode="&#x207c;" d="M96 518 l0 80 l315 0 l0 -80 l-315 0 ZM96 347 l0 82 l315 0 l0 -82 l-315 0 Z" /><glyph glyph-name="uni208B" unicode="&#x208b;" d="M96 220 l0 81 l315 0 l0 -81 l-315 0 Z" /><glyph glyph-name="uni207B" unicode="&#x207b;" d="M96 443 l0 81 l315 0 l0 -81 l-315 0 Z" /><glyph glyph-name="plus" unicode="+" d="M272 0 l0 201 l-201 0 l0 100 l201 0 l0 199 l100 0 l0 -199 l199 0 l0 -100 l-199 0 l0 -201 l-100 0 Z" /><glyph glyph-name="minus" unicode="&#x2212;" d="M96 201 l0 100 l450 0 l0 -100 l-450 0 Z" /><glyph glyph-name="multiply" unicode="×" d="M165 0 l-70 71 l156 156 l-156 155 l71 71 l155 -155 l155 155 l71 -71 l-155 -155 l156 -156 l-71 -71 l-156 156 l-156 -156 Z" /><glyph glyph-name="divide" unicode="÷" d="M71 201 l0 100 l500 0 l0 -100 l-500 0 ZM264 0 l0 111 l115 0 l0 -111 l-115 0 ZM264 390 l0 110 l115 0 l0 -110 l-115 0 Z" /><glyph glyph-name="equal" unicode="=" d="M96 311 l0 100 l450 0 l0 -100 l-450 0 ZM96 71 l0 100 l450 0 l0 -100 l-450 0 Z" /><glyph glyph-name="notequal" unicode="&#x2260;" d="M96 311 l0 100 l450 0 l0 -100 l-450 0 ZM96 71 l0 100 l450 0 l0 -100 l-450 0 ZM370 511 l98 0 l-197 -540 l-98 0 l197 540 Z" /><glyph glyph-name="greater" unicode="&gt;" d="M93 22 l0 116 l353 153 l0 -41 l-353 154 l0 116 l443 -195 l0 -108 l-443 -195 Z" /><glyph glyph-name="less" unicode="&lt;" d="M549 22 l-442 195 l0 108 l442 195 l0 -116 l-353 -154 l0 41 l353 -153 l0 -116 Z" /><glyph glyph-name="greaterequal" unicode="&#x2265;" d="M93 150 l0 116 l359 109 l0 -41 l-359 109 l0 116 l443 -151 l0 -108 l-443 -150 ZM93 0 l0 95 l443 0 l0 -95 l-443 0 Z" /><glyph glyph-name="lessequal" unicode="&#x2264;" d="M550 150 l-443 150 l0 108 l443 151 l0 -116 l-359 -109 l0 41 l359 -109 l0 -116 ZM107 0 l0 95 l443 0 l0 -95 l-443 0 Z" /><glyph glyph-name="plusminus" unicode="±" d="M272 170 l0 156 l-201 0 l0 100 l201 0 l0 154 l100 0 l0 -154 l199 0 l0 -100 l-199 0 l0 -156 l-100 0 ZM71 0 l0 100 l500 0 l0 -100 l-500 0 Z" /><glyph glyph-name="approxequal" unicode="&#x2248;" d="M72 313 l0 94 q30 32 70.5 47 q40.5 15 80.5 15 q36 0 61 -9 q25 -9 45.5 -20 q20.5 -11 43.5 -20 q23 -9 54 -9 q36 0 74.5 14 q38.5 14 68.5 45 l0 -94 q-27 -31 -65.5 -46.5 q-38.5 -15.5 -79.5 -15.5 q-36 0 -62 9 q-26 9 -47 20 q-21 11 -44.5 20 q-23.5 9 -56.5 9 q-35 0 -73.5 -14 q-38.5 -14 -69.5 -45 ZM72 88 l0 94 q29 31 68.5 46.5 q39.5 15.5 82.5 15.5 q36 0 61 -9 q25 -9 45.5 -20 q20.5 -11 43.5 -20 q23 -9 54 -9 q36 0 74.5 14 q38.5 14 68.5 45 l0 -94 q-27 -31 -65.5 -46.5 q-38.5 -15.5 -79.5 -15.5 q-36 0 -62 9 q-26 9 -47 20 q-21 11 -44.5 20 q-23.5 9 -56.5 9 q-35 0 -73.5 -14 q-38.5 -14 -69.5 -45 Z" /><glyph glyph-name="asciitilde" unicode="~" d="M419 200 q-34 0 -57.5 10 q-23.5 10 -42.5 23.5 q-19 13.5 -37 23.5 q-18 10 -40 10 q-26 0 -42 -16 q-16 -16 -21 -47 l-93 0 q5 79 42.5 119.5 q37.5 40.5 100.5 40.5 q33 0 57 -10 q24 -10 42.5 -23.5 q18.5 -13.5 37 -23.5 q18.5 -10 39.5 -10 q23 0 38.5 14.5 q15.5 14.5 20.5 48.5 l93 0 q-5 -78 -40.5 -119 q-35.5 -41 -97.5 -41 Z" /><glyph glyph-name="logicalnot" unicode="¬" d="M471 40 l0 161 l-400 0 l0 100 l500 0 l0 -261 l-100 0 Z" /><glyph glyph-name="asciicircum" unicode="^" d="M98 422 l170 323 l107 0 l170 -323 l-125 0 l-121 234 l47 0 l-122 -234 l-126 0 Z" /><glyph glyph-name="infinity" unicode="&#x221e;" d="M275 98 q-52 0 -93.5 22.5 q-41.5 22.5 -65.5 61.5 q-24 39 -24 89 q0 49 24 88 q24 39 65.5 62 q41.5 23 94.5 23 q69 0 130 -38.5 q61 -38.5 103 -109.5 l0 -50 q-41 -70 -102.5 -109 q-61.5 -39 -131.5 -39 ZM283 182 q39 0 73.5 23.5 q34.5 23.5 59.5 65.5 q-25 42 -59.5 65 q-34.5 23 -73.5 23 q-42 0 -67.5 -24.5 q-25.5 -24.5 -25.5 -63.5 q0 -39 25.5 -64 q25.5 -25 67.5 -25 ZM656 98 q-70 0 -131.5 39 q-61.5 39 -102.5 109 l0 50 q41 70 102.5 109 q61.5 39 130.5 39 q53 0 94.5 -23 q41.5 -23 65.5 -62 q24 -39 24 -88 q0 -50 -24 -89 q-24 -39 -65.5 -61.5 q-41.5 -22.5 -93.5 -22.5 ZM648 182 q42 0 67.5 25 q25.5 25 25.5 64 q0 39 -25.5 63.5 q-25.5 24.5 -67.5 24.5 q-40 0 -74.5 -23.5 q-34.5 -23.5 -58.5 -64.5 q25 -42 59.5 -65.5 q34.5 -23.5 73.5 -23.5 Z" /><glyph glyph-name="emptyset" unicode="&#x2205;" d="M441 -12 q-80 0 -150 30 q-70 30 -123 83 q-53 53 -83 123 q-30 70 -30 150 q0 79 30 148.5 q30 69.5 83 122.5 q53 53 122.5 82.5 q69.5 29.5 150.5 29.5 q80 0 149.5 -29.5 q69.5 -29.5 122.5 -82.5 q53 -53 82.5 -122.5 q29.5 -69.5 29.5 -148.5 q0 -81 -29.5 -150.5 q-29.5 -69.5 -82.5 -122.5 q-53 -53 -123 -83 q-70 -30 -149 -30 ZM441 73 q63 0 117 23 q54 23 95 64 q41 41 64 96 q23 55 23 118 q0 62 -23 116 q-23 54 -64 95 q-41 41 -95 64.5 q-54 23.5 -117 23.5 q-63 0 -118 -23 q-55 -23 -95.5 -64 q-40.5 -41 -63.5 -95.5 q-23 -54.5 -23 -117.5 q0 -62 22.5 -117 q22.5 -55 64 -96 q41.5 -41 96 -64 q54.5 -23 117.5 -23 ZM81 0 l617 745 l96 0 l-616 -745 l-97 0 Z" /><glyph glyph-name="integral" unicode="&#x222b;" d="M131 -180 q-12 0 -25.5 1.5 q-13.5 1.5 -23.5 3.5 l0 98 q9 -1 19 -2 q10 -1 16 -1 q45 0 71.5 23 q26.5 23 26.5 80 l0 537 q0 66 25.5 109.5 q25.5 43.5 70.5 65.5 q45 22 101 22 q12 0 26 -1.5 q14 -1.5 23 -3.5 l0 -98 q-9 2 -18.5 2.5 q-9.5 0.5 -16.5 0.5 q-45 0 -71.5 -22.5 q-26.5 -22.5 -26.5 -80.5 l0 -536 q0 -66 -25.5 -110 q-25.5 -44 -70 -66 q-44.5 -22 -101.5 -22 Z" /><glyph glyph-name="product" unicode="&#x220f;" d="M204 -100 l0 740 l-147 0 l0 105 l727 0 l0 -105 l-145 0 l0 -740 l-117 0 l0 740 l-200 0 l0 -740 l-118 0 Z" /><glyph glyph-name="summation" unicode="&#x2211;" d="M71 -100 l0 90 l261 376 l0 -85 l-261 375 l0 89 l521 0 l0 -105 l-422 0 l22 43 l248 -360 l-247 -361 l-23 43 l422 0 l0 -105 l-521 0 Z" /><glyph glyph-name="radical" unicode="&#x221a;" d="M356 -100 l-214 491 l72 -47 l-155 0 l0 97 l187 0 l183 -435 l-40 0 l311 739 l186 0 l0 -97 l-154 0 l72 47 l-343 -795 l-105 0 Z" /><glyph glyph-name="uni00B5" unicode="µ" d="M55 -140 l0 681 l113 0 l0 -324 q0 -37 15 -65 q15 -28 42 -43.5 q27 -15.5 62 -15.5 q36 0 63 16 q27 16 42.5 45 q15.5 29 15.5 68 l0 319 l112 0 l0 -541 l-107 0 l0 118 l13 -19 q-17 -54 -61.5 -82.5 q-44.5 -28.5 -105.5 -28.5 q-35 0 -65 10 q-30 10 -55 29 l29 37 l0 -204 l-113 0 Z" /><glyph glyph-name="partialdiff" unicode="&#x2202;" d="M345 -12 q-75 0 -135.5 33.5 q-60.5 33.5 -96 93.5 q-35.5 60 -35.5 139 q0 80 35.5 141.5 q35.5 61.5 98.5 97 q63 35.5 144 35.5 q69 0 119 -24 q50 -24 89 -58 l-18 -79 q-32 32 -79.5 50.5 q-47.5 18.5 -96.5 18.5 q-54 0 -93 -22 q-39 -22 -60.5 -62 q-21.5 -40 -21.5 -93 q0 -49 19 -87 q19 -38 53.5 -59.5 q34.5 -21.5 79.5 -21.5 q49 0 87 27 q38 27 60 82.5 q22 55.5 22 137.5 q0 61 -15 122.5 q-15 61.5 -48.5 113.5 q-33.5 52 -86.5 83.5 q-53 31.5 -129 31.5 q-28 0 -56.5 -5 q-28.5 -5 -55.5 -17 l-14 101 q29 13 62.5 18.5 q33.5 5.5 69.5 5.5 q74 0 135.5 -25 q61.5 -25 108.5 -69 q47 -44 79.5 -101.5 q32.5 -57.5 49.5 -124 q17 -66.5 17 -134.5 q0 -112 -38.5 -190.5 q-38.5 -78.5 -103.5 -119 q-65 -40.5 -146 -40.5 Z" /><glyph glyph-name="percent" unicode="%" d="M148 0 l606 745 l126 0 l-606 -745 l-126 0 ZM262 367 q-55 0 -99 26.5 q-44 26.5 -70.5 70.5 q-26.5 44 -26.5 98 q0 54 26.5 98.5 q26.5 44.5 70.5 70.5 q44 26 99 26 q55 0 99 -26 q44 -26 70 -70.5 q26 -44.5 26 -98.5 q0 -54 -26 -98 q-26 -44 -70 -70.5 q-44 -26.5 -99 -26.5 ZM262 458 q31 0 53.5 15 q22.5 15 34.5 39 q12 24 12 50 q0 27 -12 50.5 q-12 23.5 -34.5 38.5 q-22.5 15 -53.5 15 q-30 0 -53 -15 q-23 -15 -35.5 -38.5 q-12.5 -23.5 -12.5 -50.5 q0 -26 12.5 -50 q12.5 -24 35.5 -39 q23 -15 53 -15 ZM761 -12 q-55 0 -99.5 26.5 q-44.5 26.5 -70.5 70.5 q-26 44 -26 98 q0 54 26 98.5 q26 44.5 70.5 70.5 q44.5 26 99.5 26 q55 0 99 -26 q44 -26 70 -70.5 q26 -44.5 26 -98.5 q0 -54 -26 -98 q-26 -44 -70 -70.5 q-44 -26.5 -99 -26.5 ZM761 79 q31 0 53 15 q22 15 34.5 39 q12.5 24 12.5 50 q0 27 -12.5 50.5 q-12.5 23.5 -34.5 38.5 q-22 15 -53 15 q-30 0 -53 -15 q-23 -15 -35.5 -38.5 q-12.5 -23.5 -12.5 -50.5 q0 -26 12.5 -50 q12.5 -24 35.5 -39 q23 -15 53 -15 Z" /><glyph glyph-name="perthousand" unicode="&#x2030;" d="M148 0 l606 745 l126 0 l-606 -745 l-126 0 ZM262 367 q-55 0 -99 26.5 q-44 26.5 -70.5 70.5 q-26.5 44 -26.5 98 q0 54 26.5 98.5 q26.5 44.5 70.5 70.5 q44 26 99 26 q55 0 99 -26 q44 -26 70 -70.5 q26 -44.5 26 -98.5 q0 -54 -26 -98 q-26 -44 -70 -70.5 q-44 -26.5 -99 -26.5 ZM262 458 q31 0 53.5 15 q22.5 15 34.5 39 q12 24 12 50 q0 27 -12 50.5 q-12 23.5 -34.5 38.5 q-22.5 15 -53.5 15 q-30 0 -53 -15 q-23 -15 -35.5 -38.5 q-12.5 -23.5 -12.5 -50.5 q0 -26 12.5 -50 q12.5 -24 35.5 -39 q23 -15 53 -15 ZM761 -12 q-55 0 -99.5 26.5 q-44.5 26.5 -70.5 70.5 q-26 44 -26 98 q0 54 26 98.5 q26 44.5 70.5 70.5 q44.5 26 99.5 26 q55 0 99 -26 q44 -26 70 -70.5 q26 -44.5 26 -98.5 q0 -54 -26 -98 q-26 -44 -70 -70.5 q-44 -26.5 -99 -26.5 ZM761 79 q31 0 53 15 q22 15 34.5 39 q12.5 24 12.5 50 q0 27 -12.5 50.5 q-12.5 23.5 -34.5 38.5 q-22 15 -53 15 q-30 0 -53 -15 q-23 -15 -35.5 -38.5 q-12.5 -23.5 -12.5 -50.5 q0 -26 12.5 -50 q12.5 -24 35.5 -39 q23 -15 53 -15 ZM1197 -12 q-55 0 -99.5 26.5 q-44.5 26.5 -70.5 70.5 q-26 44 -26 98 q0 54 26 98.5 q26 44.5 70.5 70.5 q44.5 26 99.5 26 q55 0 99 -26 q44 -26 70 -70.5 q26 -44.5 26 -98.5 q0 -54 -26 -98 q-26 -44 -70 -70.5 q-44 -26.5 -99 -26.5 ZM1197 79 q31 0 53 15 q22 15 34.5 39 q12.5 24 12.5 50 q0 27 -12.5 50.5 q-12.5 23.5 -34.5 38.5 q-22 15 -53 15 q-30 0 -53 -15 q-23 -15 -35.5 -38.5 q-12.5 -23.5 -12.5 -50.5 q0 -26 12.5 -50 q12.5 -24 35.5 -39 q23 -15 53 -15 Z" /><glyph glyph-name="uni208A" unicode="&#x208a;" d="M206 85 l0 135 l-135 0 l0 81 l135 0 l0 134 l81 0 l0 -134 l134 0 l0 -81 l-134 0 l0 -135 l-81 0 Z" /><glyph glyph-name="uni207A" unicode="&#x207a;" d="M206 308 l0 135 l-135 0 l0 81 l135 0 l0 134 l81 0 l0 -134 l134 0 l0 -81 l-134 0 l0 -135 l-81 0 Z" /><glyph glyph-name="arrowup" unicode="&#x2191;" d="M71 249 l0 138 l243 238 l50 0 l248 -238 l0 -138 l-311 290 l76 1 l-306 -291 ZM290 0 l0 532 l102 0 l0 -532 l-102 0 Z" /><glyph glyph-name="uni2197" unicode="&#x2197;" d="M207 473 l351 0 l35 -35 l0 -350 l-102 -97 l0 431 l50 -51 l-431 0 l97 102 ZM472 427 l73 -72 l-376 -376 l-73 72 l376 376 Z" /><glyph glyph-name="arrowright" unicode="&#x2192;" d="M319 0 l290 311 l0 -76 l-290 306 l137 0 l238 -243 l0 -50 l-238 -248 l-137 0 ZM70 220 l0 102 l531 0 l0 -102 l-531 0 Z" /><glyph glyph-name="uni2198" unicode="&#x2198;" d="M177 0 l-97 103 l431 0 l-50 -52 l0 432 l102 -98 l0 -349 l-35 -36 l-351 0 ZM442 46 l-376 376 l73 72 l376 -375 l-73 -73 Z" /><glyph glyph-name="arrowdown" unicode="&#x2193;" d="M110 376 l306 -291 l-75 1 l310 290 l0 -138 l-247 -238 l-51 0 l-243 238 l0 138 ZM329 625 l103 0 l0 -532 l-103 0 l0 532 Z" /><glyph glyph-name="uni2199" unicode="&#x2199;" d="M498 0 l-350 0 l-36 36 l0 349 l103 98 l0 -432 l-51 52 l432 0 l-98 -103 ZM233 46 l-72 73 l376 375 l72 -72 l-376 -376 Z" /><glyph glyph-name="arrowleft" unicode="&#x2190;" d="M383 0 l-138 0 l-238 248 l0 50 l238 243 l138 0 l-291 -306 l1 76 l290 -311 ZM632 220 l-532 0 l0 102 l532 0 l0 -102 Z" /><glyph glyph-name="uni2196" unicode="&#x2196;" d="M468 473 l97 -102 l-431 0 l50 51 l0 -431 l-102 97 l0 350 l35 35 l351 0 ZM203 427 l376 -376 l-73 -72 l-376 376 l73 72 Z" /><glyph glyph-name="arrowboth" unicode="&#x2194;" d="M639 0 l290 311 l0 -76 l-290 306 l137 0 l238 -243 l0 -50 l-238 -248 l-137 0 ZM301 0 l-238 248 l0 50 l238 243 l138 0 l-291 -306 l1 76 l290 -311 l-138 0 ZM156 220 l0 102 l765 0 l0 -102 l-765 0 Z" /><glyph glyph-name="arrowupdn" unicode="&#x2195;" d="M80 272 l311 -290 l-76 0 l306 290 l0 -137 l-243 -238 l-50 0 l-248 238 l0 137 ZM80 610 l248 238 l50 0 l243 -238 l0 -138 l-306 291 l76 -1 l-311 -290 l0 138 ZM300 755 l102 0 l0 -765 l-102 0 l0 765 Z" /><glyph glyph-name="uni21A9" unicode="&#x21a9;" d="M153 220 l0 102 l532 0 q52 0 83.5 28.5 q31.5 28.5 31.5 75.5 q0 46 -31.5 74 q-31.5 28 -83.5 28 l-10 0 l0 102 l10 0 q65 0 114 -25.5 q49 -25.5 76 -71.5 q27 -46 27 -107 q0 -62 -27 -108.5 q-27 -46.5 -76 -72 q-49 -25.5 -114 -25.5 l-532 0 ZM298 0 l-238 248 l0 50 l238 243 l138 0 l-291 -306 l1 76 l290 -311 l-138 0 Z" /><glyph glyph-name="uni21AA" unicode="&#x21aa;" d="M756 220 l-531 0 q-65 0 -114 25.5 q-49 25.5 -76.5 72 q-27.5 46.5 -27.5 108.5 q0 61 27.5 107 q27.5 46 76.5 71.5 q49 25.5 113 25.5 l11 0 l0 -102 l-10 0 q-52 0 -83.5 -28 q-31.5 -28 -31.5 -74 q0 -47 31.5 -75.5 q31.5 -28.5 83.5 -28.5 l531 0 l0 -102 ZM611 0 l-137 0 l290 311 l0 -76 l-290 306 l137 0 l238 -243 l0 -50 l-238 -248 Z" /><glyph glyph-name="uni21B0" unicode="&#x21b0;" d="M685 -100 l0 320 l-532 0 l0 102 l634 0 l0 -422 l-102 0 ZM298 0 l-238 248 l0 50 l238 243 l138 0 l-291 -306 l1 76 l290 -311 l-138 0 Z" /><glyph glyph-name="uni21B1" unicode="&#x21b1;" d="M137 -100 l-102 0 l0 422 l634 0 l0 -102 l-532 0 l0 -320 ZM524 0 l-138 0 l290 311 l1 -76 l-291 306 l138 0 l238 -243 l0 -50 l-238 -248 Z" /><glyph glyph-name="uni21B2" unicode="&#x21b2;" d="M153 220 l0 102 l532 0 l0 320 l102 0 l0 -422 l-634 0 ZM298 0 l-238 248 l0 50 l238 243 l138 0 l-291 -306 l1 76 l290 -311 l-138 0 Z" /><glyph glyph-name="uni21B3" unicode="&#x21b3;" d="M718 220 l-634 0 l0 422 l103 0 l0 -320 l531 0 l0 -102 ZM573 0 l-137 0 l290 311 l0 -76 l-290 306 l137 0 l238 -243 l0 -50 l-238 -248 Z" /><glyph glyph-name="uni2B0E" unicode="&#x2b0e;" d="M489 93 l0 446 l-429 0 l0 103 l532 0 l0 -549 l-103 0 ZM513 0 l-243 238 l0 138 l306 -291 l-75 1 l310 290 l0 -138 l-247 -238 l-51 0 Z" /><glyph glyph-name="uni2B10" unicode="&#x2b10;" d="M421 93 l-103 0 l0 549 l532 0 l0 -103 l-429 0 l0 -446 ZM397 0 l-51 0 l-247 238 l0 138 l310 -290 l-75 -1 l306 291 l0 -138 l-243 -238 Z" /><glyph glyph-name="uni25CF" unicode="&#x25cf;" d="M461 -12 q-79 0 -149 30 q-70 30 -122.5 82.5 q-52.5 52.5 -82.5 122.5 q-30 70 -30 149 q0 80 30 149.5 q30 69.5 82.5 122.5 q52.5 53 122.5 83 q70 30 149 30 q80 0 149.5 -30 q69.5 -30 122 -83 q52.5 -53 82.5 -122.5 q30 -69.5 30 -149.5 q0 -79 -30 -149 q-30 -70 -82.5 -122.5 q-52.5 -52.5 -122 -82.5 q-69.5 -30 -149.5 -30 Z" /><glyph glyph-name="circle" unicode="&#x25cb;" d="M461 -12 q-79 0 -149 30 q-70 30 -122.5 82.5 q-52.5 52.5 -82.5 122.5 q-30 70 -30 149 q0 80 30 149.5 q30 69.5 82.5 122.5 q52.5 53 122.5 83 q70 30 149 30 q80 0 149.5 -30 q69.5 -30 122 -83 q52.5 -53 82.5 -122.5 q30 -69.5 30 -149.5 q0 -79 -30 -149 q-30 -70 -82.5 -122.5 q-52.5 -52.5 -122 -82.5 q-69.5 -30 -149.5 -30 ZM461 68 q63 0 118.5 23.5 q55.5 23.5 97 65 q41.5 41.5 65 97 q23.5 55.5 23.5 118.5 q0 63 -23.5 118.5 q-23.5 55.5 -65.5 97.5 q-42 42 -97 65.5 q-55 23.5 -118 23.5 q-62 0 -117.5 -23.5 q-55.5 -23.5 -97.5 -65.5 q-42 -42 -65.5 -97.5 q-23.5 -55.5 -23.5 -118.5 q0 -63 23.5 -118.5 q23.5 -55.5 65 -97 q41.5 -41.5 97 -65 q55.5 -23.5 118.5 -23.5 Z" /><glyph glyph-name="uni25C6" unicode="&#x25c6;" d="M436 -12 l-385 385 l384 384 l385 -384 l-384 -385 Z" /><glyph glyph-name="uni25C7" unicode="&#x25c7;" d="M436 -12 l-385 385 l384 384 l385 -384 l-384 -385 ZM436 102 l271 271 l-272 271 l-271 -271 l272 -271 Z" /><glyph glyph-name="lozenge" unicode="&#x25ca;" d="M250 0 l-190 373 l190 372 l136 0 l192 -372 l-192 -373 l-136 0 ZM299 63 l155 310 l-156 309 l40 0 l-156 -309 l156 -310 l-39 0 Z" /><glyph glyph-name="filledbox" unicode="&#x25a0;" d="M124 0 l0 745 l745 0 l0 -745 l-745 0 Z" /><glyph glyph-name="uni25A1" unicode="&#x25a1;" d="M124 0 l0 745 l745 0 l0 -745 l-745 0 ZM204 80 l585 0 l0 585 l-585 0 l0 -585 Z" /><glyph glyph-name="triagup" unicode="&#x25b2;" d="M52 0 l375 757 l375 -757 l-750 0 Z" /><glyph glyph-name="uni25B6" unicode="&#x25b6;" d="M124 757 l776 -385 l-776 -384 l0 769 Z" /><glyph glyph-name="triagdn" unicode="&#x25bc;" d="M25 745 l750 0 l-375 -757 l-375 757 Z" /><glyph glyph-name="uni25C0" unicode="&#x25c0;" d="M827 757 l0 -769 l-776 384 l776 385 Z" /><glyph glyph-name="uni25B3" unicode="&#x25b3;" d="M52 0 l375 757 l375 -757 l-750 0 ZM181 80 l492 0 l-246 497 l-246 -497 Z" /><glyph glyph-name="uni25B7" unicode="&#x25b7;" d="M124 -12 l0 769 l776 -385 l-776 -384 ZM204 117 l516 255 l-516 256 l0 -511 Z" /><glyph glyph-name="uni25BD" unicode="&#x25bd;" d="M11 745 l750 0 l-375 -757 l-375 757 ZM140 665 l246 -497 l246 497 l-492 0 Z" /><glyph glyph-name="uni25C1" unicode="&#x25c1;" d="M772 -12 l-776 384 l776 385 l0 -769 ZM692 117 l0 511 l-516 -256 l516 -255 Z" /><glyph glyph-name="uni0308" unicode="&#x308;" d="M116 640 l0 125 l125 0 l0 -125 l-125 0 ZM321 640 l0 125 l125 0 l0 -125 l-125 0 Z" /><glyph glyph-name="uni0307" unicode="&#x307;" d="M116 640 l0 125 l125 0 l0 -125 l-125 0 Z" /><glyph glyph-name="gravecomb" unicode="&#x300;" d="M225 640 l-109 165 l148 0 l73 -165 l-112 0 Z" /><glyph glyph-name="acutecomb" unicode="&#x301;" d="M116 640 l73 165 l148 0 l-109 -165 l-112 0 Z" /><glyph glyph-name="uni030B" unicode="&#x30b;" d="M116 640 l48 165 l143 0 l-84 -165 l-107 0 ZM317 640 l48 165 l143 0 l-84 -165 l-107 0 Z" /><glyph glyph-name="uni0302" unicode="&#x302;" d="M116 640 l118 160 l132 0 l119 -160 l-116 0 l-69 91 l-68 -91 l-116 0 Z" /><glyph glyph-name="uni030C" unicode="&#x30c;" d="M234 640 l-118 160 l116 0 l68 -90 l69 90 l116 0 l-119 -160 l-132 0 Z" /><glyph glyph-name="uni0306" unicode="&#x306;" d="M303 640 q-63 0 -104 22.5 q-41 22.5 -61.5 59 q-20.5 36.5 -21.5 78.5 l110 0 q1 -34 21 -53 q20 -19 56 -19 q36 0 56 19 q20 19 21 53 l109 0 q-1 -43 -21.5 -79.5 q-20.5 -36.5 -61 -58.5 q-40.5 -22 -103.5 -22 Z" /><glyph glyph-name="uni030A" unicode="&#x30a;" d="M236 605 q-50 0 -85 32 q-35 32 -35 85 q0 52 35 84 q35 32 85 32 q50 0 85 -32 q35 -32 35 -84 q0 -52 -35 -84.5 q-35 -32.5 -85 -32.5 ZM236 676 q20 0 32.5 12.5 q12.5 12.5 12.5 33.5 q0 20 -12.5 33 q-12.5 13 -32.5 13 q-19 0 -32 -12.5 q-13 -12.5 -13 -33.5 q0 -21 13 -33.5 q13 -12.5 32 -12.5 Z" /><glyph glyph-name="tildecomb" unicode="&#x303;" d="M369 640 q-27 0 -44.5 9 q-17.5 9 -30 20 q-12.5 11 -25 20 q-12.5 9 -29.5 9 q-17 0 -26 -13 q-9 -13 -9 -41 l-89 0 q0 74 33 109.5 q33 35.5 82 35.5 q28 0 45.5 -8.5 q17.5 -8.5 30.5 -20 q13 -11.5 25.5 -20 q12.5 -8.5 28.5 -8.5 q19 0 27.5 14 q8.5 14 8.5 39 l88 0 q0 -70 -33.5 -107.5 q-33.5 -37.5 -82.5 -37.5 Z" /><glyph glyph-name="uni0304" unicode="&#x304;" d="M116 660 l0 95 l305 0 l0 -95 l-305 0 Z" /><glyph glyph-name="hookabovecomb" unicode="&#x309;" d="M235 600 l-48 59 q27 12 38 25.5 q11 13.5 11 32.5 q0 18 -14.5 30 q-14.5 12 -40.5 12 q-12 0 -24 -2 q-12 -2 -27 -8 l-14 72 q19 9 40 13 q21 4 43 4 q63 0 100.5 -30.5 q37.5 -30.5 37.5 -81.5 q0 -38 -27.5 -71 q-27.5 -33 -74.5 -55 Z" /><glyph glyph-name="uni030F" unicode="&#x30f;" d="M225 640 l-109 167 l143 0 l73 -167 l-107 0 ZM426 640 l-109 167 l143 0 l73 -167 l-107 0 Z" /><glyph glyph-name="uni0311" unicode="&#x311;" d="M116 640 q1 43 21.5 79.5 q20.5 36.5 61.5 58.5 q41 22 104 22 q63 0 103.5 -21.5 q40.5 -21.5 61 -58 q20.5 -36.5 21.5 -80.5 l-109 0 q-1 35 -21 54 q-20 19 -56 19 q-36 0 -56 -19 q-20 -19 -21 -54 l-110 0 Z" /><glyph glyph-name="uni0312" unicode="&#x312;" d="M116 600 l70 182 l106 0 l-34 -182 l-142 0 Z" /><glyph glyph-name="uni031B" unicode="&#x31b;" d="M116 640 l0 82 l9 0 q9 0 20.5 3 q11.5 3 20 14 q8.5 11 8.5 34 q0 19 -6.5 39 q-6.5 20 -14.5 39 l100 0 q9 -20 16 -41 q7 -21 7 -47 q0 -63 -37.5 -93 q-37.5 -30 -97.5 -30 l-25 0 Z" /><glyph glyph-name="dotbelowcomb" unicode="&#x323;" d="M116 -215 l0 125 l125 0 l0 -125 l-125 0 Z" /><glyph glyph-name="uni0324" unicode="&#x324;" d="M116 -215 l0 125 l125 0 l0 -125 l-125 0 ZM321 -215 l0 125 l125 0 l0 -125 l-125 0 Z" /><glyph glyph-name="uni0326" unicode="&#x326;" d="M116 -251 l34 181 l142 0 l-70 -181 l-106 0 Z" /><glyph glyph-name="uni0327" unicode="&#x327;" d="M227 -235 q-28 0 -59 9 q-31 9 -52 26 l26 68 q15 -12 33.5 -18.5 q18.5 -6.5 36.5 -6.5 q22 0 34.5 10 q12.5 10 12.5 27 q0 20 -23.5 32 q-23.5 12 -72.5 17 l22 81 l70 0 l-11 -43 q53 -8 81.5 -33 q28.5 -25 28.5 -63 q0 -47 -35 -76.5 q-35 -29.5 -92 -29.5 Z" /><glyph glyph-name="uni0328" unicode="&#x328;" d="M248 -235 q-60 0 -96 32.5 q-36 32.5 -36 81.5 q0 37 17.5 68.5 q17.5 31.5 50 54 q32.5 22.5 77.5 31.5 l30 0 l0 -33 q-21 -4 -39 -19 q-18 -15 -29 -37.5 q-11 -22.5 -11 -49.5 q0 -23 16 -37 q16 -14 37 -14 q18 0 33.5 6.5 q15.5 6.5 29.5 18.5 l26 -68 q-20 -16 -47 -25.5 q-27 -9.5 -59 -9.5 Z" /><glyph glyph-name="uni032E" unicode="&#x32e;" d="M303 -250 q-63 0 -104 22.5 q-41 22.5 -61.5 59 q-20.5 36.5 -21.5 78.5 l110 0 q1 -34 21 -53 q20 -19 56 -19 q36 0 56 19 q20 19 21 53 l109 0 q-1 -43 -21.5 -79.5 q-20.5 -36.5 -61 -58.5 q-40.5 -22 -103.5 -22 Z" /><glyph glyph-name="uni0331" unicode="&#x331;" d="M116 -195 l0 95 l305 0 l0 -95 l-305 0 Z" /></font>
</defs>
</svg>
