<?xml version="1.0" standalone="no"?><!DOCTYPE svg PUBLIC "-//W3C//DTD SVG 1.1//EN" "http://www.w3.org/Graphics/SVG/1.1/DTD/svg11.dtd" ><svg xmlns="http://www.w3.org/2000/svg"><metadata></metadata><defs><font id="2.071;TOKO;PlusJakartaSans-BoldItalic" horiz-adv-x="1508"><font-face font-family="Plus Jakarta Sans" font-weight="700" font-stretch="normal" units-per-em="1000" panose-1="0 0 0 0 0 0 0 0 0 0" ascent="1038" descent="-222" x-height="0" bbox="-207 -257 1422 1268" underline-thickness="40" underline-position="-155" unicode-range="U+000d-fb02" /><missing-glyph horiz-adv-x="744" d="M126 675 l0 70 l520 0 l0 -70 l-520 0 ZM126 0 l0 70 l520 0 l0 -70 l-520 0 ZM126 225 l0 70 l520 0 l0 -70 l-520 0 ZM126 450 l0 70 l520 0 l0 -70 l-520 0 Z" /><glyph glyph-name="A" unicode="A" d="M-27 0 l361 745 l176 0 l153 -745 l-142 0 l-31 160 l-287 0 l-76 -160 l-154 0 ZM259 280 l208 0 l-71 369 l37 -4 l-174 -365 Z" /><glyph glyph-name="AE" unicode="Æ" d="M-27 0 l361 745 l696 0 l-17 -120 l-360 0 l-26 -191 l339 0 l-16 -120 l-340 0 l-27 -194 l359 0 l-17 -120 l-495 0 l22 160 l-248 0 l-76 -160 l-155 0 ZM259 280 l210 0 l48 345 l-93 0 l-165 -345 Z" /><glyph glyph-name="B" unicode="B" d="M34 0 l104 745 l301 0 q103 0 159.5 -48.5 q56.5 -48.5 56.5 -135.5 q0 -40 -12.5 -74.5 q-12.5 -34.5 -37 -61.5 q-24.5 -27 -61.5 -47 l-9 48 q65 -28 91.5 -73.5 q26.5 -45.5 26.5 -97.5 q0 -78 -35.5 -135.5 q-35.5 -57.5 -101 -88.5 q-65.5 -31 -154.5 -31 l-328 0 ZM187 120 l201 0 q38 0 67 15.5 q29 15.5 45 43.5 q16 28 16 63 q0 43 -28.5 69 q-28.5 26 -76.5 26 l-194 0 l-30 -217 ZM234 456 l182 0 q30 0 53 13 q23 13 36 35 q13 22 13 51 q0 34 -22.5 54 q-22.5 20 -61.5 20 l-176 0 l-24 -173 Z" /><glyph glyph-name="C" unicode="C" d="M414 -12 q-75 0 -139 26 q-64 26 -111 74 q-47 48 -73 113.5 q-26 65.5 -26 145.5 q0 85 29 159.5 q29 74.5 82.5 130.5 q53.5 56 126 88 q72.5 32 158.5 32 q81 0 143.5 -27.5 q62.5 -27.5 103.5 -72.5 q41 -45 57 -97 l-125 -55 q-18 57 -64.5 92.5 q-46.5 35.5 -118.5 35.5 q-56 0 -102.5 -21 q-46.5 -21 -81 -60 q-34.5 -39 -53.5 -91.5 q-19 -52.5 -19 -113.5 q0 -72 26.5 -124.5 q26.5 -52.5 74.5 -81.5 q48 -29 112 -29 q74 0 127.5 37 q53.5 37 79.5 94 l118 -61 q-22 -53 -69 -97 q-47 -44 -112 -70.5 q-65 -26.5 -144 -26.5 Z" /><glyph glyph-name="D" unicode="D" d="M34 0 l104 745 l230 0 q107 0 186 -43 q79 -43 123 -118.5 q44 -75.5 44 -173.5 q0 -89 -29 -164 q-29 -75 -84.5 -130 q-55.5 -55 -131.5 -85.5 q-76 -30.5 -171 -30.5 l-271 0 ZM187 120 l119 0 q62 0 112.5 20.5 q50.5 20.5 87.5 59 q37 38.5 57 91 q20 52.5 20 115.5 q0 68 -27 117 q-27 49 -77 75.5 q-50 26.5 -120 26.5 l-102 0 l-70 -505 Z" /><glyph glyph-name="Dcroat" unicode="&#x110;" d="M22 316 l16 115 l348 0 l-16 -115 l-348 0 ZM34 0 l104 745 l230 0 q107 0 186 -43 q79 -43 123 -118.5 q44 -75.5 44 -173.5 q0 -89 -29 -164 q-29 -75 -84.5 -130 q-55.5 -55 -131.5 -85.5 q-76 -30.5 -171 -30.5 l-271 0 ZM187 120 l119 0 q62 0 112.5 20.5 q50.5 20.5 87.5 59 q37 38.5 57 91 q20 52.5 20 115.5 q0 68 -27 117 q-27 49 -77 75.5 q-50 26.5 -120 26.5 l-102 0 l-70 -505 Z" /><glyph glyph-name="Eth" unicode="Ð" d="M22 316 l16 115 l348 0 l-16 -115 l-348 0 ZM34 0 l104 745 l230 0 q107 0 186 -43 q79 -43 123 -118.5 q44 -75.5 44 -173.5 q0 -89 -29 -164 q-29 -75 -84.5 -130 q-55.5 -55 -131.5 -85.5 q-76 -30.5 -171 -30.5 l-271 0 ZM187 120 l119 0 q62 0 112.5 20.5 q50.5 20.5 87.5 59 q37 38.5 57 91 q20 52.5 20 115.5 q0 68 -27 117 q-27 49 -77 75.5 q-50 26.5 -120 26.5 l-102 0 l-70 -505 Z" /><glyph glyph-name="E" unicode="E" d="M34 0 l104 745 l496 0 l-17 -120 l-360 0 l-26 -191 l339 0 l-16 -120 l-340 0 l-27 -194 l359 0 l-16 -120 l-496 0 Z" /><glyph glyph-name="uni018F" unicode="&#x18f;" d="M386 -12 q-95 0 -168.5 41 q-73.5 41 -115.5 114.5 q-42 73.5 -42 172.5 q0 36 4.5 60.5 q4.5 24.5 7.5 36.5 l597 0 l-7 -109 l-517 0 l66 46 q-1 -9 -3.5 -23.5 q-2.5 -14.5 -2.5 -29.5 q0 -53 24 -94.5 q24 -41.5 67.5 -66 q43.5 -24.5 101.5 -24.5 q50 0 93 18 q43 18 75.5 52 q32.5 34 52.5 82.5 q20 48.5 22 107.5 q8 77 -18.5 135.5 q-26.5 58.5 -79.5 92 q-53 33.5 -126 33.5 q-65 0 -118 -27.5 q-53 -27.5 -86 -80.5 l-109 55 q28 53 76.5 93 q48.5 40 112 62 q63.5 22 134.5 22 q80 0 145 -27.5 q65 -27.5 111 -77 q46 -49.5 71 -115.5 q25 -66 25 -142 q0 -85 -30 -159 q-30 -74 -83 -129.5 q-53 -55.5 -124.5 -87 q-71.5 -31.5 -155.5 -31.5 Z" /><glyph glyph-name="F" unicode="F" d="M34 0 l104 745 l497 0 l-16 -120 l-362 0 l-28 -206 l316 0 l-17 -120 l-316 0 l-42 -299 l-136 0 Z" /><glyph glyph-name="G" unicode="G" d="M412 -12 q-72 0 -135 25 q-63 25 -110.5 72 q-47.5 47 -74.5 113 q-27 66 -27 147 q0 86 30.5 161 q30.5 75 84.5 131.5 q54 56.5 126.5 88 q72.5 31.5 157.5 31.5 q80 0 142 -27 q62 -27 103 -71.5 q41 -44.5 56 -97.5 l-125 -58 q-18 58 -65 94 q-47 36 -120 36 q-56 0 -102.5 -21.5 q-46.5 -21.5 -80.5 -60 q-34 -38.5 -52.5 -89.5 q-18.5 -51 -18.5 -111 q0 -72 27.5 -126 q27.5 -54 77.5 -83.5 q50 -29.5 116 -29.5 q58 0 105.5 22.5 q47.5 22.5 79 64.5 q31.5 42 37.5 98 l7 57 l58 -54 l-276 0 l9 115 l351 0 l-9 -90 q-7 -82 -40.5 -145 q-33.5 -63 -84.5 -105.5 q-51 -42.5 -114.5 -64.5 q-63.5 -22 -132.5 -22 Z" /><glyph glyph-name="H" unicode="H" d="M34 0 l104 745 l136 0 l-45 -325 l317 0 l46 325 l136 0 l-104 -745 l-136 0 l41 300 l-317 0 l-42 -300 l-136 0 Z" /><glyph glyph-name="Hbar" unicode="&#x126;" d="M31 537 l16 116 l746 0 l-16 -116 l-746 0 ZM34 0 l104 745 l136 0 l-45 -325 l317 0 l46 325 l136 0 l-104 -745 l-136 0 l41 300 l-317 0 l-42 -300 l-136 0 Z" /><glyph glyph-name="I" unicode="I" d="M34 0 l104 745 l136 0 l-104 -745 l-136 0 Z" /><glyph glyph-name="J" unicode="J" d="M1 0 l17 125 l41 0 q49 0 82 27.5 q33 27.5 40 73.5 l73 519 l136 0 l-75 -536 q-8 -59 -40.5 -106 q-32.5 -47 -87 -75 q-54.5 -28 -127.5 -28 l-59 0 Z" /><glyph glyph-name="K" unicode="K" d="M34 0 l104 745 l136 0 l-54 -388 l-36 13 l370 375 l171 0 l-346 -352 l22 96 l229 -489 l-151 0 l-157 334 l-123 -125 l-29 -209 l-136 0 Z" /><glyph glyph-name="L" unicode="L" d="M34 0 l104 745 l136 0 l-87 -625 l319 0 l-17 -120 l-455 0 Z" /><glyph glyph-name="Ldot" unicode="&#x13f;" d="M382 300 q-30 0 -51.5 21.5 q-21.5 21.5 -21.5 51.5 q0 30 21.5 51 q21.5 21 51.5 21 q30 0 51 -21 q21 -21 21 -51 q0 -31 -21 -52 q-21 -21 -51 -21 ZM34 0 l104 745 l136 0 l-87 -625 l319 0 l-17 -120 l-455 0 Z" /><glyph glyph-name="Lslash" unicode="&#x141;" d="M27 209 l18 128 l372 200 l-18 -128 l-372 -200 ZM102 0 l104 745 l136 0 l-87 -625 l319 0 l-17 -120 l-455 0 Z" /><glyph glyph-name="M" unicode="M" d="M34 0 l104 745 l130 0 l226 -390 l-82 5 l342 385 l134 0 l-104 -745 l-136 0 l81 586 l41 -14 l-326 -372 l-16 0 l-230 403 l54 -17 l-82 -586 l-136 0 Z" /><glyph glyph-name="N" unicode="N" d="M34 0 l104 745 l107 0 l323 -552 l-48 -11 l79 563 l136 0 l-104 -745 l-107 0 l-319 556 l44 11 l-79 -567 l-136 0 Z" /><glyph glyph-name="Eng" unicode="&#x14a;" d="M394 -221 q-13 0 -27 1 q-14 1 -22 3 l16 115 q16 -3 35 -3 q43 0 68 19.5 q25 19.5 31 58.5 l18 121 l21 -110 l-325 565 l38 7 l-77 -556 l-136 0 l104 745 l107 0 l316 -540 l-39 -8 l77 548 l136 0 l-108 -772 q-8 -62 -39.5 -105.5 q-31.5 -43.5 -81 -66 q-49.5 -22.5 -112.5 -22.5 Z" /><glyph glyph-name="O" unicode="O" d="M433 -12 q-79 0 -146.5 27 q-67.5 27 -117 75.5 q-49.5 48.5 -77 114 q-27.5 65.5 -27.5 143.5 q0 87 31.5 161 q31.5 74 87.5 130 q56 56 131 87 q75 31 162 31 q80 0 147.5 -26.5 q67.5 -26.5 117 -75 q49.5 -48.5 77 -114 q27.5 -65.5 27.5 -142.5 q0 -87 -32 -161.5 q-32 -74.5 -88.5 -130.5 q-56.5 -56 -131.5 -87.5 q-75 -31.5 -161 -31.5 ZM433 112 q58 0 108 21.5 q50 21.5 88 60.5 q38 39 59 91 q21 52 21 112 q0 70 -29.5 123 q-29.5 53 -82 83 q-52.5 30 -120.5 30 q-58 0 -108 -21.5 q-50 -21.5 -88 -60 q-38 -38.5 -59 -90 q-21 -51.5 -21 -112.5 q0 -69 30 -122.5 q30 -53.5 82 -84 q52 -30.5 120 -30.5 Z" /><glyph glyph-name="Ohorn" unicode="&#x1a0;" d="M433 -12 q-79 0 -146.5 27 q-67.5 27 -117 75.5 q-49.5 48.5 -77 114 q-27.5 65.5 -27.5 143.5 q0 87 31.5 161 q31.5 74 87.5 130 q56 56 131 87 q75 31 162 31 l206 0 q11 0 23.5 4 q12.5 4 22.5 17.5 q10 13.5 10 42.5 q0 15 -3 31 q-3 16 -8 32 l118 0 q5 -15 8.5 -31.5 q3.5 -16.5 3.5 -33.5 q0 -72 -29.5 -115 q-29.5 -43 -80.5 -43 l-71 0 l29 24 q65 -47 102.5 -121 q37.5 -74 37.5 -165 q0 -87 -32 -161.5 q-32 -74.5 -88.5 -130.5 q-56.5 -56 -131.5 -87.5 q-75 -31.5 -161 -31.5 ZM433 112 q58 0 108 21.5 q50 21.5 88 60.5 q38 39 59 91 q21 52 21 112 q0 70 -29.5 123 q-29.5 53 -82 83 q-52.5 30 -120.5 30 q-58 0 -108 -21.5 q-50 -21.5 -88 -60 q-38 -38.5 -59 -90 q-21 -51.5 -21 -112.5 q0 -69 30 -122.5 q30 -53.5 82 -84 q52 -30.5 120 -30.5 Z" /><glyph glyph-name="Oslash" unicode="Ø" d="M22 0 l714 745 l152 0 l-714 -745 l-152 0 ZM433 -12 q-79 0 -146.5 27 q-67.5 27 -117 75.5 q-49.5 48.5 -77 114 q-27.5 65.5 -27.5 143.5 q0 87 31.5 161 q31.5 74 87.5 130 q56 56 131 87 q75 31 162 31 q80 0 147.5 -26.5 q67.5 -26.5 117 -75 q49.5 -48.5 77 -114 q27.5 -65.5 27.5 -142.5 q0 -87 -32 -161.5 q-32 -74.5 -88.5 -130.5 q-56.5 -56 -131.5 -87.5 q-75 -31.5 -161 -31.5 ZM433 112 q58 0 108 21.5 q50 21.5 88 60.5 q38 39 59 91 q21 52 21 112 q0 70 -29.5 123 q-29.5 53 -82 83 q-52.5 30 -120.5 30 q-58 0 -108 -21.5 q-50 -21.5 -88 -60 q-38 -38.5 -59 -90 q-21 -51.5 -21 -112.5 q0 -69 30 -122.5 q30 -53.5 82 -84 q52 -30.5 120 -30.5 Z" /><glyph glyph-name="OE" unicode="&#x152;" d="M433 -12 q-79 0 -146.5 27 q-67.5 27 -117 75.5 q-49.5 48.5 -77 114 q-27.5 65.5 -27.5 143.5 q0 87 31.5 161 q31.5 74 87.5 130 q56 56 131 87 q75 31 162 31 q65 0 121.5 -17.5 q56.5 -17.5 102.5 -52.5 q46 -35 79 -88 l-33 -22 l23 168 l496 0 l-17 -120 l-359 0 l-26 -191 l338 0 l-16 -120 l-339 0 l-27 -194 l358 0 l-17 -120 l-495 0 l17 127 l23 -27 q-54 -55 -123.5 -83.5 q-69.5 -28.5 -149.5 -28.5 ZM433 112 q58 0 108 21.5 q50 21.5 88 60.5 q38 39 59 91 q21 52 21 112 q0 70 -29.5 123 q-29.5 53 -82 83 q-52.5 30 -120.5 30 q-58 0 -108 -21.5 q-50 -21.5 -88 -60 q-38 -38.5 -59 -90 q-21 -51.5 -21 -112.5 q0 -69 30 -122.5 q30 -53.5 82 -84 q52 -30.5 120 -30.5 Z" /><glyph glyph-name="P" unicode="P" d="M34 0 l104 745 l267 0 q71 0 124 -26 q53 -26 82.5 -75.5 q29.5 -49.5 29.5 -121.5 q0 -72 -34.5 -128 q-34.5 -56 -97 -87.5 q-62.5 -31.5 -147.5 -31.5 l-153 0 l-39 -275 l-136 0 ZM226 395 l145 0 q39 0 69 16.5 q30 16.5 47 45.5 q17 29 17 66 q0 47 -29.5 74.5 q-29.5 27.5 -80.5 27.5 l-137 0 l-31 -230 Z" /><glyph glyph-name="Thorn" unicode="Þ" d="M27 0 l104 745 l137 0 l-20 -137 l151 0 q71 0 124 -26 q53 -26 82.5 -75.5 q29.5 -49.5 29.5 -121.5 q0 -73 -34.5 -129 q-34.5 -56 -97 -87 q-62.5 -31 -147.5 -31 l-173 0 l-19 -138 l-137 0 ZM200 258 l164 0 q40 0 69.5 16.5 q29.5 16.5 47 45 q17.5 28.5 17.5 65.5 q0 47 -30 75 q-30 28 -80 28 l-157 0 l-31 -230 Z" /><glyph glyph-name="Q" unicode="Q" d="M433 -12 q-79 0 -146.5 27 q-67.5 27 -117 75.5 q-49.5 48.5 -77 114 q-27.5 65.5 -27.5 143.5 q0 87 31.5 161 q31.5 74 87.5 130 q56 56 131 87 q75 31 162 31 q80 0 147.5 -26.5 q67.5 -26.5 117 -75 q49.5 -48.5 77 -114 q27.5 -65.5 27.5 -142.5 q0 -87 -32 -161.5 q-32 -74.5 -88.5 -130.5 q-56.5 -56 -131.5 -87.5 q-75 -31.5 -161 -31.5 ZM433 112 q58 0 108 21.5 q50 21.5 88 60.5 q38 39 59 91 q21 52 21 112 q0 70 -29.5 123 q-29.5 53 -82 83 q-52.5 30 -120.5 30 q-58 0 -108 -21.5 q-50 -21.5 -88 -60 q-38 -38.5 -59 -90 q-21 -51.5 -21 -112.5 q0 -69 30 -122.5 q30 -53.5 82 -84 q52 -30.5 120 -30.5 ZM568 -90 l-178 388 l135 0 l180 -388 l-137 0 Z" /><glyph glyph-name="R" unicode="R" d="M34 0 l104 745 l267 0 q71 0 124 -26 q53 -26 82.5 -75.5 q29.5 -49.5 29.5 -121.5 q0 -54 -19 -99 q-19 -45 -55 -78 q-36 -33 -87 -51 l126 -294 l-146 0 l-138 330 l82 -55 l-195 0 l-39 -275 l-136 0 ZM226 395 l145 0 q39 0 69 16.5 q30 16.5 47 45.5 q17 29 17 66 q0 47 -29.5 74.5 q-29.5 27.5 -80.5 27.5 l-137 0 l-31 -230 Z" /><glyph glyph-name="S" unicode="S" d="M325 -12 q-75 0 -136.5 26 q-61.5 26 -103 73.5 q-41.5 47.5 -57.5 110.5 l117 44 q19 -64 67.5 -99.5 q48.5 -35.5 112.5 -35.5 q39 0 68 13.5 q29 13.5 44.5 36.5 q15.5 23 15.5 51 q0 29 -17.5 49 q-17.5 20 -55.5 32 l-132 44 q-79 26 -118 75 q-39 49 -39 119 q0 65 34.5 117 q34.5 52 93.5 82.5 q59 30.5 134 30.5 q70 0 126 -24 q56 -24 93.5 -66 q37.5 -42 51.5 -99 l-116 -44 q-15 54 -57 84 q-42 30 -101 30 q-36 0 -64 -12.5 q-28 -12.5 -43.5 -34.5 q-15.5 -22 -15.5 -52 q0 -30 18.5 -51.5 q18.5 -21.5 57.5 -34.5 l125 -43 q82 -27 122 -75 q40 -48 40 -118 q0 -63 -35 -115 q-35 -52 -94.5 -83 q-59.5 -31 -135.5 -31 Z" /><glyph glyph-name="T" unicode="T" d="M167 0 l87 625 l-193 0 l16 120 l520 0 l-16 -120 l-191 0 l-87 -625 l-136 0 Z" /><glyph glyph-name="Tbar" unicode="&#x166;" d="M104 316 l16 115 l348 0 l-16 -115 l-348 0 ZM167 0 l87 625 l-193 0 l16 120 l520 0 l-16 -120 l-191 0 l-87 -625 l-136 0 Z" /><glyph glyph-name="U" unicode="U" d="M332 -12 q-88 0 -152 37 q-64 37 -95.5 100.5 q-31.5 63.5 -20.5 143.5 l66 476 l137 0 l-66 -475 q-7 -46 8.5 -82 q15.5 -36 49 -56 q33.5 -20 80.5 -20 q46 0 84 20 q38 20 63.5 57 q25.5 37 32.5 87 l65 469 l136 0 l-68 -483 q-10 -80 -54.5 -142 q-44.5 -62 -113 -97 q-68.5 -35 -152.5 -35 Z" /><glyph glyph-name="Uhorn" unicode="&#x1af;" d="M332 -12 q-88 0 -152 37 q-64 37 -95.5 100.5 q-31.5 63.5 -20.5 143.5 l66 476 l137 0 l-66 -475 q-7 -46 8.5 -82 q15.5 -36 49 -56 q33.5 -20 80.5 -20 q46 0 84 20 q38 20 63.5 57 q25.5 37 32.5 87 l65 469 l136 0 l-68 -483 q-10 -80 -54.5 -142 q-44.5 -62 -113 -97 q-68.5 -35 -152.5 -35 ZM665 649 l13 96 l21 0 q11 0 23.5 4 q12.5 4 22.5 17.5 q10 13.5 10 42.5 q0 15 -3 31 q-3 16 -8 32 l118 0 q5 -15 8.5 -31.5 q3.5 -16.5 3.5 -33.5 q0 -72 -45 -115 q-45 -43 -122 -43 l-42 0 Z" /><glyph glyph-name="V" unicode="V" d="M233 0 l-156 745 l143 0 l118 -617 l-32 0 l291 617 l155 0 l-363 -745 l-156 0 Z" /><glyph glyph-name="W" unicode="W" d="M173 0 l-96 745 l143 0 l68 -635 l-43 0 l261 635 l135 0 l81 -635 l-48 0 l253 635 l148 0 l-303 -745 l-157 0 l-78 618 l44 0 l-252 -618 l-156 0 Z" /><glyph glyph-name="X" unicode="X" d="M-27 0 l297 382 l-182 363 l147 0 l152 -303 l-63 5 l224 298 l167 0 l-286 -375 l184 -370 l-147 0 l-153 309 l63 -6 l-237 -303 l-166 0 Z" /><glyph glyph-name="Y" unicode="Y" d="M224 0 l46 330 l-193 415 l147 0 l147 -324 l-56 1 l235 323 l165 0 l-307 -414 l-46 -331 l-138 0 Z" /><glyph glyph-name="Z" unicode="Z" d="M-24 0 l15 107 l422 518 l-328 0 l16 120 l513 0 l-14 -107 l-426 -518 l363 0 l-17 -120 l-544 0 Z" /><glyph glyph-name="a" unicode="a" d="M201 -12 q-52 0 -92.5 17 q-40.5 17 -63.5 50 q-23 33 -23 81 q0 52 26 89 q26 37 72 60.5 q46 23.5 106 32.5 l183 29 l-10 -100 l-154 -27 q-37 -7 -62 -25.5 q-25 -18.5 -25 -50.5 q0 -28 20.5 -42 q20.5 -14 52.5 -14 q40 0 72 18.5 q32 18.5 53 49.5 q21 31 25 68 l19 136 q4 27 -8.5 45.5 q-12.5 18.5 -34.5 28.5 q-22 10 -48 10 q-45 0 -80.5 -24 q-35.5 -24 -54.5 -61 l-103 58 q21 43 57.5 73.5 q36.5 30.5 85 48 q48.5 17.5 103.5 17.5 q66 0 117.5 -26 q51.5 -26 78.5 -71 q27 -45 18 -105 l-49 -354 l-125 0 l13 93 l33 -1 q-25 -35 -56 -58 q-31 -23 -67.5 -34.5 q-36.5 -11.5 -78.5 -11.5 Z" /><glyph glyph-name="ae" unicode="æ" d="M201 -12 q-52 0 -92.5 17 q-40.5 17 -63.5 50 q-23 33 -23 81 q0 52 26 89 q26 37 72 60.5 q46 23.5 106 32.5 l172 27 l2 15 q3 27 -9 45.5 q-12 18.5 -34 28.5 q-22 10 -48 10 q-45 0 -80.5 -24 q-35.5 -24 -54.5 -61 l-103 58 q21 43 57.5 73.5 q36.5 30.5 85 48 q48.5 17.5 103.5 17.5 q45 0 83.5 -12.5 q38.5 -12.5 68 -35 q29.5 -22.5 44.5 -54.5 l-47 2 q40 46 95.5 73 q55.5 27 120.5 27 q81 0 136.5 -33 q55.5 -33 84.5 -88.5 q29 -55.5 29 -124.5 q0 -18 -3 -37 q-3 -19 -7 -38 l-393 0 q2 -42 18.5 -71 q16.5 -29 45.5 -45 q29 -16 68 -16 q46 0 79.5 20 q33.5 20 53.5 51 l104 -54 q-19 -39 -54.5 -69 q-35.5 -30 -83 -46.5 q-47.5 -16.5 -101.5 -16.5 q-63 0 -113 22.5 q-50 22.5 -83 61.5 l35 35 l-16 -107 l-125 0 l16 108 l21 -29 q-25 -30 -55 -50.5 q-30 -20.5 -64 -30.5 q-34 -10 -74 -10 ZM231 88 q40 0 72 18.5 q32 18.5 53 49.5 q21 31 25 68 l3 21 l-139 -25 q-37 -7 -62 -25.5 q-25 -18.5 -25 -50.5 q0 -28 20.5 -42 q20.5 -14 52.5 -14 ZM539 335 l256 0 q1 33 -13.5 58.5 q-14.5 25.5 -40 40 q-25.5 14.5 -60.5 14.5 q-38 0 -66.5 -14.5 q-28.5 -14.5 -47 -39.5 q-18.5 -25 -28.5 -59 Z" /><glyph glyph-name="b" unicode="b" d="M339 -12 q-64 0 -115.5 24.5 q-51.5 24.5 -78.5 68.5 l17 24 l-14 -105 l-125 0 l106 757 l132 0 l-44 -321 l-36 29 q32 44 81.5 67.5 q49.5 23.5 109.5 23.5 q76 0 134 -35.5 q58 -35.5 91.5 -95.5 q33.5 -60 33.5 -135 q0 -62 -22.5 -117 q-22.5 -55 -62.5 -96.5 q-40 -41.5 -93 -65 q-53 -23.5 -114 -23.5 ZM326 108 q49 0 87 24.5 q38 24.5 59.5 65.5 q21.5 41 21.5 91 q0 43 -17.5 76 q-17.5 33 -48.5 52 q-31 19 -74 19 q-48 0 -85.5 -24.5 q-37.5 -24.5 -58.5 -65.5 q-21 -41 -21 -91 q0 -43 17.5 -76.5 q17.5 -33.5 48.5 -52 q31 -18.5 71 -18.5 Z" /><glyph glyph-name="c" unicode="c" d="M307 -12 q-77 0 -138 35 q-61 35 -95 95.5 q-34 60.5 -34 136.5 q0 63 23 118 q23 55 64.5 96 q41.5 41 96 64 q54.5 23 116.5 23 q60 0 109 -20.5 q49 -20.5 83.5 -57 q34.5 -36.5 47.5 -84.5 l-117 -48 q-12 42 -45 66 q-33 24 -79 24 q-48 0 -85 -25.5 q-37 -25.5 -57 -66.5 q-20 -41 -20 -89 q0 -43 16.5 -76 q16.5 -33 47 -52 q30.5 -19 69.5 -19 q49 0 86 25.5 q37 25.5 56 67.5 l111 -55 q-19 -46 -57 -82 q-38 -36 -89 -56 q-51 -20 -110 -20 Z" /><glyph glyph-name="d" unicode="d" d="M297 -12 q-77 0 -135 33 q-58 33 -90.5 91.5 q-32.5 58.5 -32.5 134.5 q0 69 23.5 125.5 q23.5 56.5 65 97.5 q41.5 41 96 63.5 q54.5 22.5 115.5 22.5 q65 0 113.5 -25.5 q48.5 -25.5 74.5 -69.5 l-28 -25 l44 321 l133 0 l-105 -757 l-125 0 l14 105 l29 -20 q-30 -48 -81.5 -72.5 q-51.5 -24.5 -110.5 -24.5 ZM315 108 q49 0 86.5 24.5 q37.5 24.5 58.5 66 q21 41.5 21 91.5 q0 42 -17.5 75 q-17.5 33 -48 52 q-30.5 19 -71.5 19 q-49 0 -87 -24.5 q-38 -24.5 -59.5 -65.5 q-21.5 -41 -21.5 -92 q0 -43 17.5 -75.5 q17.5 -32.5 49 -51.5 q31.5 -19 72.5 -19 Z" /><glyph glyph-name="dcroat" unicode="&#x111;" d="M438 590 l15 100 l295 0 l-15 -100 l-295 0 ZM297 -12 q-77 0 -135 33 q-58 33 -90.5 91.5 q-32.5 58.5 -32.5 134.5 q0 69 23.5 125.5 q23.5 56.5 65 97.5 q41.5 41 96 63.5 q54.5 22.5 115.5 22.5 q65 0 113.5 -25.5 q48.5 -25.5 74.5 -69.5 l-28 -25 l44 321 l133 0 l-105 -757 l-125 0 l14 105 l29 -20 q-30 -48 -81.5 -72.5 q-51.5 -24.5 -110.5 -24.5 ZM315 108 q49 0 86.5 24.5 q37.5 24.5 58.5 66 q21 41.5 21 91.5 q0 42 -17.5 75 q-17.5 33 -48 52 q-30.5 19 -71.5 19 q-49 0 -87 -24.5 q-38 -24.5 -59.5 -65.5 q-21.5 -41 -21.5 -92 q0 -43 17.5 -75.5 q17.5 -32.5 49 -51.5 q31.5 -19 72.5 -19 Z" /><glyph glyph-name="eth" unicode="ð" d="M312 -12 q-74 0 -134.5 33.5 q-60.5 33.5 -96 92.5 q-35.5 59 -35.5 136 q0 62 23.5 116 q23.5 54 64 94.5 q40.5 40.5 94.5 63 q54 22.5 116 22.5 q36 0 67.5 -9 q31.5 -9 58 -28 q26.5 -19 45.5 -51 l-22 -31 q3 57 -16 103.5 q-19 46.5 -55 80 q-36 33.5 -84 52 q-48 18.5 -101 18.5 q-26 0 -53 -4.5 q-27 -4.5 -53 -12.5 l-11 108 q38 13 74 18.5 q36 5.5 68 5.5 q90 0 158 -34.5 q68 -34.5 114.5 -95 q46.5 -60.5 70 -138.5 q23.5 -78 23.5 -165 q0 -107 -35.5 -192 q-35.5 -85 -106 -134 q-70.5 -49 -174.5 -49 ZM321 108 q47 0 85 24 q38 24 59.5 65 q21.5 41 21.5 89 q0 40 -16.5 71.5 q-16.5 31.5 -47.5 50 q-31 18.5 -73 18.5 q-49 0 -87 -24 q-38 -24 -59.5 -63.5 q-21.5 -39.5 -21.5 -86.5 q0 -42 18 -74.5 q18 -32.5 49.5 -51 q31.5 -18.5 71.5 -18.5 ZM251 563 l4 60 l349 131 l-3 -60 l-350 -131 Z" /><glyph glyph-name="e" unicode="e" d="M304 -12 q-80 0 -139.5 35 q-59.5 35 -92 95.5 q-32.5 60.5 -32.5 135.5 q0 62 21.5 116.5 q21.5 54.5 61 96.5 q39.5 42 91.5 65.5 q52 23.5 114 23.5 q80 0 136 -33 q56 -33 85 -88.5 q29 -55.5 29 -124.5 q0 -18 -3 -37 q-3 -19 -8 -38 l-420 0 l7 100 l345 0 l-65 -45 q13 45 2.5 80.5 q-10.5 35.5 -39 56.5 q-28.5 21 -70.5 21 q-55 0 -88.5 -27 q-33.5 -27 -49 -73.5 q-15.5 -46.5 -15.5 -103.5 q0 -44 16.5 -76 q16.5 -32 46.5 -48.5 q30 -16.5 70 -16.5 q45 0 79 20 q34 20 54 51 l104 -54 q-19 -39 -54.5 -69 q-35.5 -30 -83 -46.5 q-47.5 -16.5 -102.5 -16.5 Z" /><glyph glyph-name="uni0259" unicode="&#x259;" d="M286 -12 q-81 0 -136.5 33 q-55.5 33 -84.5 89 q-29 56 -29 124 q0 18 3 37 q3 19 7 38 l421 0 l-7 -100 l-346 0 l66 45 q-13 -44 -3 -80 q10 -36 39 -57 q29 -21 71 -21 q54 0 88 27 q34 27 49.5 73.5 q15.5 46.5 15.5 103.5 q0 45 -16.5 76.5 q-16.5 31.5 -46.5 48 q-30 16.5 -70 16.5 q-46 0 -80 -20 q-34 -20 -53 -52 l-105 55 q20 39 55.5 69 q35.5 30 82.5 46.5 q47 16.5 102 16.5 q81 0 140.5 -35 q59.5 -35 92 -95.5 q32.5 -60.5 32.5 -135.5 q0 -62 -21.5 -116.5 q-21.5 -54.5 -61 -96.5 q-39.5 -42 -92 -65.5 q-52.5 -23.5 -113.5 -23.5 Z" /><glyph glyph-name="f" unicode="f" d="M85 0 l60 427 l-95 0 l16 117 l96 0 l3 19 q10 63 40 106.5 q30 43.5 77 65.5 q47 22 108 22 q15 0 29.5 -2 q14.5 -2 24.5 -4 l-8 -111 q-10 2 -18 2 q-8 0 -13 0 q-46 0 -74.5 -18.5 q-28.5 -18.5 -35.5 -65.5 l-2 -14 l121 0 l-17 -117 l-120 0 l-60 -427 l-132 0 Z" /><glyph glyph-name="g" unicode="g" d="M266 -220 q-62 0 -113 21 q-51 21 -84.5 57.5 q-33.5 36.5 -43.5 84.5 l124 38 q7 -38 40 -59.5 q33 -21.5 87 -21.5 q39 0 71 15 q32 15 53 42 q21 27 25 63 l19 131 l33 -32 q-31 -49 -78.5 -73 q-47.5 -24 -107.5 -24 q-72 0 -128.5 32 q-56.5 32 -88.5 88.5 q-32 56.5 -32 129.5 q0 61 21.5 113 q21.5 52 59.5 90 q38 38 89 59.5 q51 21.5 110 21.5 q64 0 115 -26 q51 -26 79 -75 l-26 -31 l16 120 l125 0 l-73 -528 q-9 -69 -49.5 -122 q-40.5 -53 -103 -83.5 q-62.5 -30.5 -139.5 -30.5 ZM309 143 q45 0 80.5 22 q35.5 22 55 58 q19.5 36 19.5 79 q0 39 -16 69 q-16 30 -44.5 47.5 q-28.5 17.5 -68.5 17.5 q-44 0 -79.5 -21.5 q-35.5 -21.5 -56.5 -57.5 q-21 -36 -21 -82 q0 -38 16.5 -68 q16.5 -30 46 -47 q29.5 -17 68.5 -17 Z" /><glyph glyph-name="h" unicode="h" d="M23 0 l106 757 l130 0 l-44 -320 l-15 22 q26 50 71 73.5 q45 23.5 100 23.5 q62 0 105.5 -29 q43.5 -29 64 -78.5 q20.5 -49.5 11.5 -111.5 l-47 -337 l-131 0 l44 322 q8 52 -18 83 q-26 31 -74 31 q-32 0 -59 -14.5 q-27 -14.5 -45 -40.5 q-18 -26 -24 -62 l-44 -319 l-131 0 Z" /><glyph glyph-name="hbar" unicode="&#x127;" d="M23 590 l14 100 l295 0 l-14 -100 l-295 0 ZM23 0 l106 757 l130 0 l-44 -320 l-15 22 q26 50 71 73.5 q45 23.5 100 23.5 q62 0 105.5 -29 q43.5 -29 64 -78.5 q20.5 -49.5 11.5 -111.5 l-47 -337 l-131 0 l44 322 q8 52 -18 83 q-26 31 -74 31 q-32 0 -59 -14.5 q-27 -14.5 -45 -40.5 q-18 -26 -24 -62 l-44 -319 l-131 0 Z" /><glyph glyph-name="i" unicode="i" d="M23 0 l76 544 l132 0 l-76 -544 l-132 0 ZM107 605 l20 140 l132 0 l-19 -140 l-133 0 Z" /><glyph glyph-name="dotlessi" unicode="&#x131;" d="M11 0 l76 544 l132 0 l-76 -544 l-132 0 Z" /><glyph glyph-name="j" unicode="j" d="M-72 -221 q-15 0 -30 1.5 q-15 1.5 -24 3.5 l9 112 q9 -1 17.5 -1.5 q8.5 -0.5 14.5 -0.5 q45 0 73.5 21.5 q28.5 21.5 33.5 60.5 l80 568 l132 0 l-80 -575 q-9 -62 -39 -104.5 q-30 -42.5 -78 -64 q-48 -21.5 -109 -21.5 ZM111 605 l19 140 l133 0 l-20 -140 l-132 0 Z" /><glyph glyph-name="uni0237" unicode="&#x237;" d="M-72 -221 q-15 0 -30 1.5 q-15 1.5 -24 3.5 l9 112 q9 -1 17.5 -1.5 q8.5 -0.5 14.5 -0.5 q45 0 73.5 21.5 q28.5 21.5 33.5 60.5 l80 568 l132 0 l-80 -575 q-9 -62 -39 -104.5 q-30 -42.5 -78 -64 q-48 -21.5 -109 -21.5 Z" /><glyph glyph-name="k" unicode="k" d="M23 0 l106 757 l132 0 l-70 -496 l-61 15 l294 268 l175 0 l-232 -219 l160 -325 l-142 0 l-138 282 l72 16 l-189 -176 l53 80 l-28 -202 l-132 0 Z" /><glyph glyph-name="kgreenlandic" unicode="&#x138;" d="M387 0 l-129 230 l4 106 l163 208 l155 0 l-206 -266 l154 -278 l-141 0 ZM23 0 l76 544 l132 0 l-76 -544 l-132 0 ZM136 225 l17 117 l190 0 l-17 -117 l-190 0 Z" /><glyph glyph-name="l" unicode="l" d="M23 0 l106 757 l132 0 l-106 -757 l-132 0 Z" /><glyph glyph-name="ldot" unicode="&#x140;" d="M344 300 q-30 0 -51.5 21.5 q-21.5 21.5 -21.5 51.5 q0 30 21.5 51 q21.5 21 51.5 21 q30 0 51 -21 q21 -21 21 -51 q0 -31 -21 -52 q-21 -21 -51 -21 ZM23 0 l106 757 l132 0 l-106 -757 l-132 0 Z" /><glyph glyph-name="lslash" unicode="&#x142;" d="M26 241 l18 128 l322 174 l-18 -128 l-322 -174 ZM75 0 l106 757 l133 0 l-106 -757 l-133 0 Z" /><glyph glyph-name="m" unicode="m" d="M23 0 l76 544 l123 0 l-16 -120 l-13 19 q26 60 70.5 86.5 q44.5 26.5 102.5 26.5 q67 0 113.5 -35 q46.5 -35 60.5 -93 l-46 -3 q36 70 91.5 100.5 q55.5 30.5 121.5 30.5 q59 0 102 -27 q43 -27 63.5 -75 q20.5 -48 11.5 -110 l-47 -344 l-132 0 l45 322 q5 35 -4.5 60 q-9.5 25 -30.5 39.5 q-21 14.5 -53 14.5 q-31 0 -57 -14 q-26 -14 -43 -39.5 q-17 -25.5 -22 -60.5 l-45 -322 l-131 0 l45 322 q5 35 -4.5 60 q-9.5 25 -30.5 39.5 q-21 14.5 -53 14.5 q-31 0 -57.5 -14.5 q-26.5 -14.5 -43 -40.5 q-16.5 -26 -22.5 -62 l-44 -319 l-131 0 Z" /><glyph glyph-name="n" unicode="n" d="M23 0 l76 544 l123 0 l-14 -107 l-8 22 q26 50 71 73.5 q45 23.5 100 23.5 q62 0 105.5 -29 q43.5 -29 64 -78.5 q20.5 -49.5 11.5 -111.5 l-47 -337 l-131 0 l45 322 q7 52 -19 83 q-26 31 -74 31 q-32 0 -59.5 -14.5 q-27.5 -14.5 -45 -40.5 q-17.5 -26 -23.5 -62 l-44 -319 l-131 0 Z" /><glyph glyph-name="eng" unicode="&#x14b;" d="M268 -221 q-15 0 -29.5 1.5 q-14.5 1.5 -23.5 3.5 l9 112 q9 -1 17.5 -1.5 q8.5 -0.5 14.5 -0.5 q45 0 73.5 21.5 q28.5 21.5 33.5 60.5 l49 346 q7 52 -19 83 q-26 31 -74 31 q-32 0 -59 -14.5 q-27 -14.5 -45 -40.5 q-18 -26 -24 -62 l-44 -319 l-131 0 l76 544 l124 0 l-14 -107 l-9 22 q26 50 71 73.5 q45 23.5 101 23.5 q61 0 105 -29 q44 -29 64.5 -78.5 q20.5 -49.5 11.5 -111.5 l-52 -368 q-9 -62 -39.5 -104 q-30.5 -42 -78 -64 q-47.5 -22 -108.5 -22 Z" /><glyph glyph-name="o" unicode="o" d="M313 -12 q-77 0 -139 34.5 q-62 34.5 -98 95 q-36 60.5 -36 138.5 q0 63 23.5 117.5 q23.5 54.5 65.5 95.5 q42 41 97 64 q55 23 118 23 q77 0 139 -34.5 q62 -34.5 98 -94.5 q36 -60 36 -139 q0 -62 -24 -116.5 q-24 -54.5 -66 -96 q-42 -41.5 -97 -64.5 q-55 -23 -117 -23 ZM314 108 q48 0 85.5 24.5 q37.5 24.5 59 66 q21.5 41.5 21.5 91.5 q0 43 -17 75.5 q-17 32.5 -48 51.5 q-31 19 -72 19 q-48 0 -86 -24.5 q-38 -24.5 -59 -65.5 q-21 -41 -21 -92 q0 -43 17 -75.5 q17 -32.5 48 -51.5 q31 -19 72 -19 Z" /><glyph glyph-name="ohorn" unicode="&#x1a1;" d="M313 -12 q-77 0 -139 34.5 q-62 34.5 -98 95 q-36 60.5 -36 138.5 q0 63 23.5 117.5 q23.5 54.5 65.5 95.5 q42 41 97 64 q55 23 118 23 l106 0 q11 0 24 4 q13 4 22.5 17 q9.5 13 9.5 43 q0 14 -3 30 q-3 16 -8 32 l118 0 q5 -15 9 -31.5 q4 -16.5 4 -32.5 q0 -61 -33.5 -101 q-33.5 -40 -91.5 -50 l11 36 q48 -35 76.5 -90.5 q28.5 -55.5 28.5 -124.5 q0 -62 -24 -116.5 q-24 -54.5 -66 -96 q-42 -41.5 -97 -64.5 q-55 -23 -117 -23 ZM314 108 q48 0 85.5 24.5 q37.5 24.5 59 66 q21.5 41.5 21.5 91.5 q0 43 -17 75.5 q-17 32.5 -48 51.5 q-31 19 -72 19 q-48 0 -86 -24.5 q-38 -24.5 -59 -65.5 q-21 -41 -21 -92 q0 -43 17 -75.5 q17 -32.5 48 -51.5 q31 -19 72 -19 Z" /><glyph glyph-name="oslash" unicode="ø" d="M-19 0 l545 544 l150 0 l-545 -544 l-150 0 ZM313 -12 q-77 0 -139 34.5 q-62 34.5 -98 95 q-36 60.5 -36 138.5 q0 63 23.5 117.5 q23.5 54.5 65.5 95.5 q42 41 97 64 q55 23 118 23 q77 0 139 -34.5 q62 -34.5 98 -94.5 q36 -60 36 -139 q0 -62 -24 -116.5 q-24 -54.5 -66 -96 q-42 -41.5 -97 -64.5 q-55 -23 -117 -23 ZM314 108 q48 0 85.5 24.5 q37.5 24.5 59 66 q21.5 41.5 21.5 91.5 q0 43 -17 75.5 q-17 32.5 -48 51.5 q-31 19 -72 19 q-48 0 -86 -24.5 q-38 -24.5 -59 -65.5 q-21 -41 -21 -92 q0 -43 17 -75.5 q17 -32.5 48 -51.5 q31 -19 72 -19 Z" /><glyph glyph-name="oe" unicode="&#x153;" d="M313 -12 q-77 0 -139 34.5 q-62 34.5 -98 95 q-36 60.5 -36 138.5 q0 63 23.5 117.5 q23.5 54.5 65.5 95.5 q42 41 97 64 q55 23 118 23 q78 0 140.5 -35.5 q62.5 -35.5 96.5 -96.5 l-46 1 q25 40 61 69 q36 29 81 45.5 q45 16.5 96 16.5 q80 0 136 -33 q56 -33 85 -88.5 q29 -55.5 29 -124.5 q0 -18 -3 -37 q-3 -19 -8 -38 l-392 0 q2 -42 18.5 -71 q16.5 -29 45.5 -45 q29 -16 68 -16 q45 0 79 20 q34 20 54 51 l104 -54 q-19 -39 -54.5 -69 q-35.5 -30 -83 -46.5 q-47.5 -16.5 -102.5 -16.5 q-53 0 -98 16 q-45 16 -78.5 46 q-33.5 30 -54.5 70 l45 -1 q-27 -40 -66 -69.5 q-39 -29.5 -85.5 -45.5 q-46.5 -16 -98.5 -16 ZM314 108 q48 0 85.5 24.5 q37.5 24.5 59 66 q21.5 41.5 21.5 91.5 q0 43 -17 75.5 q-17 32.5 -48 51.5 q-31 19 -72 19 q-48 0 -86 -24.5 q-38 -24.5 -59 -65.5 q-21 -41 -21 -92 q0 -43 17 -75.5 q17 -32.5 48 -51.5 q31 -19 72 -19 ZM630 335 l256 0 q1 33 -13.5 58.5 q-14.5 25.5 -40.5 40 q-26 14.5 -60 14.5 q-39 0 -67 -14.5 q-28 -14.5 -47 -39.5 q-19 -25 -28 -59 Z" /><glyph glyph-name="p" unicode="p" d="M-5 -200 l104 744 l124 0 l-14 -108 l-28 29 q32 44 81.5 67.5 q49.5 23.5 109.5 23.5 q76 0 134 -35.5 q58 -35.5 91.5 -95.5 q33.5 -60 33.5 -135 q0 -62 -22.5 -117 q-22.5 -55 -62.5 -96.5 q-40 -41.5 -93 -65 q-53 -23.5 -114 -23.5 q-64 0 -115.5 24.5 q-51.5 24.5 -78.5 68.5 l28 24 l-41 -305 l-137 0 ZM326 108 q49 0 87 24.5 q38 24.5 59.5 65.5 q21.5 41 21.5 91 q0 43 -17.5 76 q-17.5 33 -48.5 52 q-31 19 -74 19 q-48 0 -85.5 -24.5 q-37.5 -24.5 -58.5 -65.5 q-21 -41 -21 -91 q0 -43 17.5 -76.5 q17.5 -33.5 48.5 -52 q31 -18.5 71 -18.5 Z" /><glyph glyph-name="thorn" unicode="þ" d="M-5 -200 l132 945 l136 0 l-42 -309 l-40 29 q32 44 81.5 67.5 q49.5 23.5 109.5 23.5 q76 0 134 -35.5 q58 -35.5 91.5 -95.5 q33.5 -60 33.5 -135 q0 -62 -22.5 -117 q-22.5 -55 -62.5 -96.5 q-40 -41.5 -93 -65 q-53 -23.5 -114 -23.5 q-64 0 -115.5 24.5 q-51.5 24.5 -78.5 68.5 l28 24 l-41 -305 l-137 0 ZM326 108 q49 0 87 24.5 q38 24.5 59.5 65.5 q21.5 41 21.5 91 q0 43 -17.5 76 q-17.5 33 -48.5 52 q-31 19 -74 19 q-48 0 -85.5 -24.5 q-37.5 -24.5 -58.5 -65.5 q-21 -41 -21 -91 q0 -43 17.5 -76.5 q17.5 -33.5 48.5 -52 q31 -18.5 71 -18.5 Z" /><glyph glyph-name="q" unicode="q" d="M412 -200 l40 305 l37 -20 q-30 -48 -81.5 -72.5 q-51.5 -24.5 -110.5 -24.5 q-77 0 -135 33 q-58 33 -90.5 91.5 q-32.5 58.5 -32.5 134.5 q0 69 23.5 125.5 q23.5 56.5 65 97.5 q41.5 41 96 63.5 q54.5 22.5 115.5 22.5 q65 0 113.5 -25.5 q48.5 -25.5 74.5 -69.5 l-20 -25 l14 108 l125 0 l-102 -744 l-132 0 ZM315 108 q49 0 86.5 24.5 q37.5 24.5 58.5 66 q21 41.5 21 91.5 q0 42 -17.5 75 q-17.5 33 -48 52 q-30.5 19 -71.5 19 q-49 0 -87 -24.5 q-38 -24.5 -59.5 -65.5 q-21.5 -41 -21.5 -92 q0 -43 17.5 -75.5 q17.5 -32.5 49 -51.5 q31.5 -19 72.5 -19 Z" /><glyph glyph-name="r" unicode="r" d="M23 0 l76 544 l124 0 l-16 -121 l-9 18 q28 61 71.5 85 q43.5 24 100.5 24 l32 0 l-16 -116 l-47 0 q-56 0 -94.5 -35.5 q-38.5 -35.5 -49.5 -105.5 l-40 -293 l-132 0 Z" /><glyph glyph-name="s" unicode="s" d="M238 -12 q-57 0 -105 19.5 q-48 19.5 -80 55 q-32 35.5 -44 82.5 l101 41 q18 -45 52.5 -70 q34.5 -25 80.5 -25 q40 0 62.5 18 q22.5 18 22.5 44 q0 23 -17 35 q-17 12 -38 17 l-87 25 q-60 17 -92.5 55.5 q-32.5 38.5 -32.5 92.5 q0 51 28 91 q28 40 76.5 63.5 q48.5 23.5 108.5 23.5 q79 0 135.5 -38.5 q56.5 -38.5 74.5 -105.5 l-103 -41 q-9 36 -40.5 57 q-31.5 21 -71.5 21 q-35 0 -57.5 -16 q-22.5 -16 -22.5 -42 q0 -24 17 -36 q17 -12 40 -18 l84 -26 q62 -19 94.5 -56.5 q32.5 -37.5 32.5 -89.5 q0 -50 -28 -90 q-28 -40 -77.5 -63.5 q-49.5 -23.5 -113.5 -23.5 Z" /><glyph glyph-name="germandbls" unicode="ß" d="M11 -157 l94 663 q11 79 51 135.5 q40 56.5 101.5 86 q61.5 29.5 134.5 29.5 q64 0 113.5 -22 q49.5 -22 78 -63.5 q28.5 -41.5 28.5 -100.5 q0 -35 -13.5 -73.5 q-13.5 -38.5 -46 -70.5 q-32.5 -32 -89.5 -51 l9 38 q62 -19 93.5 -59.5 q31.5 -40.5 31.5 -109.5 q0 -46 -16 -90 q-16 -44 -50 -79 q-34 -35 -87.5 -55.5 q-53.5 -20.5 -128.5 -20.5 l-67 0 l15 115 l54 0 q45 0 73.5 12.5 q28.5 12.5 44 32.5 q15.5 20 21.5 41.5 q6 21.5 6 39.5 q0 45 -27.5 71 q-27.5 26 -79.5 26 l-60 0 l16 115 l38 0 q36 0 60.5 11 q24.5 11 39.5 28.5 q15 17.5 21.5 37 q6.5 19.5 6.5 36.5 q0 35 -24 55.5 q-24 20.5 -66 20.5 q-38 0 -70.5 -17.5 q-32.5 -17.5 -53.5 -49.5 q-21 -32 -27 -76 l-92 -656 l-133 0 Z" /><glyph glyph-name="t" unicode="t" d="M277 -6 q-94 0 -139.5 52.5 q-45.5 52.5 -33.5 143.5 l33 237 l-93 0 l16 117 l7 0 q40 0 67 23 q27 23 32 63 l5 38 l133 0 l-17 -124 l123 0 l-16 -117 l-124 0 l-33 -236 q-4 -28 1.5 -46 q5.5 -18 23 -27 q17.5 -9 48.5 -9 q9 0 18 0.5 q9 0.5 21 2.5 l-10 -112 q-14 -4 -31.5 -5 q-17.5 -1 -30.5 -1 Z" /><glyph glyph-name="u" unicode="u" d="M223 -12 q-65 0 -109 29.5 q-44 29.5 -62.5 82.5 q-18.5 53 -8.5 124 l45 320 l132 0 l-45 -322 q-5 -34 5 -60 q10 -26 33 -40 q23 -14 55 -14 q33 0 59.5 14.5 q26.5 14.5 45 41 q18.5 26.5 22.5 61.5 l45 319 l131 0 l-76 -544 l-124 0 l14 107 l9 -22 q-25 -50 -70.5 -73.5 q-45.5 -23.5 -100.5 -23.5 Z" /><glyph glyph-name="uhorn" unicode="&#x1b0;" d="M223 -12 q-65 0 -109 29.5 q-44 29.5 -62.5 82.5 q-18.5 53 -8.5 124 l45 320 l132 0 l-45 -322 q-5 -34 5 -60 q10 -26 33 -40 q23 -14 55 -14 q33 0 59.5 14.5 q26.5 14.5 45 41 q18.5 26.5 22.5 61.5 l45 319 l87 0 q11 0 24 4 q13 4 22.5 17.5 q9.5 13.5 9.5 42.5 q0 14 -3 30 q-3 16 -7 33 l113 0 q5 -16 8.5 -32.5 q3.5 -16.5 3.5 -32.5 q0 -76 -50.5 -118 q-50.5 -42 -135.5 -35 l55 57 l-72 -510 l-124 0 l9 61 q-28 -37 -68.5 -55 q-40.5 -18 -88.5 -18 Z" /><glyph glyph-name="v" unicode="v" d="M186 0 l-137 544 l137 0 l96 -428 l-55 0 l216 428 l150 0 l-291 -544 l-116 0 Z" /><glyph glyph-name="w" unicode="w" d="M160 0 l-111 544 l133 0 l79 -413 l-49 1 l208 412 l116 0 l86 -412 l-47 -1 l195 413 l140 0 l-263 -544 l-117 0 l-86 431 l46 0 l-214 -431 l-116 0 Z" /><glyph glyph-name="x" unicode="x" d="M-27 0 l231 277 l-149 267 l143 0 l119 -218 l-68 1 l177 217 l159 0 l-228 -272 l150 -272 l-141 0 l-120 218 l60 -1 l-175 -217 l-158 0 Z" /><glyph glyph-name="y" unicode="y" d="M63 -221 q-25 0 -45.5 4.5 q-20.5 4.5 -36.5 12.5 l8 107 q13 -3 30.5 -5.5 q17.5 -2.5 30.5 -2.5 q30 0 50.5 10.5 q20.5 10.5 36 29 q15.5 18.5 28.5 40.5 l49 80 l-13 -110 l-152 599 l135 0 l104 -442 l-52 0 l229 442 l148 0 l-322 -603 q-28 -52 -62.5 -88.5 q-34.5 -36.5 -75.5 -55 q-41 -18.5 -90 -18.5 Z" /><glyph glyph-name="z" unicode="z" d="M-23 0 l13 106 l356 363 l26 -42 l-322 0 l17 117 l438 0 l-13 -107 l-354 -363 l-22 42 l331 0 l-16 -116 l-454 0 Z" /><glyph glyph-name="fi" unicode="&#xfb01;" d="M85 0 l60 427 l-95 0 l16 117 l96 0 l3 19 q10 63 40 106.5 q30 43.5 77 65.5 q47 22 108 22 q15 0 29.5 -2 q14.5 -2 24.5 -4 l-8 -111 q-10 2 -18 2 q-8 0 -13 0 q-46 0 -74.5 -18.5 q-28.5 -18.5 -35.5 -65.5 l-2 -14 l239 0 l-16 -117 l-239 0 l-60 -427 l-132 0 ZM407 0 l76 544 l132 0 l-75 -544 l-133 0 Z" /><glyph glyph-name="fl" unicode="&#xfb02;" d="M85 0 l60 427 l-95 0 l16 117 l96 0 l3 19 q10 63 40 106.5 q30 43.5 77 65.5 q47 22 108 22 q15 0 29.5 -2 q14.5 -2 24.5 -4 l-8 -111 q-10 2 -18 2 q-8 0 -13 0 q-46 0 -74.5 -18.5 q-28.5 -18.5 -35.5 -65.5 l-2 -14 l239 0 l-16 -117 l-239 0 l-60 -427 l-132 0 ZM429 0 l106 757 l133 0 l-106 -757 l-133 0 Z" /><glyph glyph-name="ordfeminine" unicode="ª" d="M194 355 q-57 0 -92.5 27 q-35.5 27 -35.5 78 q0 39 19.5 65 q19.5 26 53 42 q33.5 16 74.5 22 l120 19 l-7 -78 l-99 -19 q-20 -3 -36 -14 q-16 -11 -16 -30 q0 -17 13 -25.5 q13 -8.5 32 -8.5 q25 0 45 11.5 q20 11.5 32.5 31 q12.5 19.5 16.5 42.5 l13 99 q4 23 -15 36.5 q-19 13.5 -43 13.5 q-28 0 -52 -15.5 q-24 -15.5 -36 -43.5 l-82 46 q22 47 69.5 74 q47.5 27 108.5 27 q47 0 84.5 -18 q37.5 -18 57 -50.5 q19.5 -32.5 13.5 -75.5 l-34 -247 l-99 0 l8 62 l28 1 q-28 -37 -62.5 -54.5 q-34.5 -17.5 -78.5 -17.5 Z" /><glyph glyph-name="ordmasculine" unicode="º" d="M274 355 q-55 0 -99.5 24.5 q-44.5 24.5 -70 67 q-25.5 42.5 -25.5 97.5 q0 60 29.5 107.5 q29.5 47.5 79 75.5 q49.5 28 108.5 28 q54 0 98 -24 q44 -24 70 -67 q26 -43 26 -98 q0 -58 -29.5 -106 q-29.5 -48 -79 -76.5 q-49.5 -28.5 -107.5 -28.5 ZM275 450 q31 0 54.5 16 q23.5 16 37 42.5 q13.5 26.5 13.5 58.5 q0 41 -23.5 67 q-23.5 26 -62.5 26 q-31 0 -54.5 -15.5 q-23.5 -15.5 -37.5 -42 q-14 -26.5 -14 -59.5 q0 -27 11 -48 q11 -21 30.5 -33 q19.5 -12 45.5 -12 Z" /><glyph glyph-name="uni0394" unicode="&#x394;" d="M-27 0 l17 120 l304 625 l176 0 l128 -625 l-17 -120 l-608 0 ZM112 64 l-36 56 l435 0 l-40 -56 l-112 586 l31 0 l-278 -586 Z" /><glyph glyph-name="uni03A9" unicode="&#x3a9;" d="M35 0 l17 120 l169 0 l-30 -25 q-60 44 -93 111 q-33 67 -33 147 q0 80 31 152 q31 72 87.5 129 q56.5 57 132.5 90 q76 33 166 33 q81 0 147.5 -26.5 q66.5 -26.5 115 -75 q48.5 -48.5 75 -112 q26.5 -63.5 26.5 -138.5 q0 -70 -22.5 -129 q-22.5 -59 -59.5 -104.5 q-37 -45.5 -84 -76.5 l-27 25 l178 0 l-17 -120 l-312 0 l17 120 q58 17 100.5 57 q42.5 40 66 96 q23.5 56 23.5 119 q0 72 -30 126.5 q-30 54.5 -83.5 84.5 q-53.5 30 -122.5 30 q-59 0 -108.5 -22 q-49.5 -22 -86.5 -61 q-37 -39 -57 -89 q-20 -50 -20 -107 q0 -57 20.5 -105 q20.5 -48 58 -81 q37.5 -33 84.5 -48 l-17 -120 l-312 0 Z" /><glyph glyph-name="pi" unicode="&#x3c0;" d="M76 0 l60 427 l-92 0 l16 117 l638 0 l-16 -117 l-91 0 l-60 -427 l-131 0 l60 427 l-193 0 l-59 -427 l-132 0 Z" /><glyph glyph-name="zero" unicode="0" d="M335 -12 q-82 0 -142 40 q-60 40 -92.5 113 q-32.5 73 -32.5 172 q0 88 22.5 168 q22.5 80 66.5 142 q44 62 106.5 98 q62.5 36 141.5 36 q82 0 142 -40 q60 -40 92.5 -112.5 q32.5 -72.5 32.5 -170.5 q0 -88 -22.5 -168.5 q-22.5 -80.5 -66 -142.5 q-43.5 -62 -106.5 -98.5 q-63 -36.5 -142 -36.5 ZM338 112 q54 0 92 30.5 q38 30.5 61 80 q23 49.5 34 106.5 q11 57 11 108 q0 93 -34.5 144.5 q-34.5 51.5 -100.5 51.5 q-50 0 -87 -28 q-37 -28 -61.5 -74.5 q-24.5 -46.5 -36.5 -104 q-12 -57.5 -12 -116.5 q0 -62 15.5 -106.5 q15.5 -44.5 45.5 -68 q30 -23.5 73 -23.5 Z" /><glyph glyph-name="one" unicode="1" d="M133 0 l89 629 l-143 0 l16 116 l280 0 l-104 -745 l-138 0 Z" /><glyph glyph-name="two" unicode="2" d="M29 0 l10 103 l223 213 q51 48 85.5 82 q34.5 34 54.5 59 q20 25 29 46.5 q9 21.5 9 45.5 q0 41 -26 63.5 q-26 22.5 -70 22.5 q-48 0 -85.5 -28.5 q-37.5 -28.5 -58.5 -81.5 l-117 42 q19 59 58.5 101.5 q39.5 42.5 93.5 65.5 q54 23 117 23 q64 0 115 -24 q51 -24 80.5 -67.5 q29.5 -43.5 29.5 -103.5 q0 -42 -14 -78 q-14 -36 -37 -68 q-23 -32 -51.5 -61.5 q-28.5 -29.5 -58.5 -56.5 l-197 -183 l324 0 l-16 -115 l-498 0 Z" /><glyph glyph-name="three" unicode="3" d="M269 -12 q-63 0 -117 22.5 q-54 22.5 -89.5 64 q-35.5 41.5 -44.5 98.5 l123 42 q13 -51 48 -77.5 q35 -26.5 85 -26.5 q43 0 75.5 17.5 q32.5 17.5 51 48.5 q18.5 31 18.5 71 q0 36 -14.5 61 q-14.5 25 -41.5 38.5 q-27 13.5 -65 13.5 q-19 0 -40 -4.5 q-21 -4.5 -38 -11.5 l-24 65 l217 220 l-306 0 l15 115 l466 0 l-14 -107 l-217 -227 l-2 51 q63 0 108 -27.5 q45 -27.5 69.5 -75 q24.5 -47.5 24.5 -107.5 q0 -58 -23 -107 q-23 -49 -63.5 -83.5 q-40.5 -34.5 -92 -54 q-51.5 -19.5 -109.5 -19.5 Z" /><glyph glyph-name="four" unicode="4" d="M341 0 l22 164 l-342 0 l15 114 l401 467 l143 0 l-66 -467 l108 0 l-16 -114 l-108 0 l-22 -164 l-135 0 ZM130 229 l-15 49 l264 0 l51 360 l36 -11 l-336 -398 Z" /><glyph glyph-name="five" unicode="5" d="M272 -12 q-61 0 -114 22 q-53 22 -88.5 62.5 q-35.5 40.5 -43.5 96.5 l122 42 q12 -51 47.5 -75.5 q35.5 -24.5 80.5 -24.5 q43 0 75.5 19 q32.5 19 50.5 51 q18 32 18 72 q0 35 -14.5 62 q-14.5 27 -40.5 42 q-26 15 -62 15 q-41 0 -75 -17 q-34 -17 -52 -49 l-111 25 l117 414 l399 0 l-13 -115 l-350 0 l65 60 l-86 -313 l-33 24 q31 46 74.5 66.5 q43.5 20.5 97.5 20.5 q68 0 117.5 -29.5 q49.5 -29.5 76.5 -80.5 q27 -51 27 -116 q0 -60 -22 -110 q-22 -50 -61.5 -86.5 q-39.5 -36.5 -91 -57 q-51.5 -20.5 -110.5 -20.5 Z" /><glyph glyph-name="six" unicode="6" d="M276 -12 q-68 0 -122 28.5 q-54 28.5 -85 79 q-31 50.5 -31 118.5 q0 54 18 101 q18 47 46.5 87.5 q28.5 40.5 57.5 74.5 l235 268 l171 0 l-288 -325 l-27 24 q16 11 31 17.5 q15 6.5 31.5 9.5 q16.5 3 34.5 3 q59 0 107 -27 q48 -27 76 -75.5 q28 -48.5 28 -113.5 q0 -76 -38 -137 q-38 -61 -101.5 -97 q-63.5 -36 -143.5 -36 ZM285 111 q38 0 69 19 q31 19 49.5 51 q18.5 32 18.5 70 q0 50 -31.5 80 q-31.5 30 -78.5 30 q-39 0 -70 -19 q-31 -19 -49.5 -50.5 q-18.5 -31.5 -18.5 -70.5 q0 -50 31.5 -80 q31.5 -30 79.5 -30 Z" /><glyph glyph-name="seven" unicode="7" d="M25 0 l402 631 l-345 0 l15 115 l494 0 l-14 -115 l-392 -631 l-160 0 Z" /><glyph glyph-name="eight" unicode="8" d="M293 -12 q-75 0 -131.5 27 q-56.5 27 -87.5 75 q-31 48 -31 107 q0 52 22.5 95 q22.5 43 62 74.5 q39.5 31.5 89.5 46.5 l-11 -33 q-46 15 -71.5 57 q-25.5 42 -25.5 96 q0 62 33.5 113 q33.5 51 91.5 81 q58 30 131 30 q64 0 112.5 -23.5 q48.5 -23.5 76 -64 q27.5 -40.5 27.5 -94.5 q0 -44 -17.5 -83.5 q-17.5 -39.5 -47.5 -69 q-30 -29.5 -69 -43.5 l-4 35 q64 -24 98.5 -68 q34.5 -44 34.5 -109 q0 -67 -35 -123.5 q-35 -56.5 -98 -91 q-63 -34.5 -150 -34.5 ZM297 103 q42 0 74.5 17 q32.5 17 50.5 46 q18 29 18 65 q0 47 -32 75 q-32 28 -86 28 q-41 0 -73 -16.5 q-32 -16.5 -50.5 -45.5 q-18.5 -29 -18.5 -66 q0 -46 31.5 -74.5 q31.5 -28.5 85.5 -28.5 ZM333 449 q33 0 57.5 14.5 q24.5 14.5 38.5 39.5 q14 25 14 55 q0 37 -24 60.5 q-24 23.5 -65 23.5 q-31 0 -56 -14 q-25 -14 -39.5 -38.5 q-14.5 -24.5 -14.5 -54.5 q0 -37 24.5 -61.5 q24.5 -24.5 64.5 -24.5 Z" /><glyph glyph-name="nine" unicode="9" d="M68 0 l287 326 l28 -25 q-15 -10 -30.5 -17 q-15.5 -7 -31.5 -10 q-16 -3 -35 -3 q-60 0 -107.5 27 q-47.5 27 -75.5 75.5 q-28 48.5 -28 113.5 q0 76 37.5 137 q37.5 61 101.5 97 q64 36 143 36 q69 0 123 -28 q54 -28 85 -78.5 q31 -50.5 31 -119.5 q0 -54 -18.5 -101 q-18.5 -47 -46.5 -87 q-28 -40 -58 -74 l-235 -269 l-170 0 ZM321 385 q39 0 70.5 18.5 q31.5 18.5 49.5 50.5 q18 32 18 70 q0 50 -31 80.5 q-31 30.5 -79 30.5 q-38 0 -69.5 -19 q-31.5 -19 -49.5 -51 q-18 -32 -18 -71 q0 -50 31 -79.5 q31 -29.5 78 -29.5 Z" /><glyph glyph-name="fraction" unicode="&#x2044;" d="M-207 0 l550 745 l99 0 l-550 -745 l-99 0 Z" /><glyph glyph-name="uni2080" unicode="&#x2080;" d="M215 -9 q-57 0 -100 28 q-43 28 -66 79.5 q-23 51.5 -23 120.5 q0 62 16.5 117.5 q16.5 55.5 47 99.5 q30.5 44 74.5 69 q44 25 99 25 q59 0 101 -28.5 q42 -28.5 65 -79.5 q23 -51 23 -119 q0 -61 -16.5 -117.5 q-16.5 -56.5 -47 -100 q-30.5 -43.5 -74.5 -69 q-44 -25.5 -99 -25.5 ZM217 90 q37 0 61 21 q24 21 38 55 q14 34 20.5 71 q6.5 37 6.5 69 q0 59 -21 92 q-21 33 -62 33 q-33 0 -56.5 -18.5 q-23.5 -18.5 -38.5 -50 q-15 -31.5 -22.5 -70 q-7.5 -38.5 -7.5 -76.5 q0 -59 21 -92.5 q21 -33.5 61 -33.5 Z" /><glyph glyph-name="uni2081" unicode="&#x2081;" d="M79 0 l60 430 l-100 0 l12 91 l211 0 l-73 -521 l-110 0 Z" /><glyph glyph-name="uni2082" unicode="&#x2082;" d="M0 0 l8 84 l152 142 q48 46 74 72.5 q26 26.5 36 44.5 q10 18 10 37 q0 25 -17 38.5 q-17 13.5 -42 13.5 q-31 0 -54.5 -18 q-23.5 -18 -36.5 -50 l-92 34 q19 61 72 96.5 q53 35.5 118 35.5 q46 0 82 -17 q36 -17 57.5 -48.5 q21.5 -31.5 21.5 -74.5 q0 -38 -16.5 -70 q-16.5 -32 -41.5 -58.5 q-25 -26.5 -51 -50.5 l-131 -119 l217 0 l-13 -92 l-353 0 Z" /><glyph glyph-name="uni2083" unicode="&#x2083;" d="M174 -9 q-45 0 -83.5 16.5 q-38.5 16.5 -64 46.5 q-25.5 30 -31.5 69 l99 33 q9 -33 31.5 -49.5 q22.5 -16.5 52.5 -16.5 q41 0 66 24.5 q25 24.5 25 62.5 q0 32 -20 50.5 q-20 18.5 -56 18.5 q-13 0 -30 -3.5 q-17 -3.5 -30 -10.5 l-20 53 l149 146 l-204 0 l12 90 l332 0 l-12 -84 l-151 -154 l0 42 q44 0 75.5 -18.5 q31.5 -18.5 48 -51.5 q16.5 -33 16.5 -75 q0 -56 -29 -98.5 q-29 -42.5 -75.5 -66.5 q-46.5 -24 -100.5 -24 Z" /><glyph glyph-name="uni2084" unicode="&#x2084;" d="M224 0 l16 112 l-232 0 l12 92 l269 317 l117 0 l-45 -318 l80 0 l-13 -91 l-79 0 l-16 -112 l-109 0 ZM93 164 l-13 39 l172 0 l33 234 l28 -8 l-220 -265 Z" /><glyph glyph-name="uni2085" unicode="&#x2085;" d="M180 -9 q-42 0 -80 15.5 q-38 15.5 -63.5 44.5 q-25.5 29 -30.5 69 l99 32 q8 -33 30 -47.5 q22 -14.5 49 -14.5 q27 0 47 11.5 q20 11.5 31.5 31.5 q11.5 20 11.5 45 q0 32 -20 53.5 q-20 21.5 -54 21.5 q-23 0 -45.5 -11 q-22.5 -11 -33.5 -33 l-89 21 l82 291 l287 0 l-11 -90 l-246 0 l51 49 l-59 -217 l-26 19 q22 32 51 46.5 q29 14.5 68 14.5 q47 0 82 -20 q35 -20 54 -55.5 q19 -35.5 19 -82.5 q0 -56 -28 -100 q-28 -44 -74 -69 q-46 -25 -102 -25 Z" /><glyph glyph-name="uni2086" unicode="&#x2086;" d="M182 -9 q-49 0 -88 20 q-39 20 -61.5 56 q-22.5 36 -22.5 83 q0 40 14 73.5 q14 33.5 34.5 61 q20.5 27.5 38.5 49.5 l165 187 l136 0 l-198 -222 l-21 23 q14 6 27 9.5 q13 3.5 30 3.5 q42 0 75.5 -19.5 q33.5 -19.5 53 -53.5 q19.5 -34 19.5 -79 q0 -52 -26 -95.5 q-26 -43.5 -71.5 -70 q-45.5 -26.5 -104.5 -26.5 ZM189 90 q25 0 44 12 q19 12 30.5 32.5 q11.5 20.5 11.5 43.5 q0 31 -20.5 49 q-20.5 18 -48.5 18 q-24 0 -44 -11.5 q-20 -11.5 -31 -31.5 q-11 -20 -11 -44 q0 -31 20 -49.5 q20 -18.5 49 -18.5 Z" /><glyph glyph-name="uni2087" unicode="&#x2087;" d="M0 0 l275 431 l-237 0 l13 91 l354 0 l-11 -91 l-265 -431 l-129 0 Z" /><glyph glyph-name="uni2088" unicode="&#x2088;" d="M197 -9 q-54 0 -94.5 19.5 q-40.5 19.5 -62.5 53 q-22 33.5 -22 74.5 q0 54 34 93.5 q34 39.5 88 56.5 l-10 -27 q-33 11 -50.5 39.5 q-17.5 28.5 -17.5 67.5 q0 48 24.5 84 q24.5 36 67 57 q42.5 21 93.5 21 q70 0 113.5 -36 q43.5 -36 43.5 -93 q0 -47 -27 -87 q-27 -40 -68 -53 l-4 27 q44 -16 68.5 -45.5 q24.5 -29.5 24.5 -75.5 q0 -47 -24.5 -87 q-24.5 -40 -69 -64.5 q-44.5 -24.5 -107.5 -24.5 ZM200 83 q39 0 64.5 22.5 q25.5 22.5 25.5 58.5 q-1 27 -21 43.5 q-20 16.5 -54 16.5 q-38 0 -63 -21.5 q-25 -21.5 -25 -57.5 q0 -28 20.5 -45 q20.5 -17 52.5 -17 ZM225 316 q30 0 49 21.5 q19 21.5 19 48.5 q0 23 -15 38 q-15 15 -40 15 q-30 0 -49.5 -20 q-19.5 -20 -19.5 -49 q0 -22 15.5 -38 q15.5 -16 40.5 -16 Z" /><glyph glyph-name="uni2089" unicode="&#x2089;" d="M22 0 l199 224 l20 -24 q-14 -6 -27 -9.5 q-13 -3.5 -30 -3.5 q-42 0 -75 19 q-33 19 -52.5 53.5 q-19.5 34.5 -19.5 78.5 q0 57 27.5 100.5 q27.5 43.5 74 67.5 q46.5 24 99.5 24 q49 0 87.5 -19.5 q38.5 -19.5 61.5 -54.5 q23 -35 23 -83 q0 -41 -14.5 -75 q-14.5 -34 -34 -61.5 q-19.5 -27.5 -38.5 -48.5 l-164 -188 l-137 0 ZM215 277 q24 0 43.5 11.5 q19.5 11.5 30.5 31.5 q11 20 11 44 q0 32 -20 50 q-20 18 -49 18 q-23 0 -42.5 -11.5 q-19.5 -11.5 -31 -31 q-11.5 -19.5 -11.5 -44.5 q0 -31 19 -49.5 q19 -18.5 50 -18.5 Z" /><glyph glyph-name="space" unicode=" " d="" /><glyph glyph-name="uni00A0" unicode=" " d="" /><glyph glyph-name="uni2002" unicode="&#x2002;" d="" /><glyph glyph-name="uni2003" unicode="&#x2003;" d="" /><glyph glyph-name="uni2007" unicode="&#x2007;" d="" /><glyph glyph-name="uni2008" unicode="&#x2008;" d="" /><glyph glyph-name="uni2009" unicode="&#x2009;" d="" /><glyph glyph-name="uni200A" unicode="&#x200a;" d="" /><glyph glyph-name="uni200B" unicode="&#x200b;" d="" /><glyph glyph-name="CR" unicode="" d="" /><glyph glyph-name="period" unicode="." d="M85 0 l20 140 l133 0 l-21 -140 l-132 0 Z" /><glyph glyph-name="comma" unicode="," d="M43 -156 l8 64 q36 8 60 31 q24 23 35 61 l-61 0 l19 140 l133 0 l-14 -96 q-11 -81 -57 -132.5 q-46 -51.5 -123 -67.5 Z" /><glyph glyph-name="colon" unicode=":" d="M85 0 l19 140 l133 0 l-20 -140 l-132 0 ZM141 404 l20 140 l132 0 l-20 -140 l-132 0 Z" /><glyph glyph-name="semicolon" unicode=";" d="M62 -156 l9 64 q35 8 59 31 q24 23 35 61 l-61 0 l20 140 l132 0 l-14 -96 q-11 -81 -57 -132.5 q-46 -51.5 -123 -67.5 ZM161 404 l20 140 l132 0 l-20 -140 l-132 0 Z" /><glyph glyph-name="exclam" unicode="!" d="M122 226 l63 519 l133 0 l-81 -519 l-115 0 ZM81 0 l20 140 l132 0 l-19 -140 l-133 0 Z" /><glyph glyph-name="exclamdown" unicode="¡" d="M53 -201 l81 519 l115 0 l-63 -519 l-133 0 ZM138 404 l19 140 l133 0 l-20 -140 l-132 0 Z" /><glyph glyph-name="question" unicode="?" d="M227 226 l4 20 q12 65 39.5 109 q27.5 44 64.5 79 q24 22 44 40.5 q20 18.5 32.5 39 q12.5 20.5 12.5 45.5 q0 32 -23 54 q-23 22 -68 22 q-41 0 -73.5 -26 q-32.5 -26 -42.5 -69 l-120 30 q13 56 48 98 q35 42 86.5 65.5 q51.5 23.5 113.5 23.5 q71 0 119 -26.5 q48 -26.5 72.5 -69.5 q24.5 -43 24.5 -92 q0 -42 -16.5 -75 q-16.5 -33 -43.5 -61 q-27 -28 -56 -55 q-35 -31 -57.5 -64 q-22.5 -33 -32.5 -76 l-3 -12 l-125 0 ZM195 0 l20 140 l133 0 l-21 -140 l-132 0 Z" /><glyph glyph-name="questiondown" unicode="¿" d="M240 -213 q-70 0 -118.5 26.5 q-48.5 26.5 -73 69.5 q-24.5 43 -24.5 92 q0 42 16.5 75 q16.5 33 43.5 61 q27 28 56 55 q35 32 57.5 64.5 q22.5 32.5 32.5 74.5 l3 13 l125 0 l-4 -20 q-11 -65 -39 -109 q-28 -44 -65 -79 q-24 -22 -44 -41 q-20 -19 -32.5 -38.5 q-12.5 -19.5 -12.5 -45.5 q0 -32 23.5 -54 q23.5 -22 67.5 -22 q42 0 74 25.5 q32 25.5 42 68.5 l120 -30 q-12 -55 -47.5 -97 q-35.5 -42 -86.5 -65.5 q-51 -23.5 -114 -23.5 ZM237 404 l21 140 l132 0 l-20 -140 l-133 0 Z" /><glyph glyph-name="periodcentered" unicode="·" d="M112 202 l21 140 l132 0 l-20 -140 l-133 0 Z" /><glyph glyph-name="bullet" unicode="&#x2022;" d="M299 81 q-51 0 -91.5 22.5 q-40.5 22.5 -63 62 q-22.5 39.5 -22.5 89.5 q0 58 28.5 105 q28.5 47 76.5 75 q48 28 106 28 q50 0 89 -22.5 q39 -22.5 61.5 -61.5 q22.5 -39 22.5 -88 q0 -43 -16 -81 q-16 -38 -44.5 -67 q-28.5 -29 -66 -45.5 q-37.5 -16.5 -80.5 -16.5 Z" /><glyph glyph-name="asterisk" unicode="*" d="M209 364 l-73 59 l88 99 l-110 39 l44 94 l110 -38 l18 128 l100 0 l-18 -128 l120 38 l18 -94 l-120 -39 l58 -99 l-88 -59 l-59 99 l-88 -99 Z" /><glyph glyph-name="numbersign" unicode="#" d="M98 0 l69 164 l-120 0 l16 115 l153 0 l81 188 l-120 0 l16 115 l153 0 l70 163 l132 0 l-69 -163 l165 0 l68 163 l133 0 l-69 -163 l120 0 l-16 -115 l-153 0 l-81 -188 l120 0 l-16 -115 l-154 0 l-68 -164 l-133 0 l69 164 l-164 0 l-70 -164 l-132 0 ZM348 279 l165 0 l81 188 l-164 0 l-82 -188 Z" /><glyph glyph-name="slash" unicode="/" d="M-39 -120 l448 825 l150 0 l-448 -825 l-150 0 Z" /><glyph glyph-name="backslash" unicode="\" d="M292 -120 l-216 825 l141 0 l216 -825 l-141 0 Z" /><glyph glyph-name="hyphen" unicode="-" d="M80 214 l16 115 l425 0 l-16 -115 l-425 0 Z" /><glyph glyph-name="endash" unicode="&#x2013;" d="M80 214 l16 115 l480 0 l-16 -115 l-480 0 Z" /><glyph glyph-name="emdash" unicode="&#x2014;" d="M80 214 l16 115 l810 0 l-16 -115 l-810 0 Z" /><glyph glyph-name="underscore" unicode="_" d="M34 -115 l16 115 l487 0 l-16 -115 l-487 0 Z" /><glyph glyph-name="uni208D" unicode="&#x208d;" d="M141 -125 q-45 59 -67.5 126 q-22.5 67 -22.5 142 q0 107 41 204 q41 97 117 175 l87 0 q-35 -47 -66.5 -106.5 q-31.5 -59.5 -50 -128.5 q-18.5 -69 -18.5 -149 q0 -68 16.5 -135 q16.5 -67 49.5 -128 l-86 0 Z" /><glyph glyph-name="uni208E" unicode="&#x208e;" d="M4 -125 q58 77 97.5 174 q39.5 97 39.5 211 q0 70 -17.5 134.5 q-17.5 64.5 -51.5 127.5 l87 0 q46 -60 67.5 -127 q21.5 -67 21.5 -140 q0 -108 -40.5 -204.5 q-40.5 -96.5 -116.5 -175.5 l-87 0 Z" /><glyph glyph-name="parenleft" unicode="(" d="M188 -170 q-63 83 -94 178 q-31 95 -31 201 q0 101 25.5 196.5 q25.5 95.5 75 181.5 q49.5 86 120.5 158 l110 0 q-54 -70 -98.5 -155 q-44.5 -85 -70.5 -181.5 q-26 -96.5 -26 -204.5 q0 -98 24.5 -192 q24.5 -94 74.5 -182 l-110 0 Z" /><glyph glyph-name="parenright" unicode=")" d="M7 -170 q57 75 101 161 q44 86 69 182 q25 96 25 200 q0 99 -25 192 q-25 93 -74 180 l110 0 q63 -83 94 -177 q31 -94 31 -200 q0 -101 -25.5 -196 q-25.5 -95 -75 -181 q-49.5 -86 -120.5 -161 l-110 0 Z" /><glyph glyph-name="braceleft" unicode="{" d="M240 -170 q-84 0 -125 42.5 q-41 42.5 -30 118.5 l25 175 q4 28 -7.5 43.5 q-11.5 15.5 -36.5 15.5 l-31 0 l16 115 l31 0 q25 0 41 16 q16 16 20 43 l26 186 q10 75 63 117.5 q53 42.5 136 42.5 l46 0 l-16 -115 l-46 0 q-21 0 -34.5 -12.5 q-13.5 -12.5 -16.5 -35.5 l-24 -172 q-5 -40 -25.5 -73 q-20.5 -33 -52.5 -53 q27 -18 38 -49.5 q11 -31.5 5 -70.5 l-24 -170 q-3 -22 7 -35.5 q10 -13.5 31 -13.5 l46 0 l-16 -115 l-46 0 Z" /><glyph glyph-name="braceright" unicode="}" d="M-10 -170 l16 115 l46 0 q21 0 34.5 13 q13.5 13 16.5 36 l24 170 q5 39 25 70.5 q20 31.5 51 49.5 q-25 20 -36 52.5 q-11 32.5 -5 73.5 l24 172 q3 23 -7.5 35.5 q-10.5 12.5 -30.5 12.5 l-46 0 l16 115 l46 0 q84 0 125 -42.5 q41 -42.5 30 -117.5 l-26 -186 q-4 -27 7 -43 q11 -16 36 -16 l31 0 l-16 -115 l-31 0 q-24 0 -40 -15.5 q-16 -15.5 -20 -43.5 l-25 -175 q-11 -76 -63 -118.5 q-52 -42.5 -136 -42.5 l-46 0 Z" /><glyph glyph-name="bracketleft" unicode="[" d="M42 -170 l129 915 l260 0 l-16 -115 l-127 0 l-97 -685 l127 0 l-16 -115 l-260 0 Z" /><glyph glyph-name="bracketright" unicode="]" d="M-10 -170 l16 115 l127 0 l97 685 l-128 0 l16 115 l260 0 l-128 -915 l-260 0 Z" /><glyph glyph-name="uni207D" unicode="&#x207d;" d="M172 98 q-45 59 -67.5 126 q-22.5 67 -22.5 142 q0 107 41 204 q41 97 117 175 l87 0 q-35 -47 -66.5 -106.5 q-31.5 -59.5 -50 -128.5 q-18.5 -69 -18.5 -149 q0 -68 16.5 -135 q16.5 -67 49.5 -128 l-86 0 Z" /><glyph glyph-name="uni207E" unicode="&#x207e;" d="M35 98 q58 77 97.5 174 q39.5 97 39.5 211 q0 70 -17.5 134.5 q-17.5 64.5 -51.5 127.5 l87 0 q46 -60 67.5 -127 q21.5 -67 21.5 -140 q0 -108 -40.5 -204.5 q-40.5 -96.5 -116.5 -175.5 l-87 0 Z" /><glyph glyph-name="quotesinglbase" unicode="&#x201a;" d="M44 -146 l9 65 q35 8 58 29.5 q23 21.5 33 51.5 l-60 0 l19 140 l133 0 l-12 -86 q-11 -81 -57 -132.5 q-46 -51.5 -123 -67.5 Z" /><glyph glyph-name="quotedblbase" unicode="&#x201e;" d="M83 -146 l9 65 q35 8 58 29.5 q23 21.5 33 51.5 l-60 0 l19 140 l133 0 l-12 -86 q-11 -81 -57 -132.5 q-46 -51.5 -123 -67.5 ZM285 -146 l9 65 q36 8 59 29.5 q23 21.5 32 51.5 l-60 0 l20 140 l132 0 l-12 -86 q-10 -81 -56 -132.5 q-46 -51.5 -124 -67.5 Z" /><glyph glyph-name="quotedblleft" unicode="&#x201c;" d="M285 471 l12 86 q11 81 57 132.5 q46 51.5 123 67.5 l-8 -65 q-36 -8 -58.5 -29.5 q-22.5 -21.5 -32.5 -51.5 l59 0 l-19 -140 l-133 0 ZM83 471 l12 86 q11 81 57 132.5 q46 51.5 123 67.5 l-9 -65 q-35 -8 -58 -29.5 q-23 -21.5 -33 -51.5 l60 0 l-20 -140 l-132 0 Z" /><glyph glyph-name="quotedblright" unicode="&#x201d;" d="M285 459 l9 65 q36 8 59 29.5 q23 21.5 32 51.5 l-60 0 l20 140 l132 0 l-12 -86 q-10 -81 -56 -132.5 q-46 -51.5 -124 -67.5 ZM83 459 l9 65 q35 8 58 29.5 q23 21.5 33 51.5 l-60 0 l19 140 l133 0 l-12 -86 q-11 -81 -57 -132.5 q-46 -51.5 -123 -67.5 Z" /><glyph glyph-name="quoteleft" unicode="&#x2018;" d="M130 471 l12 86 q11 81 57 132.5 q46 51.5 123 67.5 l-8 -65 q-36 -8 -58.5 -29.5 q-22.5 -21.5 -32.5 -51.5 l59 0 l-19 -140 l-133 0 Z" /><glyph glyph-name="quoteright" unicode="&#x2019;" d="M129 459 l9 65 q36 8 59 29.5 q23 21.5 32 51.5 l-60 0 l20 140 l132 0 l-12 -86 q-10 -81 -56 -132.5 q-46 -51.5 -124 -67.5 Z" /><glyph glyph-name="guillemotleft" unicode="«" d="M170 72 l-126 197 l182 198 l154 0 l-191 -211 l116 -184 l-135 0 ZM455 72 l-126 197 l182 198 l154 0 l-191 -211 l116 -184 l-135 0 Z" /><glyph glyph-name="guillemotright" unicode="»" d="M302 72 l191 210 l-116 185 l135 0 l126 -198 l-182 -197 l-154 0 ZM17 72 l191 210 l-116 185 l135 0 l126 -198 l-182 -197 l-154 0 Z" /><glyph glyph-name="guilsinglleft" unicode="&#x2039;" d="M170 72 l-126 197 l182 198 l154 0 l-191 -211 l116 -184 l-135 0 Z" /><glyph glyph-name="guilsinglright" unicode="&#x203a;" d="M17 72 l191 210 l-116 185 l135 0 l126 -198 l-182 -197 l-154 0 Z" /><glyph glyph-name="quotedbl" unicode="&quot;" d="M140 462 l23 283 l117 0 l-55 -283 l-85 0 ZM327 462 l22 283 l118 0 l-55 -283 l-85 0 Z" /><glyph glyph-name="quotesingle" unicode="&#39;" d="M140 462 l23 283 l117 0 l-55 -283 l-85 0 Z" /><glyph glyph-name="florin" unicode="&#x192;" d="M115 -12 q-15 0 -29.5 2 q-14.5 2 -23.5 4 l8 111 q10 -1 18 -1.5 q8 -0.5 13 -0.5 q45 0 75 23.5 q30 23.5 37 78.5 l16 111 l-121 0 l16 114 l121 0 l18 126 q9 68 40.5 112.5 q31.5 44.5 79 66.5 q47.5 22 107.5 22 q14 0 29 -2 q15 -2 24 -4 l-9 -111 q-9 2 -17 2 q-8 0 -13 0 q-45 0 -74.5 -23.5 q-29.5 -23.5 -38.5 -77.5 l-15 -111 l120 0 l-16 -114 l-120 0 l-18 -127 q-10 -68 -41 -112.5 q-31 -44.5 -78.5 -66.5 q-47.5 -22 -107.5 -22 Z" /><glyph glyph-name="uni0E3F" unicode="&#xe3f;" d="M34 0 l104 745 l301 0 q103 0 159.5 -48.5 q56.5 -48.5 56.5 -135.5 q0 -40 -12.5 -74.5 q-12.5 -34.5 -37 -61.5 q-24.5 -27 -61.5 -47 l-9 48 q65 -28 91.5 -73.5 q26.5 -45.5 26.5 -97.5 q0 -78 -35.5 -135.5 q-35.5 -57.5 -101 -88.5 q-65.5 -31 -154.5 -31 l-328 0 ZM187 120 l201 0 q38 0 67 15.5 q29 15.5 45 43.5 q16 28 16 63 q0 43 -28.5 69 q-28.5 26 -76.5 26 l-194 0 l-30 -217 ZM234 456 l182 0 q30 0 53 13 q23 13 36 35 q13 22 13 51 q0 34 -22.5 54 q-22.5 20 -61.5 20 l-176 0 l-24 -173 ZM246 -100 l132 945 l86 0 l-132 -945 l-86 0 Z" /><glyph glyph-name="uni2605" unicode="&#x2605;" d="M239 -12 l95 293 l-250 182 l309 0 l95 294 l96 -294 l309 0 l-250 -182 l96 -293 l-251 181 l-249 -181 Z" /><glyph glyph-name="uni2606" unicode="&#x2606;" d="M239 -12 l95 293 l-250 182 l309 0 l95 294 l96 -294 l309 0 l-250 -182 l96 -293 l-251 181 l-249 -181 ZM382 184 l106 78 l108 -78 l-41 125 l108 79 l-133 0 l-42 126 l-40 -126 l-133 0 l107 -78 l-40 -126 Z" /><glyph glyph-name="at" unicode="@" d="M445 -218 q-90 0 -164 29.5 q-74 29.5 -127.5 83 q-53.5 53.5 -82.5 125.5 q-29 72 -29 158 q0 93 31.5 175.5 q31.5 82.5 91.5 146 q60 63.5 144.5 100.5 q84.5 37 189.5 37 q94 0 168 -30 q74 -30 125 -82.5 q51 -52.5 78 -123 q27 -70.5 27 -152.5 q0 -81 -25.5 -136.5 q-25.5 -55.5 -68.5 -84 q-43 -28.5 -98 -28.5 q-35 0 -68 13.5 q-33 13.5 -53.5 41.5 q-20.5 28 -19.5 74 l21 -50 q-11 -25 -35.5 -42.5 q-24.5 -17.5 -56 -27 q-31.5 -9.5 -64.5 -9.5 q-55 0 -99 25.5 q-44 25.5 -70 70 q-26 44.5 -26 102.5 q0 63 30.5 116.5 q30.5 53.5 83 86 q52.5 32.5 116.5 32.5 q51 0 91.5 -18.5 q40.5 -18.5 51.5 -49.5 l-16 -34 l14 92 l91 0 l-33 -248 q-4 -26 2.5 -44 q6.5 -18 19 -26.5 q12.5 -8.5 27.5 -8.5 q36 0 55.5 35 q19.5 35 19.5 101 q0 92 -33 160 q-33 68 -97 106.5 q-64 38.5 -156 38.5 q-78 0 -142.5 -27.5 q-64.5 -27.5 -111 -76 q-46.5 -48.5 -72 -112 q-25.5 -63.5 -25.5 -135.5 q0 -91 39 -159.5 q39 -68.5 108 -106.5 q69 -38 158 -38 q47 0 90.5 11.5 q43.5 11.5 81.5 34.5 l40 -88 q-48 -29 -104.5 -43.5 q-56.5 -14.5 -117.5 -14.5 ZM447 96 q35 0 63 18 q28 18 44.5 47.5 q16.5 29.5 16.5 64.5 q0 47 -29.5 78 q-29.5 31 -76.5 32 q-36 0 -64.5 -16.5 q-28.5 -16.5 -45.5 -46 q-17 -29.5 -17 -65.5 q0 -49 31 -80.5 q31 -31.5 78 -31.5 Z" /><glyph glyph-name="ampersand" unicode="&amp;" d="M282 -12 q-65 0 -114 23 q-49 23 -75.5 66 q-26.5 43 -26.5 103 q0 45 15 80.5 q15 35.5 41 63.5 q26 28 58 49.5 q32 21.5 65 38.5 l75 38 q55 28 83 50.5 q28 22.5 38 43 q10 20.5 10 41.5 q0 29 -17 47 q-17 18 -46 18 q-26 0 -47 -12 q-21 -12 -33 -33.5 q-12 -21.5 -12 -49.5 q0 -22 8.5 -43 q8.5 -21 21.5 -39.5 q13 -18.5 24 -33.5 l351 -439 l-155 0 l-293 366 q-19 24 -38 51 q-19 27 -31 59.5 q-12 32.5 -12 71.5 q0 60 29 107.5 q29 47.5 78.5 74.5 q49.5 27 108.5 27 q54 0 94.5 -22 q40.5 -22 64 -61 q23.5 -39 23.5 -88 q0 -50 -21 -88.5 q-21 -38.5 -59.5 -70 q-38.5 -31.5 -89.5 -60.5 l-79 -43 q-29 -16 -56 -35 q-27 -19 -44.5 -44.5 q-17.5 -25.5 -17.5 -62.5 q0 -36 23 -59 q23 -23 63 -23 q30 0 53 10 q23 10 41.5 25 q18.5 15 32.5 31.5 q14 16.5 26 31.5 l133 167 l141 0 l-157 -213 q-18 -24 -42.5 -52.5 q-24.5 -28.5 -58 -54 q-33.5 -25.5 -77 -41.5 q-43.5 -16 -99.5 -16 Z" /><glyph glyph-name="paragraph" unicode="¶" d="M245 -100 l57 410 q-67 0 -113.5 27.5 q-46.5 27.5 -67.5 76.5 q-21 49 -12 113 q9 65 44 114 q35 49 89 76.5 q54 27.5 121 27.5 l136 0 l-118 -845 l-136 0 Z" /><glyph glyph-name="section" unicode="§" d="M232 -97 q-89 0 -152.5 43.5 q-63.5 43.5 -81.5 117.5 l104 47 q19 -48 56 -75.5 q37 -27.5 85 -27.5 q28 0 49 9 q21 9 33 24.5 q12 15.5 12 36.5 q0 14 -8.5 25.5 q-8.5 11.5 -22.5 19 q-14 7.5 -32 12.5 l-91 27 q-65 18 -98 57 q-33 39 -33 90 q0 55 30.5 98.5 q30.5 43.5 82 68.5 q51.5 25 116.5 25 l-9 -73 q-25 0 -45 -11 q-20 -11 -31 -30.5 q-11 -19.5 -11 -45.5 q0 -20 9.5 -34.5 q9.5 -14.5 26.5 -24 q17 -9.5 38 -16.5 l77 -23 q64 -19 97 -57.5 q33 -38.5 33 -90.5 q0 -56 -30.5 -99 q-30.5 -43 -83 -68 q-52.5 -25 -120.5 -25 ZM259 159 l7 70 q28 0 49.5 11.5 q21.5 11.5 34 32 q12.5 20.5 12.5 47.5 q0 18 -8.5 32.5 q-8.5 14.5 -25 25.5 q-16.5 11 -40.5 17 l-78 23 q-65 18 -97.5 57 q-32.5 39 -32.5 90 q0 55 29.5 98.5 q29.5 43.5 81.5 68.5 q52 25 117 25 q77 0 136 -38 q59 -38 78 -109 l-105 -47 q-12 39 -45 62.5 q-33 23.5 -77 23.5 q-24 0 -43.5 -8.5 q-19.5 -8.5 -30.5 -23 q-11 -14.5 -11 -34.5 q0 -16 9.5 -27.5 q9.5 -11.5 24 -18 q14.5 -6.5 29.5 -11.5 l90 -27 q64 -19 97 -57.5 q33 -38.5 33 -90.5 q0 -56 -30 -99 q-30 -43 -83 -68 q-53 -25 -121 -25 Z" /><glyph glyph-name="copyright" unicode="©" d="M462 -12 q-77 0 -143 27.5 q-66 27.5 -115.5 77 q-49.5 49.5 -77 115 q-27.5 65.5 -27.5 141.5 q0 84 32.5 158 q32.5 74 89.5 130 q57 56 131 88 q74 32 157 32 q77 0 142.5 -27.5 q65.5 -27.5 115 -76.5 q49.5 -49 77 -114.5 q27.5 -65.5 27.5 -141.5 q0 -84 -32.5 -158 q-32.5 -74 -89.5 -130.5 q-57 -56.5 -130.5 -88.5 q-73.5 -32 -156.5 -32 ZM462 81 q64 0 121 24.5 q57 24.5 101 68.5 q44 44 69 101 q25 57 25 123 q0 57 -20.5 105.5 q-20.5 48.5 -56.5 85 q-36 36.5 -85 56.5 q-49 20 -106 20 q-65 0 -122.5 -24.5 q-57.5 -24.5 -101.5 -68.5 q-44 -44 -69 -101 q-25 -57 -25 -122 q0 -76 35 -137 q35 -61 96.5 -96 q61.5 -35 138.5 -35 ZM479 163 q-58 0 -102.5 26 q-44.5 26 -70 70.5 q-25.5 44.5 -25.5 100.5 q0 65 30 115 q30 50 80 78.5 q50 28.5 111 28.5 q45 0 81 -15 q36 -15 59.5 -40.5 q23.5 -25.5 31.5 -57.5 l-91 -31 q-7 23 -28 39 q-21 16 -53 16 q-35 0 -62 -17.5 q-27 -17.5 -42.5 -48 q-15.5 -30.5 -15.5 -70.5 q0 -47 26 -75.5 q26 -28.5 70 -28.5 q33 0 58.5 17 q25.5 17 36.5 41 l89 -39 q-13 -31 -39.5 -56 q-26.5 -25 -63.5 -39 q-37 -14 -80 -14 Z" /><glyph glyph-name="registered" unicode="®" d="M363 271 q-69 0 -124 32.5 q-55 32.5 -87 87.5 q-32 55 -32 123 q0 55 21.5 104 q21.5 49 59.5 86 q38 37 87.5 58.5 q49.5 21.5 104.5 21.5 q68 0 122.5 -32 q54.5 -32 86.5 -86 q32 -54 32 -122 q0 -56 -22 -105.5 q-22 -49.5 -59.5 -87 q-37.5 -37.5 -86.5 -59 q-49 -21.5 -103 -21.5 ZM362 342 q54 0 100 27.5 q46 27.5 74 73.5 q28 46 28 101 q0 49 -22.5 87.5 q-22.5 38.5 -61 61 q-38.5 22.5 -86.5 22.5 q-59 0 -105 -27.5 q-46 -27.5 -72.5 -74 q-26.5 -46.5 -26.5 -101.5 q0 -48 22.5 -86.5 q22.5 -38.5 61.5 -61 q39 -22.5 88 -22.5 ZM250 393 l37 271 l109 0 q43 0 70 -21 q27 -21 27 -64 q0 -27 -12 -47.5 q-12 -20.5 -33 -32.5 l52 -106 l-78 0 l-44 92 l-42 0 l-12 -92 l-74 0 ZM345 547 l44 0 q12 0 21.5 8.5 q9.5 8.5 9.5 22.5 q0 10 -6.5 16.5 q-6.5 6.5 -18.5 6.5 l-42 0 l-8 -54 Z" /><glyph glyph-name="trademark" unicode="&#x2122;" d="M187 298 l50 352 l-110 0 l13 95 l327 0 l-13 -95 l-107 0 l-50 -352 l-110 0 ZM439 298 l62 447 l102 0 l138 -214 l-44 0 l191 214 l107 0 l-62 -447 l-109 0 l46 330 l44 -9 l-205 -216 l-16 0 l-137 216 l40 9 l-47 -330 l-110 0 Z" /><glyph glyph-name="degree" unicode="°" d="M301 423 q-45 0 -80 20.5 q-35 20.5 -56 55.5 q-21 35 -21 79 q0 49 24.5 89.5 q24.5 40.5 65.5 65 q41 24.5 90 24.5 q44 0 79.5 -20.5 q35.5 -20.5 56 -56 q20.5 -35.5 20.5 -78.5 q0 -49 -24.5 -89.5 q-24.5 -40.5 -65 -65 q-40.5 -24.5 -89.5 -24.5 ZM307 513 q23 0 41.5 11 q18.5 11 30 30 q11.5 19 11.5 42 q0 31 -21 51 q-21 20 -52 20 q-33 0 -57.5 -24.5 q-24.5 -24.5 -24.5 -58.5 q0 -30 21 -50.5 q21 -20.5 51 -20.5 Z" /><glyph glyph-name="minute" unicode="&#x2032;" d="M158 462 l39 283 l118 0 l-55 -283 l-102 0 Z" /><glyph glyph-name="second" unicode="&#x2033;" d="M158 462 l39 283 l118 0 l-55 -283 l-102 0 ZM345 462 l39 283 l118 0 l-55 -283 l-102 0 Z" /><glyph glyph-name="bar" unicode="|" d="M66 -190 l146 1035 l133 0 l-146 -1035 l-133 0 Z" /><glyph glyph-name="brokenbar" unicode="¦" d="M153 428 l59 417 l133 0 l-59 -417 l-133 0 ZM66 -190 l59 418 l133 0 l-59 -418 l-133 0 Z" /><glyph glyph-name="dagger" unicode="&#x2020;" d="M206 -190 l85 604 l-204 0 l18 124 l204 0 l29 207 l132 0 l-29 -207 l204 0 l-18 -124 l-204 0 l-85 -604 l-132 0 Z" /><glyph glyph-name="uni2113" unicode="&#x2113;" d="M372 -6 q-92 0 -129.5 40.5 q-37.5 40.5 -25.5 125.5 l56 393 q9 64 42 109.5 q33 45.5 82 70 q49 24.5 103 24.5 q53 0 89.5 -21.5 q36.5 -21.5 55.5 -58 q19 -36.5 19 -82.5 q0 -64 -33 -127.5 q-33 -63.5 -91.5 -120 q-58.5 -56.5 -134 -105.5 q-75.5 -49 -160 -86 q-84.5 -37 -170.5 -58 l-21 107 q99 28 184 69.5 q85 41.5 149.5 92.5 q64.5 51 101 108.5 q36.5 57.5 36.5 115.5 q0 28 -12 44 q-12 16 -33 16 q-27 0 -48 -23 q-21 -23 -28 -69 l-54 -390 q-4 -30 11 -45.5 q15 -15.5 46 -15.5 l101 0 l-16 -114 l-120 0 Z" /><glyph glyph-name="daggerdbl" unicode="&#x2021;" d="M223 -190 l29 207 l-203 0 l17 124 l204 0 l39 273 l-204 0 l18 124 l203 0 l29 207 l133 0 l-29 -207 l204 0 l-18 -124 l-204 0 l-38 -273 l203 0 l-17 -124 l-204 0 l-29 -207 l-133 0 Z" /><glyph glyph-name="estimated" unicode="&#x212e;" d="M436 -10 q-85 0 -155.5 28 q-70.5 28 -121.5 77.5 q-51 49.5 -78.5 114.5 q-27.5 65 -27.5 139 q0 75 28 140.5 q28 65.5 79 115 q51 49.5 120.5 77.5 q69.5 28 152.5 28 q83 0 152.5 -28 q69.5 -28 120.5 -77.5 q51 -49.5 79 -114.5 q28 -65 28 -140 l0 -9 l-609 0 q-5 0 -5 -6 l0 -195 q0 -7 1.5 -10.5 q1.5 -3.5 8.5 -11.5 q39 -45 92 -75.5 q53 -30.5 135 -30.5 q81 0 134.5 31 q53.5 31 101.5 86 l58 0 q-35 -41 -75.5 -72.5 q-40.5 -31.5 -93.5 -49 q-53 -17.5 -125 -17.5 ZM204 360 l458 0 q4 0 4 6 l0 196 q0 3 -1 10 q-1 7 -9 14 q-30 32 -60.5 55 q-30.5 23 -69 35 q-38.5 12 -93.5 12 q-82 0 -134 -31 q-52 -31 -89 -74 q-8 -10 -9.5 -13 q-1.5 -3 -1.5 -11 l0 -193 q0 -6 5 -6 Z" /><glyph glyph-name="uni20B3" unicode="&#x20b3;" d="M-22 0 l361 745 l176 0 l153 -745 l-143 0 l-124 649 l37 -4 l-306 -645 l-154 0 ZM-1 180 l11 84 l690 0 l-11 -84 l-690 0 ZM19 324 l11 84 l690 0 l-11 -84 l-690 0 Z" /><glyph glyph-name="uni20BF" unicode="&#x20bf;" d="M34 0 l104 745 l301 0 q103 0 159.5 -48.5 q56.5 -48.5 56.5 -135.5 q0 -40 -12.5 -74.5 q-12.5 -34.5 -37 -61.5 q-24.5 -27 -61.5 -47 l-9 48 q65 -28 91.5 -73.5 q26.5 -45.5 26.5 -97.5 q0 -78 -35.5 -135.5 q-35.5 -57.5 -101 -88.5 q-65.5 -31 -154.5 -31 l-328 0 ZM187 120 l201 0 q38 0 67 15.5 q29 15.5 45 43.5 q16 28 16 63 q0 43 -28.5 69 q-28.5 26 -76.5 26 l-194 0 l-30 -217 ZM234 456 l182 0 q30 0 53 13 q23 13 36 35 q13 22 13 51 q0 34 -22.5 54 q-22.5 20 -61.5 20 l-176 0 l-24 -173 ZM176 -100 l20 147 l86 0 l-20 -147 l-86 0 ZM309 -100 l20 147 l86 0 l-20 -147 l-86 0 ZM288 698 l20 147 l86 0 l-20 -147 l-86 0 ZM421 698 l20 147 l86 0 l-20 -147 l-86 0 Z" /><glyph glyph-name="uni20B5" unicode="&#x20b5;" d="M414 -12 q-75 0 -139 26 q-64 26 -111 74 q-47 48 -73 113.5 q-26 65.5 -26 145.5 q0 85 29 159.5 q29 74.5 82.5 130.5 q53.5 56 126 88 q72.5 32 158.5 32 q81 0 143.5 -27.5 q62.5 -27.5 103.5 -72.5 q41 -45 57 -97 l-125 -55 q-18 57 -64.5 92.5 q-46.5 35.5 -118.5 35.5 q-56 0 -102.5 -21 q-46.5 -21 -81 -60 q-34.5 -39 -53.5 -91.5 q-19 -52.5 -19 -113.5 q0 -72 26.5 -124.5 q26.5 -52.5 74.5 -81.5 q48 -29 112 -29 q74 0 127.5 37 q53.5 37 79.5 94 l118 -61 q-22 -53 -69 -97 q-47 -44 -112 -70.5 q-65 -26.5 -144 -26.5 ZM315 -100 l132 945 l86 0 l-132 -945 l-86 0 Z" /><glyph glyph-name="cent" unicode="¢" d="M321 89 q-77 0 -138 35 q-61 35 -95 95.5 q-34 60.5 -34 136.5 q0 63 23 118 q23 55 64.5 96 q41.5 41 96 64 q54.5 23 116.5 23 q60 0 109 -20.5 q49 -20.5 83.5 -57 q34.5 -36.5 47.5 -84.5 l-117 -47 q-12 41 -45 65 q-33 24 -79 24 q-48 0 -85 -25 q-37 -25 -57 -66.5 q-20 -41.5 -20 -89.5 q0 -43 16.5 -76 q16.5 -33 47 -52 q30.5 -19 69.5 -19 q49 0 86 26 q37 26 56 68 l111 -56 q-19 -46 -57 -81.5 q-38 -35.5 -89 -56 q-51 -20.5 -110 -20.5 ZM242 0 l103 745 l86 0 l-103 -745 l-86 0 Z" /><glyph glyph-name="colonmonetary" unicode="&#x20a1;" d="M414 -12 q-75 0 -139 26 q-64 26 -111 74 q-47 48 -73 113.5 q-26 65.5 -26 145.5 q0 85 29 159.5 q29 74.5 82.5 130.5 q53.5 56 126 88 q72.5 32 158.5 32 q81 0 143.5 -27.5 q62.5 -27.5 103.5 -72.5 q41 -45 57 -97 l-125 -55 q-18 57 -64.5 92.5 q-46.5 35.5 -118.5 35.5 q-56 0 -102.5 -21 q-46.5 -21 -81 -60 q-34.5 -39 -53.5 -91.5 q-19 -52.5 -19 -113.5 q0 -72 26.5 -124.5 q26.5 -52.5 74.5 -81.5 q48 -29 112 -29 q74 0 127.5 37 q53.5 37 79.5 94 l118 -61 q-22 -53 -69 -97 q-47 -44 -112 -70.5 q-65 -26.5 -144 -26.5 ZM169 -100 l264 945 l85 0 l-264 -945 l-85 0 ZM302 -100 l264 945 l85 0 l-264 -945 l-85 0 Z" /><glyph glyph-name="currency" unicode="¤" d="M94 11 l-68 76 l87 78 q-9 18 -14 38.5 q-5 20.5 -5 43.5 q0 34 11 66.5 q11 32.5 29 59.5 l-70 79 l84 76 l70 -79 q25 14 52.5 21 q27.5 7 54.5 7 q28 0 54 -7 q26 -7 47 -21 l87 79 l68 -76 l-87 -79 q10 -21 14.5 -42 q4.5 -21 4.5 -40 q0 -34 -11 -66.5 q-11 -32.5 -30 -59.5 l71 -78 l-84 -76 l-71 78 q-23 -13 -50.5 -20.5 q-27.5 -7.5 -55.5 -7.5 q-28 0 -53.5 7 q-25.5 7 -47.5 21 l-87 -78 ZM293 177 q28 0 51 14.5 q23 14.5 37 37.5 q14 23 14 50 q0 24 -10.5 42 q-10.5 18 -29.5 29 q-19 11 -42 11 q-28 0 -51 -14 q-23 -14 -37.5 -37.5 q-14.5 -23.5 -14.5 -50.5 q0 -23 11 -41.5 q11 -18.5 30 -29.5 q19 -11 42 -11 Z" /><glyph glyph-name="dollar" unicode="$" d="M325 -12 q-75 0 -136.5 26 q-61.5 26 -103 73.5 q-41.5 47.5 -57.5 110.5 l117 44 q19 -64 67.5 -99.5 q48.5 -35.5 112.5 -35.5 q39 0 68 13.5 q29 13.5 44.5 36.5 q15.5 23 15.5 51 q0 29 -17.5 49 q-17.5 20 -55.5 32 l-132 44 q-79 26 -118 75 q-39 49 -39 119 q0 65 34.5 117 q34.5 52 93.5 82.5 q59 30.5 134 30.5 q70 0 126 -24 q56 -24 93.5 -66 q37.5 -42 51.5 -99 l-116 -44 q-15 54 -57 84 q-42 30 -101 30 q-36 0 -64 -12.5 q-28 -12.5 -43.5 -34.5 q-15.5 -22 -15.5 -52 q0 -30 18.5 -51.5 q18.5 -21.5 57.5 -34.5 l125 -43 q82 -27 122 -75 q40 -48 40 -118 q0 -63 -35 -115 q-35 -52 -94.5 -83 q-59.5 -31 -135.5 -31 ZM232 -100 l132 945 l86 0 l-132 -945 l-86 0 Z" /><glyph glyph-name="dong" unicode="&#x20ab;" d="M262 139 q-63 0 -110.5 26.5 q-47.5 26.5 -73.5 73.5 q-26 47 -26 108 q0 76 34 132 q34 56 90 86.5 q56 30.5 121 30.5 q51 0 87.5 -19 q36.5 -19 56.5 -49 l-27 -23 l33 240 l125 0 l-83 -596 l-116 0 l9 79 l26 -18 q-23 -36 -62.5 -53.5 q-39.5 -17.5 -83.5 -17.5 ZM279 249 q36 0 63 17.5 q27 17.5 42.5 47 q15.5 29.5 15.5 66.5 q0 30 -12.5 54 q-12.5 24 -34.5 37.5 q-22 13.5 -52 13.5 q-36 0 -63.5 -17 q-27.5 -17 -43 -46.5 q-15.5 -29.5 -15.5 -67.5 q0 -30 12.5 -54 q12.5 -24 35 -37.5 q22.5 -13.5 52.5 -13.5 ZM4 0 l12 82 l481 0 l-12 -82 l-481 0 ZM369 623 l11 81 l244 0 l-11 -81 l-244 0 Z" /><glyph glyph-name="Euro" unicode="&#x20ac;" d="M435 -12 q-88 0 -159 42.5 q-71 42.5 -112.5 121 q-41.5 78.5 -41.5 187.5 q0 86 27 162 q27 76 75.5 133.5 q48.5 57.5 115.5 90 q67 32.5 147 32.5 q102 0 176 -52.5 q74 -52.5 97 -143.5 l-125 -47 q-17 57 -58 89 q-41 32 -98 32 q-48 0 -88.5 -22.5 q-40.5 -22.5 -70.5 -62 q-30 -39.5 -46 -92 q-16 -52.5 -16 -112.5 q0 -72 23.5 -125 q23.5 -53 65.5 -81.5 q42 -28.5 95 -28.5 q58 0 103.5 32 q45.5 32 69.5 88 l119 -47 q-24 -61 -68.5 -104.5 q-44.5 -43.5 -103.5 -67.5 q-59 -24 -127 -24 ZM24 259 l11 84 l446 0 l-12 -84 l-445 0 ZM44 403 l12 84 l445 0 l-11 -84 l-446 0 Z" /><glyph glyph-name="franc" unicode="&#x20a3;" d="M78 0 l104 745 l498 0 l-17 -120 l-361 0 l-29 -206 l316 0 l-17 -120 l-316 0 l-42 -299 l-136 0 ZM13 108 l12 83 l416 0 l-12 -83 l-416 0 Z" /><glyph glyph-name="uni20B2" unicode="&#x20b2;" d="M412 -12 q-72 0 -135 25 q-63 25 -110.5 72 q-47.5 47 -74.5 113 q-27 66 -27 147 q0 86 30.5 161 q30.5 75 84.5 131.5 q54 56.5 126.5 88 q72.5 31.5 157.5 31.5 q80 0 142 -27 q62 -27 103 -71.5 q41 -44.5 56 -97.5 l-125 -58 q-18 58 -65 94 q-47 36 -120 36 q-56 0 -102.5 -21.5 q-46.5 -21.5 -80.5 -60 q-34 -38.5 -52.5 -89.5 q-18.5 -51 -18.5 -111 q0 -72 27.5 -126 q27.5 -54 77.5 -83.5 q50 -29.5 116 -29.5 q58 0 105.5 22.5 q47.5 22.5 79 64.5 q31.5 42 37.5 98 l7 57 l58 -54 l-276 0 l9 115 l351 0 l-9 -90 q-7 -82 -40.5 -145 q-33.5 -63 -84.5 -105.5 q-51 -42.5 -114.5 -64.5 q-63.5 -22 -132.5 -22 ZM317 -100 l132 945 l86 0 l-132 -945 l-86 0 Z" /><glyph glyph-name="uni20B4" unicode="&#x20b4;" d="M438 466 q18 14 33 36 q15 22 15 52 q0 37 -29 60.5 q-29 23.5 -77 23.5 q-38 0 -73.5 -17.5 q-35.5 -17.5 -49.5 -67.5 l-146 0 q14 68 56.5 113 q42.5 45 102 68 q59.5 23 122.5 23 q70 0 121.5 -24 q51.5 -24 80 -66 q28.5 -42 28.5 -96 q0 -40 -12 -65.5 q-12 -25.5 -22 -39.5 l-150 0 ZM304 -12 q-69 0 -120.5 24 q-51.5 24 -80 66.5 q-28.5 42.5 -28.5 96.5 q0 41 12 65.5 q12 24.5 21 38.5 l151 0 q-19 -14 -34 -35.5 q-15 -21.5 -15 -51.5 q0 -38 29 -61.5 q29 -23.5 78 -23.5 q24 0 49 7.5 q25 7.5 45 26 q20 18.5 29 51.5 l146 0 q-14 -67 -57 -112.5 q-43 -45.5 -102 -68.5 q-59 -23 -123 -23 ZM38 259 l11 84 l589 0 l-11 -84 l-589 0 ZM58 403 l11 84 l590 0 l-11 -84 l-590 0 Z" /><glyph glyph-name="uni20AD" unicode="&#x20ad;" d="M516 0 l-211 355 l2 51 l269 339 l167 0 l-291 -371 l224 -374 l-160 0 ZM78 0 l104 745 l137 0 l-104 -745 l-137 0 ZM44 331 l12 84 l640 0 l-11 -84 l-641 0 Z" /><glyph glyph-name="uni20BE" unicode="&#x20be;" d="M35 0 l17 120 l169 0 l-30 -25 q-59 43 -92.5 109.5 q-33.5 66.5 -33.5 144.5 q0 85 32.5 158.5 q32.5 73.5 90 130 q57.5 56.5 133 88 q75.5 31.5 162.5 31.5 q93 0 167.5 -33.5 q74.5 -33.5 122.5 -95.5 q48 -62 57 -148 l-146 0 q-7 50 -36.5 84.5 q-29.5 34.5 -74.5 51.5 q-45 17 -100 17 q-57 0 -106.5 -21 q-49.5 -21 -87 -60 q-37.5 -39 -58 -90 q-20.5 -51 -20.5 -111 q0 -44 13 -85 q13 -41 41 -74 q28 -33 73 -52.5 q45 -19.5 109 -19.5 l352 0 l-17 -120 l-737 0 ZM341 480 l52 365 l85 0 l-52 -365 l-85 0 ZM473 480 l52 365 l85 0 l-52 -365 l-85 0 Z" /><glyph glyph-name="lira" unicode="&#x20a4;" d="M-2 0 l16 115 l100 0 l56 402 q11 74 47.5 127.5 q36.5 53.5 96 83 q59.5 29.5 135.5 29.5 q62 0 112 -24.5 q50 -24.5 79.5 -69 q29.5 -44.5 28.5 -103.5 l-123 -22 q0 49 -28.5 73 q-28.5 24 -72.5 24 q-57 0 -93.5 -33.5 q-36.5 -33.5 -44.5 -91.5 l-56 -395 l322 0 l-15 -115 l-560 0 ZM55 403 l11 84 l420 0 l-11 -84 l-420 0 ZM34 259 l12 84 l421 0 l-12 -84 l-421 0 Z" /><glyph glyph-name="uni20BA" unicode="&#x20ba;" d="M83 0 l104 745 l137 0 l-88 -625 l29 0 q88 0 154 42 q66 42 98 114 l144 0 q-25 -82 -80 -144 q-55 -62 -135.5 -97 q-80.5 -35 -181.5 -35 l-181 0 ZM56 414 l14 99 l447 125 l-15 -99 l-446 -125 ZM31 235 l13 99 l447 125 l-14 -99 l-446 -125 Z" /><glyph glyph-name="uni20BC" unicode="&#x20bc;" d="M26 0 l54 383 q12 80 56 142 q44 62 112.5 97 q68.5 35 152.5 35 q87 0 151 -37 q64 -37 96 -100.5 q32 -63.5 20 -143.5 l-52 -376 l-136 0 l52 375 q6 47 -9 83 q-15 36 -48.5 55.5 q-33.5 19.5 -80.5 19.5 q-46 0 -84.5 -19.5 q-38.5 -19.5 -63.5 -56.5 q-25 -37 -32 -88 l-52 -369 l-136 0 ZM279 0 l118 845 l86 0 l-118 -845 l-86 0 Z" /><glyph glyph-name="uni20A6" unicode="&#x20a6;" d="M78 0 l104 745 l169 0 l184 -679 l-44 -12 l97 691 l132 0 l-104 -745 l-169 0 l-180 684 l41 11 l-98 -695 l-132 0 ZM44 331 l12 84 l698 0 l-12 -84 l-698 0 Z" /><glyph glyph-name="peseta" unicode="&#x20a7;" d="M78 0 l104 745 l267 0 q71 0 124 -26 q53 -26 83 -75.5 q30 -49.5 30 -121.5 q0 -72 -34.5 -128 q-34.5 -56 -97.5 -87.5 q-63 -31.5 -148 -31.5 l-153 0 l-39 -275 l-136 0 ZM270 395 l145 0 q39 0 69 16.5 q30 16.5 47.5 45.5 q17.5 29 17.5 66 q0 47 -30 74.5 q-30 27.5 -80 27.5 l-137 0 l-32 -230 ZM64 469 l11 83 l678 0 l-12 -83 l-677 0 Z" /><glyph glyph-name="uni20B1" unicode="&#x20b1;" d="M78 0 l104 745 l267 0 q71 0 124 -26 q53 -26 83 -75.5 q30 -49.5 30 -121.5 q0 -72 -34.5 -128 q-34.5 -56 -97.5 -87.5 q-63 -31.5 -148 -31.5 l-153 0 l-39 -275 l-136 0 ZM270 395 l145 0 q39 0 69 16.5 q30 16.5 47.5 45.5 q17.5 29 17.5 66 q0 47 -30 74.5 q-30 27.5 -80 27.5 l-137 0 l-32 -230 ZM58 429 l9 61 l677 0 l-8 -61 l-678 0 ZM72 530 l9 62 l678 0 l-9 -62 l-678 0 Z" /><glyph glyph-name="uni20BD" unicode="&#x20bd;" d="M78 0 l39 275 l-80 0 l11 84 l80 0 l54 386 l267 0 q71 0 124 -26 q53 -26 83 -75.5 q30 -49.5 30 -121.5 q0 -72 -34.5 -128 q-34.5 -56 -97.5 -87.5 q-63 -31.5 -148 -31.5 l-153 0 l-39 -275 l-136 0 ZM270 395 l145 0 q39 0 69 16.5 q30 16.5 47.5 45.5 q17.5 29 17.5 66 q0 48 -30 75 q-30 27 -80 27 l-137 0 l-32 -230 ZM13 108 l12 83 l416 0 l-12 -83 l-416 0 Z" /><glyph glyph-name="uni20B9" unicode="&#x20b9;" d="M379 0 l-307 275 l17 120 l282 0 q39 0 69 16.5 q30 16.5 47.5 45.5 q17.5 29 17.5 66 q0 47 -30 74.5 q-30 27.5 -80 27.5 l-273 0 l16 120 l598 0 l-12 -84 l-184 0 l35 27 q33 -28 50 -70 q17 -42 17 -96 q0 -72 -34.5 -128 q-34.5 -56 -97.5 -87.5 q-63 -31.5 -148 -31.5 l-158 0 l16 40 l347 -315 l-188 0 ZM100 469 l11 83 l598 0 l-12 -83 l-597 0 Z" /><glyph glyph-name="uni20AA" unicode="&#x20aa;" d="M201 0 l81 578 l72 0 l-63 -445 l120 0 q8 0 15.5 7 q7.5 7 8.5 15 l83 590 l132 0 l-86 -613 q-8 -61 -49 -96.5 q-41 -35.5 -101 -35.5 l-213 0 ZM34 0 l104 745 l208 0 q62 0 94.5 -39 q32.5 -39 23.5 -100 l-61 -439 l-73 0 l61 430 q1 8 -2 11.5 q-3 3.5 -11 3.5 l-126 0 l-86 -612 l-132 0 Z" /><glyph glyph-name="sterling" unicode="£" d="M-1 0 l16 115 l100 0 l56 402 q11 74 47.5 127.5 q36.5 53.5 96 83 q59.5 29.5 135.5 29.5 q62 0 112 -24.5 q50 -24.5 79.5 -69 q29.5 -44.5 28.5 -103.5 l-123 -22 q0 49 -28.5 73 q-28.5 24 -72.5 24 q-57 0 -93.5 -33.5 q-36.5 -33.5 -44.5 -91.5 l-56 -395 l322 0 l-15 -115 l-560 0 ZM45 337 l12 84 l420 0 l-11 -84 l-421 0 Z" /><glyph glyph-name="uni20B8" unicode="&#x20b8;" d="M167 0 l64 458 l-194 0 l17 120 l520 0 l-17 -120 l-189 0 l-64 -458 l-137 0 ZM66 661 l11 84 l520 0 l-11 -84 l-520 0 Z" /><glyph glyph-name="uni20AE" unicode="&#x20ae;" d="M167 0 l88 625 l-194 0 l16 120 l521 0 l-17 -120 l-189 0 l-87 -625 l-138 0 ZM63 312 l14 99 l447 125 l-15 -99 l-446 -125 ZM38 133 l14 99 l446 125 l-13 -99 l-447 -125 Z" /><glyph glyph-name="uni20A9" unicode="&#x20a9;" d="M143 0 l-27 745 l136 0 l-3 -702 l-39 0 l253 702 l133 0 l57 -702 l-45 0 l193 702 l142 0 l-235 -745 l-152 0 l-52 685 l43 0 l-245 -685 l-159 0 ZM20 331 l11 84 l903 0 l-11 -84 l-903 0 Z" /><glyph glyph-name="yen" unicode="¥" d="M224 0 l46 330 l-193 415 l147 0 l147 -324 l-56 1 l235 323 l165 0 l-307 -414 l-46 -331 l-138 0 ZM121 289 l12 83 l420 0 l-12 -83 l-420 0 ZM101 145 l12 84 l420 0 l-11 -84 l-421 0 Z" /><glyph glyph-name="uni2219" unicode="&#x2219;" d="M276 172 q-48 0 -86 21.5 q-38 21.5 -59 58.5 q-21 37 -21 84 q0 56 28 102.5 q28 46.5 74.5 74 q46.5 27.5 102.5 27.5 q48 0 84.5 -21.5 q36.5 -21.5 58 -58 q21.5 -36.5 21.5 -83.5 q0 -55 -28 -102 q-28 -47 -74 -75 q-46 -28 -101 -28 Z" /><glyph glyph-name="uni2215" unicode="&#x2215;" d="M12 -60 l454 865 l150 0 l-454 -865 l-150 0 Z" /><glyph glyph-name="uni208C" unicode="&#x208c;" d="M108 289 l12 88 l315 0 l-12 -88 l-315 0 ZM84 117 l12 89 l315 0 l-12 -89 l-315 0 Z" /><glyph glyph-name="uni207C" unicode="&#x207c;" d="M139 512 l12 88 l315 0 l-12 -88 l-315 0 ZM115 340 l12 89 l315 0 l-12 -89 l-315 0 Z" /><glyph glyph-name="uni208B" unicode="&#x208b;" d="M98 217 l12 88 l315 0 l-12 -88 l-315 0 Z" /><glyph glyph-name="uni207B" unicode="&#x207b;" d="M129 440 l12 88 l315 0 l-12 -88 l-315 0 Z" /><glyph glyph-name="plus" unicode="+" d="M237 0 l27 194 l-195 0 l16 113 l195 0 l27 193 l113 0 l-27 -193 l192 0 l-16 -113 l-192 0 l-27 -194 l-113 0 Z" /><glyph glyph-name="minus" unicode="&#x2212;" d="M94 194 l16 113 l450 0 l-16 -113 l-450 0 Z" /><glyph glyph-name="multiply" unicode="×" d="M144 0 l-72 81 l173 152 l-129 149 l89 79 l128 -149 l171 151 l73 -81 l-172 -150 l130 -152 l-88 -80 l-130 152 l-173 -152 Z" /><glyph glyph-name="divide" unicode="÷" d="M69 194 l16 113 l500 0 l-16 -113 l-500 0 ZM226 0 l16 114 l132 0 l-15 -114 l-133 0 ZM281 386 l15 114 l133 0 l-16 -114 l-132 0 Z" /><glyph glyph-name="equal" unicode="=" d="M110 301 l16 113 l450 0 l-16 -113 l-450 0 ZM76 59 l16 112 l450 0 l-16 -112 l-450 0 Z" /><glyph glyph-name="notequal" unicode="&#x2260;" d="M110 301 l16 113 l450 0 l-16 -113 l-450 0 ZM76 59 l16 112 l450 0 l-16 -112 l-450 0 ZM410 514 l110 0 l-281 -555 l-110 0 l281 555 Z" /><glyph glyph-name="greater" unicode="&gt;" d="M68 13 l19 140 l368 146 l-1 -45 l-331 151 l18 127 l431 -196 l-18 -128 l-486 -195 Z" /><glyph glyph-name="less" unicode="&lt;" d="M520 13 l-431 196 l18 128 l486 195 l-19 -140 l-368 -147 l1 46 l331 -152 l-18 -126 Z" /><glyph glyph-name="greaterequal" unicode="&#x2265;" d="M88 160 l20 139 l353 98 l0 -33 l-330 101 l18 129 l437 -153 l-17 -128 l-481 -153 ZM66 0 l15 108 l460 0 l-16 -108 l-459 0 Z" /><glyph glyph-name="lessequal" unicode="&#x2264;" d="M542 159 l-438 154 l18 128 l480 152 l-19 -138 l-353 -98 l0 32 l329 -101 l-17 -129 ZM60 0 l15 108 l459 0 l-15 -108 l-459 0 Z" /><glyph glyph-name="plusminus" unicode="±" d="M263 183 l20 146 l-194 0 l16 113 l194 0 l21 146 l113 0 l-20 -146 l192 0 l-16 -113 l-192 0 l-21 -146 l-113 0 ZM42 0 l17 113 l500 0 l-17 -113 l-500 0 Z" /><glyph glyph-name="approxequal" unicode="&#x2248;" d="M89 305 l11 112 q34 33 76 46.5 q42 13.5 81 13.5 q37 0 60.5 -9 q23.5 -9 42.5 -20 q19 -11 39.5 -20 q20.5 -9 50.5 -9 q37 0 79 15 q42 15 77 47 l-11 -112 q-33 -32 -73 -46 q-40 -14 -76 -14 q-39 0 -64 9 q-25 9 -44 20 q-19 11 -40.5 20 q-21.5 9 -53.5 9 q-36 0 -77.5 -15 q-41.5 -15 -77.5 -47 ZM56 73 l11 111 q34 33 76 46.5 q42 13.5 82 13.5 q37 0 60.5 -9 q23.5 -9 42 -20 q18.5 -11 39 -20 q20.5 -9 50.5 -9 q37 0 79 15 q42 15 78 47 l-11 -111 q-34 -33 -74 -46.5 q-40 -13.5 -76 -13.5 q-39 0 -64 9 q-25 9 -44 20 q-19 11 -40.5 20 q-21.5 9 -53.5 9 q-35 0 -77 -15 q-42 -15 -78 -47 Z" /><glyph glyph-name="asciitilde" unicode="~" d="M422 190 q-36 0 -58.5 10 q-22.5 10 -39.5 23 q-17 13 -32 23 q-15 10 -36 10 q-25 0 -44 -17 q-19 -17 -28 -48 l-107 0 q11 87 56.5 130.5 q45.5 43.5 110.5 43.5 q35 0 58 -9.5 q23 -9.5 39.5 -23 q16.5 -13.5 32 -23 q15.5 -9.5 35.5 -9.5 q24 0 42 16 q18 16 28 48 l106 0 q-10 -87 -54.5 -130.5 q-44.5 -43.5 -108.5 -43.5 Z" /><glyph glyph-name="logicalnot" unicode="¬" d="M436 40 l22 154 l-388 0 l15 113 l500 0 l-37 -267 l-112 0 Z" /><glyph glyph-name="asciicircum" unicode="^" d="M118 420 l216 325 l126 0 l124 -325 l-137 0 l-84 221 l55 0 l-147 -221 l-153 0 Z" /><glyph glyph-name="infinity" unicode="&#x221e;" d="M265 101 q-49 0 -86.5 20 q-37.5 20 -58.5 55 q-21 35 -21 79 q0 53 27 97 q27 44 73 69.5 q46 25.5 102 25.5 q69 0 127.5 -37.5 q58.5 -37.5 93.5 -106.5 l-6 -58 q-49 -67 -115.5 -105.5 q-66.5 -38.5 -135.5 -38.5 ZM285 198 q33 0 66.5 20 q33.5 20 60.5 56 q-19 37 -48 57 q-29 20 -63 20 q-25 0 -45 -11 q-20 -11 -31.5 -30.5 q-11.5 -19.5 -11.5 -44.5 q0 -29 19.5 -48 q19.5 -19 52.5 -19 ZM636 101 q-69 0 -127.5 38.5 q-58.5 38.5 -93.5 105.5 l6 58 q49 68 115 106 q66 38 135 38 q50 0 87.5 -19.5 q37.5 -19.5 58.5 -54.5 q21 -35 21 -79 q0 -53 -27 -97 q-27 -44 -73 -70 q-46 -26 -102 -26 ZM635 198 q26 0 45.5 11.5 q19.5 11.5 31 31 q11.5 19.5 11.5 43.5 q0 29 -19 48 q-19 19 -52 19 q-33 0 -67 -20 q-34 -20 -60 -57 q19 -36 48 -56 q29 -20 62 -20 Z" /><glyph glyph-name="emptyset" unicode="&#x2205;" d="M428 -12 q-78 0 -144 27.5 q-66 27.5 -115.5 77 q-49.5 49.5 -76.5 115 q-27 65.5 -27 141.5 q0 84 32.5 157.5 q32.5 73.5 89.5 130 q57 56.5 130.5 88.5 q73.5 32 157.5 32 q77 0 142.5 -27.5 q65.5 -27.5 115 -76.5 q49.5 -49 76.5 -114.5 q27 -65.5 27 -141.5 q0 -84 -32.5 -158 q-32.5 -74 -89.5 -130.5 q-57 -56.5 -130 -88.5 q-73 -32 -156 -32 ZM427 81 q64 0 121.5 24.5 q57.5 24.5 101.5 68.5 q44 44 69 101 q25 57 25 123 q0 57 -20.5 105.5 q-20.5 48.5 -57 85 q-36.5 36.5 -85.5 56.5 q-49 20 -106 20 q-64 0 -122 -24.5 q-58 -24.5 -102 -68.5 q-44 -44 -69 -101 q-25 -57 -25 -122 q0 -76 35.5 -137 q35.5 -61 96.5 -96 q61 -35 138 -35 ZM34 0 l719 745 l114 0 l-718 -745 l-115 0 Z" /><glyph glyph-name="integral" unicode="&#x222b;" d="M91 -180 q-14 0 -28.5 2 q-14.5 2 -24.5 4 l9 111 q9 -1 17.5 -1.5 q8.5 -0.5 12.5 -0.5 q46 0 75.5 23.5 q29.5 23.5 37.5 78.5 l73 519 q10 68 41 112.5 q31 44.5 79 66.5 q48 22 107 22 q15 0 29.5 -2 q14.5 -2 23.5 -4 l-8 -111 q-10 2 -18 2 q-8 0 -13 0 q-45 0 -74.5 -23.5 q-29.5 -23.5 -37.5 -77.5 l-73 -520 q-9 -68 -40.5 -112.5 q-31.5 -44.5 -79 -66.5 q-47.5 -22 -108.5 -22 Z" /><glyph glyph-name="product" unicode="&#x220f;" d="M156 -100 l102 725 l-144 0 l17 120 l731 0 l-16 -120 l-141 0 l-101 -725 l-136 0 l101 725 l-175 0 l-101 -725 l-137 0 Z" /><glyph glyph-name="summation" unicode="&#x2211;" d="M30 -100 l14 107 l305 365 l-14 -98 l-202 364 l15 107 l528 0 l-17 -120 l-414 0 l24 50 l200 -368 l-277 -336 l-31 49 l413 0 l-16 -120 l-528 0 Z" /><glyph glyph-name="radical" unicode="&#x221a;" d="M313 -100 l-145 490 l75 -55 l-167 0 l15 109 l199 0 l117 -419 l-48 0 l403 720 l212 0 l-14 -109 l-167 0 l90 55 l-451 -791 l-119 0 Z" /><glyph glyph-name="uni00B5" unicode="µ" d="M-8 -140 l96 684 l132 0 l-46 -325 q-4 -34 5 -59 q9 -25 30.5 -38.5 q21.5 -13.5 51.5 -13.5 q34 0 62.5 15.5 q28.5 15.5 47 42.5 q18.5 27 23.5 62 l44 316 l132 0 l-76 -544 l-123 0 l16 125 l12 -23 q-22 -59 -69 -86.5 q-47 -27.5 -108 -27.5 q-33 0 -60 8.5 q-27 8.5 -49 22.5 l39 44 l-27 -203 l-133 0 Z" /><glyph glyph-name="partialdiff" unicode="&#x2202;" d="M338 -12 q-71 0 -128.5 30 q-57.5 30 -90.5 85 q-33 55 -33 128 q0 85 39.5 152 q39.5 67 107.5 106 q68 39 152 39 q49 0 85.5 -12 q36.5 -12 65.5 -31.5 q29 -19.5 52 -41.5 l-28 -85 q-30 31 -73.5 48.5 q-43.5 17.5 -90.5 17.5 q-52 0 -90.5 -22.5 q-38.5 -22.5 -60.5 -62.5 q-22 -40 -22 -94 q0 -40 15.5 -71.5 q15.5 -31.5 44.5 -49 q29 -17.5 68 -17.5 q53 0 91.5 33 q38.5 33 59.5 94 q21 61 21 145 q0 52 -12 104 q-12 52 -40 95.5 q-28 43.5 -75.5 70 q-47.5 26.5 -118.5 26.5 q-31 0 -59 -6 q-28 -6 -57 -18 l-6 115 q29 13 65 19 q36 6 72 6 q89 0 158 -34 q69 -34 115.5 -92.5 q46.5 -58.5 70 -133 q23.5 -74.5 23.5 -155.5 q0 -113 -41 -201 q-41 -88 -113 -137.5 q-72 -49.5 -167 -49.5 Z" /><glyph glyph-name="percent" unicode="%" d="M129 0 l708 745 l140 0 l-708 -745 l-140 0 ZM298 367 q-54 0 -95.5 24 q-41.5 24 -65 65.5 q-23.5 41.5 -23.5 91.5 q0 57 28.5 104.5 q28.5 47.5 76.5 76 q48 28.5 106 28.5 q52 0 93.5 -24 q41.5 -24 65 -65 q23.5 -41 23.5 -92 q0 -57 -28.5 -104.5 q-28.5 -47.5 -76 -76 q-47.5 -28.5 -104.5 -28.5 ZM305 468 q28 0 50 14 q22 14 34.5 37.5 q12.5 23.5 12.5 49.5 q0 23 -10 42.5 q-10 19.5 -28.5 32.5 q-18.5 13 -46.5 13 q-28 0 -50 -14.5 q-22 -14.5 -35 -37.5 q-13 -23 -13 -50 q0 -22 10 -42 q10 -20 29.5 -32.5 q19.5 -12.5 46.5 -12.5 ZM778 -12 q-52 0 -94 24 q-42 24 -65.5 65.5 q-23.5 41.5 -23.5 91.5 q0 58 29 105 q29 47 77 75.5 q48 28.5 105 28.5 q53 0 94 -24 q41 -24 64.5 -65 q23.5 -41 23.5 -92 q0 -57 -28.5 -104.5 q-28.5 -47.5 -76 -76 q-47.5 -28.5 -105.5 -28.5 ZM786 89 q28 0 50 14 q22 14 34.5 37.5 q12.5 23.5 12.5 49.5 q0 23 -10 43 q-10 20 -28.5 32.5 q-18.5 12.5 -45.5 12.5 q-28 0 -50.5 -14.5 q-22.5 -14.5 -35 -37.5 q-12.5 -23 -12.5 -50 q0 -23 10 -43 q10 -20 29 -32 q19 -12 46 -12 Z" /><glyph glyph-name="perthousand" unicode="&#x2030;" d="M129 0 l708 745 l140 0 l-708 -745 l-140 0 ZM298 367 q-54 0 -95.5 24 q-41.5 24 -65 65.5 q-23.5 41.5 -23.5 91.5 q0 57 28.5 104.5 q28.5 47.5 76.5 76 q48 28.5 106 28.5 q52 0 93.5 -24 q41.5 -24 65 -65 q23.5 -41 23.5 -92 q0 -57 -28.5 -104.5 q-28.5 -47.5 -76 -76 q-47.5 -28.5 -104.5 -28.5 ZM305 468 q28 0 50 14 q22 14 34.5 37.5 q12.5 23.5 12.5 49.5 q0 23 -10 42.5 q-10 19.5 -28.5 32.5 q-18.5 13 -46.5 13 q-28 0 -50 -14.5 q-22 -14.5 -35 -37.5 q-13 -23 -13 -50 q0 -22 10 -42 q10 -20 29.5 -32.5 q19.5 -12.5 46.5 -12.5 ZM778 -12 q-52 0 -94 24 q-42 24 -65.5 65.5 q-23.5 41.5 -23.5 91.5 q0 58 29 105 q29 47 77 75.5 q48 28.5 105 28.5 q53 0 94 -24 q41 -24 64.5 -65 q23.5 -41 23.5 -92 q0 -57 -28.5 -104.5 q-28.5 -47.5 -76 -76 q-47.5 -28.5 -105.5 -28.5 ZM786 89 q28 0 50 14 q22 14 34.5 37.5 q12.5 23.5 12.5 49.5 q0 23 -10 43 q-10 20 -28.5 32.5 q-18.5 12.5 -45.5 12.5 q-28 0 -50.5 -14.5 q-22.5 -14.5 -35 -37.5 q-12.5 -23 -12.5 -50 q0 -23 10 -43 q10 -20 29 -32 q19 -12 46 -12 ZM1213 -12 q-53 0 -94.5 24 q-41.5 24 -65.5 65.5 q-24 41.5 -24 91.5 q0 58 29 105 q29 47 77 75.5 q48 28.5 106 28.5 q52 0 93 -24 q41 -24 64.5 -65 q23.5 -41 23.5 -92 q0 -57 -28.5 -104.5 q-28.5 -47.5 -75.5 -76 q-47 -28.5 -105 -28.5 ZM1220 89 q29 0 51 14 q22 14 34 37.5 q12 23.5 12 49.5 q0 23 -9.5 43 q-9.5 20 -28 32.5 q-18.5 12.5 -45.5 12.5 q-28 0 -50.5 -14.5 q-22.5 -14.5 -35.5 -37.5 q-13 -23 -13 -50 q0 -23 10 -43 q10 -20 29 -32 q19 -12 46 -12 Z" /><glyph glyph-name="uni208A" unicode="&#x208a;" d="M187 85 l17 132 l-131 0 l13 88 l130 0 l20 130 l88 0 l-18 -130 l130 0 l-13 -88 l-130 0 l-18 -132 l-88 0 Z" /><glyph glyph-name="uni207A" unicode="&#x207a;" d="M218 308 l17 132 l-131 0 l13 88 l130 0 l20 130 l88 0 l-18 -130 l130 0 l-13 -88 l-130 0 l-18 -132 l-88 0 Z" /><glyph glyph-name="arrowup" unicode="&#x2191;" d="M97 243 l0 155 l243 232 l55 0 l245 -232 l0 -155 l-316 290 l87 0 l-314 -290 ZM310 0 l0 524 l117 0 l0 -524 l-117 0 Z" /><glyph glyph-name="uni2197" unicode="&#x2197;" d="M271 473 l350 0 l39 -38 l0 -349 l-117 -109 l0 440 l59 -60 l-440 0 l109 116 ZM524 421 l82 -82 l-371 -370 l-82 81 l371 371 Z" /><glyph glyph-name="arrowright" unicode="&#x2192;" d="M329 0 l290 317 l0 -88 l-290 315 l155 0 l232 -244 l0 -54 l-232 -246 l-155 0 ZM86 214 l0 116 l525 0 l0 -116 l-525 0 Z" /><glyph glyph-name="uni2198" unicode="&#x2198;" d="M213 0 l-109 116 l440 0 l-59 -59 l0 439 l117 -108 l0 -350 l-39 -38 l-350 0 ZM466 52 l-371 371 l82 82 l371 -371 l-82 -82 Z" /><glyph glyph-name="arrowdown" unicode="&#x2193;" d="M96 387 l314 -290 l-87 0 l316 290 l0 -155 l-245 -232 l-55 0 l-243 232 l0 155 ZM309 630 l117 0 l0 -524 l-117 0 l0 524 Z" /><glyph glyph-name="uni2199" unicode="&#x2199;" d="M522 0 l-350 0 l-38 38 l0 350 l116 108 l0 -439 l-59 59 l440 0 l-109 -116 ZM269 52 l-82 82 l371 371 l82 -82 l-371 -371 Z" /><glyph glyph-name="arrowleft" unicode="&#x2190;" d="M461 0 l-154 0 l-232 246 l0 54 l232 244 l154 0 l-289 -315 l0 88 l289 -317 ZM704 214 l-524 0 l0 116 l524 0 l0 -116 Z" /><glyph glyph-name="uni2196" unicode="&#x2196;" d="M528 473 l109 -116 l-440 0 l59 60 l0 -440 l-116 109 l0 349 l38 38 l350 0 ZM275 421 l371 -371 l-82 -81 l-371 370 l82 82 Z" /><glyph glyph-name="arrowboth" unicode="&#x2194;" d="M661 0 l290 317 l0 -88 l-290 315 l155 0 l232 -244 l0 -54 l-232 -246 l-155 0 ZM307 0 l-232 246 l0 54 l232 244 l154 0 l-289 -315 l0 88 l289 -317 l-154 0 ZM180 214 l0 116 l763 0 l0 -116 l-763 0 Z" /><glyph glyph-name="arrowupdn" unicode="&#x2195;" d="M139 272 l317 -289 l-88 -1 l314 290 l0 -155 l-243 -232 l-54 0 l-246 232 l0 155 ZM139 627 l246 232 l54 0 l243 -232 l0 -155 l-314 290 l88 0 l-317 -290 l0 155 ZM353 753 l116 0 l0 -762 l-116 0 l0 762 Z" /><glyph glyph-name="uni21A9" unicode="&#x21a9;" d="M177 214 l0 116 l524 0 q47 0 75 25 q28 25 28 67 q0 42 -28 67 q-28 25 -75 25 l-10 0 l0 116 l10 0 q66 0 115 -26 q49 -26 76.5 -72.5 q27.5 -46.5 27.5 -109.5 q0 -62 -27.5 -109 q-27.5 -47 -76.5 -73 q-49 -26 -115 -26 l-524 0 ZM304 0 l-232 246 l0 54 l232 244 l154 0 l-289 -315 l0 88 l289 -317 l-154 0 Z" /><glyph glyph-name="uni21AA" unicode="&#x21aa;" d="M847 214 l-524 0 q-65 0 -114.5 26 q-49.5 26 -77 73 q-27.5 47 -27.5 109 q0 63 27.5 109.5 q27.5 46.5 77 72.5 q49.5 26 114.5 26 l10 0 l0 -116 l-10 0 q-46 0 -74 -25 q-28 -25 -28 -67 q0 -41 28 -66.5 q28 -25.5 74 -25.5 l524 0 l0 -116 ZM721 0 l-155 0 l290 317 l0 -88 l-290 315 l155 0 l232 -244 l0 -54 l-232 -246 Z" /><glyph glyph-name="uni21B0" unicode="&#x21b0;" d="M701 -100 l0 314 l-524 0 l0 116 l641 0 l0 -430 l-117 0 ZM304 0 l-232 246 l0 54 l232 244 l154 0 l-289 -315 l0 88 l289 -317 l-154 0 Z" /><glyph glyph-name="uni21B1" unicode="&#x21b1;" d="M233 -100 l-116 0 l0 430 l640 0 l0 -116 l-524 0 l0 -314 ZM631 0 l-155 0 l289 317 l1 -88 l-290 315 l155 0 l232 -244 l0 -54 l-232 -246 Z" /><glyph glyph-name="uni21B2" unicode="&#x21b2;" d="M177 214 l0 116 l524 0 l0 314 l117 0 l0 -430 l-641 0 ZM304 0 l-232 246 l0 54 l232 244 l154 0 l-289 -315 l0 88 l289 -317 l-154 0 Z" /><glyph glyph-name="uni21B3" unicode="&#x21b3;" d="M801 214 l-641 0 l0 430 l117 0 l0 -314 l524 0 l0 -116 ZM674 0 l-154 0 l289 317 l0 -88 l-289 315 l154 0 l232 -244 l0 -54 l-232 -246 Z" /><glyph glyph-name="uni2B0E" unicode="&#x2b0e;" d="M529 106 l0 422 l-408 0 l0 116 l524 0 l0 -538 l-116 0 ZM559 0 l-244 232 l0 155 l315 -290 l-88 0 l317 290 l0 -155 l-246 -232 l-54 0 Z" /><glyph glyph-name="uni2B10" unicode="&#x2b10;" d="M425 106 l-116 0 l0 538 l524 0 l0 -116 l-408 0 l0 -422 ZM395 0 l-54 0 l-246 232 l0 155 l317 -290 l-88 0 l314 290 l0 -155 l-243 -232 Z" /><glyph glyph-name="uni25CF" unicode="&#x25cf;" d="M486 -12 q-79 0 -149 30 q-70 30 -122.5 82.5 q-52.5 52.5 -82.5 122.5 q-30 70 -30 149 q0 80 30 149.5 q30 69.5 82.5 122.5 q52.5 53 122.5 83 q70 30 149 30 q80 0 149.5 -30 q69.5 -30 122 -83 q52.5 -53 82.5 -122.5 q30 -69.5 30 -149.5 q0 -79 -30 -149 q-30 -70 -82.5 -122.5 q-52.5 -52.5 -122 -82.5 q-69.5 -30 -149.5 -30 Z" /><glyph glyph-name="circle" unicode="&#x25cb;" d="M486 -12 q-79 0 -149 30 q-70 30 -122.5 82.5 q-52.5 52.5 -82.5 122.5 q-30 70 -30 149 q0 80 30 149.5 q30 69.5 82.5 122.5 q52.5 53 122.5 83 q70 30 149 30 q80 0 149.5 -30 q69.5 -30 122 -83 q52.5 -53 82.5 -122.5 q30 -69.5 30 -149.5 q0 -79 -30 -149 q-30 -70 -82.5 -122.5 q-52.5 -52.5 -122 -82.5 q-69.5 -30 -149.5 -30 ZM486 78 q61 0 114.5 22.5 q53.5 22.5 94 63 q40.5 40.5 63 94 q22.5 53.5 22.5 114.5 q0 61 -22.5 114.5 q-22.5 53.5 -63.5 94 q-41 40.5 -94 63.5 q-53 23 -114 23 q-60 0 -113.5 -23 q-53.5 -23 -94 -63.5 q-40.5 -40.5 -63.5 -94 q-23 -53.5 -23 -114.5 q0 -61 22.5 -114.5 q22.5 -53.5 63 -94 q40.5 -40.5 94 -63 q53.5 -22.5 114.5 -22.5 Z" /><glyph glyph-name="uni25C6" unicode="&#x25c6;" d="M457 -12 l-385 385 l384 384 l385 -384 l-384 -385 Z" /><glyph glyph-name="uni25C7" unicode="&#x25c7;" d="M457 -12 l-385 385 l384 384 l385 -384 l-384 -385 ZM457 116 l257 257 l-258 257 l-257 -257 l258 -257 Z" /><glyph glyph-name="lozenge" unicode="&#x25ca;" d="M219 0 l-138 373 l242 372 l155 0 l140 -372 l-244 -373 l-155 0 ZM279 75 l198 314 l-100 282 l38 0 l-194 -300 l100 -296 l-42 0 Z" /><glyph glyph-name="filledbox" unicode="&#x25a0;" d="M197 0 l0 745 l745 0 l0 -745 l-745 0 Z" /><glyph glyph-name="uni25A1" unicode="&#x25a1;" d="M197 0 l0 745 l745 0 l0 -745 l-745 0 ZM287 90 l565 0 l0 565 l-565 0 l0 -565 Z" /><glyph glyph-name="triagup" unicode="&#x25b2;" d="M20 0 l375 757 l375 -757 l-750 0 Z" /><glyph glyph-name="uni25B6" unicode="&#x25b6;" d="M199 757 l776 -385 l-776 -384 l0 769 Z" /><glyph glyph-name="triagdn" unicode="&#x25bc;" d="M125 745 l750 0 l-375 -757 l-375 757 Z" /><glyph glyph-name="uni25C0" unicode="&#x25c0;" d="M848 757 l0 -769 l-776 384 l776 385 Z" /><glyph glyph-name="uni25B3" unicode="&#x25b3;" d="M20 0 l375 757 l375 -757 l-750 0 ZM165 90 l460 0 l-230 465 l-230 -465 Z" /><glyph glyph-name="uni25B7" unicode="&#x25b7;" d="M199 -12 l0 769 l776 -385 l-776 -384 ZM289 133 l484 239 l-484 240 l0 -479 Z" /><glyph glyph-name="uni25BD" unicode="&#x25bd;" d="M125 745 l750 0 l-375 -757 l-375 757 ZM270 655 l230 -464 l230 464 l-460 0 Z" /><glyph glyph-name="uni25C1" unicode="&#x25c1;" d="M848 -12 l-776 384 l776 385 l0 -769 ZM758 133 l0 479 l-483 -240 l483 -239 Z" /><glyph glyph-name="uni0308" unicode="&#x308;" d="M175 640 l19 138 l137 0 l-19 -138 l-137 0 ZM392 640 l19 138 l138 0 l-19 -138 l-138 0 Z" /><glyph glyph-name="uni0307" unicode="&#x307;" d="M175 640 l20 138 l137 0 l-20 -138 l-137 0 Z" /><glyph glyph-name="gravecomb" unicode="&#x300;" d="M280 640 l-81 173 l170 0 l40 -173 l-129 0 Z" /><glyph glyph-name="acutecomb" unicode="&#x301;" d="M175 640 l90 173 l170 0 l-131 -173 l-129 0 Z" /><glyph glyph-name="uni030B" unicode="&#x30b;" d="M175 640 l67 173 l168 0 l-109 -173 l-126 0 ZM396 640 l68 173 l168 0 l-109 -173 l-127 0 Z" /><glyph glyph-name="uni0302" unicode="&#x302;" d="M175 640 l140 165 l155 0 l95 -165 l-123 0 l-52 90 l-77 -90 l-138 0 Z" /><glyph glyph-name="uni030C" unicode="&#x30c;" d="M291 640 l-94 165 l122 0 l52 -89 l77 89 l139 0 l-141 -165 l-155 0 Z" /><glyph glyph-name="uni0306" unicode="&#x306;" d="M379 640 q-68 0 -109.5 24 q-41.5 24 -59 61.5 q-17.5 37.5 -13.5 79.5 l129 0 q-2 -30 14 -47 q16 -17 49 -17 q33 0 54 17 q21 17 27 47 l128 0 q-6 -43 -32 -81 q-26 -38 -72 -61 q-46 -23 -115 -23 Z" /><glyph glyph-name="uni030A" unicode="&#x30a;" d="M294 598 q-49 0 -79.5 28 q-30.5 28 -30.5 74 q0 39 19.5 70 q19.5 31 51.5 50 q32 19 72 19 q49 0 79 -28 q30 -28 30 -74 q0 -38 -19 -70 q-19 -32 -51.5 -50.5 q-32.5 -18.5 -71.5 -18.5 ZM305 676 q20 0 34 15 q14 15 14 35 q0 16 -10.5 25.5 q-10.5 9.5 -26.5 9.5 q-20 0 -34 -14 q-14 -14 -14 -36 q0 -15 10 -25 q10 -10 27 -10 Z" /><glyph glyph-name="tildecomb" unicode="&#x303;" d="M444 640 q-28 0 -45 8.5 q-17 8.5 -29 19 q-12 10.5 -23.5 19 q-11.5 8.5 -28.5 8.5 q-18 0 -28 -13.5 q-10 -13.5 -13 -37.5 l-102 0 q7 54 29 88 q22 34 52 50.5 q30 16.5 64 16.5 q28 0 45.5 -8 q17.5 -8 30 -19 q12.5 -11 24 -19 q11.5 -8 27.5 -8 q20 0 29.5 14 q9.5 14 12.5 36 l102 0 q-12 -77 -54 -116 q-42 -39 -93 -39 Z" /><glyph glyph-name="uni0304" unicode="&#x304;" d="M177 660 l15 108 l323 0 l-16 -108 l-322 0 Z" /><glyph glyph-name="hookabovecomb" unicode="&#x309;" d="M298 600 l-47 65 q28 13 43 28.5 q15 15.5 15 37.5 q0 16 -13.5 25.5 q-13.5 9.5 -38.5 9.5 q-12 0 -25 -1.5 q-13 -1.5 -26 -7.5 l-4 83 q19 9 42 13 q23 4 48 4 q64 0 100 -27.5 q36 -27.5 36 -75.5 q0 -34 -18 -63.5 q-18 -29.5 -48 -52 q-30 -22.5 -64 -38.5 Z" /><glyph glyph-name="uni030F" unicode="&#x30f;" d="M280 640 l-81 176 l168 0 l40 -176 l-127 0 ZM502 640 l-82 176 l168 0 l41 -176 l-127 0 Z" /><glyph glyph-name="uni0311" unicode="&#x311;" d="M175 640 q6 41 31.5 79 q25.5 38 72 62 q46.5 24 115.5 24 q69 0 110.5 -23.5 q41.5 -23.5 59 -61 q17.5 -37.5 12.5 -80.5 l-128 0 q3 30 -13.5 47 q-16.5 17 -49.5 17 q-33 0 -54 -17 q-21 -17 -27 -47 l-129 0 Z" /><glyph glyph-name="uni0312" unicode="&#x312;" d="M169 600 l99 187 l123 0 l-55 -187 l-167 0 Z" /><glyph glyph-name="uni031B" unicode="&#x31b;" d="M175 640 l12 93 l7 0 q6 0 19.5 3 q13.5 3 25 16 q11.5 13 11.5 44 q0 15 -3 31.5 q-3 16.5 -8 32.5 l113 0 q5 -16 8.5 -32.5 q3.5 -16.5 3.5 -33.5 q0 -70 -44 -112 q-44 -42 -119 -42 l-26 0 Z" /><glyph glyph-name="dotbelowcomb" unicode="&#x323;" d="M53 -227 l20 137 l137 0 l-20 -137 l-137 0 Z" /><glyph glyph-name="uni0324" unicode="&#x324;" d="M53 -227 l20 137 l137 0 l-20 -137 l-137 0 ZM270 -227 l20 137 l138 0 l-20 -137 l-138 0 Z" /><glyph glyph-name="uni0326" unicode="&#x326;" d="M49 -257 l56 187 l167 0 l-100 -187 l-123 0 Z" /><glyph glyph-name="uni0327" unicode="&#x327;" d="M165 -237 q-27 0 -58 8.5 q-31 8.5 -52 24.5 l40 75 q14 -10 30.5 -15.5 q16.5 -5.5 33.5 -5.5 q23 0 37 10.5 q14 10.5 14 27.5 q0 17 -21.5 27.5 q-21.5 10.5 -65.5 15.5 l32 79 l77 0 l-15 -40 q45 -6 72.5 -27.5 q27.5 -21.5 27.5 -56.5 q0 -36 -20 -63.5 q-20 -27.5 -54.5 -43.5 q-34.5 -16 -77.5 -16 Z" /><glyph glyph-name="uni0328" unicode="&#x328;" d="M191 -237 q-58 0 -91 29 q-33 29 -33 74 q0 43 22 79 q22 36 61.5 60.5 q39.5 24.5 91.5 33.5 l29 0 l-6 -39 q-23 -4 -43 -21 q-20 -17 -32 -39.5 q-12 -22.5 -12 -46.5 q0 -20 14 -31.5 q14 -11.5 32 -11.5 q17 0 31.5 5 q14.5 5 28.5 16 l18 -75 q-23 -15 -50 -24 q-27 -9 -61 -9 Z" /><glyph glyph-name="uni032E" unicode="&#x32e;" d="M254 -255 q-69 0 -111 24.5 q-42 24.5 -59 63 q-17 38.5 -12 77.5 l129 0 q-2 -30 14.5 -47 q16.5 -17 47.5 -17 q34 0 55 17 q21 17 27 47 l128 0 q-7 -44 -32.5 -81.5 q-25.5 -37.5 -71.5 -60.5 q-46 -23 -115 -23 Z" /><glyph glyph-name="uni0331" unicode="&#x331;" d="M56 -207 l15 107 l322 0 l-14 -107 l-323 0 Z" /></font>
</defs>
</svg>
