<?xml version="1.0" standalone="no"?><!DOCTYPE svg PUBLIC "-//W3C//DTD SVG 1.1//EN" "http://www.w3.org/Graphics/SVG/1.1/DTD/svg11.dtd" ><svg xmlns="http://www.w3.org/2000/svg"><metadata></metadata><defs><font id="2.071;TOKO;PlusJakartaSans-LightItalic" horiz-adv-x="1413"><font-face font-family="Plus Jakarta Sans Light" font-weight="300" font-stretch="normal" units-per-em="1000" panose-1="0 0 0 0 0 0 0 0 0 0" ascent="1038" descent="-222" x-height="0" bbox="-195 -236 1348 1179" underline-thickness="40" underline-position="-155" unicode-range="U+000d-fb02" /><missing-glyph horiz-adv-x="745" d="M128 675 l0 70 l520 0 l0 -70 l-520 0 ZM128 0 l0 70 l520 0 l0 -70 l-520 0 ZM128 225 l0 70 l520 0 l0 -70 l-520 0 ZM128 450 l0 70 l520 0 l0 -70 l-520 0 Z" /><glyph glyph-name="A" unicode="A" d="M-21 0 l378 745 l67 0 l170 -745 l-67 0 l-42 190 l-338 0 l-95 -190 l-73 0 ZM177 250 l295 0 l-98 444 l24 -3 l-221 -441 Z" /><glyph glyph-name="AE" unicode="Æ" d="M-21 0 l378 745 l646 0 l-8 -60 l-405 0 l-40 -281 l385 0 l-8 -60 l-385 0 l-40 -284 l405 0 l-8 -60 l-470 0 l26 190 l-308 0 l-95 -190 l-73 0 ZM177 250 l287 0 l61 435 l-130 0 l-218 -435 Z" /><glyph glyph-name="B" unicode="B" d="M57 0 l104 745 l294 0 q86 0 135.5 -46.5 q49.5 -46.5 49.5 -122.5 q0 -42 -16.5 -79.5 q-16.5 -37.5 -47 -65.5 q-30.5 -28 -71.5 -41 l-2 18 q62 -17 96.5 -64.5 q34.5 -47.5 34.5 -108.5 q0 -69 -32.5 -122 q-32.5 -53 -90 -83 q-57.5 -30 -133.5 -30 l-321 0 ZM130 60 l250 0 q56 0 98.5 21.5 q42.5 21.5 66.5 60.5 q24 39 24 89 q0 61 -41.5 97 q-41.5 36 -110.5 36 l-244 0 l-43 -304 ZM181 423 l235 0 q47 0 82.5 19.5 q35.5 19.5 56 53.5 q20.5 34 20.5 78 q0 52 -35 81.5 q-35 29.5 -97 29.5 l-225 0 l-37 -262 Z" /><glyph glyph-name="C" unicode="C" d="M418 -12 q-69 0 -129 24 q-60 24 -105.5 70 q-45.5 46 -71 111 q-25.5 65 -25.5 148 q0 87 28.5 162.5 q28.5 75.5 80 132.5 q51.5 57 121.5 89 q70 32 151 32 q77 0 136 -27.5 q59 -27.5 97 -70 q38 -42.5 53 -86.5 l-62 -25 q-26 67 -83 107.5 q-57 40.5 -142 40.5 q-70 0 -127.5 -27.5 q-57.5 -27.5 -99.5 -75.5 q-42 -48 -65 -112.5 q-23 -64.5 -23 -138.5 q0 -89 33.5 -154.5 q33.5 -65.5 93.5 -101.5 q60 -36 139 -36 q86 0 149.5 41 q63.5 41 99.5 108 l59 -29 q-21 -44 -65 -86 q-44 -42 -105.5 -69 q-61.5 -27 -137.5 -27 Z" /><glyph glyph-name="D" unicode="D" d="M57 0 l104 745 l224 0 q100 0 173.5 -41 q73.5 -41 113.5 -115 q40 -74 40 -174 q0 -86 -26.5 -161 q-26.5 -75 -78 -132 q-51.5 -57 -125.5 -89.5 q-74 -32.5 -168 -32.5 l-257 0 ZM130 60 l187 0 q74 0 134 27 q60 27 103.5 75 q43.5 48 67 112 q23.5 64 23.5 137 q0 85 -32 146.5 q-32 61.5 -92 94.5 q-60 33 -143 33 l-160 0 l-88 -625 Z" /><glyph glyph-name="Dcroat" unicode="&#x110;" d="M40 344 l8 58 l295 0 l-8 -58 l-295 0 ZM57 0 l104 745 l224 0 q100 0 173.5 -41 q73.5 -41 113.5 -115 q40 -74 40 -174 q0 -86 -26.5 -161 q-26.5 -75 -78 -132 q-51.5 -57 -125.5 -89.5 q-74 -32.5 -168 -32.5 l-257 0 ZM130 60 l187 0 q74 0 134 27 q60 27 103.5 75 q43.5 48 67 112 q23.5 64 23.5 137 q0 85 -32 146.5 q-32 61.5 -92 94.5 q-60 33 -143 33 l-160 0 l-88 -625 Z" /><glyph glyph-name="Eth" unicode="Ð" d="M40 344 l8 58 l295 0 l-8 -58 l-295 0 ZM57 0 l104 745 l224 0 q100 0 173.5 -41 q73.5 -41 113.5 -115 q40 -74 40 -174 q0 -86 -26.5 -161 q-26.5 -75 -78 -132 q-51.5 -57 -125.5 -89.5 q-74 -32.5 -168 -32.5 l-257 0 ZM130 60 l187 0 q74 0 134 27 q60 27 103.5 75 q43.5 48 67 112 q23.5 64 23.5 137 q0 85 -32 146.5 q-32 61.5 -92 94.5 q-60 33 -143 33 l-160 0 l-88 -625 Z" /><glyph glyph-name="E" unicode="E" d="M57 0 l104 745 l470 0 l-8 -60 l-405 0 l-40 -281 l385 0 l-8 -60 l-385 0 l-40 -284 l405 0 l-8 -60 l-470 0 Z" /><glyph glyph-name="uni018F" unicode="&#x18f;" d="M405 -12 q-92 0 -164 42 q-72 42 -114 115 q-42 73 -42 166 q0 32 4 53 q4 21 6 30 l651 0 l-4 -60 l-611 0 l25 15 q-1 -18 -1.5 -27 q-0.5 -9 -0.5 -16 q0 -74 32 -132 q32 -58 89.5 -91 q57.5 -33 131.5 -33 q64 0 119.5 25 q55.5 25 98 70.5 q42.5 45.5 67.5 107 q25 61.5 27 133.5 q4 88 -31 158 q-35 70 -100.5 111 q-65.5 41 -151.5 41 q-83 0 -153.5 -38.5 q-70.5 -38.5 -111.5 -104.5 l-54 29 q29 52 79 91.5 q50 39.5 113 61.5 q63 22 131 22 q72 0 135 -26 q63 -26 110 -73.5 q47 -47.5 73 -113 q26 -65.5 26 -145.5 q0 -84 -28.5 -158.5 q-28.5 -74.5 -80 -131 q-51.5 -56.5 -120.5 -89 q-69 -32.5 -150 -32.5 Z" /><glyph glyph-name="F" unicode="F" d="M57 0 l104 745 l455 0 l-8 -60 l-390 0 l-40 -281 l355 0 l-8 -60 l-355 0 l-48 -344 l-65 0 Z" /><glyph glyph-name="G" unicode="G" d="M420 -12 q-72 0 -133 25.5 q-61 25.5 -105.5 72.5 q-44.5 47 -69.5 112 q-25 65 -25 145 q0 87 29.5 162.5 q29.5 75.5 82 132 q52.5 56.5 122.5 88 q70 31.5 151 31.5 q78 0 137 -27 q59 -27 97.5 -69 q38.5 -42 53.5 -87 l-61 -28 q-25 69 -84.5 109.5 q-59.5 40.5 -144.5 40.5 q-70 0 -128.5 -27.5 q-58.5 -27.5 -101 -75.5 q-42.5 -48 -65.5 -111.5 q-23 -63.5 -23 -137.5 q0 -91 35.5 -157 q35.5 -66 97 -101.5 q61.5 -35.5 140.5 -35.5 q78 0 140.5 34.5 q62.5 34.5 102 94.5 q39.5 60 47.5 136 l4 35 l25 -31 l-301 0 l6 58 l336 0 l-5 -56 q-6 -70 -35 -130.5 q-29 -60.5 -77 -106 q-48 -45.5 -111 -71 q-63 -25.5 -137 -25.5 Z" /><glyph glyph-name="H" unicode="H" d="M57 0 l104 745 l65 0 l-47 -339 l420 0 l47 339 l65 0 l-104 -745 l-65 0 l49 346 l-420 0 l-49 -346 l-65 0 Z" /><glyph glyph-name="Hbar" unicode="&#x126;" d="M44 566 l8 60 l734 0 l-8 -60 l-734 0 ZM57 0 l104 745 l65 0 l-47 -339 l420 0 l47 339 l65 0 l-104 -745 l-65 0 l49 346 l-420 0 l-49 -346 l-65 0 Z" /><glyph glyph-name="I" unicode="I" d="M57 0 l104 745 l65 0 l-104 -745 l-65 0 Z" /><glyph glyph-name="J" unicode="J" d="M24 0 l9 65 l34 0 q61 0 100 35 q39 35 47 100 l77 545 l65 0 l-77 -547 q-8 -61 -37 -105.5 q-29 -44.5 -75 -68.5 q-46 -24 -104 -24 l-39 0 Z" /><glyph glyph-name="K" unicode="K" d="M57 0 l104 745 l65 0 l-62 -447 l-21 9 l455 438 l85 0 l-349 -339 l9 46 l257 -452 l-74 0 l-219 382 l-152 -149 l-33 -233 l-65 0 Z" /><glyph glyph-name="L" unicode="L" d="M57 0 l104 745 l65 0 l-96 -685 l335 0 l-8 -60 l-400 0 Z" /><glyph glyph-name="Ldot" unicode="&#x13f;" d="M342 324 q-20 0 -34.5 13.5 q-14.5 13.5 -14.5 35.5 q0 20 14.5 34 q14.5 14 34.5 14 q20 0 34.5 -14 q14.5 -14 14.5 -34 q0 -21 -14.5 -35 q-14.5 -14 -34.5 -14 ZM57 0 l104 745 l65 0 l-96 -685 l335 0 l-8 -60 l-400 0 Z" /><glyph glyph-name="Lslash" unicode="&#x141;" d="M43 239 l10 68 l332 200 l-10 -68 l-332 -200 ZM130 0 l104 745 l65 0 l-96 -685 l335 0 l-8 -60 l-400 0 Z" /><glyph glyph-name="M" unicode="M" d="M57 0 l104 745 l55 0 l217 -414 l-27 0 l340 414 l55 0 l-104 -745 l-65 0 l91 650 l20 -9 l-331 -403 l-3 0 l-210 403 l14 9 l-91 -650 l-65 0 Z" /><glyph glyph-name="N" unicode="N" d="M57 0 l104 745 l55 0 l357 -647 l-17 0 l90 647 l65 0 l-104 -745 l-55 0 l-358 651 l19 0 l-91 -651 l-65 0 Z" /><glyph glyph-name="Eng" unicode="&#x14a;" d="M410 -220 q-9 0 -20 1.5 q-11 1.5 -18 3.5 l8 58 q19 -3 39 -3 q46 0 76.5 26 q30.5 26 38.5 78 l16 106 l11 -67 l-368 672 l22 5 l-93 -660 l-65 0 l104 745 l55 0 l360 -653 l-22 -4 l92 657 l65 0 l-111 -801 q-8 -53 -35 -89.5 q-27 -36.5 -67.5 -55.5 q-40.5 -19 -87.5 -19 Z" /><glyph glyph-name="O" unicode="O" d="M432 -12 q-73 0 -135.5 26 q-62.5 26 -109.5 73 q-47 47 -73.5 112.5 q-26.5 65.5 -26.5 144.5 q0 86 30 160.5 q30 74.5 83.5 131.5 q53.5 57 125.5 89 q72 32 155 32 q74 0 137 -25.5 q63 -25.5 110 -73 q47 -47.5 73 -113 q26 -65.5 26 -143.5 q0 -86 -30 -161 q-30 -75 -83.5 -132 q-53.5 -57 -126 -89 q-72.5 -32 -155.5 -32 ZM433 50 q71 0 131 28 q60 28 104.5 77 q44.5 49 69 112 q24.5 63 24.5 133 q0 82 -34.5 149 q-34.5 67 -97 107 q-62.5 40 -148.5 40 q-72 0 -132 -28.5 q-60 -28.5 -104.5 -78 q-44.5 -49.5 -69 -112 q-24.5 -62.5 -24.5 -132.5 q0 -81 35 -148 q35 -67 98 -107 q63 -40 148 -40 Z" /><glyph glyph-name="Ohorn" unicode="&#x1a0;" d="M432 -12 q-73 0 -135.5 26 q-62.5 26 -109.5 73 q-47 47 -73.5 112.5 q-26.5 65.5 -26.5 144.5 q0 86 30 160.5 q30 74.5 83.5 131.5 q53.5 57 125.5 89 q72 32 156 32 l212 0 q17 0 30.5 7 q13.5 7 22 22 q8.5 15 8.5 41 q0 16 -3.5 32 q-3.5 16 -8.5 32 l69 0 q6 -17 9 -33.5 q3 -16.5 3 -33.5 q0 -57 -32.5 -90.5 q-32.5 -33.5 -86.5 -33.5 l-52 0 l10 8 q75 -44 119.5 -123.5 q44.5 -79.5 44.5 -182.5 q0 -86 -30 -161 q-30 -75 -83.5 -132 q-53.5 -57 -125.5 -89 q-72 -32 -156 -32 ZM433 50 q71 0 131 28 q60 28 104.5 77 q44.5 49 69 112 q24.5 63 24.5 133 q0 82 -34.5 149 q-34.5 67 -97 107 q-62.5 40 -148.5 40 q-72 0 -132 -28.5 q-60 -28.5 -104.5 -78 q-44.5 -49.5 -69 -112 q-24.5 -62.5 -24.5 -131.5 q0 -82 35 -149 q35 -67 98 -107 q63 -40 148 -40 Z" /><glyph glyph-name="Oslash" unicode="Ø" d="M59 0 l714 745 l84 0 l-714 -745 l-84 0 ZM432 -12 q-73 0 -135.5 26 q-62.5 26 -109.5 73 q-47 47 -73.5 112.5 q-26.5 65.5 -26.5 144.5 q0 86 30 160.5 q30 74.5 83.5 131.5 q53.5 57 125.5 89 q72 32 156 32 q73 0 136 -25.5 q63 -25.5 110 -73 q47 -47.5 73 -113 q26 -65.5 26 -143.5 q0 -86 -30 -161 q-30 -75 -83.5 -132 q-53.5 -57 -125.5 -89 q-72 -32 -156 -32 ZM433 50 q71 0 131 28 q60 28 104.5 77 q44.5 49 69 112 q24.5 63 24.5 133 q0 82 -34.5 149 q-34.5 67 -97 107 q-62.5 40 -148.5 40 q-72 0 -132 -28.5 q-60 -28.5 -104.5 -78 q-44.5 -49.5 -69 -112 q-24.5 -62.5 -24.5 -131.5 q0 -82 35 -149 q35 -67 98 -107 q63 -40 148 -40 Z" /><glyph glyph-name="OE" unicode="&#x152;" d="M432 -12 q-73 0 -135.5 26 q-62.5 26 -109.5 73 q-47 47 -73.5 112.5 q-26.5 65.5 -26.5 144.5 q0 86 30 160.5 q30 74.5 83.5 131.5 q53.5 57 125.5 89 q72 32 156 32 q75 0 139 -26.5 q64 -26.5 111.5 -77 q47.5 -50.5 71.5 -121.5 l-14 -10 l31 223 l470 0 l-8 -60 l-404 0 l-40 -281 l384 0 l-8 -60 l-384 0 l-40 -284 l404 0 l-8 -60 l-470 0 l24 173 l9 -14 q-53 -80 -135.5 -125.5 q-82.5 -45.5 -182.5 -45.5 ZM433 50 q71 0 131 28 q60 28 104.5 77 q44.5 49 69 112 q24.5 63 24.5 133 q0 82 -34.5 149 q-34.5 67 -97 107 q-62.5 40 -148.5 40 q-72 0 -132 -28.5 q-60 -28.5 -104.5 -78 q-44.5 -49.5 -69 -112 q-24.5 -62.5 -24.5 -131.5 q0 -82 35 -149 q35 -67 98 -107 q63 -40 148 -40 Z" /><glyph glyph-name="P" unicode="P" d="M57 0 l104 745 l238 0 q65 0 114 -25.5 q49 -25.5 76.5 -72.5 q27.5 -47 27.5 -112 q0 -67 -32.5 -121.5 q-32.5 -54.5 -91 -86.5 q-58.5 -32 -137.5 -32 l-193 0 l-41 -295 l-65 0 ZM172 355 l188 0 q58 0 101 24.5 q43 24.5 67 65.5 q24 41 24 91 q0 69 -42.5 109 q-42.5 40 -114.5 40 l-177 0 l-46 -330 Z" /><glyph glyph-name="Thorn" unicode="Þ" d="M51 0 l104 745 l65 0 l-20 -147 l193 0 q67 0 116 -26.5 q49 -26.5 75.5 -73 q26.5 -46.5 26.5 -109.5 q0 -69 -33.5 -124 q-33.5 -55 -92 -86 q-58.5 -31 -135.5 -31 l-213 0 l-21 -148 l-65 0 ZM145 208 l209 0 q56 0 99.5 24 q43.5 24 68 65 q24.5 41 24.5 93 q0 68 -42.5 108 q-42.5 40 -114.5 40 l-198 0 l-46 -330 Z" /><glyph glyph-name="Q" unicode="Q" d="M432 -12 q-73 0 -135.5 26 q-62.5 26 -109.5 73 q-47 47 -73.5 112.5 q-26.5 65.5 -26.5 144.5 q0 86 30 160.5 q30 74.5 83.5 131.5 q53.5 57 125.5 89 q72 32 156 32 q73 0 136 -25.5 q63 -25.5 110 -73 q47 -47.5 73 -113 q26 -65.5 26 -143.5 q0 -86 -30 -161 q-30 -75 -83.5 -132 q-53.5 -57 -125.5 -89 q-72 -32 -156 -32 ZM433 50 q71 0 131 28 q60 28 104.5 77 q44.5 49 69 112 q24.5 63 24.5 133 q0 82 -34.5 149 q-34.5 67 -97 107 q-62.5 40 -148.5 40 q-72 0 -132 -28.5 q-60 -28.5 -104.5 -78 q-44.5 -49.5 -69 -112 q-24.5 -62.5 -24.5 -131.5 q0 -82 35 -149 q35 -67 98 -107 q63 -40 148 -40 ZM619 -90 l-203 388 l71 0 l202 -388 l-70 0 Z" /><glyph glyph-name="R" unicode="R" d="M57 0 l104 745 l238 0 q65 0 114 -25.5 q49 -25.5 76.5 -72.5 q27.5 -47 27.5 -112 q0 -56 -22.5 -103.5 q-22.5 -47.5 -64 -80.5 q-41.5 -33 -98.5 -47 l132 -304 l-72 0 l-141 328 l50 -33 l-238 0 l-41 -295 l-65 0 ZM172 355 l188 0 q58 0 101 24.5 q43 24.5 67 65.5 q24 41 24 91 q0 69 -42.5 109 q-42.5 40 -114.5 40 l-177 0 l-46 -330 Z" /><glyph glyph-name="S" unicode="S" d="M311 -12 q-66 0 -120.5 24.5 q-54.5 24.5 -92 68.5 q-37.5 44 -49.5 101 l60 19 q19 -75 73 -115 q54 -40 132 -40 q57 0 97.5 19.5 q40.5 19.5 63 53.5 q22.5 34 22.5 77 q0 47 -26 78 q-26 31 -77 46 l-133 40 q-69 22 -105.5 69.5 q-36.5 47.5 -36.5 113.5 q0 59 31 108 q31 49 85 77.5 q54 28.5 122 28.5 q62 0 111 -23.5 q49 -23.5 81.5 -63 q32.5 -39.5 43.5 -90.5 l-59 -19 q-17 65 -64 102 q-47 37 -114 37 q-50 0 -89.5 -20 q-39.5 -20 -62 -54.5 q-22.5 -34.5 -22.5 -78.5 q0 -47 26.5 -79 q26.5 -32 85.5 -51 l118 -36 q74 -23 111.5 -69.5 q37.5 -46.5 37.5 -112.5 q0 -58 -31 -106 q-31 -48 -87 -76.5 q-56 -28.5 -132 -28.5 Z" /><glyph glyph-name="T" unicode="T" d="M189 0 l96 685 l-209 0 l8 60 l480 0 l-8 -60 l-206 0 l-96 -685 l-65 0 Z" /><glyph glyph-name="Tbar" unicode="&#x166;" d="M121 344 l8 58 l295 0 l-8 -58 l-295 0 ZM189 0 l96 685 l-209 0 l8 60 l480 0 l-8 -60 l-206 0 l-96 -685 l-65 0 Z" /><glyph glyph-name="U" unicode="U" d="M315 -12 q-78 0 -132.5 33.5 q-54.5 33.5 -79.5 92.5 q-25 59 -15 135 l70 496 l65 0 l-70 -501 q-8 -58 10.5 -102 q18.5 -44 58.5 -69 q40 -25 96 -25 q57 0 103.5 24.5 q46.5 24.5 78 69.5 q31.5 45 39.5 104 l69 499 l65 0 l-70 -500 q-11 -76 -50.5 -134 q-39.5 -58 -100.5 -90.5 q-61 -32.5 -137 -32.5 Z" /><glyph glyph-name="Uhorn" unicode="&#x1af;" d="M315 -12 q-78 0 -132.5 33.5 q-54.5 33.5 -79.5 92.5 q-25 59 -15 135 l70 496 l65 0 l-70 -501 q-8 -58 10.5 -102 q18.5 -44 58.5 -69 q40 -25 96 -25 q57 0 103.5 24.5 q46.5 24.5 78 69.5 q31.5 45 39.5 104 l69 499 l65 0 l-70 -500 q-11 -76 -50.5 -134 q-39.5 -58 -100.5 -90.5 q-61 -32.5 -137 -32.5 ZM644 688 l9 57 l12 0 q17 0 30.5 7 q13.5 7 22 22 q8.5 15 8.5 41 q0 16 -3.5 32 q-3.5 16 -8.5 32 l69 0 q6 -17 9 -33.5 q3 -16.5 3 -33.5 q0 -57 -35 -90.5 q-35 -33.5 -94 -33.5 l-22 0 Z" /><glyph glyph-name="V" unicode="V" d="M257 0 l-173 745 l67 0 l154 -686 l-20 0 l346 686 l73 0 l-381 -745 l-66 0 Z" /><glyph glyph-name="W" unicode="W" d="M199 0 l-115 745 l66 0 l100 -684 l-23 1 l301 683 l65 0 l105 -683 l-24 -1 l294 684 l69 0 l-322 -745 l-67 0 l-106 688 l24 0 l-301 -688 l-66 0 Z" /><glyph glyph-name="X" unicode="X" d="M-21 0 l296 384 l-181 361 l72 0 l169 -343 l-37 3 l255 340 l82 0 l-282 -369 l187 -376 l-72 0 l-175 356 l38 -3 l-272 -353 l-80 0 Z" /><glyph glyph-name="Y" unicode="Y" d="M243 0 l47 340 l-206 405 l69 0 l188 -362 l-30 2 l285 360 l79 0 l-319 -405 l-47 -340 l-66 0 Z" /><glyph glyph-name="Z" unicode="Z" d="M-9 0 l5 42 l530 643 l-413 0 l8 60 l504 0 l-5 -42 l-529 -643 l448 0 l-8 -60 l-540 0 Z" /><glyph glyph-name="a" unicode="a" d="M209 -12 q-45 0 -82.5 16.5 q-37.5 16.5 -60.5 48 q-23 31.5 -23 77.5 q0 46 23 81.5 q23 35.5 65.5 59.5 q42.5 24 99.5 33 l220 36 l-5 -56 l-201 -33 q-64 -10 -101.5 -41 q-37.5 -31 -37.5 -78 q0 -42 30.5 -65.5 q30.5 -23.5 79.5 -23.5 q55 0 100 27 q45 27 74.5 72.5 q29.5 45.5 36.5 99.5 l16 116 q6 41 -10 69.5 q-16 28.5 -46.5 43.5 q-30.5 15 -69.5 15 q-52 0 -94.5 -25.5 q-42.5 -25.5 -68.5 -65.5 l-52 32 q18 32 51 58.5 q33 26.5 75.5 42 q42.5 15.5 90.5 15.5 q57 0 101.5 -24 q44.5 -24 67.5 -66.5 q23 -42.5 15 -99.5 l-50 -353 l-60 0 l15 111 l10 -6 q-17 -32 -48.5 -58.5 q-31.5 -26.5 -73 -42.5 q-41.5 -16 -87.5 -16 Z" /><glyph glyph-name="ae" unicode="æ" d="M209 -12 q-45 0 -82.5 16.5 q-37.5 16.5 -60.5 48 q-23 31.5 -23 77.5 q0 46 23 81.5 q23 35.5 65.5 59.5 q42.5 24 99.5 33 l209 34 l3 20 q5 41 -11 69.5 q-16 28.5 -46 43.5 q-30 15 -69 15 q-52 0 -94.5 -25.5 q-42.5 -25.5 -68.5 -65.5 l-52 32 q18 32 51 58.5 q33 26.5 75.5 42 q42.5 15.5 90.5 15.5 q46 0 84.5 -16.5 q38.5 -16.5 64.5 -46 q26 -29.5 33 -69.5 l-20 2 q37 59 96 94.5 q59 35.5 132 35.5 q70 0 121 -32 q51 -32 79 -85.5 q28 -53.5 28 -117.5 q0 -15 -2.5 -32 q-2.5 -17 -4.5 -29 l-435 0 q0 -62 24 -107.5 q24 -45.5 66.5 -70.5 q42.5 -25 97.5 -25 q58 0 103.5 28 q45.5 28 75.5 74 l50 -29 q-21 -37 -55.5 -66.5 q-34.5 -29.5 -79 -46 q-44.5 -16.5 -94.5 -16.5 q-78 0 -137 39.5 q-59 39.5 -88 105.5 l16 15 l-21 -148 l-60 0 l17 120 l7 -19 q-19 -31 -50.5 -56.5 q-31.5 -25.5 -71.5 -41 q-40 -15.5 -86 -15.5 ZM216 43 q55 0 100 27 q45 27 74.5 72.5 q29.5 45.5 36.5 99.5 l5 40 l-187 -31 q-64 -10 -101.5 -41 q-37.5 -31 -37.5 -78 q0 -42 30.5 -65.5 q30.5 -23.5 79.5 -23.5 ZM501 302 l373 0 q5 53 -16 95 q-21 42 -60 66 q-39 24 -89 24 q-54 0 -97.5 -24 q-43.5 -24 -71.5 -65.5 q-28 -41.5 -39 -95.5 Z" /><glyph glyph-name="b" unicode="b" d="M331 -12 q-73 0 -132 37 q-59 37 -85 101 l11 9 l-18 -135 l-61 0 l106 757 l61 0 l-51 -360 l-20 20 q34 58 93 92 q59 34 131 34 q73 0 128 -34 q55 -34 86 -91.5 q31 -57.5 31 -130.5 q0 -61 -21.5 -115.5 q-21.5 -54.5 -59.5 -95.5 q-38 -41 -89 -64.5 q-51 -23.5 -110 -23.5 ZM329 48 q64 0 112.5 33 q48.5 33 77 87 q28.5 54 28.5 119 q0 58 -24 102 q-24 44 -65.5 69 q-41.5 25 -96.5 25 q-62 0 -111.5 -32.5 q-49.5 -32.5 -78 -86 q-28.5 -53.5 -28.5 -116.5 q0 -58 24.5 -103 q24.5 -45 66 -71 q41.5 -26 95.5 -26 Z" /><glyph glyph-name="c" unicode="c" d="M306 -12 q-70 0 -125.5 33.5 q-55.5 33.5 -87.5 91.5 q-32 58 -32 133 q0 62 22 116 q22 54 60.5 95 q38.5 41 89.5 63.5 q51 22.5 110 22.5 q50 0 92.5 -17 q42.5 -17 73 -46.5 q30.5 -29.5 46.5 -67.5 l-54 -26 q-21 46 -62 72.5 q-41 26.5 -96 26.5 q-63 0 -113 -33 q-50 -33 -78 -87.5 q-28 -54.5 -28 -119.5 q0 -60 24.5 -104.5 q24.5 -44.5 66.5 -69 q42 -24.5 94 -24.5 q56 0 101.5 27.5 q45.5 27.5 72.5 74.5 l52 -31 q-21 -37 -55.5 -66.5 q-34.5 -29.5 -78.5 -46.5 q-44 -17 -95 -17 Z" /><glyph glyph-name="d" unicode="d" d="M306 -12 q-72 0 -127.5 34 q-55.5 34 -86.5 92.5 q-31 58.5 -31 131.5 q0 61 21 114.5 q21 53.5 59 94.5 q38 41 89 64.5 q51 23.5 111 23.5 q75 0 131.5 -35.5 q56.5 -35.5 82.5 -97.5 l-8 -13 l50 360 l61 0 l-106 -757 l-60 0 l18 135 l20 -15 q-32 -62 -92.5 -97 q-60.5 -35 -131.5 -35 ZM308 48 q63 0 113 33 q50 33 79 87 q29 54 29 118 q0 59 -25 103 q-25 44 -67 69 q-42 25 -95 25 q-62 0 -111.5 -32.5 q-49.5 -32.5 -77.5 -87 q-28 -54.5 -28 -119.5 q0 -56 23 -100.5 q23 -44.5 64.5 -70 q41.5 -25.5 95.5 -25.5 Z" /><glyph glyph-name="dcroat" unicode="&#x111;" d="M472 613 l8 55 l270 0 l-8 -55 l-270 0 ZM306 -12 q-72 0 -127.5 34 q-55.5 34 -86.5 92.5 q-31 58.5 -31 131.5 q0 61 21 114.5 q21 53.5 59 94.5 q38 41 89 64.5 q51 23.5 111 23.5 q75 0 131.5 -35.5 q56.5 -35.5 82.5 -97.5 l-8 -13 l50 360 l61 0 l-106 -757 l-60 0 l18 135 l20 -15 q-32 -62 -92.5 -97 q-60.5 -35 -131.5 -35 ZM308 48 q63 0 113 33 q50 33 79 87 q29 54 29 118 q0 59 -25 103 q-25 44 -67 69 q-42 25 -95 25 q-62 0 -111.5 -32.5 q-49.5 -32.5 -77.5 -87 q-28 -54.5 -28 -119.5 q0 -56 23 -100.5 q23 -44.5 64.5 -70 q41.5 -25.5 95.5 -25.5 Z" /><glyph glyph-name="eth" unicode="ð" d="M341 -12 q-75 0 -132 33.5 q-57 33.5 -89 91 q-32 57.5 -32 129.5 q0 62 22 114.5 q22 52.5 60.5 92.5 q38.5 40 91 62 q52.5 22 113.5 22 q41 0 81.5 -12 q40.5 -12 75 -41 q34.5 -29 54.5 -80 l-22 -28 q5 73 -16 138.5 q-21 65.5 -63 117.5 q-42 52 -100.5 81.5 q-58.5 29.5 -127.5 29.5 q-27 0 -55 -4.5 q-28 -4.5 -57 -14.5 l-13 55 q34 10 66.5 15.5 q32.5 5.5 62.5 5.5 q93 0 162.5 -38 q69.5 -38 116 -102.5 q46.5 -64.5 69.5 -144 q23 -79.5 23 -163.5 q0 -102 -33 -183.5 q-33 -81.5 -98 -129 q-65 -47.5 -160 -47.5 ZM341 47 q64 0 114 32.5 q50 32.5 79 86 q29 53.5 29 115.5 q0 55 -23.5 98.5 q-23.5 43.5 -65.5 69 q-42 25.5 -99 25.5 q-62 0 -113 -31.5 q-51 -31.5 -80.5 -83.5 q-29.5 -52 -29.5 -116 q0 -56 25 -100.5 q25 -44.5 68 -70 q43 -25.5 96 -25.5 ZM298 588 l3 51 l295 103 l-4 -52 l-294 -102 Z" /><glyph glyph-name="e" unicode="e" d="M311 -12 q-72 0 -128.5 34 q-56.5 34 -88.5 92.5 q-32 58.5 -32 132.5 q0 60 20.5 113.5 q20.5 53.5 58 94.5 q37.5 41 87.5 64.5 q50 23.5 109 23.5 q70 0 121 -32 q51 -32 79 -85.5 q28 -53.5 28 -117.5 q0 -15 -2.5 -32 q-2.5 -17 -4.5 -29 l-461 0 l4 55 l426 0 l-28 -20 q11 58 -8 104.5 q-19 46.5 -59.5 73.5 q-40.5 27 -94.5 27 q-65 0 -113 -33 q-48 -33 -74.5 -90 q-26.5 -57 -26.5 -127 q0 -57 25 -100.5 q25 -43.5 67.5 -68 q42.5 -24.5 95.5 -24.5 q58 0 103.5 28 q45.5 28 75.5 74 l50 -29 q-21 -37 -55.5 -66.5 q-34.5 -29.5 -79 -46 q-44.5 -16.5 -94.5 -16.5 Z" /><glyph glyph-name="uni0259" unicode="&#x259;" d="M286 -12 q-69 0 -120.5 32.5 q-51.5 32.5 -79.5 86 q-28 53.5 -28 116.5 q0 15 2.5 32.5 q2.5 17.5 4.5 28.5 l461 0 l-4 -55 l-426 0 l28 21 q-10 -58 8.5 -104.5 q18.5 -46.5 59 -74 q40.5 -27.5 94.5 -27.5 q65 0 113 33.5 q48 33.5 74.5 90 q26.5 56.5 26.5 126.5 q0 58 -25 101.5 q-25 43.5 -67.5 67.5 q-42.5 24 -95.5 24 q-58 0 -103.5 -28 q-45.5 -28 -75.5 -73 l-50 29 q21 38 55.5 66.5 q34.5 28.5 79 45 q44.5 16.5 94.5 16.5 q72 0 128.5 -33.5 q56.5 -33.5 88.5 -92 q32 -58.5 32 -133.5 q0 -60 -20.5 -113.5 q-20.5 -53.5 -58 -94.5 q-37.5 -41 -87.5 -64.5 q-50 -23.5 -109 -23.5 Z" /><glyph glyph-name="f" unicode="f" d="M100 0 l66 474 l-107 0 l8 57 l107 0 l7 49 q9 58 37 97.5 q28 39.5 68 59.5 q40 20 84 20 q14 0 25.5 -1 q11.5 -1 20.5 -3 l-3 -55 q-8 2 -18.5 2.5 q-10.5 0.5 -15.5 0.5 q-54 0 -91 -30 q-37 -30 -47 -95 l-6 -45 l132 0 l-8 -57 l-132 0 l-66 -474 l-61 0 Z" /><glyph glyph-name="g" unicode="g" d="M273 -220 q-57 0 -101 17.5 q-44 17.5 -73.5 47 q-29.5 29.5 -43.5 66.5 l55 23 q17 -42 59 -68.5 q42 -26.5 109 -26.5 q46 0 91 18.5 q45 18.5 77.5 56.5 q32.5 38 39.5 96 l20 145 l19 -15 q-32 -62 -91 -97 q-59 -35 -130 -35 q-68 0 -123 32.5 q-55 32.5 -86.5 88.5 q-31.5 56 -31.5 128 q0 59 21 110.5 q21 51.5 58.5 91 q37.5 39.5 88 62 q50.5 22.5 108.5 22.5 q73 0 128.5 -35 q55.5 -35 81.5 -93 l-9 -18 l19 134 l60 0 l-73 -525 q-9 -66 -48 -117 q-39 -51 -97.5 -80 q-58.5 -29 -127.5 -29 ZM307 68 q61 0 109.5 31.5 q48.5 31.5 77.5 82.5 q29 51 29 112 q0 54 -23 97 q-23 43 -64.5 67.5 q-41.5 24.5 -95.5 24.5 q-59 0 -108 -30.5 q-49 -30.5 -77 -81.5 q-28 -51 -28 -114 q0 -53 23 -96 q23 -43 64 -68 q41 -25 93 -25 Z" /><glyph glyph-name="h" unicode="h" d="M46 0 l106 757 l60 0 l-46 -333 l-15 6 q25 53 75.5 83 q50.5 30 109.5 30 q56 0 98.5 -26 q42.5 -26 63.5 -73 q21 -47 12 -109 l-46 -335 l-61 0 l46 332 q10 72 -25 112 q-35 40 -97 40 q-46 0 -83.5 -21.5 q-37.5 -21.5 -61.5 -59 q-24 -37.5 -31 -85.5 l-44 -318 l-61 0 Z" /><glyph glyph-name="hbar" unicode="&#x127;" d="M27 613 l8 55 l270 0 l-8 -55 l-270 0 ZM46 0 l106 757 l60 0 l-46 -333 l-15 6 q25 53 75.5 83 q50.5 30 109.5 30 q56 0 98.5 -26 q42.5 -26 63.5 -73 q21 -47 12 -109 l-46 -335 l-61 0 l46 332 q10 72 -25 112 q-35 40 -97 40 q-46 0 -83.5 -21.5 q-37.5 -21.5 -61.5 -59 q-24 -37.5 -31 -85.5 l-44 -318 l-61 0 Z" /><glyph glyph-name="i" unicode="i" d="M46 0 l75 531 l60 0 l-74 -531 l-61 0 ZM135 635 l15 110 l61 0 l-15 -110 l-61 0 Z" /><glyph glyph-name="dotlessi" unicode="&#x131;" d="M29 0 l75 531 l60 0 l-74 -531 l-61 0 Z" /><glyph glyph-name="j" unicode="j" d="M-80 -220 q-10 0 -22.5 2 q-12.5 2 -20.5 4 l4 54 q9 -1 19 -2 q10 -1 18 -1 q47 0 81 28 q34 28 41 81 l83 585 l60 0 l-83 -589 q-7 -53 -32.5 -89 q-25.5 -36 -63.5 -54.5 q-38 -18.5 -84 -18.5 ZM137 635 l15 110 l61 0 l-15 -110 l-61 0 Z" /><glyph glyph-name="uni0237" unicode="&#x237;" d="M-80 -220 q-10 0 -22.5 2 q-12.5 2 -20.5 4 l4 54 q9 -1 19 -2 q10 -1 18 -1 q47 0 81 28 q34 28 41 81 l83 585 l60 0 l-83 -589 q-7 -53 -32.5 -89 q-25.5 -36 -63.5 -54.5 q-38 -18.5 -84 -18.5 Z" /><glyph glyph-name="k" unicode="k" d="M46 0 l106 757 l61 0 l-76 -541 l-36 3 l357 312 l88 0 l-244 -214 l188 -317 l-71 0 l-179 298 l36 -1 l-165 -148 l22 41 l-26 -190 l-61 0 Z" /><glyph glyph-name="kgreenlandic" unicode="&#x138;" d="M423 0 l-154 263 l-2 47 l184 221 l79 0 l-202 -244 l163 -287 l-68 0 ZM46 0 l74 531 l61 0 l-74 -531 l-61 0 ZM113 257 l9 57 l196 0 l-8 -57 l-197 0 Z" /><glyph glyph-name="l" unicode="l" d="M46 0 l106 757 l61 0 l-106 -757 l-61 0 Z" /><glyph glyph-name="ldot" unicode="&#x140;" d="M289 324 q-20 0 -34.5 13.5 q-14.5 13.5 -14.5 35.5 q0 20 14.5 34 q14.5 14 34.5 14 q20 0 34.5 -14 q14.5 -14 14.5 -34 q0 -21 -14.5 -35 q-14.5 -14 -34.5 -14 ZM46 0 l106 757 l61 0 l-106 -757 l-61 0 Z" /><glyph glyph-name="lslash" unicode="&#x142;" d="M45 281 l9 69 l255 152 l-10 -68 l-254 -153 ZM92 0 l106 757 l60 0 l-106 -757 l-60 0 Z" /><glyph glyph-name="m" unicode="m" d="M46 0 l74 531 l60 0 l-14 -104 l-9 16 q27 46 74 73 q47 27 100 27 q62 0 108.5 -36 q46.5 -36 58.5 -99 l-18 2 q25 63 80 98 q55 35 116 35 q54 0 95.5 -26 q41.5 -26 63 -73 q21.5 -47 12.5 -109 l-46 -335 l-60 0 l46 332 q7 48 -7 82 q-14 34 -43 52 q-29 18 -68 18 q-42 0 -79 -20.5 q-37 -20.5 -61 -56.5 q-24 -36 -31 -83 l-45 -324 l-60 0 l46 332 q7 48 -7 82 q-14 34 -42.5 52 q-28.5 18 -67.5 18 q-44 0 -80.5 -21.5 q-36.5 -21.5 -60.5 -59 q-24 -37.5 -31 -85.5 l-44 -318 l-60 0 Z" /><glyph glyph-name="n" unicode="n" d="M46 0 l74 531 l60 0 l-15 -107 l-14 6 q24 53 74.5 83 q50.5 30 110.5 30 q56 0 98.5 -26 q42.5 -26 63.5 -73 q21 -47 12 -109 l-47 -335 l-60 0 l46 332 q10 72 -25 112 q-35 40 -97 40 q-47 0 -84.5 -21.5 q-37.5 -21.5 -61.5 -59 q-24 -37.5 -31 -85.5 l-44 -318 l-60 0 Z" /><glyph glyph-name="eng" unicode="&#x14b;" d="M262 -220 q-11 0 -22.5 2 q-11.5 2 -19.5 4 l4 54 q10 -1 20 -2 q10 -1 17 -1 q48 0 81.5 28 q33.5 28 40.5 81 l55 386 q10 72 -25.5 112 q-35.5 40 -97.5 40 q-46 0 -84 -21.5 q-38 -21.5 -62 -59 q-24 -37.5 -31 -85.5 l-44 -318 l-60 0 l75 531 l60 0 l-15 -107 l-15 6 q25 53 75.5 83 q50.5 30 109.5 30 q56 0 98.5 -26 q42.5 -26 63.5 -73 q21 -47 12 -109 l-55 -393 q-7 -53 -33 -89 q-26 -36 -64 -54.5 q-38 -18.5 -84 -18.5 Z" /><glyph glyph-name="o" unicode="o" d="M315 -12 q-72 0 -129.5 33.5 q-57.5 33.5 -91 92.5 q-33.5 59 -33.5 134 q0 61 21.5 114.5 q21.5 53.5 61 94 q39.5 40.5 91.5 63.5 q52 23 112 23 q74 0 131 -33 q57 -33 90 -91.5 q33 -58.5 33 -133.5 q0 -61 -22 -115 q-22 -54 -61.5 -95 q-39.5 -41 -91.5 -64 q-52 -23 -111 -23 ZM314 47 q63 0 113.5 33 q50.5 33 80 87.5 q29.5 54.5 29.5 118.5 q0 57 -24.5 102 q-24.5 45 -67 70.5 q-42.5 25.5 -97.5 25.5 q-62 0 -112.5 -32.5 q-50.5 -32.5 -80.5 -86 q-30 -53.5 -30 -118.5 q0 -57 24.5 -102.5 q24.5 -45.5 67 -71.5 q42.5 -26 97.5 -26 Z" /><glyph glyph-name="ohorn" unicode="&#x1a1;" d="M315 -12 q-72 0 -129.5 33.5 q-57.5 33.5 -91 92.5 q-33.5 59 -33.5 134 q0 61 22 114.5 q22 53.5 61 94 q39 40.5 91 63.5 q52 23 112 23 l113 0 q16 0 29.5 7 q13.5 7 22 22 q8.5 15 8.5 41 q0 16 -3 32 q-3 16 -8 32 l68 0 q6 -17 9.5 -33.5 q3.5 -16.5 3.5 -33.5 q0 -49 -29 -80.5 q-29 -31.5 -78 -37.5 l5 11 q52 -33 82.5 -89.5 q30.5 -56.5 30.5 -128.5 q0 -61 -22 -115 q-22 -54 -61.5 -95 q-39.5 -41 -91 -64 q-51.5 -23 -111.5 -23 ZM314 47 q63 0 113.5 33 q50.5 33 80 87.5 q29.5 54.5 29.5 118.5 q0 57 -24.5 102 q-24.5 45 -67 70.5 q-42.5 25.5 -97.5 25.5 q-62 0 -112.5 -32.5 q-50.5 -32.5 -80.5 -86 q-30 -53.5 -30 -118.5 q0 -57 24.5 -102 q24.5 -45 67.5 -71.5 q43 -26.5 97 -26.5 Z" /><glyph glyph-name="oslash" unicode="ø" d="M16 0 l544 531 l85 0 l-544 -531 l-85 0 ZM315 -12 q-72 0 -129.5 33.5 q-57.5 33.5 -91 92.5 q-33.5 59 -33.5 134 q0 61 21.5 114.5 q21.5 53.5 61 94 q39.5 40.5 91.5 63.5 q52 23 112 23 q74 0 131 -33 q57 -33 90 -91.5 q33 -58.5 33 -133.5 q0 -61 -22 -115 q-22 -54 -61.5 -95 q-39.5 -41 -91.5 -64 q-52 -23 -111 -23 ZM314 47 q63 0 113.5 33 q50.5 33 80 87.5 q29.5 54.5 29.5 118.5 q0 57 -24.5 102 q-24.5 45 -67 70.5 q-42.5 25.5 -97.5 25.5 q-62 0 -112.5 -32.5 q-50.5 -32.5 -80.5 -86 q-30 -53.5 -30 -118.5 q0 -57 24.5 -102.5 q24.5 -45.5 67 -71.5 q42.5 -26 97.5 -26 Z" /><glyph glyph-name="oe" unicode="&#x153;" d="M315 -12 q-72 0 -129.5 33.5 q-57.5 33.5 -91 92.5 q-33.5 59 -33.5 134 q0 61 22 114.5 q22 53.5 61 94 q39 40.5 91 63.5 q52 23 112 23 q88 0 152 -47 q64 -47 88 -125 l-20 1 q22 50 59 88.5 q37 38.5 85.5 60.5 q48.5 22 105.5 22 q70 0 121 -32 q51 -32 79 -85.5 q28 -53.5 28 -117.5 q0 -15 -2.5 -32 q-2.5 -17 -4.5 -29 l-435 0 q0 -62 24 -107.5 q24 -45.5 66.5 -70.5 q42.5 -25 97.5 -25 q58 0 103.5 28 q45.5 28 75.5 74 l50 -29 q-21 -37 -55.5 -66.5 q-34.5 -29.5 -79 -46 q-44.5 -16.5 -94.5 -16.5 q-57 0 -105 22 q-48 22 -81.5 61 q-33.5 39 -49.5 91 l19 -2 q-22 -50 -61 -89 q-39 -39 -89.5 -61 q-50.5 -22 -108.5 -22 ZM314 47 q63 0 113.5 33 q50.5 33 80 87.5 q29.5 54.5 29.5 118.5 q0 57 -24.5 102 q-24.5 45 -67 70.5 q-42.5 25.5 -97.5 25.5 q-62 0 -112.5 -32.5 q-50.5 -32.5 -80.5 -86 q-30 -53.5 -30 -118.5 q0 -57 24.5 -102 q24.5 -45 67.5 -71.5 q43 -26.5 97 -26.5 ZM609 302 l373 0 q5 53 -16 95 q-21 42 -60 66 q-39 24 -89 24 q-54 0 -97.5 -24 q-43.5 -24 -71.5 -65.5 q-28 -41.5 -39 -95.5 Z" /><glyph glyph-name="p" unicode="p" d="M18 -200 l102 731 l61 0 l-19 -134 l-20 20 q34 58 93 92 q59 34 131 34 q73 0 128 -34 q55 -34 86 -91.5 q31 -57.5 31 -130.5 q0 -61 -21.5 -115.5 q-21.5 -54.5 -59.5 -95.5 q-38 -41 -89 -64.5 q-51 -23.5 -110 -23.5 q-73 0 -132 37 q-59 37 -85 101 l11 9 l-46 -335 l-61 0 ZM329 48 q64 0 112.5 33 q48.5 33 77 87 q28.5 54 28.5 119 q0 58 -24 102 q-24 44 -65.5 69 q-41.5 25 -96.5 25 q-62 0 -111.5 -32.5 q-49.5 -32.5 -78 -86 q-28.5 -53.5 -28.5 -116.5 q0 -58 24.5 -103 q24.5 -45 66 -71 q41.5 -26 95.5 -26 Z" /><glyph glyph-name="thorn" unicode="þ" d="M18 -200 l132 945 l61 0 l-49 -348 l-20 20 q34 58 93 92 q59 34 131 34 q73 0 128 -34 q55 -34 86 -91.5 q31 -57.5 31 -130.5 q0 -61 -21.5 -115.5 q-21.5 -54.5 -59.5 -95.5 q-38 -41 -89 -64.5 q-51 -23.5 -110 -23.5 q-73 0 -132 37 q-59 37 -85 101 l11 9 l-46 -335 l-61 0 ZM329 48 q64 0 112.5 33 q48.5 33 77 87 q28.5 54 28.5 119 q0 58 -24 102 q-24 44 -65.5 69 q-41.5 25 -96.5 25 q-62 0 -111.5 -32.5 q-49.5 -32.5 -78 -86 q-28.5 -53.5 -28.5 -116.5 q0 -58 24.5 -103 q24.5 -45 66 -71 q41.5 -26 95.5 -26 Z" /><glyph glyph-name="q" unicode="q" d="M465 -200 l45 335 l20 -15 q-32 -62 -92.5 -97 q-60.5 -35 -131.5 -35 q-72 0 -127.5 34 q-55.5 34 -86.5 92.5 q-31 58.5 -31 131.5 q0 61 21 114.5 q21 53.5 59 94.5 q38 41 89 64.5 q51 23.5 111 23.5 q75 0 131.5 -35.5 q56.5 -35.5 82.5 -97.5 l-8 -13 l19 134 l60 0 l-101 -731 l-60 0 ZM308 48 q63 0 113 33 q50 33 79 87 q29 54 29 118 q0 59 -25 103 q-25 44 -67 69 q-42 25 -95 25 q-62 0 -111.5 -32.5 q-49.5 -32.5 -77.5 -87 q-28 -54.5 -28 -119.5 q0 -56 23 -100.5 q23 -44.5 64.5 -70 q41.5 -25.5 95.5 -25.5 Z" /><glyph glyph-name="r" unicode="r" d="M46 0 l74 531 l61 0 l-14 -99 l-11 9 q24 45 69.5 71 q45.5 26 102.5 26 l33 0 l-8 -60 l-41 0 q-65 0 -107.5 -42 q-42.5 -42 -53.5 -116 l-45 -320 l-60 0 Z" /><glyph glyph-name="s" unicode="s" d="M236 -12 q-49 0 -91 17.5 q-42 17.5 -71.5 49 q-29.5 31.5 -43.5 73.5 l54 21 q19 -50 59.5 -77.5 q40.5 -27.5 94.5 -27.5 q57 0 93 29 q36 29 36 73 q0 30 -20 50.5 q-20 20.5 -62 31.5 l-81 23 q-60 17 -90 50 q-30 33 -30 81 q0 45 24.5 81.5 q24.5 36.5 66 58 q41.5 21.5 93.5 21.5 q68 0 119 -35 q51 -35 66 -93 l-55 -21 q-16 45 -50 69.5 q-34 24.5 -81 24.5 q-52 0 -86.5 -28.5 q-34.5 -28.5 -34.5 -70.5 q0 -29 18 -48.5 q18 -19.5 56 -30.5 l86 -25 q55 -15 89.5 -49 q34.5 -34 34.5 -89 q0 -45 -25.5 -81 q-25.5 -36 -69.5 -57 q-44 -21 -99 -21 Z" /><glyph glyph-name="germandbls" unicode="ß" d="M36 -145 l97 688 q10 67 44 115 q34 48 85.5 73.5 q51.5 25.5 110.5 25.5 q54 0 95.5 -20 q41.5 -20 65 -57.5 q23.5 -37.5 23.5 -89.5 q0 -40 -16 -81 q-16 -41 -50 -73.5 q-34 -32.5 -90 -50.5 l2 19 q65 -17 100 -63 q35 -46 35 -108 q0 -32 -13 -72.5 q-13 -40.5 -43 -76.5 q-30 -36 -82.5 -60 q-52.5 -24 -131.5 -24 l-56 0 l8 58 l52 0 q58 0 97 17 q39 17 61.5 43.5 q22.5 26.5 32.5 57 q10 30.5 10 57.5 q0 62 -40 97.5 q-40 35.5 -112 35.5 l-58 0 l8 58 l47 0 q49 0 82.5 17.5 q33.5 17.5 53 44 q19.5 26.5 28.5 55 q9 28.5 9 49.5 q0 49 -32 79.5 q-32 30.5 -89 30.5 q-43 0 -81.5 -19.5 q-38.5 -19.5 -63.5 -56 q-25 -36.5 -32 -85.5 l-96 -684 l-61 0 Z" /><glyph glyph-name="t" unicode="t" d="M242 -6 q-68 0 -99.5 38.5 q-31.5 38.5 -21.5 110.5 l46 331 l-100 0 l9 57 l35 0 q30 0 49.5 19 q19.5 19 23.5 50 l8 55 l61 0 l-17 -124 l115 0 l-8 -57 l-115 0 l-47 -335 q-3 -22 0 -42.5 q3 -20.5 19 -33 q16 -12.5 51 -12.5 q10 0 21.5 1 q11.5 1 18.5 2 l-4 -56 q-11 -3 -24.5 -3.5 q-13.5 -0.5 -20.5 -0.5 Z" /><glyph glyph-name="u" unicode="u" d="M237 -12 q-55 0 -98 26 q-43 26 -64 74.5 q-21 48.5 -12 115.5 l47 327 l60 0 l-47 -331 q-7 -49 7.5 -83.5 q14.5 -34.5 44.5 -52 q30 -17.5 71 -17.5 q47 0 84 21.5 q37 21.5 61 59.5 q24 38 31 86 l45 317 l60 0 l-74 -531 l-60 0 l14 108 l15 -7 q-25 -52 -74.5 -82.5 q-49.5 -30.5 -110.5 -30.5 Z" /><glyph glyph-name="uhorn" unicode="&#x1b0;" d="M237 -12 q-55 0 -98 26 q-43 26 -64 74.5 q-21 48.5 -12 115.5 l47 327 l60 0 l-47 -331 q-7 -49 7.5 -83.5 q14.5 -34.5 44.5 -52 q30 -17.5 71 -17.5 q47 0 84 21.5 q37 21.5 61 59.5 q24 38 31 86 l45 317 l33 0 q17 0 31 7.5 q14 7.5 22 23 q8 15.5 8 40.5 q0 15 -3 30.5 q-3 15.5 -8 33.5 l59 0 q6 -18 9 -35 q3 -17 3 -33 q0 -53 -32 -85 q-32 -32 -86 -33 l20 24 l-70 -504 l-60 0 l9 69 q-28 -38 -71.5 -59.5 q-43.5 -21.5 -93.5 -21.5 Z" /><glyph glyph-name="v" unicode="v" d="M190 0 l-136 531 l65 0 l118 -478 l-23 0 l254 478 l71 0 l-288 -531 l-61 0 Z" /><glyph glyph-name="w" unicode="w" d="M161 0 l-107 531 l65 0 l91 -481 l-26 0 l213 481 l61 0 l77 -481 l-28 0 l227 481 l70 0 l-257 -531 l-62 0 l-73 464 l18 0 l-207 -464 l-62 0 Z" /><glyph glyph-name="x" unicode="x" d="M-21 0 l227 268 l-147 263 l72 0 l136 -245 l-42 4 l199 241 l81 0 l-224 -270 l146 -261 l-73 0 l-133 244 l40 -4 l-202 -240 l-80 0 Z" /><glyph glyph-name="y" unicode="y" d="M21 -220 q-15 0 -31.5 2.5 q-16.5 2.5 -31.5 8.5 l4 54 q13 -2 27 -4 q14 -2 27 -2 q34 1 58.5 11.5 q24.5 10.5 44.5 33 q20 22.5 41 57.5 l51 87 l-6 -56 l-147 560 l64 0 l125 -483 l-26 0 l264 483 l70 0 l-334 -608 q-18 -33 -45.5 -66.5 q-27.5 -33.5 -65.5 -55.5 q-38 -22 -89 -22 Z" /><glyph glyph-name="z" unicode="z" d="M-9 0 l6 48 l392 454 l12 -28 l-326 0 l9 57 l372 0 l-6 -47 l-393 -455 l-12 29 l346 0 l-7 -58 l-393 0 Z" /><glyph glyph-name="fi" unicode="&#xfb01;" d="M100 0 l66 474 l-107 0 l8 57 l107 0 l7 49 q9 58 37 97.5 q28 39.5 68 59.5 q40 20 84 20 q14 0 25.5 -1 q11.5 -1 20.5 -3 l-3 -55 q-8 2 -18.5 2.5 q-10.5 0.5 -15.5 0.5 q-54 0 -91 -30 q-37 -30 -47 -95 l-6 -45 l307 0 l-8 -57 l-307 0 l-66 -474 l-61 0 ZM419 0 l75 531 l60 0 l-74 -531 l-61 0 Z" /><glyph glyph-name="fl" unicode="&#xfb02;" d="M100 0 l66 474 l-107 0 l8 57 l107 0 l7 49 q9 58 37 97.5 q28 39.5 68 59.5 q40 20 84 20 q14 0 25.5 -1 q11.5 -1 20.5 -3 l-3 -55 q-8 2 -18.5 2.5 q-10.5 0.5 -15.5 0.5 q-54 0 -91 -30 q-37 -30 -47 -95 l-6 -45 l307 0 l-8 -57 l-307 0 l-66 -474 l-61 0 ZM446 0 l106 757 l61 0 l-106 -757 l-61 0 Z" /><glyph glyph-name="ordfeminine" unicode="ª" d="M210 364 q-49 0 -84.5 26 q-35.5 26 -35.5 75 q0 33 17 58.5 q17 25.5 47.5 42 q30.5 16.5 70.5 22.5 l146 24 l-5 -50 l-130 -22 q-38 -6 -61 -24.5 q-23 -18.5 -23 -47.5 q0 -26 18.5 -40.5 q18.5 -14.5 49.5 -14.5 q35 0 63.5 17 q28.5 17 47 45 q18.5 28 22.5 62 l12 86 q5 40 -20 59.5 q-25 19.5 -60 19.5 q-35 0 -63 -17.5 q-28 -17.5 -44 -44.5 l-48 29 q19 37 62.5 61.5 q43.5 24.5 95.5 24.5 q42 0 75 -17.5 q33 -17.5 50 -48 q17 -30.5 11 -69.5 l-35 -248 l-58 0 l10 74 l13 -4 q-22 -36 -60.5 -57 q-38.5 -21 -83.5 -21 Z" /><glyph glyph-name="ordmasculine" unicode="º" d="M284 364 q-51 0 -92 24 q-41 24 -65.5 65.5 q-24.5 41.5 -24.5 94.5 q0 58 27.5 104.5 q27.5 46.5 74 74.5 q46.5 28 103.5 28 q52 0 93 -23.5 q41 -23.5 65 -65 q24 -41.5 24 -94.5 q0 -57 -27.5 -104.5 q-27.5 -47.5 -74 -75.5 q-46.5 -28 -103.5 -28 ZM284 420 q40 0 72.5 21 q32.5 21 51.5 56 q19 35 19 76 q0 55 -34 91 q-34 36 -86 36 q-40 0 -72.5 -21 q-32.5 -21 -51.5 -55.5 q-19 -34.5 -19 -76.5 q0 -36 15.5 -65 q15.5 -29 42.5 -45.5 q27 -16.5 62 -16.5 Z" /><glyph glyph-name="uni0394" unicode="&#x394;" d="M-21 0 l9 60 l348 685 l67 0 l156 -685 l-9 -60 l-571 0 ZM41 26 l-20 34 l505 0 l-24 -34 l-147 669 l20 0 l-334 -669 Z" /><glyph glyph-name="uni03A9" unicode="&#x3a9;" d="M60 0 l9 60 l193 0 l-17 -12 q-72 44 -115 120.5 q-43 76.5 -43 176.5 q0 84 30.5 158.5 q30.5 74.5 84.5 131.5 q54 57 126 89.5 q72 32.5 155 32.5 q73 0 135.5 -25.5 q62.5 -25.5 109.5 -72.5 q47 -47 73 -111.5 q26 -64.5 26 -142.5 q0 -76 -24.5 -144 q-24.5 -68 -69.5 -122.5 q-45 -54.5 -109 -90.5 l-16 12 l199 0 l-9 -60 l-271 0 l9 60 q68 24 118.5 74 q50.5 50 79 118.5 q28.5 68.5 28.5 143.5 q0 85 -35.5 153 q-35.5 68 -99 107.5 q-63.5 39.5 -147.5 39.5 q-69 0 -128.5 -27.5 q-59.5 -27.5 -104 -75.5 q-44.5 -48 -70 -111 q-25.5 -63 -25.5 -134 q0 -68 23 -125.5 q23 -57.5 65.5 -99.5 q42.5 -42 99.5 -63 l-9 -60 l-271 0 Z" /><glyph glyph-name="pi" unicode="&#x3c0;" d="M101 0 l66 474 l-100 0 l9 57 l560 0 l-9 -57 l-100 0 l-66 -474 l-60 0 l66 474 l-240 0 l-66 -474 l-60 0 Z" /><glyph glyph-name="zero" unicode="0" d="M342 -12 q-79 0 -137 40.5 q-58 40.5 -89 113 q-31 72.5 -31 169.5 q0 87 22.5 167 q22.5 80 65 143 q42.5 63 104 99.5 q61.5 36.5 138.5 36.5 q80 0 137.5 -40 q57.5 -40 88 -112 q30.5 -72 30.5 -169 q0 -87 -22 -167 q-22 -80 -64 -143.5 q-42 -63.5 -103.5 -100.5 q-61.5 -37 -139.5 -37 ZM342 50 q65 0 114.5 33 q49.5 33 82.5 89 q33 56 50 125 q17 69 17 142 q0 117 -50 187 q-50 70 -142 70 q-65 0 -114 -33 q-49 -33 -82.5 -88.5 q-33.5 -55.5 -50.5 -124.5 q-17 -69 -17 -142 q0 -77 22.5 -135.5 q22.5 -58.5 65.5 -90.5 q43 -32 104 -32 Z" /><glyph glyph-name="one" unicode="1" d="M142 0 l97 688 l-140 0 l8 57 l205 0 l-104 -745 l-66 0 Z" /><glyph glyph-name="two" unicode="2" d="M40 0 l4 40 l258 255 q45 45 80.5 81 q35.5 36 60 68 q24.5 32 37 63.5 q12.5 31.5 12.5 67.5 q0 57 -36.5 91 q-36.5 34 -103.5 34 q-72 0 -124 -41.5 q-52 -41.5 -78 -115.5 l-58 17 q21 63 59 107 q38 44 89.5 67 q51.5 23 110.5 23 q60 0 106.5 -22.5 q46.5 -22.5 73 -62.5 q26.5 -40 26.5 -95 q0 -40 -13.5 -76.5 q-13.5 -36.5 -38 -70.5 q-24.5 -34 -55.5 -68 q-31 -34 -66 -68 l-243 -236 l380 0 l-8 -58 l-473 0 Z" /><glyph glyph-name="three" unicode="3" d="M271 -12 q-60 0 -110.5 22 q-50.5 22 -83.5 63.5 q-33 41.5 -43 98.5 l57 19 q13 -67 61 -106 q48 -39 122 -39 q57 0 102 24.5 q45 24.5 70.5 68 q25.5 43.5 25.5 100.5 q0 51 -22 86.5 q-22 35.5 -59 53.5 q-37 18 -85 18 q-12 0 -26 -1.5 q-14 -1.5 -25 -3.5 l-9 28 l233 268 l-361 0 l8 57 l440 0 l-6 -50 l-227 -260 l-8 14 q61 1 108.5 -26 q47.5 -27 75 -75 q27.5 -48 27.5 -111 q0 -52 -20 -97.5 q-20 -45.5 -56 -79 q-36 -33.5 -84.5 -53 q-48.5 -19.5 -104.5 -19.5 Z" /><glyph glyph-name="four" unicode="4" d="M392 0 l24 176 l-384 0 l7 53 l460 516 l58 0 l-72 -514 l86 0 l-9 -55 l-85 0 l-24 -176 l-61 0 ZM95 208 l-9 23 l339 0 l63 455 l27 -6 l-420 -472 Z" /><glyph glyph-name="five" unicode="5" d="M276 -12 q-62 0 -111 22.5 q-49 22.5 -81.5 63.5 q-32.5 41 -42.5 97 l56 21 q12 -67 60.5 -106.5 q48.5 -39.5 118.5 -39.5 q57 0 103 27 q46 27 73 73.5 q27 46.5 27 102.5 q0 50 -21 87 q-21 37 -57.5 58 q-36.5 21 -83.5 21 q-59 0 -104.5 -24.5 q-45.5 -24.5 -69.5 -57.5 l-52 11 l111 402 l365 0 l-7 -57 l-348 0 l36 18 l-89 -321 l-17 10 q34 42 81.5 60.5 q47.5 18.5 100.5 18.5 q65 0 114.5 -30 q49.5 -30 77.5 -81 q28 -51 28 -114 q0 -55 -20 -102.5 q-20 -47.5 -57 -83 q-37 -35.5 -85.5 -56 q-48.5 -20.5 -105.5 -20.5 Z" /><glyph glyph-name="six" unicode="6" d="M270 -12 q-64 0 -112.5 28 q-48.5 28 -75.5 76.5 q-27 48.5 -27 112.5 q0 52 15.5 99 q15.5 47 43.5 90 q28 43 64 86 l230 265 l80 0 l-309 -359 l-19 -3 q22 31 49 47.5 q27 16.5 56 23 q29 6.5 57 6.5 q60 0 107.5 -26 q47.5 -26 75 -73 q27.5 -47 27.5 -110 q0 -75 -36 -135 q-36 -60 -95 -94 q-59 -34 -131 -34 ZM271 46 q54 0 98 26.5 q44 26.5 70.5 72.5 q26.5 46 26.5 103 q0 68 -41.5 111 q-41.5 43 -110.5 43 q-53 0 -97.5 -26.5 q-44.5 -26.5 -71 -72.5 q-26.5 -46 -26.5 -105 q0 -68 42.5 -110 q42.5 -42 109.5 -42 Z" /><glyph glyph-name="seven" unicode="7" d="M37 0 l439 689 l-374 0 l8 57 l447 0 l-6 -55 l-441 -691 l-73 0 Z" /><glyph glyph-name="eight" unicode="8" d="M282 -12 q-67 0 -118 26 q-51 26 -79.5 72.5 q-28.5 46.5 -28.5 105.5 q0 53 22 99.5 q22 46.5 61 81 q39 34.5 90 50.5 l2 -18 q-46 21 -71.5 59.5 q-25.5 38.5 -25.5 87.5 q0 57 29.5 103.5 q29.5 46.5 80 74 q50.5 27.5 112.5 27.5 q55 0 97 -21.5 q42 -21.5 65.5 -59.5 q23.5 -38 23.5 -88 q0 -42 -15 -77 q-15 -35 -43.5 -62 q-28.5 -27 -68.5 -45 l1 18 q61 -19 96 -69 q35 -50 35 -116 q0 -69 -35 -125.5 q-35 -56.5 -95 -90 q-60 -33.5 -135 -33.5 ZM282 46 q59 0 104 24.5 q45 24.5 70.5 67.5 q25.5 43 25.5 98 q0 67 -43.5 106.5 q-43.5 39.5 -117.5 39.5 q-59 0 -104.5 -24.5 q-45.5 -24.5 -71 -67.5 q-25.5 -43 -25.5 -97 q0 -67 44 -107 q44 -40 118 -40 ZM324 440 q43 0 78 19.5 q35 19.5 55.5 52.5 q20.5 33 20.5 73 q0 52 -35 83.5 q-35 31.5 -89 31.5 q-43 0 -78 -19.5 q-35 -19.5 -56 -52 q-21 -32.5 -21 -73.5 q0 -51 35 -83 q35 -32 90 -32 Z" /><glyph glyph-name="nine" unicode="9" d="M136 0 l309 359 l19 4 q-22 -30 -49 -47 q-27 -17 -55.5 -24 q-28.5 -7 -57.5 -7 q-60 0 -107.5 26.5 q-47.5 26.5 -75 73.5 q-27.5 47 -27.5 109 q0 76 36 135.5 q36 59.5 95.5 93.5 q59.5 34 130.5 34 q65 0 113 -27.5 q48 -27.5 75 -76 q27 -48.5 27 -112.5 q0 -52 -15.5 -99 q-15.5 -47 -43.5 -90.5 q-28 -43.5 -64 -85.5 l-230 -266 l-80 0 ZM309 344 q56 0 100 27.5 q44 27.5 70 73.5 q26 46 26 101 q0 69 -42.5 111.5 q-42.5 42.5 -109.5 42.5 q-53 0 -97.5 -26.5 q-44.5 -26.5 -71 -72.5 q-26.5 -46 -26.5 -103 q0 -69 41.5 -111.5 q41.5 -42.5 109.5 -42.5 Z" /><glyph glyph-name="fraction" unicode="&#x2044;" d="M-195 0 l550 745 l71 0 l-550 -745 l-71 0 Z" /><glyph glyph-name="uni2080" unicode="&#x2080;" d="M232 -8 q-55 0 -96.5 28.5 q-41.5 28.5 -63.5 79.5 q-22 51 -22 119 q0 60 16 116 q16 56 46 100 q30 44 73 69.5 q43 25.5 98 25.5 q56 0 97 -28 q41 -28 63 -78.5 q22 -50.5 22 -118.5 q0 -61 -15.5 -117 q-15.5 -56 -45.5 -100 q-30 -44 -73 -70 q-43 -26 -99 -26 ZM233 49 q43 0 74.5 22.5 q31.5 22.5 53 60 q21.5 37.5 32 83 q10.5 45.5 10.5 91.5 q0 76 -31.5 121.5 q-31.5 45.5 -90.5 45.5 q-42 0 -73.5 -22 q-31.5 -22 -53 -59 q-21.5 -37 -32.5 -83 q-11 -46 -11 -93 q0 -75 32 -121 q32 -46 90 -46 Z" /><glyph glyph-name="uni2081" unicode="&#x2081;" d="M86 0 l66 468 l-99 0 l8 54 l161 0 l-73 -522 l-63 0 Z" /><glyph glyph-name="uni2082" unicode="&#x2082;" d="M20 0 l4 43 l171 166 q45 44 74.5 74.5 q29.5 30.5 43.5 56.5 q14 26 14 57 q0 35 -23 56.5 q-23 21.5 -65 21.5 q-44 0 -77.5 -26 q-33.5 -26 -50.5 -73 l-54 17 q21 65 70.5 101 q49.5 36 112.5 36 q43 0 76.5 -16 q33.5 -16 53 -45 q19.5 -29 19.5 -69 q0 -38 -17 -71 q-17 -33 -44.5 -63.5 q-27.5 -30.5 -58.5 -60.5 l-157 -151 l253 0 l-7 -54 l-338 0 Z" /><glyph glyph-name="uni2083" unicode="&#x2083;" d="M185 -8 q-42 0 -78 15.5 q-36 15.5 -59.5 43.5 q-23.5 28 -31.5 67 l55 20 q10 -44 41 -67.5 q31 -23.5 76 -23.5 q55 0 90.5 34 q35.5 34 35.5 88 q0 48 -29.5 74.5 q-29.5 26.5 -76.5 26.5 q-9 0 -20 -1.5 q-11 -1.5 -22 -4.5 l-10 28 l160 176 l-240 0 l8 54 l313 0 l-6 -49 l-156 -173 l-5 17 q44 1 76.5 -19 q32.5 -20 51 -53.5 q18.5 -33.5 18.5 -75.5 q0 -50 -25.5 -90 q-25.5 -40 -69 -63.5 q-43.5 -23.5 -96.5 -23.5 Z" /><glyph glyph-name="uni2084" unicode="&#x2084;" d="M261 0 l17 121 l-260 0 l7 50 l309 351 l59 0 l-49 -350 l65 0 l-7 -51 l-65 0 l-16 -121 l-60 0 ZM72 151 l-7 21 l221 0 l41 298 l20 -5 l-275 -314 Z" /><glyph glyph-name="uni2085" unicode="&#x2085;" d="M187 -8 q-42 0 -77.5 15 q-35.5 15 -59 43.5 q-23.5 28.5 -30.5 66.5 l54 20 q9 -42 40 -66 q31 -24 74 -24 q36 0 65 17 q29 17 46.5 46.5 q17.5 29.5 17.5 65.5 q0 46 -29.5 75.5 q-29.5 29.5 -74.5 29.5 q-37 0 -66.5 -15.5 q-29.5 -15.5 -44.5 -38.5 l-49 11 l78 284 l264 0 l-7 -53 l-243 0 l31 22 l-61 -223 l-17 11 q24 30 56.5 43.5 q32.5 13.5 69.5 13.5 q46 0 81 -21 q35 -21 54 -57 q19 -36 19 -80 q0 -53 -25.5 -95 q-25.5 -42 -69 -66.5 q-43.5 -24.5 -96.5 -24.5 Z" /><glyph glyph-name="uni2086" unicode="&#x2086;" d="M178 -8 q-45 0 -80 19 q-35 19 -55 53.5 q-20 34.5 -20 81.5 q0 38 11.5 70.5 q11.5 32.5 31 61.5 q19.5 29 42.5 56 l162 188 l78 0 l-211 -243 l-15 4 q20 25 45.5 33.5 q25.5 8.5 51.5 8.5 q41 0 74 -18 q33 -18 52.5 -51 q19.5 -33 19.5 -79 q0 -52 -25 -94 q-25 -42 -67.5 -66.5 q-42.5 -24.5 -94.5 -24.5 ZM180 47 q33 0 61 16.5 q28 16.5 45.5 45 q17.5 28.5 17.5 65.5 q0 43 -27 70.5 q-27 27.5 -69 27.5 q-35 0 -63 -17 q-28 -17 -44 -46 q-16 -29 -16 -64 q0 -45 26.5 -71.5 q26.5 -26.5 68.5 -26.5 Z" /><glyph glyph-name="uni2087" unicode="&#x2087;" d="M20 0 l298 469 l-255 0 l7 53 l324 0 l-6 -52 l-298 -470 l-70 0 Z" /><glyph glyph-name="uni2088" unicode="&#x2088;" d="M197 -8 q-48 0 -85 18 q-37 18 -58 51 q-21 33 -21 75 q0 55 33.5 98 q33.5 43 87.5 60 l-1 -16 q-33 13 -50.5 41.5 q-17.5 28.5 -17.5 62.5 q0 42 22 75.5 q22 33.5 59 53 q37 19.5 82 19.5 q62 0 100 -34.5 q38 -34.5 38 -87.5 q0 -44 -25 -79 q-25 -35 -66 -52 l0 17 q43 -15 67.5 -48.5 q24.5 -33.5 24.5 -79.5 q0 -48 -24.5 -87.5 q-24.5 -39.5 -67 -63 q-42.5 -23.5 -98.5 -23.5 ZM198 45 q55 0 91 33 q36 33 36 86 q0 43 -27.5 68 q-27.5 25 -75.5 25 q-57 0 -92 -34.5 q-35 -34.5 -35 -83.5 q0 -43 27.5 -68.5 q27.5 -25.5 75.5 -25.5 ZM226 310 q42 0 69.5 28 q27.5 28 27.5 66 q0 32 -21.5 52 q-21.5 20 -56.5 20 q-41 0 -69.5 -26.5 q-28.5 -26.5 -28.5 -64.5 q0 -35 22 -55 q22 -20 57 -20 Z" /><glyph glyph-name="uni2089" unicode="&#x2089;" d="M69 0 l210 242 l15 -3 q-20 -25 -45.5 -33.5 q-25.5 -8.5 -51.5 -8.5 q-42 0 -75.5 18.5 q-33.5 18.5 -52.5 52.5 q-19 34 -19 77 q0 53 25.5 94.5 q25.5 41.5 68 66 q42.5 24.5 94.5 24.5 q46 0 80.5 -19 q34.5 -19 54.5 -53.5 q20 -34.5 20 -81.5 q0 -39 -11.5 -71.5 q-11.5 -32.5 -31 -61 q-19.5 -28.5 -42.5 -56.5 l-162 -187 l-77 0 ZM208 250 q35 0 62.5 17 q27.5 17 44.5 46 q17 29 17 65 q0 42 -27 69.5 q-27 27.5 -70 27.5 q-33 0 -61.5 -17 q-28.5 -17 -45 -46 q-16.5 -29 -16.5 -65 q0 -42 27 -69.5 q27 -27.5 69 -27.5 Z" /><glyph glyph-name="space" unicode=" " d="" /><glyph glyph-name="uni00A0" unicode=" " d="" /><glyph glyph-name="uni2002" unicode="&#x2002;" d="" /><glyph glyph-name="uni2003" unicode="&#x2003;" d="" /><glyph glyph-name="uni2007" unicode="&#x2007;" d="" /><glyph glyph-name="uni2008" unicode="&#x2008;" d="" /><glyph glyph-name="uni2009" unicode="&#x2009;" d="" /><glyph glyph-name="uni200A" unicode="&#x200a;" d="" /><glyph glyph-name="uni200B" unicode="&#x200b;" d="" /><glyph glyph-name="CR" unicode="" d="" /><glyph glyph-name="period" unicode="." d="M66 0 l14 100 l68 0 l-14 -100 l-68 0 Z" /><glyph glyph-name="comma" unicode="," d="M26 -126 l4 29 q27 8 44.5 32.5 q17.5 24.5 24.5 64.5 l-36 0 l15 100 l67 0 l-11 -82 q-8 -59 -36 -96 q-28 -37 -72 -48 Z" /><glyph glyph-name="colon" unicode=":" d="M66 0 l14 100 l68 0 l-15 -100 l-67 0 ZM126 431 l15 100 l67 0 l-14 -100 l-68 0 Z" /><glyph glyph-name="semicolon" unicode=";" d="M48 -126 l4 29 q28 8 45.5 32.5 q17.5 24.5 24.5 64.5 l-36 0 l14 100 l68 0 l-12 -82 q-8 -59 -36 -96 q-28 -37 -72 -48 ZM147 431 l14 100 l68 0 l-15 -100 l-67 0 Z" /><glyph glyph-name="exclam" unicode="!" d="M99 211 l71 534 l65 0 l-79 -534 l-57 0 ZM65 0 l13 100 l68 0 l-14 -100 l-67 0 Z" /><glyph glyph-name="exclamdown" unicode="¡" d="M36 -214 l79 534 l57 0 l-71 -534 l-65 0 ZM125 431 l14 100 l67 0 l-13 -100 l-68 0 Z" /><glyph glyph-name="question" unicode="?" d="M183 211 l2 7 q15 66 46 113.5 q31 47.5 76 87.5 q26 23 52.5 48.5 q26.5 25.5 44.5 56.5 q18 31 18 69 q0 42 -31 74.5 q-31 32.5 -90 32.5 q-59 0 -104 -36.5 q-45 -36.5 -62 -100.5 l-56 12 q13 56 45.5 96.5 q32.5 40.5 79 63 q46.5 22.5 101.5 22.5 q54 0 95 -22 q41 -22 64 -59 q23 -37 23 -81 q0 -50 -23.5 -89 q-23.5 -39 -57 -70.5 q-33.5 -31.5 -64.5 -60.5 q-37 -35 -61 -72.5 q-24 -37.5 -34 -84.5 l-2 -7 l-62 0 ZM153 0 l14 100 l67 0 l-14 -100 l-67 0 Z" /><glyph glyph-name="questiondown" unicode="¿" d="M182 -226 q-54 0 -95 22.5 q-41 22.5 -64 59 q-23 36.5 -23 80.5 q0 50 23.5 89 q23.5 39 57 71 q33.5 32 64.5 61 q37 35 61 72.5 q24 37.5 34 83.5 l2 7 l62 0 l-2 -7 q-14 -66 -45.5 -113 q-31.5 -47 -76.5 -87 q-26 -23 -52.5 -48.5 q-26.5 -25.5 -44.5 -56.5 q-18 -31 -18 -69 q0 -42 31.5 -75 q31.5 -33 89.5 -33 q59 0 104 37 q45 37 62 100 l56 -12 q-13 -55 -45.5 -96 q-32.5 -41 -79 -63.5 q-46.5 -22.5 -101.5 -22.5 ZM253 431 l14 100 l67 0 l-14 -100 l-67 0 Z" /><glyph glyph-name="periodcentered" unicode="·" d="M97 220 l14 100 l67 0 l-14 -100 l-67 0 Z" /><glyph glyph-name="bullet" unicode="&#x2022;" d="M297 48 q-58 0 -102 24 q-44 24 -68.5 67 q-24.5 43 -24.5 98 q0 69 34.5 126 q34.5 57 93 91 q58.5 34 129.5 34 q56 0 98 -25 q42 -25 65.5 -67.5 q23.5 -42.5 23.5 -96.5 q0 -50 -20 -95 q-20 -45 -54.5 -80.5 q-34.5 -35.5 -79.5 -55.5 q-45 -20 -95 -20 Z" /><glyph glyph-name="asterisk" unicode="*" d="M160 391 l-44 35 l108 120 l-126 44 l27 58 l126 -44 l20 141 l61 0 l-20 -141 l139 44 l11 -58 l-137 -44 l73 -120 l-54 -35 l-76 119 l-108 -119 Z" /><glyph glyph-name="numbersign" unicode="#" d="M62 0 l87 204 l-120 0 l8 58 l137 0 l95 222 l-120 0 l8 58 l137 0 l86 203 l66 0 l-86 -203 l222 0 l87 203 l66 0 l-87 -203 l120 0 l-9 -58 l-136 0 l-95 -222 l120 0 l-8 -58 l-137 0 l-87 -204 l-66 0 l87 204 l-222 0 l-87 -204 l-66 0 ZM240 262 l222 0 l95 222 l-222 0 l-95 -222 Z" /><glyph glyph-name="slash" unicode="/" d="M-52 -120 l454 825 l74 0 l-454 -825 l-74 0 Z" /><glyph glyph-name="backslash" unicode="\" d="M285 -120 l-222 825 l68 0 l222 -825 l-68 0 Z" /><glyph glyph-name="hyphen" unicode="-" d="M70 237 l8 58 l335 0 l-8 -58 l-335 0 Z" /><glyph glyph-name="endash" unicode="&#x2013;" d="M70 237 l8 58 l410 0 l-8 -58 l-410 0 Z" /><glyph glyph-name="emdash" unicode="&#x2014;" d="M70 237 l8 58 l745 0 l-8 -58 l-745 0 Z" /><glyph glyph-name="underscore" unicode="_" d="M29 -57 l8 57 l425 0 l-8 -57 l-425 0 Z" /><glyph glyph-name="uni208D" unicode="&#x208d;" d="M122 -102 q-42 54 -62.5 120 q-20.5 66 -20.5 137 q0 104 38.5 199 q38.5 95 109.5 168 l52 0 q-42 -51 -73.5 -111 q-31.5 -60 -48 -124 q-16.5 -64 -16.5 -130 q0 -67 18.5 -133 q18.5 -66 54.5 -126 l-52 0 Z" /><glyph glyph-name="uni208E" unicode="&#x208e;" d="M-9 -102 q65 81 101.5 174.5 q36.5 93.5 36.5 191.5 q0 69 -19 134.5 q-19 65.5 -54 123.5 l52 0 q42 -54 62.5 -118.5 q20.5 -64.5 20.5 -136.5 q0 -103 -38.5 -199 q-38.5 -96 -109.5 -170 l-52 0 Z" /><glyph glyph-name="parenleft" unicode="(" d="M164 -135 q-56 75 -84.5 168 q-28.5 93 -28.5 193 q0 98 24 191.5 q24 93.5 70.5 177.5 q46.5 84 111.5 150 l58 0 q-64 -75 -108 -160 q-44 -85 -67 -174 q-23 -89 -23 -177 q0 -94 26 -188.5 q26 -94.5 79 -180.5 l-58 0 Z" /><glyph glyph-name="parenright" unicode=")" d="M-5 -135 q64 78 108 163 q44 85 67 173.5 q23 88.5 23 177.5 q0 96 -26.5 190 q-26.5 94 -78.5 176 l58 0 q57 -73 85 -164.5 q28 -91.5 28 -193.5 q0 -96 -24 -190 q-24 -94 -69.5 -178.5 q-45.5 -84.5 -112.5 -153.5 l-58 0 Z" /><glyph glyph-name="braceleft" unicode="{" d="M193 -135 q-59 0 -91.5 37.5 q-32.5 37.5 -23.5 98.5 l28 199 q5 34 -8.5 55 q-13.5 21 -48.5 21 l-28 0 l8 58 l28 0 q35 0 54.5 21.5 q19.5 21.5 23.5 55.5 l28 198 q8 61 51 98.5 q43 37.5 102 37.5 l31 0 l-8 -57 l-31 0 q-32 0 -53.5 -22 q-21.5 -22 -26.5 -56 l-27 -197 q-4 -31 -18 -58.5 q-14 -27.5 -42 -49.5 q21 -21 27.5 -49.5 q6.5 -28.5 1.5 -57.5 l-28 -198 q-4 -33 11 -55 q15 -22 48 -22 l31 0 l-8 -58 l-31 0 Z" /><glyph glyph-name="braceright" unicode="}" d="M-31 -135 l8 58 l31 0 q33 0 54.5 21.5 q21.5 21.5 26.5 55.5 l27 198 q4 29 18.5 57.5 q14.5 28.5 40.5 49.5 q-20 22 -27 48.5 q-7 26.5 -2 59.5 l28 197 q5 34 -10.5 56 q-15.5 22 -47.5 22 l-31 0 l8 57 l31 0 q59 0 91.5 -37.5 q32.5 -37.5 23.5 -98.5 l-28 -198 q-5 -34 8.5 -55.5 q13.5 -21.5 48.5 -21.5 l27 0 l-8 -58 l-28 0 q-34 0 -53.5 -21 q-19.5 -21 -24.5 -55 l-28 -199 q-8 -61 -50.5 -98.5 q-42.5 -37.5 -102.5 -37.5 l-31 0 Z" /><glyph glyph-name="bracketleft" unicode="[" d="M32 -135 l124 880 l185 0 l-8 -57 l-120 0 l-108 -765 l120 0 l-8 -58 l-185 0 Z" /><glyph glyph-name="bracketright" unicode="]" d="M-31 -135 l8 58 l120 0 l108 765 l-120 0 l8 57 l185 0 l-124 -880 l-185 0 Z" /><glyph glyph-name="uni207D" unicode="&#x207d;" d="M153 121 q-42 54 -62.5 120 q-20.5 66 -20.5 137 q0 104 38.5 199 q38.5 95 109.5 168 l52 0 q-42 -51 -73.5 -111 q-31.5 -60 -48 -124 q-16.5 -64 -16.5 -130 q0 -67 18.5 -133 q18.5 -66 54.5 -126 l-52 0 Z" /><glyph glyph-name="uni207E" unicode="&#x207e;" d="M22 121 q65 81 101.5 174.5 q36.5 93.5 36.5 191.5 q0 69 -18.5 134.5 q-18.5 65.5 -53.5 123.5 l52 0 q42 -54 62 -118.5 q20 -64.5 20 -136.5 q0 -103 -38 -199 q-38 -96 -110 -170 l-52 0 Z" /><glyph glyph-name="quotesinglbase" unicode="&#x201a;" d="M27 -112 l5 33 q27 7 42 27.5 q15 20.5 20 51.5 l-31 0 l14 100 l68 0 l-12 -80 q-6 -51 -34.5 -86.5 q-28.5 -35.5 -71.5 -45.5 Z" /><glyph glyph-name="quotedblbase" unicode="&#x201e;" d="M66 -112 l5 33 q26 7 41 27.5 q15 20.5 21 51.5 l-31 0 l14 100 l67 0 l-11 -80 q-7 -51 -35 -86.5 q-28 -35.5 -71 -45.5 ZM206 -112 l5 33 q26 7 41 27.5 q15 20.5 21 51.5 l-31 0 l14 100 l67 0 l-11 -80 q-7 -51 -35 -86.5 q-28 -35.5 -71 -45.5 Z" /><glyph glyph-name="quotedblleft" unicode="&#x201c;" d="M206 545 l11 80 q7 51 35.5 86.5 q28.5 35.5 70.5 45.5 l-5 -33 q-26 -6 -41 -27 q-15 -21 -21 -52 l31 0 l-14 -100 l-67 0 ZM66 545 l11 80 q7 51 35.5 86.5 q28.5 35.5 70.5 45.5 l-5 -33 q-26 -6 -41 -27 q-15 -21 -21 -52 l31 0 l-14 -100 l-67 0 Z" /><glyph glyph-name="quotedblright" unicode="&#x201d;" d="M206 533 l5 33 q26 7 41 27.5 q15 20.5 21 51.5 l-31 0 l14 100 l67 0 l-11 -80 q-7 -51 -35 -86.5 q-28 -35.5 -71 -45.5 ZM66 533 l5 33 q26 7 41 27.5 q15 20.5 21 51.5 l-31 0 l14 100 l67 0 l-11 -80 q-7 -51 -35 -86.5 q-28 -35.5 -71 -45.5 Z" /><glyph glyph-name="quoteleft" unicode="&#x2018;" d="M120 545 l11 80 q7 51 35.5 86.5 q28.5 35.5 70.5 45.5 l-5 -33 q-26 -6 -41 -27 q-15 -21 -21 -52 l31 0 l-14 -100 l-67 0 Z" /><glyph glyph-name="quoteright" unicode="&#x2019;" d="M118 533 l5 33 q27 7 42 27.5 q15 20.5 20 51.5 l-31 0 l14 100 l68 0 l-12 -80 q-6 -51 -34.5 -86.5 q-28.5 -35.5 -71.5 -45.5 Z" /><glyph glyph-name="guillemotleft" unicode="«" d="M155 81 l-125 188 l178 188 l73 0 l-182 -194 l120 -182 l-64 0 ZM383 81 l-125 188 l178 188 l73 0 l-182 -194 l120 -182 l-64 0 Z" /><glyph glyph-name="guillemotright" unicode="»" d="M231 81 l182 194 l-119 182 l63 0 l126 -188 l-179 -188 l-73 0 ZM3 81 l182 194 l-119 182 l63 0 l126 -188 l-179 -188 l-73 0 Z" /><glyph glyph-name="guilsinglleft" unicode="&#x2039;" d="M155 81 l-125 188 l178 188 l73 0 l-182 -194 l120 -182 l-64 0 Z" /><glyph glyph-name="guilsinglright" unicode="&#x203a;" d="M3 81 l182 194 l-119 182 l63 0 l126 -188 l-179 -188 l-73 0 Z" /><glyph glyph-name="quotedbl" unicode="&quot;" d="M134 544 l16 201 l68 0 l-39 -201 l-45 0 ZM271 544 l17 201 l67 0 l-39 -201 l-45 0 Z" /><glyph glyph-name="quotesingle" unicode="&#39;" d="M134 544 l16 201 l68 0 l-39 -201 l-45 0 Z" /><glyph glyph-name="florin" unicode="&#x192;" d="M65 -12 q-12 0 -23.5 2 q-11.5 2 -19.5 4 l3 54 q8 -1 18.5 -2 q10.5 -1 15.5 -1 q54 0 91.5 31.5 q37.5 31.5 47.5 99.5 l23 170 l-132 0 l8 55 l132 0 l25 173 q9 61 36.5 101.5 q27.5 40.5 68 61 q40.5 20.5 87.5 20.5 q12 0 23.5 -2 q11.5 -2 18.5 -4 l-3 -53 q-7 2 -17.5 2.5 q-10.5 0.5 -16.5 0.5 q-53 0 -90.5 -31.5 q-37.5 -31.5 -47.5 -99.5 l-24 -169 l132 0 l-8 -55 l-132 0 l-24 -174 q-8 -61 -36 -102 q-28 -41 -68.5 -61.5 q-40.5 -20.5 -87.5 -20.5 Z" /><glyph glyph-name="uni0E3F" unicode="&#xe3f;" d="M57 0 l104 745 l294 0 q86 0 135.5 -46.5 q49.5 -46.5 49.5 -122.5 q0 -42 -16.5 -79.5 q-16.5 -37.5 -47 -65.5 q-30.5 -28 -71.5 -41 l-2 18 q62 -17 96.5 -64.5 q34.5 -47.5 34.5 -108.5 q0 -69 -32.5 -122 q-32.5 -53 -90 -83 q-57.5 -30 -133.5 -30 l-321 0 ZM130 60 l250 0 q56 0 98.5 21.5 q42.5 21.5 66.5 60.5 q24 39 24 89 q0 61 -41.5 97 q-41.5 36 -110.5 36 l-244 0 l-43 -304 ZM181 423 l235 0 q47 0 82.5 19.5 q35.5 19.5 56 53.5 q20.5 34 20.5 78 q0 52 -35 81.5 q-35 29.5 -97 29.5 l-225 0 l-37 -262 ZM253 -100 l132 945 l58 0 l-132 -945 l-58 0 Z" /><glyph glyph-name="uni2605" unicode="&#x2605;" d="M219 -12 l95 293 l-250 182 l309 0 l95 294 l96 -294 l309 0 l-250 -182 l96 -293 l-251 181 l-249 -181 Z" /><glyph glyph-name="uni2606" unicode="&#x2606;" d="M219 -12 l95 293 l-250 182 l309 0 l95 294 l96 -294 l309 0 l-250 -182 l96 -293 l-251 181 l-249 -181 ZM314 119 l154 112 l156 -113 l-60 182 l155 113 l-192 0 l-59 183 l-59 -183 l-192 0 l155 -113 l-58 -181 Z" /><glyph glyph-name="at" unicode="@" d="M447 -206 q-81 0 -150.5 29 q-69.5 29 -122 80.5 q-52.5 51.5 -81.5 121.5 q-29 70 -29 151 q0 90 32.5 169.5 q32.5 79.5 92 140.5 q59.5 61 139.5 95.5 q80 34.5 174 34.5 q86 0 156.5 -30 q70.5 -30 121.5 -82.5 q51 -52.5 78.5 -121 q27.5 -68.5 27.5 -144.5 q0 -69 -21.5 -122.5 q-21.5 -53.5 -60 -84.5 q-38.5 -31 -90.5 -31 q-31 0 -58 12.5 q-27 12.5 -44 35.5 q-17 23 -20 53 l16 -6 q-17 -32 -43 -53 q-26 -21 -56.5 -31.5 q-30.5 -10.5 -64.5 -10.5 q-55 0 -97.5 25.5 q-42.5 25.5 -67 69.5 q-24.5 44 -24.5 100 q0 63 29 115 q29 52 79 83.5 q50 31.5 111 31.5 q49 0 90.5 -22 q41.5 -22 60.5 -65 l-7 -13 l13 90 l57 0 l-37 -265 q-5 -31 3 -52 q8 -21 25 -30.5 q17 -9.5 38 -9.5 q50 0 78.5 48.5 q28.5 48.5 28.5 127.5 q0 97 -41.5 170 q-41.5 73 -114.5 114 q-73 41 -168 41 q-79 0 -147.5 -29 q-68.5 -29 -119.5 -81 q-51 -52 -79.5 -120 q-28.5 -68 -28.5 -146 q0 -95 41.5 -169.5 q41.5 -74.5 115.5 -118 q74 -43.5 172 -43.5 q45 0 88.5 10 q43.5 10 79.5 30 l23 -50 q-42 -23 -93 -35.5 q-51 -12.5 -105 -12.5 ZM448 58 q44 0 78 22.5 q34 22.5 53.5 60.5 q19.5 38 19.5 85 q0 62 -35.5 101 q-35.5 39 -93.5 39 q-44 0 -78.5 -22.5 q-34.5 -22.5 -54.5 -60 q-20 -37.5 -20 -82.5 q0 -63 37 -103 q37 -40 94 -40 Z" /><glyph glyph-name="ampersand" unicode="&amp;" d="M230 -12 q-53 0 -95.5 20 q-42.5 20 -67 58 q-24.5 38 -24.5 91 q0 46 17 82 q17 36 44 64 q27 28 58.5 50 q31.5 22 60.5 41 l68 43 q40 25 69.5 51 q29.5 26 46 55 q16.5 29 16.5 62 q0 41 -26 66 q-26 25 -66 25 q-33 0 -60.5 -16.5 q-27.5 -16.5 -43.5 -44.5 q-16 -28 -16 -61 q0 -29 12 -55.5 q12 -26.5 29.5 -49.5 q17.5 -23 35.5 -44 l372 -425 l-88 0 l-335 383 q-19 22 -40 50 q-21 28 -36 62.5 q-15 34.5 -15 74.5 q0 52 25 94.5 q25 42.5 67.5 67.5 q42.5 25 94.5 25 q45 0 79.5 -19 q34.5 -19 54.5 -53.5 q20 -34.5 20 -79.5 q0 -52 -24 -92 q-24 -40 -60.5 -70.5 q-36.5 -30.5 -73.5 -54.5 l-69 -44 q-38 -25 -72.5 -50.5 q-34.5 -25.5 -55.5 -58 q-21 -32.5 -21 -76.5 q0 -55 34 -82.5 q34 -27.5 87 -27.5 q42 0 74 14.5 q32 14.5 57.5 37.5 q25.5 23 47 49 q21.5 26 40.5 51 l133 170 l77 0 l-154 -203 q-19 -25 -44.5 -56 q-25.5 -31 -59 -59 q-33.5 -28 -76 -46.5 q-42.5 -18.5 -97.5 -18.5 Z" /><glyph glyph-name="paragraph" unicode="¶" d="M152 -100 l75 538 q-45 0 -77 20 q-32 20 -47 55 q-15 35 -9 79 q6 44 30.5 79 q24.5 35 62 54.5 q37.5 19.5 83.5 19.5 l65 0 l-118 -845 l-65 0 Z" /><glyph glyph-name="section" unicode="§" d="M228 -97 q-76 0 -132 38.5 q-56 38.5 -77 105.5 l57 26 q21 -54 63.5 -83.5 q42.5 -29.5 95.5 -29.5 q40 0 71 14.5 q31 14.5 49.5 39.5 q18.5 25 18.5 55 q0 24 -12 41 q-12 17 -32 28.5 q-20 11.5 -44 18.5 l-84 25 q-64 19 -95 53.5 q-31 34.5 -31 80.5 q0 48 26.5 87 q26.5 39 71 62.5 q44.5 23.5 99.5 23.5 l-6 -43 q-34 0 -63 -15.5 q-29 -15.5 -46 -41.5 q-17 -26 -17 -59 q0 -23 11 -40 q11 -17 29.5 -28 q18.5 -11 39.5 -17 l90 -27 q62 -19 95 -56 q33 -37 33 -86 q0 -48 -27.5 -87.5 q-27.5 -39.5 -75.5 -62.5 q-48 -23 -108 -23 ZM266 171 l4 43 q40 0 72 16 q32 16 51 43 q19 27 19 61 q0 25 -12 42.5 q-12 17.5 -32 30 q-20 12.5 -43 18.5 l-85 25 q-65 19 -95.5 54 q-30.5 35 -30.5 81 q0 48 26.5 87 q26.5 39 71.5 62 q45 23 100 23 q68 0 121 -36 q53 -36 70 -96 l-59 -26 q-17 47 -54.5 74 q-37.5 27 -85.5 27 q-35 0 -63.5 -14 q-28.5 -14 -45 -37.5 q-16.5 -23.5 -16.5 -53.5 q0 -22 11 -38 q11 -16 29.5 -26.5 q18.5 -10.5 39.5 -17.5 l90 -27 q61 -18 94.5 -55 q33.5 -37 33.5 -86 q0 -49 -28 -88 q-28 -39 -76 -62.5 q-48 -23.5 -107 -23.5 Z" /><glyph glyph-name="copyright" unicode="©" d="M440 -12 q-77 0 -143 27.5 q-66 27.5 -115 76.5 q-49 49 -76 114 q-27 65 -27 141 q0 84 32.5 158 q32.5 74 89.5 130.5 q57 56.5 131 89 q74 32.5 158 32.5 q77 0 142.5 -27.5 q65.5 -27.5 114.5 -77 q49 -49.5 76 -114.5 q27 -65 27 -140 q0 -85 -33 -159 q-33 -74 -90 -130.5 q-57 -56.5 -131 -88.5 q-74 -32 -156 -32 ZM440 47 q71 0 134 27.5 q63 27.5 111.5 75.5 q48.5 48 76.5 112 q28 64 28 137 q0 63 -22.5 117 q-22.5 54 -63 95 q-40.5 41 -95.5 64 q-55 23 -120 23 q-71 0 -134.5 -27.5 q-63.5 -27.5 -112 -75.5 q-48.5 -48 -76 -112 q-27.5 -64 -27.5 -136 q0 -84 39 -152.5 q39 -68.5 107 -108 q68 -39.5 155 -39.5 ZM456 163 q-55 0 -97 25 q-42 25 -66 69.5 q-24 44.5 -24 100.5 q0 65 28.5 115.5 q28.5 50.5 77 79.5 q48.5 29 107.5 29 q43 0 76.5 -15 q33.5 -15 55.5 -38.5 q22 -23.5 30 -50.5 l-54 -24 q-11 31 -38.5 52 q-27.5 21 -69.5 21 q-44 0 -78.5 -21.5 q-34.5 -21.5 -54.5 -60 q-20 -38.5 -20 -89.5 q0 -61 35 -99.5 q35 -38.5 93 -38.5 q43 0 74 21.5 q31 21.5 46 53.5 l53 -27 q-12 -27 -37.5 -50.5 q-25.5 -23.5 -60.5 -38 q-35 -14.5 -76 -14.5 Z" /><glyph glyph-name="registered" unicode="®" d="M341 272 q-68 0 -123 32 q-55 32 -86.5 86.5 q-31.5 54.5 -31.5 121.5 q0 55 21.5 104.5 q21.5 49.5 59.5 87 q38 37.5 87.5 59 q49.5 21.5 105.5 21.5 q68 0 122 -32 q54 -32 86 -86.5 q32 -54.5 32 -120.5 q0 -56 -22 -105.5 q-22 -49.5 -60 -87 q-38 -37.5 -87 -59 q-49 -21.5 -104 -21.5 ZM341 323 q60 0 110.5 30 q50.5 30 81 80.5 q30.5 50.5 30.5 111.5 q0 53 -24.5 95.5 q-24.5 42.5 -67.5 67.5 q-43 25 -98 25 q-60 0 -111 -30 q-51 -30 -81 -80 q-30 -50 -30 -111 q0 -54 24.5 -96.5 q24.5 -42.5 68 -67.5 q43.5 -25 97.5 -25 ZM245 394 l38 270 l94 0 q39 0 63.5 -20.5 q24.5 -20.5 24.5 -59.5 q0 -30 -14 -51 q-14 -21 -38 -32 l54 -107 l-57 0 l-48 98 l-51 0 l-14 -98 l-52 0 ZM317 537 l52 0 q20 0 33.5 13.5 q13.5 13.5 13.5 32.5 q0 16 -11 25.5 q-11 9.5 -29 9.5 l-48 0 l-11 -81 Z" /><glyph glyph-name="trademark" unicode="&#x2122;" d="M172 298 l54 391 l-120 0 l8 56 l301 0 l-8 -56 l-118 0 l-55 -391 l-62 0 ZM417 298 l62 447 l53 0 l135 -237 l-26 0 l199 237 l60 0 l-62 -447 l-63 0 l51 370 l21 -7 l-199 -233 l-6 0 l-131 233 l20 7 l-51 -370 l-63 0 Z" /><glyph glyph-name="degree" unicode="°" d="M269 463 q-40 0 -71 17.5 q-31 17.5 -49 48 q-18 30.5 -18 69.5 q0 45 21.5 81 q21.5 36 57.5 57 q36 21 80 21 q39 0 70 -17.5 q31 -17.5 49 -48.5 q18 -31 18 -70 q0 -44 -21 -79.5 q-21 -35.5 -57 -57 q-36 -21.5 -80 -21.5 ZM272 513 q27 0 50.5 13.5 q23.5 13.5 38.5 37 q15 23.5 15 53.5 q0 41 -27 65.5 q-27 24.5 -64 24.5 q-42 0 -72.5 -30 q-30.5 -30 -30.5 -75 q0 -41 26.5 -65 q26.5 -24 63.5 -24 Z" /><glyph glyph-name="minute" unicode="&#x2032;" d="M150 544 l28 201 l67 0 l-39 -201 l-56 0 Z" /><glyph glyph-name="second" unicode="&#x2033;" d="M150 544 l28 201 l67 0 l-39 -201 l-56 0 ZM287 544 l28 201 l68 0 l-39 -201 l-57 0 Z" /><glyph glyph-name="bar" unicode="|" d="M46 -190 l146 1035 l65 0 l-146 -1035 l-65 0 Z" /><glyph glyph-name="brokenbar" unicode="¦" d="M133 428 l59 417 l65 0 l-59 -417 l-65 0 ZM46 -190 l59 418 l65 0 l-59 -418 l-65 0 Z" /><glyph glyph-name="dagger" unicode="&#x2020;" d="M214 -190 l93 662 l-237 0 l8 60 l238 0 l30 213 l65 0 l-30 -213 l237 0 l-8 -60 l-238 0 l-93 -662 l-65 0 Z" /><glyph glyph-name="uni2113" unicode="&#x2113;" d="M277 -6 q-61 0 -87 29.5 q-26 29.5 -18 82.5 l67 479 q8 54 30 92.5 q22 38.5 55.5 59 q33.5 20.5 74.5 20.5 q35 0 59 -17.5 q24 -17.5 36.5 -50 q12.5 -32.5 12.5 -78.5 q0 -86 -22.5 -157 q-22.5 -71 -64 -127.5 q-41.5 -56.5 -100 -101 q-58.5 -44.5 -131 -77.5 q-72.5 -33 -156.5 -56 l-10 51 q88 26 164.5 63 q76.5 37 134.5 91.5 q58 54.5 90.5 132 q32.5 77.5 32.5 183.5 q0 44 -14 68.5 q-14 24.5 -42 24.5 q-33 0 -57 -30.5 q-24 -30.5 -32 -84.5 l-68 -483 q-4 -30 11 -45.5 q15 -15.5 47 -15.5 l91 0 l-7 -53 l-97 0 Z" /><glyph glyph-name="daggerdbl" unicode="&#x2021;" d="M226 -190 l30 214 l-237 0 l9 60 l237 0 l55 388 l-238 0 l9 60 l237 0 l30 213 l65 0 l-30 -213 l238 0 l-9 -60 l-237 0 l-55 -388 l238 0 l-9 -60 l-238 0 l-30 -214 l-65 0 Z" /><glyph glyph-name="estimated" unicode="&#x212e;" d="M459 -10 q-85 0 -155.5 28 q-70.5 28 -121.5 77.5 q-51 49.5 -78.5 114.5 q-27.5 65 -27.5 139 q0 75 28 140.5 q28 65.5 79 115 q51 49.5 120.5 77.5 q69.5 28 152.5 28 q83 0 152.5 -28 q69.5 -28 120.5 -77.5 q51 -49.5 79 -114.5 q28 -65 28 -140 l0 -9 l-609 0 q-5 0 -5 -6 l0 -195 q0 -7 1.5 -10.5 q1.5 -3.5 8.5 -11.5 q39 -45 92 -75.5 q53 -30.5 135 -30.5 q81 0 134.5 31 q53.5 31 101.5 86 l58 0 q-35 -41 -75.5 -72.5 q-40.5 -31.5 -93.5 -49 q-53 -17.5 -125 -17.5 ZM227 360 l458 0 q4 0 4 6 l0 196 q0 3 -1 10 q-1 7 -9 14 q-30 32 -60.5 55 q-30.5 23 -69 35 q-38.5 12 -93.5 12 q-82 0 -134 -31 q-52 -31 -89 -74 q-8 -10 -9.5 -13 q-1.5 -3 -1.5 -11 l0 -193 q0 -6 5 -6 Z" /><glyph glyph-name="uni20B3" unicode="&#x20b3;" d="M-12 0 l378 745 l67 0 l170 -745 l-67 0 l-153 694 l24 -3 l-346 -691 l-73 0 ZM7 192 l8 55 l615 0 l-8 -55 l-615 0 ZM29 347 l7 55 l615 0 l-7 -55 l-615 0 Z" /><glyph glyph-name="uni20BF" unicode="&#x20bf;" d="M57 0 l104 745 l294 0 q86 0 135.5 -46.5 q49.5 -46.5 49.5 -122.5 q0 -42 -16.5 -79.5 q-16.5 -37.5 -47 -65.5 q-30.5 -28 -71.5 -41 l-2 18 q62 -17 96.5 -64.5 q34.5 -47.5 34.5 -108.5 q0 -69 -32.5 -122 q-32.5 -53 -90 -83 q-57.5 -30 -133.5 -30 l-321 0 ZM130 60 l250 0 q56 0 98.5 21.5 q42.5 21.5 66.5 60.5 q24 39 24 89 q0 61 -41.5 97 q-41.5 36 -110.5 36 l-244 0 l-43 -304 ZM181 423 l235 0 q47 0 82.5 19.5 q35.5 19.5 56 53.5 q20.5 34 20.5 78 q0 52 -35 81.5 q-35 29.5 -97 29.5 l-225 0 l-37 -262 ZM177 -100 l19 136 l58 0 l-19 -136 l-58 0 ZM334 -100 l18 136 l58 0 l-18 -136 l-58 0 ZM291 709 l18 136 l58 0 l-18 -136 l-58 0 ZM447 709 l19 136 l58 0 l-19 -136 l-58 0 Z" /><glyph glyph-name="uni20B5" unicode="&#x20b5;" d="M418 -12 q-69 0 -129 24 q-60 24 -105.5 70 q-45.5 46 -71 111 q-25.5 65 -25.5 148 q0 87 28.5 162.5 q28.5 75.5 80 132.5 q51.5 57 121.5 89 q70 32 151 32 q77 0 136 -27.5 q59 -27.5 97 -70 q38 -42.5 53 -86.5 l-62 -25 q-26 67 -83 107.5 q-57 40.5 -142 40.5 q-70 0 -127.5 -27.5 q-57.5 -27.5 -99.5 -75.5 q-42 -48 -65 -112.5 q-23 -64.5 -23 -138.5 q0 -89 33.5 -154.5 q33.5 -65.5 93.5 -101.5 q60 -36 139 -36 q86 0 149.5 41 q63.5 41 99.5 108 l59 -29 q-21 -44 -65 -86 q-44 -42 -105.5 -69 q-61.5 -27 -137.5 -27 ZM333 -100 l132 945 l58 0 l-132 -945 l-58 0 Z" /><glyph glyph-name="cent" unicode="¢" d="M321 96 q-70 0 -125.5 33 q-55.5 33 -87.5 91.5 q-32 58.5 -32 133.5 q0 62 22 116 q22 54 60.5 94.5 q38.5 40.5 89.5 63.5 q51 23 110 23 q50 0 92.5 -17 q42.5 -17 73 -46.5 q30.5 -29.5 46.5 -68.5 l-54 -26 q-21 47 -62 73 q-41 26 -96 26 q-63 0 -113 -33 q-50 -33 -78 -87.5 q-28 -54.5 -28 -118.5 q0 -60 24.5 -105 q24.5 -45 66.5 -69.5 q42 -24.5 94 -24.5 q56 0 101.5 27.5 q45.5 27.5 72.5 74.5 l52 -30 q-21 -38 -55.5 -67.5 q-34.5 -29.5 -78.5 -46 q-44 -16.5 -95 -16.5 ZM253 0 l105 745 l58 0 l-105 -745 l-58 0 Z" /><glyph glyph-name="colonmonetary" unicode="&#x20a1;" d="M418 -12 q-69 0 -129 24 q-60 24 -105.5 70 q-45.5 46 -71 111 q-25.5 65 -25.5 148 q0 87 28.5 162.5 q28.5 75.5 80 132.5 q51.5 57 121.5 89 q70 32 151 32 q77 0 136 -27.5 q59 -27.5 97 -70 q38 -42.5 53 -86.5 l-62 -25 q-26 67 -83 107.5 q-57 40.5 -142 40.5 q-70 0 -127.5 -27.5 q-57.5 -27.5 -99.5 -75.5 q-42 -48 -65 -112.5 q-23 -64.5 -23 -138.5 q0 -89 33.5 -154.5 q33.5 -65.5 93.5 -101.5 q60 -36 139 -36 q86 0 149.5 41 q63.5 41 99.5 108 l59 -29 q-21 -44 -65 -86 q-44 -42 -105.5 -69 q-61.5 -27 -137.5 -27 ZM181 -100 l264 945 l58 0 l-264 -945 l-58 0 ZM336 -100 l264 945 l58 0 l-264 -945 l-58 0 Z" /><glyph glyph-name="currency" unicode="¤" d="M84 37 l-36 40 l83 75 q-15 22 -22 47 q-7 25 -7 50 q0 36 14 71.5 q14 35.5 39 66.5 l-67 75 l44 40 l67 -75 q28 19 60.5 29.5 q32.5 10.5 61.5 10.5 q31 0 60.5 -10.5 q29.5 -10.5 52.5 -29.5 l83 75 l36 -40 l-82 -75 q14 -24 20.5 -48.5 q6.5 -24.5 6.5 -49.5 q0 -36 -13.5 -71.5 q-13.5 -35.5 -38.5 -65.5 l67 -75 l-44 -40 l-68 75 q-28 -20 -59.5 -30 q-31.5 -10 -61.5 -10 q-28 0 -58.5 9.5 q-30.5 9.5 -55.5 30.5 l-82 -75 ZM286 134 q41 0 75 21 q34 21 55 55 q21 34 21 73 q0 35 -16 62 q-16 27 -43.5 43.5 q-27.5 16.5 -62.5 16.5 q-40 0 -74.5 -21 q-34.5 -21 -56 -55 q-21.5 -34 -21.5 -73 q0 -34 16.5 -61.5 q16.5 -27.5 44.5 -44 q28 -16.5 62 -16.5 Z" /><glyph glyph-name="dollar" unicode="$" d="M311 -12 q-66 0 -120.5 24.5 q-54.5 24.5 -92 68.5 q-37.5 44 -49.5 101 l60 19 q19 -75 73 -115 q54 -40 132 -40 q57 0 97.5 19.5 q40.5 19.5 63 53.5 q22.5 34 22.5 77 q0 47 -26 78 q-26 31 -77 46 l-133 40 q-69 21 -105.5 69 q-36.5 48 -36.5 114 q0 59 31 108 q31 49 85 77.5 q54 28.5 122 28.5 q62 0 111 -23.5 q49 -23.5 81.5 -63 q32.5 -39.5 43.5 -90.5 l-59 -19 q-17 65 -64 102 q-47 37 -114 37 q-50 0 -89.5 -20 q-39.5 -20 -62 -54.5 q-22.5 -34.5 -22.5 -78.5 q0 -47 26.5 -79 q26.5 -32 85.5 -51 l118 -36 q74 -23 111.5 -69.5 q37.5 -46.5 37.5 -112.5 q0 -58 -31 -106 q-31 -48 -87 -76.5 q-56 -28.5 -132 -28.5 ZM243 -100 l132 945 l58 0 l-132 -945 l-58 0 Z" /><glyph glyph-name="dong" unicode="&#x20ab;" d="M274 139 q-58 0 -103.5 27.5 q-45.5 27.5 -70.5 74 q-25 46.5 -25 105.5 q0 67 30.5 121 q30.5 54 82 86.5 q51.5 32.5 115.5 32.5 q59 0 102 -26.5 q43 -26.5 65 -71.5 l-10 -12 l38 269 l60 0 l-83 -596 l-59 0 l13 101 l18 -12 q-26 -46 -72.5 -72.5 q-46.5 -26.5 -100.5 -26.5 ZM278 199 q48 0 85.5 24.5 q37.5 24.5 59.5 65.5 q22 41 22 90 q0 44 -18.5 77 q-18.5 33 -50 52 q-31.5 19 -72.5 19 q-47 0 -84.5 -25 q-37.5 -25 -58.5 -65.5 q-21 -40.5 -21 -89.5 q0 -43 17.5 -76.5 q17.5 -33.5 49 -52.5 q31.5 -19 71.5 -19 ZM26 0 l7 53 l449 0 l-7 -53 l-449 0 ZM412 637 l7 53 l200 0 l-7 -53 l-200 0 Z" /><glyph glyph-name="Euro" unicode="&#x20ac;" d="M444 -12 q-87 0 -155.5 44.5 q-68.5 44.5 -107.5 123.5 q-39 79 -39 183 q0 86 26.5 161.5 q26.5 75.5 74.5 133 q48 57.5 113 90.5 q65 33 141 33 q91 0 159 -48 q68 -48 93 -135 l-59 -24 q-22 72 -75 111 q-53 39 -124 39 q-61 0 -112.5 -28 q-51.5 -28 -90.5 -77.5 q-39 -49.5 -60.5 -114.5 q-21.5 -65 -21.5 -138 q0 -87 30 -154 q30 -67 84 -104.5 q54 -37.5 125 -37.5 q71 0 129.5 39 q58.5 39 90.5 110 l56 -24 q-25 -58 -67.5 -98.5 q-42.5 -40.5 -96 -62.5 q-53.5 -22 -113.5 -22 ZM37 268 l8 55 l469 0 l-7 -55 l-470 0 ZM59 423 l7 55 l470 0 l-8 -55 l-469 0 Z" /><glyph glyph-name="franc" unicode="&#x20a3;" d="M91 0 l104 745 l455 0 l-8 -60 l-390 0 l-40 -281 l355 0 l-8 -60 l-355 0 l-48 -344 l-65 0 ZM31 145 l7 55 l345 0 l-7 -55 l-345 0 Z" /><glyph glyph-name="uni20B2" unicode="&#x20b2;" d="M420 -12 q-72 0 -133 25.5 q-61 25.5 -105.5 72.5 q-44.5 47 -69.5 112 q-25 65 -25 145 q0 87 29.5 162.5 q29.5 75.5 82 132 q52.5 56.5 122.5 88 q70 31.5 151 31.5 q78 0 137 -27 q59 -27 97.5 -69 q38.5 -42 53.5 -87 l-61 -28 q-25 69 -84.5 109.5 q-59.5 40.5 -144.5 40.5 q-70 0 -128.5 -27.5 q-58.5 -27.5 -101 -75.5 q-42.5 -48 -65.5 -111.5 q-23 -63.5 -23 -137.5 q0 -91 35.5 -157 q35.5 -66 97 -101.5 q61.5 -35.5 140.5 -35.5 q78 0 140.5 34.5 q62.5 34.5 102 94.5 q39.5 60 47.5 136 l4 35 l25 -31 l-301 0 l6 58 l336 0 l-5 -56 q-6 -70 -35 -130.5 q-29 -60.5 -77 -106 q-48 -45.5 -111 -71 q-63 -25.5 -137 -25.5 ZM343 -100 l132 945 l58 0 l-132 -945 l-58 0 Z" /><glyph glyph-name="uni20B4" unicode="&#x20b4;" d="M470 457 q29 22 44 53 q15 31 15 68 q0 56 -39 89 q-39 33 -103 33 q-56 0 -104 -29 q-48 -29 -68 -98 l-67 0 q13 56 48 97 q35 41 86.5 64 q51.5 23 111.5 23 q59 0 104 -22 q45 -22 70.5 -61 q25.5 -39 25.5 -91 q0 -42 -14.5 -73.5 q-14.5 -31.5 -32.5 -52.5 l-77 0 ZM298 -12 q-58 0 -103.5 22.5 q-45.5 22.5 -71 61.5 q-25.5 39 -25.5 90 q0 43 14.5 74.5 q14.5 31.5 32.5 52.5 l77 0 q-29 -22 -44 -53.5 q-15 -31.5 -15 -68.5 q0 -55 39 -88 q39 -33 103 -33 q38 0 72 12.5 q34 12.5 60.5 40.5 q26.5 28 39.5 73 l67 0 q-12 -56 -48 -97 q-36 -41 -87 -64 q-51 -23 -111 -23 ZM62 268 l7 55 l535 0 l-8 -55 l-534 0 ZM83 423 l8 55 l534 0 l-7 -55 l-535 0 Z" /><glyph glyph-name="uni20AD" unicode="&#x20ad;" d="M565 0 l-215 356 l-1 38 l280 351 l78 0 l-291 -371 l224 -374 l-75 0 ZM95 0 l104 745 l65 0 l-104 -745 l-65 0 ZM59 345 l8 55 l592 0 l-8 -55 l-592 0 Z" /><glyph glyph-name="uni20BE" unicode="&#x20be;" d="M59 0 l9 60 l194 0 l-12 -12 q-72 43 -117.5 116 q-45.5 73 -45.5 176 q0 87 30.5 163 q30.5 76 85 133 q54.5 57 126.5 89 q72 32 156 32 q85 0 155.5 -32.5 q70.5 -32.5 116.5 -92 q46 -59.5 55 -140.5 l-70 0 q-8 63 -45 108.5 q-37 45.5 -93 70.5 q-56 25 -123 25 q-68 0 -127.5 -27 q-59.5 -27 -105 -74.5 q-45.5 -47.5 -71 -110 q-25.5 -62.5 -25.5 -133.5 q0 -57 18.5 -109.5 q18.5 -52.5 54.5 -93 q36 -40.5 87.5 -64.5 q51.5 -24 117.5 -24 l334 0 l-9 -60 l-696 0 ZM347 492 l49 353 l58 0 l-50 -353 l-57 0 ZM502 492 l49 353 l58 0 l-50 -353 l-57 0 Z" /><glyph glyph-name="lira" unicode="&#x20a4;" d="M11 0 l7 58 l100 0 l68 481 q10 66 44 115 q34 49 87.5 76 q53.5 27 119.5 27 q61 0 106.5 -23 q45.5 -23 71.5 -66.5 q26 -43.5 26 -104.5 l-60 -9 q1 71 -37.5 108.5 q-38.5 37.5 -106.5 37.5 q-74 0 -124.5 -44.5 q-50.5 -44.5 -61.5 -120.5 l-67 -477 l343 0 l-7 -58 l-509 0 ZM70 423 l8 55 l349 0 l-8 -55 l-349 0 ZM48 268 l8 55 l349 0 l-7 -55 l-350 0 Z" /><glyph glyph-name="uni20BA" unicode="&#x20ba;" d="M101 0 l104 745 l66 0 l-96 -685 l36 0 q102 0 178.5 51 q76.5 51 114.5 135 l72 0 q-27 -72 -78.5 -127.5 q-51.5 -55.5 -124.5 -87 q-73 -31.5 -165 -31.5 l-107 0 ZM71 435 l9 58 l382 109 l-9 -58 l-382 -109 ZM47 258 l8 58 l382 110 l-9 -58 l-381 -110 Z" /><glyph glyph-name="uni20BC" unicode="&#x20bc;" d="M54 0 l54 394 q11 77 50.5 134.5 q39.5 57.5 100.5 90 q61 32.5 137 32.5 q79 0 133 -33.5 q54 -33.5 79.5 -92 q25.5 -58.5 14.5 -135.5 l-55 -390 l-65 0 l55 395 q8 59 -10.5 103 q-18.5 44 -58.5 68.5 q-40 24.5 -96 24.5 q-56 0 -103 -24.5 q-47 -24.5 -78 -69 q-31 -44.5 -40 -104.5 l-54 -393 l-64 0 ZM286 0 l118 845 l58 0 l-118 -845 l-58 0 Z" /><glyph glyph-name="uni20A6" unicode="&#x20a6;" d="M91 0 l104 745 l64 0 l295 -672 l-18 0 l94 672 l60 0 l-104 -745 l-65 0 l-295 676 l20 0 l-95 -676 l-60 0 ZM59 345 l8 55 l655 0 l-8 -55 l-655 0 Z" /><glyph glyph-name="peseta" unicode="&#x20a7;" d="M91 0 l104 745 l238 0 q64 0 113.5 -25.5 q49.5 -25.5 77 -72.5 q27.5 -47 27.5 -112 q0 -67 -33 -121.5 q-33 -54.5 -91.5 -86.5 q-58.5 -32 -136.5 -32 l-193 0 l-41 -295 l-65 0 ZM205 355 l189 0 q57 0 100 24.5 q43 24.5 67.5 65.5 q24.5 41 24.5 91 q0 69 -43 109 q-43 40 -114 40 l-177 0 l-47 -330 ZM80 493 l7 55 l630 0 l-7 -55 l-630 0 Z" /><glyph glyph-name="uni20B1" unicode="&#x20b1;" d="M91 0 l104 745 l238 0 q64 0 113.5 -25.5 q49.5 -25.5 77 -72.5 q27.5 -47 27.5 -112 q0 -67 -33 -121.5 q-33 -54.5 -91.5 -86.5 q-58.5 -32 -136.5 -32 l-193 0 l-41 -295 l-65 0 ZM205 355 l189 0 q57 0 100 24.5 q43 24.5 67.5 65.5 q24.5 41 24.5 91 q0 69 -43 109 q-43 40 -114 40 l-177 0 l-47 -330 ZM69 420 l8 55 l630 0 l-8 -55 l-630 0 ZM90 565 l7 55 l630 0 l-7 -55 l-630 0 Z" /><glyph glyph-name="uni20BD" unicode="&#x20bd;" d="M91 0 l41 295 l-80 0 l8 55 l80 0 l55 395 l238 0 q64 0 113.5 -25.5 q49.5 -25.5 77 -72.5 q27.5 -47 27.5 -112 q0 -67 -33 -121.5 q-33 -54.5 -91.5 -86.5 q-58.5 -32 -136.5 -32 l-193 0 l-41 -295 l-65 0 ZM205 355 l189 0 q57 0 100 24.5 q43 24.5 67.5 65.5 q24.5 41 24.5 91 q0 69 -43 109 q-43 40 -114 40 l-177 0 l-47 -330 ZM31 145 l7 55 l345 0 l-7 -55 l-345 0 Z" /><glyph glyph-name="uni20B9" unicode="&#x20b9;" d="M461 0 l-363 295 l9 60 l254 0 q57 0 100 24.5 q43 24.5 67.5 65.5 q24.5 41 24.5 91 q0 69 -43 109 q-43 40 -114 40 l-243 0 l9 60 l550 0 l-8 -55 l-185 0 l18 14 q38 -26 59.5 -69 q21.5 -43 21.5 -100 q0 -67 -33 -121.5 q-33 -54.5 -91.5 -86.5 q-58.5 -32 -136.5 -32 l-192 0 l9 23 l384 -318 l-97 0 ZM126 493 l8 55 l550 0 l-7 -55 l-551 0 Z" /><glyph glyph-name="uni20AA" unicode="&#x20aa;" d="M195 0 l86 614 l66 0 l-79 -556 l182 0 q12 0 22 9.5 q10 9.5 12 22.5 l92 655 l65 0 l-94 -667 q-4 -35 -29 -56.5 q-25 -21.5 -60 -21.5 l-263 0 ZM57 0 l104 745 l260 0 q35 0 55 -23.5 q20 -23.5 15 -58.5 l-74 -532 l-66 0 l74 528 q2 13 -4 20.5 q-6 7.5 -18 7.5 l-185 0 l-96 -687 l-65 0 Z" /><glyph glyph-name="sterling" unicode="£" d="M11 0 l8 58 l100 0 l68 481 q9 66 43.5 115 q34.5 49 88 76 q53.5 27 118.5 27 q61 0 107 -23 q46 -23 72 -66.5 q26 -43.5 25 -104.5 l-60 -9 q1 71 -37 108.5 q-38 37.5 -107 37.5 q-74 0 -124 -44.5 q-50 -44.5 -61 -120.5 l-67 -477 l343 0 l-8 -58 l-509 0 ZM59 351 l8 55 l350 0 l-8 -55 l-350 0 Z" /><glyph glyph-name="uni20B8" unicode="&#x20b8;" d="M189 0 l78 560 l-208 0 l8 60 l480 0 l-8 -60 l-206 0 l-79 -560 l-65 0 ZM77 690 l7 55 l480 0 l-7 -55 l-480 0 Z" /><glyph glyph-name="uni20AE" unicode="&#x20ae;" d="M189 0 l96 685 l-209 0 l8 60 l480 0 l-8 -60 l-206 0 l-96 -685 l-65 0 ZM86 355 l8 58 l382 109 l-8 -58 l-382 -109 ZM61 178 l9 58 l381 110 l-8 -58 l-382 -110 Z" /><glyph glyph-name="uni20A9" unicode="&#x20a9;" d="M175 0 l-82 745 l63 0 l69 -684 l-18 1 l285 683 l65 0 l94 -683 l-22 -1 l260 684 l67 0 l-291 -745 l-65 0 l-94 688 l26 0 l-287 -688 l-70 0 ZM28 345 l8 55 l880 0 l-8 -55 l-880 0 Z" /><glyph glyph-name="yen" unicode="¥" d="M243 0 l47 340 l-206 405 l69 0 l188 -362 l-30 2 l285 360 l79 0 l-319 -405 l-47 -340 l-66 0 ZM143 308 l8 55 l349 0 l-7 -55 l-350 0 ZM121 153 l8 55 l349 0 l-7 -55 l-350 0 Z" /><glyph glyph-name="uni2219" unicode="&#x2219;" d="M214 248 q-32 0 -57.5 14.5 q-25.5 14.5 -40 39.5 q-14.5 25 -14.5 58 q0 37 18.5 68.5 q18.5 31.5 50.5 50 q32 18.5 69 18.5 q33 0 58 -14.5 q25 -14.5 39 -39.5 q14 -25 14 -56 q0 -38 -18.5 -69.5 q-18.5 -31.5 -50 -50.5 q-31.5 -19 -68.5 -19 Z" /><glyph glyph-name="uni2215" unicode="&#x2215;" d="M-7 -60 l460 865 l74 0 l-460 -865 l-74 0 Z" /><glyph glyph-name="uni208C" unicode="&#x208c;" d="M83 314 l7 54 l315 0 l-7 -54 l-315 0 ZM60 148 l7 54 l315 0 l-7 -54 l-315 0 Z" /><glyph glyph-name="uni207C" unicode="&#x207c;" d="M114 537 l8 54 l315 0 l-8 -54 l-315 0 ZM91 371 l8 54 l315 0 l-8 -54 l-315 0 Z" /><glyph glyph-name="uni208B" unicode="&#x208b;" d="M72 234 l7 54 l315 0 l-7 -54 l-315 0 Z" /><glyph glyph-name="uni207B" unicode="&#x207b;" d="M103 457 l7 54 l315 0 l-7 -54 l-315 0 Z" /><glyph glyph-name="plus" unicode="+" d="M234 0 l31 221 l-220 0 l8 60 l220 0 l31 219 l61 0 l-31 -219 l219 0 l-8 -60 l-219 0 l-31 -221 l-61 0 Z" /><glyph glyph-name="minus" unicode="&#x2212;" d="M70 221 l8 60 l450 0 l-8 -60 l-450 0 Z" /><glyph glyph-name="multiply" unicode="×" d="M97 0 l-41 45 l194 171 l-143 166 l47 42 l143 -166 l193 169 l40 -45 l-192 -169 l146 -171 l-47 -42 l-146 170 l-194 -170 Z" /><glyph glyph-name="divide" unicode="÷" d="M45 221 l8 60 l500 0 l-8 -60 l-500 0 ZM230 0 l13 91 l67 0 l-12 -91 l-68 0 ZM288 410 l12 90 l68 0 l-13 -90 l-67 0 Z" /><glyph glyph-name="equal" unicode="=" d="M86 339 l9 60 l450 0 l-9 -60 l-450 0 ZM53 104 l9 60 l450 0 l-9 -60 l-450 0 Z" /><glyph glyph-name="notequal" unicode="&#x2260;" d="M86 339 l9 60 l450 0 l-9 -60 l-450 0 ZM53 104 l9 60 l450 0 l-9 -60 l-450 0 ZM395 499 l62 0 l-251 -496 l-62 0 l251 496 Z" /><glyph glyph-name="greater" unicode="&gt;" d="M37 45 l9 68 l375 170 l-1 -31 l-329 174 l8 61 l371 -195 l-8 -52 l-425 -195 Z" /><glyph glyph-name="less" unicode="&lt;" d="M503 45 l-371 195 l8 52 l425 195 l-9 -68 l-375 -171 l1 31 l329 -174 l-8 -60 Z" /><glyph glyph-name="greaterequal" unicode="&#x2265;" d="M48 123 l9 67 l354 128 l0 -25 l-320 131 l8 61 l376 -155 l-7 -52 l-420 -155 ZM31 0 l9 58 l398 0 l-9 -58 l-398 0 Z" /><glyph glyph-name="lessequal" unicode="&#x2264;" d="M515 123 l-376 155 l7 52 l420 155 l-9 -68 l-354 -128 l0 26 l320 -132 l-8 -60 ZM99 0 l9 58 l398 0 l-9 -58 l-398 0 Z" /><glyph glyph-name="plusminus" unicode="±" d="M255 145 l26 186 l-220 0 l8 60 l221 0 l26 184 l60 0 l-26 -184 l219 0 l-8 -60 l-219 0 l-26 -186 l-61 0 ZM14 0 l9 60 l500 0 l-9 -60 l-500 0 Z" /><glyph glyph-name="approxequal" unicode="&#x2248;" d="M60 312 l6 63 q32 31 71.5 44.5 q39.5 13.5 78.5 13.5 q37 0 61.5 -9 q24.5 -9 45 -20 q20.5 -11 42.5 -20 q22 -9 54 -9 q42 0 83 17 q41 17 71 44 l-6 -64 q-31 -28 -68.5 -42.5 q-37.5 -14.5 -80.5 -14.5 q-37 0 -62 9 q-25 9 -45 20 q-20 11 -42.5 20 q-22.5 9 -54.5 9 q-41 0 -82 -17 q-41 -17 -72 -44 ZM32 108 l5 63 q31 28 69 43 q38 15 81 15 q37 0 62 -9 q25 -9 45 -20 q20 -11 42.5 -20 q22.5 -9 53.5 -9 q43 0 83.5 17 q40.5 17 70.5 44 l-6 -64 q-31 -28 -69 -42.5 q-38 -14.5 -80 -14.5 q-37 0 -62 9 q-25 9 -45 20 q-20 11 -42 20 q-22 9 -54 9 q-42 0 -83 -17 q-41 -17 -71 -44 Z" /><glyph glyph-name="asciitilde" unicode="~" d="M394 212 q-34 0 -56 11.5 q-22 11.5 -39.5 26.5 q-17.5 15 -36 26.5 q-18.5 11.5 -44.5 11.5 q-29 0 -52 -17.5 q-23 -17.5 -33 -56.5 l-55 0 q9 64 49.5 97.5 q40.5 33.5 87.5 33.5 q34 0 56.5 -11.5 q22.5 -11.5 40 -26.5 q17.5 -15 36 -26.5 q18.5 -11.5 43.5 -11.5 q28 0 50 17 q22 17 33 57 l55 0 q-10 -64 -48.5 -97.5 q-38.5 -33.5 -86.5 -33.5 Z" /><glyph glyph-name="logicalnot" unicode="¬" d="M460 40 l25 181 l-440 0 l8 60 l500 0 l-33 -241 l-60 0 Z" /><glyph glyph-name="asciicircum" unicode="^" d="M129 427 l212 318 l53 0 l124 -318 l-66 0 l-103 272 l33 0 l-181 -272 l-72 0 Z" /><glyph glyph-name="infinity" unicode="&#x221e;" d="M243 90 q-47 0 -85 20 q-38 20 -59.5 55 q-21.5 35 -21.5 79 q0 53 27.5 96.5 q27.5 43.5 73.5 69.5 q46 26 101 26 q71 0 125 -41 q54 -41 87 -117 l-3 -30 q-48 -74 -111.5 -116 q-63.5 -42 -133.5 -42 ZM250 144 q52 0 98 31.5 q46 31.5 84 87.5 q-26 57 -65.5 88 q-39.5 31 -91.5 31 q-40 0 -72 -17.5 q-32 -17.5 -50.5 -47.5 q-18.5 -30 -18.5 -68 q0 -46 32 -75.5 q32 -29.5 84 -29.5 ZM646 90 q-71 0 -125.5 42 q-54.5 42 -86.5 116 l3 30 q48 75 111.5 116.5 q63.5 41.5 133.5 41.5 q47 0 84.5 -19.5 q37.5 -19.5 59.5 -54.5 q22 -35 22 -80 q0 -52 -27.5 -96 q-27.5 -44 -73 -70 q-45.5 -26 -101.5 -26 ZM650 144 q40 0 71.5 17.5 q31.5 17.5 50.5 48 q19 30.5 19 67.5 q0 47 -32 76 q-32 29 -84 29 q-53 0 -99 -31.5 q-46 -31.5 -83 -87.5 q26 -56 65.5 -87.5 q39.5 -31.5 91.5 -31.5 Z" /><glyph glyph-name="emptyset" unicode="&#x2205;" d="M448 -12 q-77 0 -143 27.5 q-66 27.5 -115 76.5 q-49 49 -76 114 q-27 65 -27 141 q0 84 32.5 158 q32.5 74 89.5 130.5 q57 56.5 131 89 q74 32.5 158 32.5 q77 0 142.5 -27.5 q65.5 -27.5 114.5 -77 q49 -49.5 76 -114.5 q27 -65 27 -140 q0 -85 -33 -159 q-33 -74 -90 -130.5 q-57 -56.5 -131 -88.5 q-74 -32 -156 -32 ZM448 47 q72 0 134.5 27.5 q62.5 27.5 111.5 75.5 q49 48 76.5 112 q27.5 64 27.5 137 q0 63 -22.5 117 q-22.5 54 -63 95 q-40.5 41 -95 64 q-54.5 23 -119.5 23 q-72 0 -135.5 -27.5 q-63.5 -27.5 -112 -75.5 q-48.5 -48 -76 -112 q-27.5 -64 -27.5 -136 q0 -84 39.5 -152.5 q39.5 -68.5 107.5 -108 q68 -39.5 154 -39.5 ZM73 0 l724 745 l75 0 l-724 -745 l-75 0 Z" /><glyph glyph-name="integral" unicode="&#x222b;" d="M40 -180 q-12 0 -23.5 2 q-11.5 2 -19.5 4 l4 54 q7 -1 17.5 -2 q10.5 -1 15.5 -1 q54 0 91.5 31.5 q37.5 31.5 47.5 99.5 l80 566 q9 61 36.5 101.5 q27.5 40.5 68 61 q40.5 20.5 87.5 20.5 q12 0 23.5 -2 q11.5 -2 18.5 -4 l-3 -53 q-7 2 -17.5 2.5 q-10.5 0.5 -16.5 0.5 q-53 0 -90.5 -31.5 q-37.5 -31.5 -47.5 -99.5 l-80 -566 q-8 -61 -36 -102 q-28 -41 -68.5 -61.5 q-40.5 -20.5 -87.5 -20.5 Z" /><glyph glyph-name="product" unicode="&#x220f;" d="M147 -100 l110 785 l-159 0 l8 60 l695 0 l-8 -60 l-156 0 l-110 -785 l-65 0 l110 785 l-250 0 l-110 -785 l-65 0 Z" /><glyph glyph-name="summation" unicode="&#x2211;" d="M-2 -100 l5 42 l340 411 l-7 -60 l-226 410 l6 42 l504 0 l-8 -60 l-454 0 l17 30 l220 -398 l-321 -387 l-18 30 l454 0 l-8 -60 l-504 0 Z" /><glyph glyph-name="radical" unicode="&#x221a;" d="M288 -100 l-151 504 l45 -33 l-125 0 l9 60 l132 0 l142 -482 l-30 0 l458 796 l139 0 l-8 -60 l-124 0 l55 33 l-476 -818 l-66 0 Z" /><glyph glyph-name="uni00B5" unicode="µ" d="M15 -140 l94 671 l61 0 l-48 -336 q-6 -47 8 -80 q14 -33 44.5 -50.5 q30.5 -17.5 70.5 -17.5 q47 0 84.5 21.5 q37.5 21.5 61.5 59.5 q24 38 31 86 l45 317 l60 0 l-75 -531 l-60 0 l14 108 l9 -17 q-26 -48 -73.5 -75.5 q-47.5 -27.5 -105.5 -27.5 q-47 0 -86.5 20 q-39.5 20 -61.5 55 l18 16 l-30 -219 l-61 0 Z" /><glyph glyph-name="partialdiff" unicode="&#x2202;" d="M299 -12 q-70 0 -124 31.5 q-54 31.5 -84.5 87 q-30.5 55.5 -30.5 126.5 q0 84 38.5 151 q38.5 67 105.5 105.5 q67 38.5 151 38.5 q41 0 76.5 -9 q35.5 -9 67 -26 q31.5 -17 57.5 -40 l-7 -56 q-35 37 -89.5 56 q-54.5 19 -104.5 19 q-66 0 -118.5 -31 q-52.5 -31 -82.5 -84 q-30 -53 -30 -121 q0 -56 23 -99 q23 -43 63 -67.5 q40 -24.5 91 -24.5 q70 0 122 41 q52 41 81 115 q29 74 29 172 q0 69 -18.5 134 q-18.5 65 -54.5 116.5 q-36 51.5 -89 82 q-53 30.5 -121 30.5 q-23 0 -50.5 -4.5 q-27.5 -4.5 -56.5 -15.5 l-8 59 q31 11 62 15.5 q31 4.5 59 4.5 q85 0 148.5 -36 q63.5 -36 106 -96 q42.5 -60 63.5 -135 q21 -75 21 -152 q0 -115 -37.5 -202.5 q-37.5 -87.5 -104 -136.5 q-66.5 -49 -154.5 -49 Z" /><glyph glyph-name="percent" unicode="%" d="M108 0 l717 745 l79 0 l-717 -745 l-79 0 ZM271 376 q-49 0 -89.5 23.5 q-40.5 23.5 -64 64 q-23.5 40.5 -23.5 89.5 q0 55 28 101.5 q28 46.5 74.5 74.5 q46.5 28 101.5 28 q49 0 89 -23.5 q40 -23.5 63.5 -63.5 q23.5 -40 23.5 -90 q0 -54 -28 -101 q-28 -47 -74 -75 q-46 -28 -101 -28 ZM275 434 q37 0 68 19.5 q31 19.5 51 52 q20 32.5 20 69.5 q0 32 -15 60.5 q-15 28.5 -42 46.5 q-27 18 -63 18 q-37 0 -69 -20.5 q-32 -20.5 -51.5 -52 q-19.5 -31.5 -19.5 -69.5 q0 -32 15.5 -60.5 q15.5 -28.5 43 -46 q27.5 -17.5 62.5 -17.5 ZM712 -12 q-49 0 -89.5 24 q-40.5 24 -64 64 q-23.5 40 -23.5 89 q0 55 28 101.5 q28 46.5 74.5 74.5 q46.5 28 101.5 28 q49 0 89 -23.5 q40 -23.5 63 -63.5 q23 -40 23 -90 q0 -54 -27.5 -101 q-27.5 -47 -73.5 -75 q-46 -28 -101 -28 ZM716 46 q37 0 68 19.5 q31 19.5 50.5 51.5 q19.5 32 19.5 70 q0 32 -15 60.5 q-15 28.5 -41.5 46.5 q-26.5 18 -62.5 18 q-36 0 -68 -20 q-32 -20 -52 -52 q-20 -32 -20 -70 q0 -32 15.5 -60.5 q15.5 -28.5 43 -46 q27.5 -17.5 62.5 -17.5 Z" /><glyph glyph-name="perthousand" unicode="&#x2030;" d="M108 0 l717 745 l79 0 l-717 -745 l-79 0 ZM271 376 q-49 0 -89.5 23.5 q-40.5 23.5 -64 64 q-23.5 40.5 -23.5 89.5 q0 55 28 101.5 q28 46.5 74.5 74.5 q46.5 28 101.5 28 q49 0 89 -23.5 q40 -23.5 63.5 -63.5 q23.5 -40 23.5 -90 q0 -54 -28 -101 q-28 -47 -74 -75 q-46 -28 -101 -28 ZM275 434 q37 0 68 19.5 q31 19.5 51 52 q20 32.5 20 69.5 q0 32 -15 60.5 q-15 28.5 -42 46.5 q-27 18 -63 18 q-37 0 -69 -20.5 q-32 -20.5 -51.5 -52 q-19.5 -31.5 -19.5 -69.5 q0 -32 15.5 -60.5 q15.5 -28.5 43 -46 q27.5 -17.5 62.5 -17.5 ZM712 -12 q-49 0 -89.5 24 q-40.5 24 -64 64 q-23.5 40 -23.5 89 q0 55 28 101.5 q28 46.5 74.5 74.5 q46.5 28 101.5 28 q49 0 89 -23.5 q40 -23.5 63 -63.5 q23 -40 23 -90 q0 -54 -27.5 -101 q-27.5 -47 -73.5 -75 q-46 -28 -101 -28 ZM716 46 q37 0 68 19.5 q31 19.5 50.5 51.5 q19.5 32 19.5 70 q0 32 -15 60.5 q-15 28.5 -41.5 46.5 q-26.5 18 -62.5 18 q-36 0 -68 -20 q-32 -20 -52 -52 q-20 -32 -20 -70 q0 -32 15.5 -60.5 q15.5 -28.5 43 -46 q27.5 -17.5 62.5 -17.5 ZM1145 -12 q-49 0 -89.5 24 q-40.5 24 -64 64 q-23.5 40 -23.5 89 q0 55 28.5 101.5 q28.5 46.5 75 74.5 q46.5 28 100.5 28 q50 0 89.5 -23.5 q39.5 -23.5 63 -63.5 q23.5 -40 23.5 -90 q0 -54 -28 -101 q-28 -47 -73.5 -75 q-45.5 -28 -101.5 -28 ZM1150 46 q36 0 67.5 19.5 q31.5 19.5 51 51.5 q19.5 32 19.5 70 q0 32 -15 60.5 q-15 28.5 -42 46.5 q-27 18 -62 18 q-37 0 -69 -20 q-32 -20 -51.5 -52 q-19.5 -32 -19.5 -70 q0 -32 15 -60.5 q15 -28.5 43 -46 q28 -17.5 63 -17.5 Z" /><glyph glyph-name="uni208A" unicode="&#x208a;" d="M174 85 l21 149 l-148 0 l7 54 l148 0 l21 147 l55 0 l-20 -147 l146 0 l-7 -54 l-148 0 l-20 -149 l-55 0 Z" /><glyph glyph-name="uni207A" unicode="&#x207a;" d="M205 308 l21 149 l-148 0 l7 54 l148 0 l21 147 l55 0 l-20 -147 l146 0 l-7 -54 l-148 0 l-20 -149 l-55 0 Z" /><glyph glyph-name="arrowup" unicode="&#x2191;" d="M62 270 l0 79 l240 258 l38 0 l253 -258 l0 -79 l-297 298 l50 1 l-284 -299 ZM294 0 l0 556 l58 0 l0 -556 l-58 0 Z" /><glyph glyph-name="uni2197" unicode="&#x2197;" d="M166 473 l355 0 l27 -27 l0 -353 l-60 -57 l0 415 l35 -35 l-415 0 l58 57 ZM477 446 l41 -41 l-393 -393 l-41 41 l393 393 Z" /><glyph glyph-name="arrowright" unicode="&#x2192;" d="M324 0 l298 298 l1 -50 l-299 283 l79 0 l258 -239 l0 -39 l-258 -253 l-79 0 ZM54 242 l0 57 l556 0 l0 -57 l-556 0 Z" /><glyph glyph-name="uni2198" unicode="&#x2198;" d="M152 0 l-58 58 l416 0 l-35 -36 l0 416 l60 -58 l0 -353 l-27 -27 l-356 0 ZM463 28 l-392 393 l40 40 l393 -392 l-41 -41 Z" /><glyph glyph-name="arrowdown" unicode="&#x2193;" d="M61 337 l283 -299 l-50 1 l298 298 l0 -79 l-253 -258 l-39 0 l-239 258 l0 79 ZM293 607 l57 0 l0 -556 l-57 0 l0 556 Z" /><glyph glyph-name="uni2199" unicode="&#x2199;" d="M502 0 l-356 0 l-27 27 l0 353 l60 58 l0 -416 l-35 36 l416 0 l-58 -58 ZM191 28 l-41 41 l393 392 l40 -40 l-392 -393 Z" /><glyph glyph-name="arrowleft" unicode="&#x2190;" d="M388 0 l-79 0 l-258 253 l0 39 l258 239 l79 0 l-299 -283 l1 50 l298 -298 ZM658 242 l-556 0 l0 57 l556 0 l0 -57 Z" /><glyph glyph-name="uni2196" unicode="&#x2196;" d="M511 473 l58 -57 l-416 0 l35 35 l0 -415 l-60 57 l0 353 l27 27 l356 0 ZM200 446 l392 -393 l-40 -41 l-393 393 l41 41 Z" /><glyph glyph-name="arrowboth" unicode="&#x2194;" d="M588 0 l299 298 l1 -50 l-300 283 l80 0 l257 -239 l0 -39 l-257 -253 l-80 0 ZM309 0 l-258 253 l0 39 l258 239 l79 0 l-299 -283 l1 50 l298 -298 l-79 0 ZM102 242 l0 57 l772 0 l0 -57 l-772 0 Z" /><glyph glyph-name="arrowupdn" unicode="&#x2195;" d="M99 272 l297 -298 l-50 -1 l284 299 l0 -79 l-240 -258 l-38 0 l-253 258 l0 79 ZM99 552 l253 257 l38 0 l240 -257 l0 -80 l-284 300 l50 -1 l-297 -299 l0 80 ZM340 758 l58 0 l0 -772 l-58 0 l0 772 Z" /><glyph glyph-name="uni21A9" unicode="&#x21a9;" d="M99 242 l0 57 l556 0 q70 0 113.5 37.5 q43.5 37.5 43.5 100.5 q0 60 -43.5 98 q-43.5 38 -113.5 38 l-10 0 l0 57 l10 0 q65 0 113 -24.5 q48 -24.5 75 -67.5 q27 -43 27 -101 q0 -59 -27 -103 q-27 -44 -75 -68 q-48 -24 -113 -24 l-556 0 ZM306 0 l-258 253 l0 39 l258 239 l79 0 l-299 -283 l1 50 l298 -298 l-79 0 Z" /><glyph glyph-name="uni21AA" unicode="&#x21aa;" d="M855 242 l-556 0 q-64 0 -112.5 24 q-48.5 24 -75.5 68.5 q-27 44.5 -27 102.5 q0 58 27 101.5 q27 43.5 75.5 67.5 q48.5 24 112.5 24 l10 0 l0 -57 l-10 0 q-71 0 -114 -37.5 q-43 -37.5 -43 -98.5 q0 -62 43 -100 q43 -38 114 -38 l556 0 l0 -57 ZM648 0 l-79 0 l298 298 l1 -50 l-299 283 l79 0 l258 -239 l0 -39 l-258 -253 Z" /><glyph glyph-name="uni21B0" unicode="&#x21b0;" d="M655 -100 l0 342 l-555 0 l0 57 l613 0 l0 -399 l-58 0 ZM306 0 l-257 253 l0 39 l257 239 l80 0 l-300 -283 l1 50 l299 -298 l-80 0 Z" /><glyph glyph-name="uni21B1" unicode="&#x21b1;" d="M148 -100 l-58 0 l0 399 l613 0 l0 -57 l-555 0 l0 -342 ZM497 0 l-80 0 l299 298 l1 -50 l-300 283 l80 0 l257 -239 l0 -39 l-257 -253 Z" /><glyph glyph-name="uni21B2" unicode="&#x21b2;" d="M99 242 l0 57 l556 0 l0 342 l57 0 l0 -399 l-613 0 ZM306 0 l-258 253 l0 39 l258 239 l79 0 l-299 -283 l1 50 l298 -298 l-79 0 Z" /><glyph glyph-name="uni21B3" unicode="&#x21b3;" d="M750 242 l-613 0 l0 399 l58 0 l0 -342 l555 0 l0 -57 ZM544 0 l-80 0 l299 298 l1 -50 l-300 283 l80 0 l257 -239 l0 -39 l-257 -253 Z" /><glyph glyph-name="uni2B0E" unicode="&#x2b0e;" d="M592 51 l0 532 l-498 0 l0 58 l556 0 l0 -590 l-58 0 ZM600 0 l-240 258 l0 79 l284 -299 l-50 1 l297 298 l0 -79 l-253 -258 l-38 0 Z" /><glyph glyph-name="uni2B10" unicode="&#x2b10;" d="M358 51 l-57 0 l0 590 l555 0 l0 -58 l-498 0 l0 -532 ZM351 0 l-39 0 l-253 258 l0 79 l298 -298 l-50 -1 l283 299 l0 -79 l-239 -258 Z" /><glyph glyph-name="uni25CF" unicode="&#x25cf;" d="M466 -12 q-79 0 -149 30 q-70 30 -122.5 82.5 q-52.5 52.5 -82.5 122.5 q-30 70 -30 149 q0 80 30 149.5 q30 69.5 82.5 122.5 q52.5 53 122.5 83 q70 30 149 30 q80 0 149.5 -30 q69.5 -30 122 -83 q52.5 -53 82.5 -122.5 q30 -69.5 30 -149.5 q0 -79 -30 -149 q-30 -70 -82.5 -122.5 q-52.5 -52.5 -122 -82.5 q-69.5 -30 -149.5 -30 Z" /><glyph glyph-name="circle" unicode="&#x25cb;" d="M466 -12 q-79 0 -149 30 q-70 30 -122.5 82.5 q-52.5 52.5 -82.5 122.5 q-30 70 -30 149 q0 80 30 149.5 q30 69.5 82.5 122.5 q52.5 53 122.5 83 q70 30 149 30 q80 0 149.5 -30 q69.5 -30 122 -83 q52.5 -53 82.5 -122.5 q30 -69.5 30 -149.5 q0 -79 -30 -149 q-30 -70 -82.5 -122.5 q-52.5 -52.5 -122 -82.5 q-69.5 -30 -149.5 -30 ZM465 38 q70 0 130.5 26 q60.5 26 106.5 71.5 q46 45.5 72 106.5 q26 61 26 130 q0 69 -26 130 q-26 61 -72 106.5 q-46 45.5 -106.5 72 q-60.5 26.5 -129.5 26.5 q-69 0 -130 -26.5 q-61 -26.5 -107 -72 q-46 -45.5 -71.5 -106.5 q-25.5 -61 -25.5 -130 q0 -69 25.5 -130 q25.5 -61 71.5 -106.5 q46 -45.5 106.5 -71.5 q60.5 -26 129.5 -26 Z" /><glyph glyph-name="uni25C6" unicode="&#x25c6;" d="M437 -12 l-385 385 l384 384 l385 -384 l-384 -385 Z" /><glyph glyph-name="uni25C7" unicode="&#x25c7;" d="M437 -12 l-385 385 l384 384 l385 -384 l-384 -385 ZM437 59 l313 314 l-314 313 l-313 -313 l314 -314 Z" /><glyph glyph-name="lozenge" unicode="&#x25ca;" d="M202 0 l-141 373 l245 372 l77 0 l143 -372 l-247 -373 l-77 0 ZM225 30 l232 348 l-129 337 l33 0 l-231 -346 l128 -339 l-33 0 Z" /><glyph glyph-name="filledbox" unicode="&#x25a0;" d="M178 0 l0 745 l745 0 l0 -745 l-745 0 Z" /><glyph glyph-name="uni25A1" unicode="&#x25a1;" d="M178 0 l0 745 l745 0 l0 -745 l-745 0 ZM228 50 l645 0 l0 645 l-645 0 l0 -645 Z" /><glyph glyph-name="triagup" unicode="&#x25b2;" d="M1 0 l375 757 l375 -757 l-750 0 Z" /><glyph glyph-name="uni25B6" unicode="&#x25b6;" d="M179 757 l776 -385 l-776 -384 l0 769 Z" /><glyph glyph-name="triagdn" unicode="&#x25bc;" d="M106 745 l750 0 l-375 -757 l-375 757 Z" /><glyph glyph-name="uni25C0" unicode="&#x25c0;" d="M828 757 l0 -769 l-776 384 l776 385 Z" /><glyph glyph-name="uni25B3" unicode="&#x25b3;" d="M1 0 l375 757 l375 -757 l-750 0 ZM81 50 l589 0 l-294 595 l-295 -595 Z" /><glyph glyph-name="uni25B7" unicode="&#x25b7;" d="M179 -12 l0 769 l776 -385 l-776 -384 ZM229 69 l614 303 l-614 305 l0 -608 Z" /><glyph glyph-name="uni25BD" unicode="&#x25bd;" d="M106 745 l750 0 l-375 -757 l-375 757 ZM186 695 l295 -594 l294 594 l-589 0 Z" /><glyph glyph-name="uni25C1" unicode="&#x25c1;" d="M828 -12 l-776 384 l776 385 l0 -769 ZM778 69 l0 608 l-613 -305 l613 -303 Z" /><glyph glyph-name="uni0308" unicode="&#x308;" d="M156 640 l12 88 l85 0 l-12 -88 l-85 0 ZM321 640 l12 88 l85 0 l-12 -88 l-85 0 Z" /><glyph glyph-name="uni0307" unicode="&#x307;" d="M156 640 l12 88 l85 0 l-12 -88 l-85 0 Z" /><glyph glyph-name="gravecomb" unicode="&#x300;" d="M266 640 l-89 150 l82 0 l67 -150 l-60 0 Z" /><glyph glyph-name="acutecomb" unicode="&#x301;" d="M156 640 l111 150 l82 0 l-133 -150 l-60 0 Z" /><glyph glyph-name="uni030B" unicode="&#x30b;" d="M156 640 l76 150 l77 0 l-98 -150 l-55 0 ZM306 640 l77 150 l77 0 l-98 -150 l-56 0 Z" /><glyph glyph-name="uni0302" unicode="&#x302;" d="M156 640 l144 150 l64 0 l101 -150 l-65 0 l-70 102 l-99 -102 l-75 0 Z" /><glyph glyph-name="uni030C" unicode="&#x30c;" d="M277 640 l-100 150 l64 0 l70 -101 l100 101 l75 0 l-145 -150 l-64 0 Z" /><glyph glyph-name="uni0306" unicode="&#x306;" d="M308 640 q-47 0 -78.5 18.5 q-31.5 18.5 -45.5 51.5 q-14 33 -8 75 l59 0 q-6 -43 13.5 -69 q19.5 -26 61.5 -26 q42 0 69 26 q27 26 33 69 l59 0 q-6 -42 -27 -75 q-21 -33 -55 -51.5 q-34 -18.5 -81 -18.5 Z" /><glyph glyph-name="uni030A" unicode="&#x30a;" d="M254 620 q-37 0 -62.5 22.5 q-25.5 22.5 -25.5 62.5 q0 32 15.5 58.5 q15.5 26.5 42.5 42.5 q27 16 59 16 q38 0 63.5 -23.5 q25.5 -23.5 25.5 -61.5 q0 -32 -15.5 -58.5 q-15.5 -26.5 -42.5 -42.5 q-27 -16 -60 -16 ZM261 665 q26 0 45 19.5 q19 19.5 19 45.5 q0 21 -14 33.5 q-14 12.5 -34 12.5 q-26 0 -44.5 -19 q-18.5 -19 -18.5 -46 q0 -21 13.5 -33.5 q13.5 -12.5 33.5 -12.5 Z" /><glyph glyph-name="tildecomb" unicode="&#x303;" d="M364 640 q-25 0 -40 10 q-15 10 -24.5 23.5 q-9.5 13.5 -19 23.5 q-9.5 10 -26.5 10 q-17 0 -29 -14.5 q-12 -14.5 -17 -48.5 l-51 0 q5 36 19.5 62 q14.5 26 37 39.5 q22.5 13.5 49.5 13.5 q26 0 40 -10 q14 -10 23.5 -23.5 q9.5 -13.5 19.5 -23.5 q10 -10 27 -10 q20 0 33 16 q13 16 17 47 l50 0 q-7 -51 -36.5 -83 q-29.5 -32 -72.5 -32 Z" /><glyph glyph-name="uni0304" unicode="&#x304;" d="M159 660 l8 55 l260 0 l-8 -55 l-260 0 Z" /><glyph glyph-name="hookabovecomb" unicode="&#x309;" d="M245 600 l-22 36 q26 9 41 26 q15 17 15 38 q0 17 -13 28 q-13 11 -34 11 q-13 0 -25.5 -2.5 q-12.5 -2.5 -28.5 -10.5 l-4 41 q17 10 36.5 14 q19.5 4 35.5 4 q41 0 65 -20.5 q24 -20.5 24 -54.5 q0 -23 -12 -44.5 q-12 -21.5 -32 -38.5 q-20 -17 -46 -27 Z" /><glyph glyph-name="uni030F" unicode="&#x30f;" d="M267 640 l-90 149 l77 0 l68 -149 l-55 0 ZM417 640 l-90 149 l77 0 l69 -149 l-56 0 Z" /><glyph glyph-name="uni0311" unicode="&#x311;" d="M156 640 q6 42 26 75 q20 33 55 51.5 q35 18.5 82 18.5 q49 0 80 -19.5 q31 -19.5 44 -52 q13 -32.5 7 -73.5 l-58 0 q6 44 -13.5 69.5 q-19.5 25.5 -61.5 25.5 q-43 0 -69.5 -25.5 q-26.5 -25.5 -32.5 -69.5 l-59 0 Z" /><glyph glyph-name="uni0312" unicode="&#x312;" d="M150 600 l85 167 l52 0 l-69 -167 l-68 0 Z" /><glyph glyph-name="uni031B" unicode="&#x31b;" d="M156 640 l7 51 l13 0 q20 0 33.5 8.5 q13.5 8.5 20.5 24.5 q7 16 7 39 q0 12 -2.5 26.5 q-2.5 14.5 -8.5 36.5 l59 0 q5 -18 8 -34 q3 -16 3 -33 q0 -54 -32.5 -86.5 q-32.5 -32.5 -88.5 -32.5 l-19 0 Z" /><glyph glyph-name="dotbelowcomb" unicode="&#x323;" d="M41 -177 l12 87 l85 0 l-12 -87 l-85 0 Z" /><glyph glyph-name="uni0324" unicode="&#x324;" d="M41 -177 l12 87 l85 0 l-12 -87 l-85 0 ZM206 -177 l12 87 l85 0 l-12 -87 l-85 0 Z" /><glyph glyph-name="uni0326" unicode="&#x326;" d="M33 -236 l69 166 l67 0 l-84 -166 l-52 0 Z" /><glyph glyph-name="uni0327" unicode="&#x327;" d="M135 -225 q-27 0 -53 10 q-26 10 -42 28 l23 43 q14 -16 33.5 -24.5 q19.5 -8.5 38.5 -8.5 q24 0 41 14.5 q17 14.5 17 35.5 q0 23 -24 35.5 q-24 12.5 -68 16.5 l36 85 l49 0 l-22 -53 q43 -9 65 -30 q22 -21 22 -51 q0 -28 -16 -51 q-16 -23 -42 -36.5 q-26 -13.5 -58 -13.5 Z" /><glyph glyph-name="uni0328" unicode="&#x328;" d="M140 -225 q-42 0 -68 21 q-26 21 -26 57 q0 35 20.5 68.5 q20.5 33.5 54.5 59.5 q34 26 76 37 l24 0 l-3 -18 q-29 -9 -54.5 -31 q-25.5 -22 -42 -49.5 q-16.5 -27.5 -16.5 -53.5 q0 -19 12.5 -31 q12.5 -12 35.5 -12 q20 0 41.5 8.5 q21.5 8.5 39.5 24.5 l12 -43 q-21 -18 -49 -28 q-28 -10 -57 -10 Z" /><glyph glyph-name="uni032E" unicode="&#x32e;" d="M185 -235 q-48 0 -79.5 19 q-31.5 19 -44.5 52 q-13 33 -8 74 l59 0 q-6 -43 13.5 -69 q19.5 -26 61.5 -26 q43 0 69.5 26 q26.5 26 32.5 69 l59 0 q-6 -42 -26.5 -75 q-20.5 -33 -55 -51.5 q-34.5 -18.5 -81.5 -18.5 Z" /><glyph glyph-name="uni0331" unicode="&#x331;" d="M44 -155 l8 55 l260 0 l-8 -55 l-260 0 Z" /></font>
</defs>
</svg>
